  0
SECTION
  2
HEADER
  9
$ACADVER
  1
AC1015
  9
$ACADMAINTVER
 70
     6
  9
$DWGCODEPAGE
  3
ANSI_1252
  9
$INSBASE
 10
0.0
 20
0.0
 30
0.0
  9
$EXTMIN
 10
0.0
 20
0.0
 30
0.0
  9
$EXTMAX
 10
574.316772
 20
410.785034
 30
2.0
  9
$LIMMIN
 10
0.0
 20
0.0
  9
$LIMMAX
 10
420.0
 20
297.0
  9
$ORTHOMODE
 70
     0
  9
$REGENMODE
 70
     1
  9
$FILLMODE
 70
     1
  9
$QTEXTMODE
 70
     0
  9
$MIRRTEXT
 70
     1
  9
$LTSCALE
 40
1.0
  9
$ATTMODE
 70
     1
  9
$TEXTSIZE
 40
2.5
  9
$TRACEWID
 40
1.0
  9
$TEXTSTYLE
  7
Standard
  9
$CLAYER
  8
0
  9
$CELTYPE
  6
ByLayer
  9
$CECOLOR
 62
   256
  9
$CELTSCALE
 40
1.0
  9
$DISPSILH
 70
     0
  9
$DIMSCALE
 40
1.0
  9
$DIMASZ
 40
2.5
  9
$DIMEXO
 40
0.625
  9
$DIMDLI
 40
3.75
  9
$DIMRND
 40
0.0
  9
$DIMDLE
 40
0.0
  9
$DIMEXE
 40
1.25
  9
$DIMTP
 40
0.0
  9
$DIMTM
 40
0.0
  9
$DIMTXT
 40
2.5
  9
$DIMCEN
 40
2.5
  9
$DIMTSZ
 40
0.0
  9
$DIMTOL
 70
     0
  9
$DIMLIM
 70
     0
  9
$DIMTIH
 70
     0
  9
$DIMTOH
 70
     0
  9
$DIMSE1
 70
     0
  9
$DIMSE2
 70
     0
  9
$DIMTAD
 70
     1
  9
$DIMZIN
 70
     8
  9
$DIMBLK
  1

  9
$DIMASO
 70
     1
  9
$DIMSHO
 70
     1
  9
$DIMPOST
  1

  9
$DIMAPOST
  1

  9
$DIMALT
 70
     0
  9
$DIMALTD
 70
     3
  9
$DIMALTF
 40
0.03937
  9
$DIMLFAC
 40
1.0
  9
$DIMTOFL
 70
     1
  9
$DIMTVP
 40
0.0
  9
$DIMTIX
 70
     0
  9
$DIMSOXD
 70
     0
  9
$DIMSAH
 70
     0
  9
$DIMBLK1
  1

  9
$DIMBLK2
  1

  9
$DIMSTYLE
  2

  9
$DIMCLRD
 70
     0
  9
$DIMCLRE
 70
     0
  9
$DIMCLRT
 70
     0
  9
$DIMTFAC
 40
1.0
  9
$DIMGAP
 40
0.625
  9
$DIMJUST
 70
     0
  9
$DIMSD1
 70
     0
  9
$DIMSD2
 70
     0
  9
$DIMTOLJ
 70
     0
  9
$DIMTZIN
 70
     8
  9
$DIMALTZ
 70
     0
  9
$DIMALTTZ
 70
     0
  9
$DIMUPT
 70
     0
  9
$DIMDEC
 70
     2
  9
$DIMTDEC
 70
     2
  9
$DIMALTU
 70
     2
  9
$DIMALTTD
 70
     3
  9
$DIMTXSTY
  7
Standard
  9
$DIMAUNIT
 70
     0
  9
$DIMADEC
 70
     0
  9
$DIMALTRND
 40
0.0
  9
$DIMAZIN
 70
     0
  9
$DIMDSEP
 70
    44
  9
$DIMATFIT
 70
     0
  9
$DIMFRAC
 70
     0
  9
$DIMLDRBLK
  1

  9
$DIMLUNIT
 70
     2
  9
$DIMLWD
 70
    -2
  9
$DIMLWE
 70
    -2
  9
$DIMTMOVE
 70
     0
  9
$LUNITS
 70
     2
  9
$LUPREC
 70
     4
  9
$SKETCHINC
 40
1.0
  9
$FILLETRAD
 40
2.5
  9
$AUNITS
 70
     0
  9
$AUPREC
 70
     0
  9
$MENU
  1
.
  9
$ELEVATION
 40
0.0
  9
$PELEVATION
 40
0.0
  9
$THICKNESS
 40
0.0
  9
$LIMCHECK
 70
     0
  9
$CHAMFERA
 40
2.5
  9
$CHAMFERB
 40
2.5
  9
$CHAMFERC
 40
0.0
  9
$CHAMFERD
 40
0.0
  9
$SKPOLY
 70
     0
  9
$TDCREATE
 40
0.000000000
  9
$TDUCREATE
 40
0.000000000
  9
$TDUPDATE
 40
0.000000000
  9
$TDUUPDATE
 40
0.000000000
  9
$TDINDWG
 40
0.0000000000
  9
$TDUSRTIMER
 40
0.0000000000
  9
$USRTIMER
 70
     1
  9
$ANGBASE
 50
0.0
  9
$ANGDIR
 70
     0
  9
$PDMODE
 70
     0
  9
$PDSIZE
 40
0.0
  9
$PLINEWID
 40
0.0
  9
$SPLFRAME
 70
     0
  9
$SPLINETYPE
 70
     6
  9
$SPLINESEGS
 70
     8
  9
$HANDSEED
  5
129
  9
$SURFTAB1
 70
     6
  9
$SURFTAB2
 70
     6
  9
$SURFTYPE
 70
     6
  9
$SURFU
 70
     6
  9
$SURFV
 70
     6
  9
$UCSBASE
  2

  9
$UCSNAME
  2

  9
$UCSORG
 10
0.0
 20
0.0
 30
0.0
  9
$UCSXDIR
 10
1.0
 20
0.0
 30
0.0
  9
$UCSYDIR
 10
0.0
 20
1.0
 30
0.0
  9
$UCSORTHOREF
  2

  9
$UCSORTHOVIEW
 70
     1
  9
$UCSORGTOP
 10
0.0
 20
0.0
 30
0.0
  9
$UCSORGBOTTOM
 10
0.0
 20
0.0
 30
0.0
  9
$UCSORGLEFT
 10
0.0
 20
0.0
 30
0.0
  9
$UCSORGRIGHT
 10
0.0
 20
0.0
 30
0.0
  9
$UCSORGFRONT
 10
0.0
 20
0.0
 30
0.0
  9
$UCSORGBACK
 10
0.0
 20
0.0
 30
0.0
  9
$PUCSBASE
  2

  9
$PUCSNAME
  2

  9
$PUCSORG
 10
0.0
 20
0.0
 30
0.0
  9
$PUCSXDIR
 10
1.0
 20
0.0
 30
0.0
  9
$PUCSYDIR
 10
0.0
 20
1.0
 30
0.0
  9
$PUCSORTHOREF
  2

  9
$PUCSORTHOVIEW
 70
     0
  9
$PUCSORGTOP
 10
0.0
 20
0.0
 30
0.0
  9
$PUCSORGBOTTOM
 10
0.0
 20
0.0
 30
0.0
  9
$PUCSORGLEFT
 10
0.0
 20
0.0
 30
0.0
  9
$PUCSORGRIGHT
 10
0.0
 20
0.0
 30
0.0
  9
$PUCSORGFRONT
 10
0.0
 20
0.0
 30
0.0
  9
$PUCSORGBACK
 10
0.0
 20
0.0
 30
0.0
  9
$USERI1
 70
     0
  9
$USERI2
 70
     0
  9
$USERI3
 70
     0
  9
$USERI4
 70
     0
  9
$USERI5
 70
     0
  9
$USERR1
 40
0.0
  9
$USERR2
 40
0.0
  9
$USERR3
 40
0.0
  9
$USERR4
 40
0.0
  9
$USERR5
 40
0.0
  9
$WORLDVIEW
 70
     1
  9
$SHADEDGE
 70
     3
  9
$SHADEDIF
 70
    70
  9
$TILEMODE
 70
     1
  9
$MAXACTVP
 70
    48
  9
$PINSBASE
 10
0.0
 20
0.0
 30
0.0
  9
$PLIMCHECK
 70
     0
  9
$PEXTMIN
 10
0.0
 20
0.0
 30
0.0
  9
$PEXTMAX
 10
574.316772
 20
410.785034
 30
2.0
  9
$PLIMMIN
 10
0.0
 20
0.0
  9
$PLIMMAX
 10
420.0
 20
297.0
  9
$UNITMODE
 70
     0
  9
$VISRETAIN
 70
     0
  9
$PLINEGEN
 70
     0
  9
$PSLTSCALE
 70
     1
  9
$TREEDEPTH
 70
  3020
  9
$CMLSTYLE
  2
Standard
  9
$CMLJUST
 70
     0
  9
$CMLSCALE
 40
20.0
  9
$PROXYGRAPHICS
 70
     1
  9
$MEASUREMENT
 70
     1
  9
$CELWEIGHT
370
    -1
  9
$ENDCAPS
280
     0
  9
$JOINSTYLE
280
     0
  9
$LWDISPLAY
290
     0
  9
$INSUNITS
 70
     0
  9
$HYPERLINKBASE
  1

  9
$STYLESHEET
  1

  9
$XEDIT
290
     1
  9
$CEPSNTYPE
380
     0
  9
$PSTYLEMODE
290
     0
  9
$FINGERPRINTGUID
  2

  9
$VERSIONGUID
  2

  9
$EXTNAMES
290
     0
  9
$PSVPSCALE
 40
0.0
  0
ENDSEC
  0
SECTION
  2
CLASSES
  0
CLASS
  1
LWPOLYLINE
  2
AcDbPolyline
  3
AutoCAD 2000
 90
        0
280
     0
281
     1
  0
CLASS
  1
IMAGE
  2
AcDbRasterImage
  3
ISM
 90
      127
280
     0
281
     1
  0
CLASS
  1
OLE2FRAME
  2
AcDbOle2Frame
  3
AutoCAD 2000
 90
        0
280
     0
281
     1
  0
CLASS
  1
HATCH
  2
AcDbHatch
  3
AutoCAD 2000
 90
        0
280
     0
281
     1
  0
CLASS
  1
DICTIONARYVAR
  2
AcDbDictionaryVar
  3
AutoCAD 2000
 90
        0
280
     0
281
     0
  0
CLASS
  1
RASTERVARIABLES
  2
AcDbRasterVariables
  3
ISM
 90
        0
280
     0
281
     0
  0
CLASS
  1
IMAGEDEF
  2
AcDbRasterImageDef
  3
ISM
 90
        0
280
     0
281
     0
  0
CLASS
  1
IMAGEDEF_REACTOR
  2
AcDbRasterImageDefReactor
  3
ISM
 90
        1
280
     0
281
     0
  0
CLASS
  1
IDBUFFER
  2
AcDbIdBuffer
  3
AutoCAD 2000
 90
        0
280
     0
281
     0
  0
CLASS
  1
SPATIAL_FILTER
  2
AcDbSpatialFilter
  3
AutoCAD 2000
 90
        0
280
     0
281
     0
  0
CLASS
  1
XRECORD
  2
AcDbXrecord
  3
AutoCAD 2000
 90
        0
280
     0
281
     0
  0
CLASS
  1
SORTENTSTABLE
  2
AcDbSortentsTable
  3
AutoCAD 2000
 90
        0
280
     0
281
     0
  0
CLASS
  1
LAYER_INDEX
  2
AcDbLayerIndex
  3
AutoCAD 2000
 90
        0
280
     0
281
     0
  0
CLASS
  1
SPATIAL_INDEX
  2
AcDbSpatialIndex
  3
AutoCAD 2000
 90
        0
280
     0
281
     0
  0
CLASS
  1
OBJECT_PTR
  2
CAseDLPNTableRecord
  3
"ASE-LPNTableRecord"
 90
        1
280
     0
281
     0
  0
CLASS
  1
LAYOUT
  2
AcDbLayout
  3
AutoCAD 2000
 90
        0
280
     0
281
     0
  0
CLASS
  1
PLOTSETTINGS
  2
AcDbPlotSettings
  3
AutoCAD 2000
 90
        0
280
     0
281
     0
  0
CLASS
  1
ACDBDICTIONARYWDFLT
  2
AcDbDictionaryWithDefault
  3
AutoCAD 2000
 90
        0
280
     0
281
     0
  0
CLASS
  1
ACDBPLACEHOLDER
  2
AcDbPlaceHolder
  3
AutoCAD 2000
 90
        0
280
     0
281
     0
  0
CLASS
  1
VBA_PROJECT
  2
AcDbVbaProject
  3
acadvba
 90
        0
280
     0
281
     0
  0
CLASS
  1
WIPEOUT
  2
AcDbWipeout
  3
WipeOut|AutoCAD Express Tool|expresstools@autodesk.com
 90
      127
280
     0
281
     1
  0
CLASS
  1
WIPEOUTVARIABLES
  2
AcDbWipeoutVariables
  3
WipeOut|AutoCAD Express Tool|expresstools@autodesk.com
 90
        0
280
     0
281
     0
  0
CLASS
  1
RTEXT
  2
RText
  3
RText|AutoCAD Express Tool|expresstools@autodesk.com
 90
        0
280
     0
281
     1
  0
CLASS
  1
ARCALIGNEDTEXT
  2
AcDbArcAlignedText
  3
ATEXT|AutoCAD Express Tool|expresstools@autodesk.com
 90
        0
280
     0
281
     1
  0
ENDSEC
  0
SECTION
  2
TABLES
  0
TABLE
  2
VPORT
  5
7
100
AcDbSymbolTable
 70
     1
  0
VPORT
  5
15
100
AcDbSymbolTableRecord
100
AcDbViewportTableRecord
  2
*ACTIVE
 70
     0
 10
0.0
 20
0.0
 11
1.0
 21
1.0
 12
6.591288
 22
4.579184
 13
0.0
 23
0.0
 14
1.0
 24
1.0
 15
0.0
 25
0.0
 16
0.0
 26
0.0
 36
1.0
 17
0.0
 27
0.0
 37
0.0
 40
9.158369
 41
0.688564
 42
50.0
 43
0.0
 44
0.0
 50
0.0
 51
0.0
 71
     0
 72
   100
 73
     1
 74
     1
 75
     0
 76
     0
 77
     0
 78
     0
281
     0
 65
     0
110
0.0
120
0.0
130
0.0
111
1.0
121
0.0
131
0.0
112
0.0
122
1.0
132
0.0
345
0
346
0
 79
     0
146
0.0
  0
ENDTAB
  0
TABLE
  2
LTYPE
  5
4
100
AcDbSymbolTable
 70
     3
  0
LTYPE
  5
11
100
AcDbSymbolTableRecord
100
AcDbLinetypeTableRecord
  2
ByBlock
 70
    64
  3

 72
    65
 73
     0
 40
0.0
  0
LTYPE
  5
12
100
AcDbSymbolTableRecord
100
AcDbLinetypeTableRecord
  2
ByLayer
 70
    64
  3

 72
    65
 73
     0
 40
0.0
  0
LTYPE
  5
13
100
AcDbSymbolTableRecord
100
AcDbLinetypeTableRecord
  2
Continuous
 70
    64
  3
Solid line
 72
    65
 73
     0
 40
0.0
  0
ENDTAB
  0
TABLE
  2
LAYER
  5
2
100
AcDbSymbolTable
 70
     1
  0
LAYER
  5
14
100
AcDbSymbolTableRecord
100
AcDbLayerTableRecord
  2
0
 70
     0
 62
     7
  6
Continuous
290
     1
370
    -3
390
1D
  0
ENDTAB
  0
TABLE
  2
STYLE
  5
3
100
AcDbSymbolTable
 70
     1
  0
STYLE
  5
17
100
AcDbSymbolTableRecord
100
AcDbTextStyleTableRecord
  2
Standard
 70
     0
 40
0.0
 41
1.0
 50
0.0
 71
     0
 42
0.0
  3
txt
  4

  0
ENDTAB
  0
TABLE
  2
VIEW
  5
5
100
AcDbSymbolTable
 70
     0
  0
ENDTAB
  0
TABLE
  2
UCS
  5
6
100
AcDbSymbolTable
 70
     0
  0
ENDTAB
  0
TABLE
  2
APPID
  5
8
100
AcDbSymbolTable
 70
     1
  0
APPID
  5
16
100
AcDbSymbolTableRecord
100
AcDbRegAppTableRecord
  2
ACAD
 70
     0
  0
ENDTAB
  0
TABLE
  2
DIMSTYLE
  5
9
100
AcDbSymbolTable
 70
     1
100
AcDbDimStyleTable
 71
     0
  0
DIMSTYLE
105
18
100
AcDbSymbolTableRecord
100
AcDbDimStyleTableRecord
  2
Standard
 70
     0
  3

  4

 40
1.0
 41
0.18
 42
0.0625
 43
0.38
 44
0.18
 45
0.0
 46
0.0
 47
0.0
 48
0.0
 71
     0
 72
     0
 73
     1
 74
     1
 75
     0
 76
     0
 77
     0
 78
     0
 79
     0
140
0.18
141
0.09
142
0.0
143
25.4
144
1.0
145
0.0
146
1.0
147
0.09
148
0.0
170
     0
171
     2
172
     0
173
     0
174
     0
175
     0
176
     0
177
     0
178
     0
179
     0
271
     4
272
     4
273
     2
274
     2
275
     0
276
     0
277
     2
278
    46
279
     0
280
     0
281
     0
282
     0
283
     1
284
     0
285
     0
286
     0
288
     0
289
     3
340
17
341
0
342
0
343
0
344
0
371
    -2
372
    -2
  0
ENDTAB
  0
TABLE
  2
BLOCK_RECORD
  5
1
100
AcDbSymbolTable
 70
     0
  0
BLOCK_RECORD
  5
A
100
AcDbSymbolTableRecord
100
AcDbBlockTableRecord
  2
*MODEL_SPACE
340
20
  0
BLOCK_RECORD
  5
B
100
AcDbSymbolTableRecord
100
AcDbBlockTableRecord
  2
*PAPER_SPACE
340
21
  0
ENDTAB
  0
ENDSEC
  0
SECTION
  2
BLOCKS
  0
BLOCK
  5
D
100
AcDbEntity
  8
0
390
0
100
AcDbBlockBegin
  2
*MODEL_SPACE
 70
     0
 10
0.0
 20
0.0
 30
0.0
  3
*MODEL_SPACE
  1

  0
ENDBLK
  5
E
100
AcDbEntity
  8
0
390
0
100
AcDbBlockEnd
  0
BLOCK
  5
F
100
AcDbEntity
 67
     1
  8
0
390
0
100
AcDbBlockBegin
  2
*PAPER_SPACE
 70
     0
 10
0.0
 20
0.0
 30
0.0
  3
*PAPER_SPACE
  1

  0
ENDBLK
  5
10
100
AcDbEntity
 67
     1
  8
0
390
0
100
AcDbBlockEnd
  0
ENDSEC
  0
SECTION
  2
ENTITIES
  0
VIEWPORT
  5
128
100
AcDbEntity
 67
     1
  8
0
370
     0
390
0
 62
     0
 48
0.0
100
AcDbViewport
 10
0.0
 20
0.0
 30
0.0
 40
1000.0
 41
1000.0
 68
     1
 69
     1
 12
0.0
 22
0.0
 13
0.0
 23
0.0
 14
1.0
 24
1.0
 15
1.0
 25
1.0
 16
0.0
 26
0.0
 36
1.0
 17
0.0
 27
0.0
 37
0.0
 42
50.0
 43
0.0
 44
0.0
 45
1000.0
 50
0.0
 51
0.0
 72
   100
 90
        0
340
0
  1

281
     0
 71
     0
 74
     1
110
0.0
120
0.0
130
0.0
111
1.0
121
0.0
131
0.0
112
0.0
122
1.0
132
0.0
345
0
346
0
 79
     0
146
0.0
  0
CIRCLE
  5
24
100
AcDbEntity
  8
0
370
    35
390
0
 62
     7
100
AcDbCircle
 10
162.271637
 20
257.349335
 30
0.0
 40
1.5
210
0.0
220
0.0
230
1.0
  0
ARC
  5
25
100
AcDbEntity
  8
0
370
    35
390
0
 62
     7
100
AcDbCircle
 10
105.703094
 20
313.917877
 30
0.0
 40
94.5
210
0.0
220
0.0
230
1.0
100
AcDbArc
 50
55.593129
 51
88.332425
  0
LINE
  5
26
100
AcDbEntity
  8
0
370
    35
390
0
 62
     7
 48
0.4865
100
AcDbLine
 10
108.453094
 20
408.377869
 30
0.0
 11
108.453094
 21
388.917877
 31
0.0
210
0.0
220
0.0
230
1.0
  0
LINE
  5
27
100
AcDbEntity
  8
0
370
    35
390
0
 62
     7
 48
0.1375
100
AcDbLine
 10
102.953094
 20
388.917877
 30
0.0
 11
108.453094
 21
388.917877
 31
0.0
210
0.0
220
0.0
230
1.0
  0
LINE
  5
28
100
AcDbEntity
  8
0
370
    35
390
0
 62
     7
 48
0.4865
100
AcDbLine
 10
102.953094
 20
408.377869
 30
0.0
 11
102.953094
 21
388.917877
 31
0.0
210
0.0
220
0.0
230
1.0
  0
ARC
  5
29
100
AcDbEntity
  8
0
370
    35
390
0
 62
     7
100
AcDbCircle
 10
105.703094
 20
313.917877
 30
0.0
 40
94.5
210
0.0
220
0.0
230
1.0
100
AcDbArc
 50
91.667573
 51
178.332428
  0
LINE
  5
2A
100
AcDbEntity
  8
0
370
    35
390
0
 62
     7
 48
0.486499
100
AcDbLine
 10
11.243118
 20
316.667877
 30
0.0
 11
30.703094
 21
316.667877
 31
0.0
210
0.0
220
0.0
230
1.0
  0
LINE
  5
2B
100
AcDbEntity
  8
0
370
    35
390
0
 62
     7
 48
0.1375
100
AcDbLine
 10
30.703094
 20
316.667877
 30
0.0
 11
30.703094
 21
311.167877
 31
0.0
210
0.0
220
0.0
230
1.0
  0
LINE
  5
2C
100
AcDbEntity
  8
0
370
    35
390
0
 62
     7
 48
0.486499
100
AcDbLine
 10
11.243118
 20
311.167877
 30
0.0
 11
30.703094
 21
311.167877
 31
0.0
210
0.0
220
0.0
230
1.0
  0
ARC
  5
2D
100
AcDbEntity
  8
0
370
    35
390
0
 62
     7
100
AcDbCircle
 10
105.703094
 20
313.917877
 30
0.0
 40
94.5
210
0.0
220
0.0
230
1.0
100
AcDbArc
 50
181.667572
 51
214.406868
  0
ARC
  5
2E
100
AcDbEntity
  8
0
370
    35
390
0
 62
     7
100
AcDbCircle
 10
38.527946
 20
246.742737
 30
0.0
 40
17.5
210
0.0
220
0.0
230
1.0
100
AcDbArc
 50
321.926818
 51
128.073178
  0
ARC
  5
2F
100
AcDbEntity
  8
0
370
    35
390
0
 62
     7
100
AcDbCircle
 10
105.703094
 20
313.917877
 30
0.0
 40
94.5
210
0.0
220
0.0
230
1.0
100
AcDbArc
 50
235.593131
 51
268.332427
  0
LINE
  5
30
100
AcDbEntity
  8
0
370
    35
390
0
 62
     7
 48
0.486499
100
AcDbLine
 10
102.953094
 20
219.457901
 30
0.0
 11
102.953094
 21
238.917877
 31
0.0
210
0.0
220
0.0
230
1.0
  0
LINE
  5
31
100
AcDbEntity
  8
0
370
    35
390
0
 62
     7
 48
0.1375
100
AcDbLine
 10
102.953094
 20
238.917877
 30
0.0
 11
108.453094
 21
238.917877
 31
0.0
210
0.0
220
0.0
230
1.0
  0
LINE
  5
32
100
AcDbEntity
  8
0
370
    35
390
0
 62
     7
 48
0.486499
100
AcDbLine
 10
108.453094
 20
219.457901
 30
0.0
 11
108.453094
 21
238.917877
 31
0.0
210
0.0
220
0.0
230
1.0
  0
ARC
  5
33
100
AcDbEntity
  8
0
370
    35
390
0
 62
     7
100
AcDbCircle
 10
105.703094
 20
313.917877
 30
0.0
 40
94.5
210
0.0
220
0.0
230
1.0
100
AcDbArc
 50
271.667575
 51
358.332427
  0
LINE
  5
34
100
AcDbEntity
  8
0
370
    35
390
0
 62
     7
 48
0.486499
100
AcDbLine
 10
200.163071
 20
311.167877
 30
0.0
 11
180.703094
 21
311.167877
 31
0.0
210
0.0
220
0.0
230
1.0
  0
LINE
  5
35
100
AcDbEntity
  8
0
370
    35
390
0
 62
     7
 48
0.1375
100
AcDbLine
 10
180.703094
 20
316.667877
 30
0.0
 11
180.703094
 21
311.167877
 31
0.0
210
0.0
220
0.0
230
1.0
  0
LINE
  5
36
100
AcDbEntity
  8
0
370
    35
390
0
 62
     7
 48
0.486499
100
AcDbLine
 10
200.163071
 20
316.667877
 30
0.0
 11
180.703094
 21
316.667877
 31
0.0
210
0.0
220
0.0
230
1.0
  0
ARC
  5
37
100
AcDbEntity
  8
0
370
    35
390
0
 62
     7
100
AcDbCircle
 10
105.703094
 20
313.917877
 30
0.0
 40
94.5
210
0.0
220
0.0
230
1.0
100
AcDbArc
 50
1.667573
 51
34.40687
  0
ARC
  5
38
100
AcDbEntity
  8
0
370
    35
390
0
 62
     7
100
AcDbCircle
 10
172.878235
 20
381.093018
 30
0.0
 40
17.5
210
0.0
220
0.0
230
1.0
100
AcDbArc
 50
141.926823
 51
308.073179
  0
CIRCLE
  5
39
100
AcDbEntity
  8
0
370
    35
390
0
 62
     7
100
AcDbCircle
 10
105.703094
 20
313.917877
 30
0.0
 40
46.75
210
0.0
220
0.0
230
1.0
  0
LINE
  5
3A
100
AcDbEntity
  8
0
370
    35
390
0
 62
     7
 48
0.1375
100
AcDbLine
 10
42.063484
 20
335.131073
 30
0.0
 11
38.1744
 21
339.020172
 31
0.0
210
0.0
220
0.0
230
1.0
  0
LINE
  5
3B
100
AcDbEntity
  8
0
370
    35
390
0
 62
     7
100
AcDbLine
 10
38.1744
 20
339.020172
 30
0.0
 11
80.6008
 21
381.446564
 31
0.0
210
0.0
220
0.0
230
1.0
  0
LINE
  5
3C
100
AcDbEntity
  8
0
370
    35
390
0
 62
     7
 48
0.1375
100
AcDbLine
 10
84.489891
 20
377.557495
 30
0.0
 11
80.6008
 21
381.446564
 31
0.0
210
0.0
220
0.0
230
1.0
  0
LINE
  5
3D
100
AcDbEntity
  8
0
370
    35
390
0
 62
     7
100
AcDbLine
 10
84.489891
 20
377.557495
 30
0.0
 11
42.063484
 21
335.131073
 31
0.0
210
0.0
220
0.0
230
1.0
  0
LINE
  5
3E
100
AcDbEntity
  8
0
370
    35
390
0
 62
     7
 48
0.1375
100
AcDbLine
 10
42.063484
 20
292.704681
 30
0.0
 11
38.1744
 21
288.815582
 31
0.0
210
0.0
220
0.0
230
1.0
  0
LINE
  5
3F
100
AcDbEntity
  8
0
370
    35
390
0
 62
     7
100
AcDbLine
 10
84.489891
 20
250.278259
 30
0.0
 11
42.063484
 21
292.704681
 31
0.0
210
0.0
220
0.0
230
1.0
  0
LINE
  5
40
100
AcDbEntity
  8
0
370
    35
390
0
 62
     7
 48
0.1375
100
AcDbLine
 10
84.489891
 20
250.278259
 30
0.0
 11
80.6008
 21
246.389191
 31
0.0
210
0.0
220
0.0
230
1.0
  0
LINE
  5
41
100
AcDbEntity
  8
0
370
    35
390
0
 62
     7
100
AcDbLine
 10
38.1744
 20
288.815582
 30
0.0
 11
80.6008
 21
246.389191
 31
0.0
210
0.0
220
0.0
230
1.0
  0
LINE
  5
42
100
AcDbEntity
  8
0
370
    35
390
0
 62
     7
100
AcDbLine
 10
126.916298
 20
377.557495
 30
0.0
 11
169.342712
 21
335.131073
 31
0.0
210
0.0
220
0.0
230
1.0
  0
LINE
  5
43
100
AcDbEntity
  8
0
370
    35
390
0
 62
     7
 48
0.1375
100
AcDbLine
 10
126.916298
 20
377.557495
 30
0.0
 11
130.805389
 21
381.446564
 31
0.0
210
0.0
220
0.0
230
1.0
  0
LINE
  5
44
100
AcDbEntity
  8
0
370
    35
390
0
 62
     7
100
AcDbLine
 10
173.231781
 20
339.020172
 30
0.0
 11
130.805389
 21
381.446564
 31
0.0
210
0.0
220
0.0
230
1.0
  0
LINE
  5
45
100
AcDbEntity
  8
0
370
    35
390
0
 62
     7
 48
0.1375
100
AcDbLine
 10
169.342712
 20
335.131073
 30
0.0
 11
173.231781
 21
339.020172
 31
0.0
210
0.0
220
0.0
230
1.0
  0
LINE
  5
46
100
AcDbEntity
  8
0
370
    35
390
0
 62
     7
100
AcDbLine
 10
173.231781
 20
288.815582
 30
0.0
 11
130.805389
 21
246.389191
 31
0.0
210
0.0
220
0.0
230
1.0
  0
LINE
  5
47
100
AcDbEntity
  8
0
370
    35
390
0
 62
     7
 48
0.1375
100
AcDbLine
 10
126.916298
 20
250.278259
 30
0.0
 11
130.805389
 21
246.389191
 31
0.0
210
0.0
220
0.0
230
1.0
  0
LINE
  5
48
100
AcDbEntity
  8
0
370
    35
390
0
 62
     7
100
AcDbLine
 10
126.916298
 20
250.278259
 30
0.0
 11
169.342712
 21
292.704681
 31
0.0
210
0.0
220
0.0
230
1.0
  0
LINE
  5
49
100
AcDbEntity
  8
0
370
    35
390
0
 62
     7
 48
0.1375
100
AcDbLine
 10
169.342712
 20
292.704681
 30
0.0
 11
173.231781
 21
288.815582
 31
0.0
210
0.0
220
0.0
230
1.0
  0
CIRCLE
  5
4A
100
AcDbEntity
  8
0
370
    35
390
0
 62
     7
100
AcDbCircle
 10
49.134552
 20
370.48642
 30
0.0
 40
1.5
210
0.0
220
0.0
230
1.0
  0
CIRCLE
  5
4B
100
AcDbEntity
  8
0
370
    35
390
0
 62
     7
100
AcDbCircle
 10
356.286987
 20
256.925598
 30
0.0
 40
1.5
210
0.0
220
0.0
230
1.0
  0
ARC
  5
4C
100
AcDbEntity
  8
0
370
    35
390
0
 62
     7
100
AcDbCircle
 10
299.718445
 20
313.494141
 30
0.0
 40
94.5
210
0.0
220
0.0
230
1.0
100
AcDbArc
 50
55.593129
 51
88.332425
  0
LINE
  5
4D
100
AcDbEntity
  8
0
370
    35
390
0
 62
     7
 48
0.486499
100
AcDbLine
 10
302.468445
 20
407.954102
 30
0.0
 11
302.468445
 21
388.494141
 31
0.0
210
0.0
220
0.0
230
1.0
  0
LINE
  5
4E
100
AcDbEntity
  8
0
370
    35
390
0
 62
     7
 48
0.1375
100
AcDbLine
 10
296.968445
 20
388.494141
 30
0.0
 11
302.468445
 21
388.494141
 31
0.0
210
0.0
220
0.0
230
1.0
  0
LINE
  5
4F
100
AcDbEntity
  8
0
370
    35
390
0
 62
     7
 48
0.486499
100
AcDbLine
 10
296.968445
 20
407.954102
 30
0.0
 11
296.968445
 21
388.494141
 31
0.0
210
0.0
220
0.0
230
1.0
  0
ARC
  5
50
100
AcDbEntity
  8
0
370
    35
390
0
 62
     7
100
AcDbCircle
 10
299.718445
 20
313.494141
 30
0.0
 40
94.5
210
0.0
220
0.0
230
1.0
100
AcDbArc
 50
91.667573
 51
178.332428
  0
LINE
  5
51
100
AcDbEntity
  8
0
370
    35
390
0
 62
     7
 48
0.486499
100
AcDbLine
 10
205.258469
 20
316.244141
 30
0.0
 11
224.718445
 21
316.244141
 31
0.0
210
0.0
220
0.0
230
1.0
  0
LINE
  5
52
100
AcDbEntity
  8
0
370
    35
390
0
 62
     7
 48
0.1375
100
AcDbLine
 10
224.718445
 20
316.244141
 30
0.0
 11
224.718445
 21
310.744141
 31
0.0
210
0.0
220
0.0
230
1.0
  0
LINE
  5
53
100
AcDbEntity
  8
0
370
    35
390
0
 62
     7
 48
0.486499
100
AcDbLine
 10
205.258469
 20
310.744141
 30
0.0
 11
224.718445
 21
310.744141
 31
0.0
210
0.0
220
0.0
230
1.0
  0
ARC
  5
54
100
AcDbEntity
  8
0
370
    35
390
0
 62
     7
100
AcDbCircle
 10
299.718445
 20
313.494141
 30
0.0
 40
94.5
210
0.0
220
0.0
230
1.0
100
AcDbArc
 50
181.667572
 51
214.406868
  0
ARC
  5
55
100
AcDbEntity
  8
0
370
    35
390
0
 62
     7
100
AcDbCircle
 10
232.543304
 20
246.319
 30
0.0
 40
17.5
210
0.0
220
0.0
230
1.0
100
AcDbArc
 50
321.926818
 51
128.073178
  0
ARC
  5
56
100
AcDbEntity
  8
0
370
    35
390
0
 62
     7
100
AcDbCircle
 10
299.718445
 20
313.494141
 30
0.0
 40
94.5
210
0.0
220
0.0
230
1.0
100
AcDbArc
 50
235.593131
 51
268.332427
  0
LINE
  5
57
100
AcDbEntity
  8
0
370
    35
390
0
 62
     7
 48
0.486499
100
AcDbLine
 10
296.968445
 20
219.034164
 30
0.0
 11
296.968445
 21
238.494141
 31
0.0
210
0.0
220
0.0
230
1.0
  0
LINE
  5
58
100
AcDbEntity
  8
0
370
    35
390
0
 62
     7
 48
0.1375
100
AcDbLine
 10
296.968445
 20
238.494141
 30
0.0
 11
302.468445
 21
238.494141
 31
0.0
210
0.0
220
0.0
230
1.0
  0
LINE
  5
59
100
AcDbEntity
  8
0
370
    35
390
0
 62
     7
 48
0.486499
100
AcDbLine
 10
302.468445
 20
219.034164
 30
0.0
 11
302.468445
 21
238.494141
 31
0.0
210
0.0
220
0.0
230
1.0
  0
ARC
  5
5A
100
AcDbEntity
  8
0
370
    35
390
0
 62
     7
100
AcDbCircle
 10
299.718445
 20
313.494141
 30
0.0
 40
94.5
210
0.0
220
0.0
230
1.0
100
AcDbArc
 50
271.667575
 51
358.332427
  0
LINE
  5
5B
100
AcDbEntity
  8
0
370
    35
390
0
 62
     7
 48
0.486499
100
AcDbLine
 10
394.178406
 20
310.744141
 30
0.0
 11
374.718445
 21
310.744141
 31
0.0
210
0.0
220
0.0
230
1.0
  0
LINE
  5
5C
100
AcDbEntity
  8
0
370
    35
390
0
 62
     7
 48
0.1375
100
AcDbLine
 10
374.718445
 20
316.244141
 30
0.0
 11
374.718445
 21
310.744141
 31
0.0
210
0.0
220
0.0
230
1.0
  0
LINE
  5
5D
100
AcDbEntity
  8
0
370
    35
390
0
 62
     7
 48
0.486499
100
AcDbLine
 10
394.178406
 20
316.244141
 30
0.0
 11
374.718445
 21
316.244141
 31
0.0
210
0.0
220
0.0
230
1.0
  0
ARC
  5
5E
100
AcDbEntity
  8
0
370
    35
390
0
 62
     7
100
AcDbCircle
 10
299.718445
 20
313.494141
 30
0.0
 40
94.5
210
0.0
220
0.0
230
1.0
100
AcDbArc
 50
1.667573
 51
34.40687
  0
ARC
  5
5F
100
AcDbEntity
  8
0
370
    35
390
0
 62
     7
100
AcDbCircle
 10
366.893585
 20
380.669281
 30
0.0
 40
17.5
210
0.0
220
0.0
230
1.0
100
AcDbArc
 50
141.926823
 51
308.073179
  0
CIRCLE
  5
60
100
AcDbEntity
  8
0
370
    35
390
0
 62
     7
100
AcDbCircle
 10
299.718445
 20
313.494141
 30
0.0
 40
46.75
210
0.0
220
0.0
230
1.0
  0
LINE
  5
61
100
AcDbEntity
  8
0
370
    35
390
0
 62
     7
 48
0.1375
100
AcDbLine
 10
236.078827
 20
334.707336
 30
0.0
 11
232.189758
 21
338.596436
 31
0.0
210
0.0
220
0.0
230
1.0
  0
LINE
  5
62
100
AcDbEntity
  8
0
370
    35
390
0
 62
     7
100
AcDbLine
 10
232.189758
 20
338.596436
 30
0.0
 11
274.61615
 21
381.022827
 31
0.0
210
0.0
220
0.0
230
1.0
  0
LINE
  5
63
100
AcDbEntity
  8
0
370
    35
390
0
 62
     7
 48
0.1375
100
AcDbLine
 10
278.505249
 20
377.133759
 30
0.0
 11
274.61615
 21
381.022827
 31
0.0
210
0.0
220
0.0
230
1.0
  0
LINE
  5
64
100
AcDbEntity
  8
0
370
    35
390
0
 62
     7
100
AcDbLine
 10
278.505249
 20
377.133759
 30
0.0
 11
236.078827
 21
334.707336
 31
0.0
210
0.0
220
0.0
230
1.0
  0
LINE
  5
65
100
AcDbEntity
  8
0
370
    35
390
0
 62
     7
 48
0.1375
100
AcDbLine
 10
236.078827
 20
292.280945
 30
0.0
 11
232.189758
 21
288.391846
 31
0.0
210
0.0
220
0.0
230
1.0
  0
LINE
  5
66
100
AcDbEntity
  8
0
370
    35
390
0
 62
     7
100
AcDbLine
 10
278.505249
 20
249.854523
 30
0.0
 11
236.078827
 21
292.280945
 31
0.0
210
0.0
220
0.0
230
1.0
  0
LINE
  5
67
100
AcDbEntity
  8
0
370
    35
390
0
 62
     7
 48
0.1375
100
AcDbLine
 10
278.505249
 20
249.854523
 30
0.0
 11
274.61615
 21
245.965454
 31
0.0
210
0.0
220
0.0
230
1.0
  0
LINE
  5
68
100
AcDbEntity
  8
0
370
    35
390
0
 62
     7
100
AcDbLine
 10
232.189758
 20
288.391846
 30
0.0
 11
274.61615
 21
245.965454
 31
0.0
210
0.0
220
0.0
230
1.0
  0
LINE
  5
69
100
AcDbEntity
  8
0
370
    35
390
0
 62
     7
100
AcDbLine
 10
320.931641
 20
377.133759
 30
0.0
 11
363.358063
 21
334.707336
 31
0.0
210
0.0
220
0.0
230
1.0
  0
LINE
  5
6A
100
AcDbEntity
  8
0
370
    35
390
0
 62
     7
 48
0.1375
100
AcDbLine
 10
320.931641
 20
377.133759
 30
0.0
 11
324.82074
 21
381.022827
 31
0.0
210
0.0
220
0.0
230
1.0
  0
LINE
  5
6B
100
AcDbEntity
  8
0
370
    35
390
0
 62
     7
100
AcDbLine
 10
367.247131
 20
338.596436
 30
0.0
 11
324.82074
 21
381.022827
 31
0.0
210
0.0
220
0.0
230
1.0
  0
LINE
  5
6C
100
AcDbEntity
  8
0
370
    35
390
0
 62
     7
 48
0.1375
100
AcDbLine
 10
363.358063
 20
334.707336
 30
0.0
 11
367.247131
 21
338.596436
 31
0.0
210
0.0
220
0.0
230
1.0
  0
LINE
  5
6D
100
AcDbEntity
  8
0
370
    35
390
0
 62
     7
100
AcDbLine
 10
367.247131
 20
288.391846
 30
0.0
 11
324.82074
 21
245.965454
 31
0.0
210
0.0
220
0.0
230
1.0
  0
LINE
  5
6E
100
AcDbEntity
  8
0
370
    35
390
0
 62
     7
 48
0.1375
100
AcDbLine
 10
320.931641
 20
249.854523
 30
0.0
 11
324.82074
 21
245.965454
 31
0.0
210
0.0
220
0.0
230
1.0
  0
LINE
  5
6F
100
AcDbEntity
  8
0
370
    35
390
0
 62
     7
100
AcDbLine
 10
320.931641
 20
249.854523
 30
0.0
 11
363.358063
 21
292.280945
 31
0.0
210
0.0
220
0.0
230
1.0
  0
LINE
  5
70
100
AcDbEntity
  8
0
370
    35
390
0
 62
     7
 48
0.1375
100
AcDbLine
 10
363.358063
 20
292.280945
 30
0.0
 11
367.247131
 21
288.391846
 31
0.0
210
0.0
220
0.0
230
1.0
  0
CIRCLE
  5
71
100
AcDbEntity
  8
0
370
    35
390
0
 62
     7
100
AcDbCircle
 10
243.149902
 20
370.062683
 30
0.0
 40
1.5
210
0.0
220
0.0
230
1.0
  0
CIRCLE
  5
72
100
AcDbEntity
  8
0
370
    35
390
0
 62
     7
100
AcDbCircle
 10
258.445984
 20
88.478439
 30
0.0
 40
2.0
210
0.0
220
0.0
230
1.0
  0
ARC
  5
73
100
AcDbEntity
  8
0
370
    35
390
0
 62
     7
100
AcDbCircle
 10
201.877457
 20
145.046982
 30
0.0
 40
94.5
210
0.0
220
0.0
230
1.0
100
AcDbArc
 50
55.593129
 51
214.406868
  0
ARC
  5
74
100
AcDbEntity
  8
0
370
    35
390
0
 62
     7
100
AcDbCircle
 10
134.702301
 20
77.871834
 30
0.0
 40
17.5
210
0.0
220
0.0
230
1.0
100
AcDbArc
 50
321.926818
 51
128.073178
  0
ARC
  5
75
100
AcDbEntity
  8
0
370
    35
390
0
 62
     7
100
AcDbCircle
 10
201.877457
 20
145.046982
 30
0.0
 40
94.5
210
0.0
220
0.0
230
1.0
100
AcDbArc
 50
235.593131
 51
34.40687
  0
ARC
  5
76
100
AcDbEntity
  8
0
370
    35
390
0
 62
     7
100
AcDbCircle
 10
269.052612
 20
212.222137
 30
0.0
 40
17.5
210
0.0
220
0.0
230
1.0
100
AcDbArc
 50
141.926823
 51
308.073179
  0
CIRCLE
  5
77
100
AcDbEntity
  8
0
370
    35
390
0
 62
     7
100
AcDbCircle
 10
201.877457
 20
145.046982
 30
0.0
 40
46.75
210
0.0
220
0.0
230
1.0
  0
LINE
  5
78
100
AcDbEntity
  8
0
370
    35
390
0
 62
     7
 48
0.1375
100
AcDbLine
 10
138.237854
 20
166.260193
 30
0.0
 11
134.348755
 21
170.149277
 31
0.0
210
0.0
220
0.0
230
1.0
  0
LINE
  5
79
100
AcDbEntity
  8
0
370
    35
390
0
 62
     7
100
AcDbLine
 10
134.348755
 20
170.149277
 30
0.0
 11
176.775162
 21
212.575684
 31
0.0
210
0.0
220
0.0
230
1.0
  0
LINE
  5
7A
100
AcDbEntity
  8
0
370
    35
390
0
 62
     7
 48
0.1375
100
AcDbLine
 10
180.664246
 20
208.686584
 30
0.0
 11
176.775162
 21
212.575684
 31
0.0
210
0.0
220
0.0
230
1.0
  0
LINE
  5
7B
100
AcDbEntity
  8
0
370
    35
390
0
 62
     7
100
AcDbLine
 10
180.664246
 20
208.686584
 30
0.0
 11
138.237854
 21
166.260193
 31
0.0
210
0.0
220
0.0
230
1.0
  0
LINE
  5
7C
100
AcDbEntity
  8
0
370
    35
390
0
 62
     7
 48
0.1375
100
AcDbLine
 10
138.237854
 20
123.833778
 30
0.0
 11
134.348755
 21
119.944687
 31
0.0
210
0.0
220
0.0
230
1.0
  0
LINE
  5
7D
100
AcDbEntity
  8
0
370
    35
390
0
 62
     7
100
AcDbLine
 10
180.664246
 20
81.407372
 30
0.0
 11
138.237854
 21
123.833778
 31
0.0
210
0.0
220
0.0
230
1.0
  0
LINE
  5
7E
100
AcDbEntity
  8
0
370
    35
390
0
 62
     7
 48
0.1375
100
AcDbLine
 10
180.664246
 20
81.407372
 30
0.0
 11
176.775162
 21
77.518288
 31
0.0
210
0.0
220
0.0
230
1.0
  0
LINE
  5
7F
100
AcDbEntity
  8
0
370
    35
390
0
 62
     7
100
AcDbLine
 10
134.348755
 20
119.944687
 30
0.0
 11
176.775162
 21
77.518288
 31
0.0
210
0.0
220
0.0
230
1.0
  0
LINE
  5
80
100
AcDbEntity
  8
0
370
    35
390
0
 62
     7
100
AcDbLine
 10
223.090668
 20
208.686584
 30
0.0
 11
265.517059
 21
166.260193
 31
0.0
210
0.0
220
0.0
230
1.0
  0
LINE
  5
81
100
AcDbEntity
  8
0
370
    35
390
0
 62
     7
 48
0.1375
100
AcDbLine
 10
223.090668
 20
208.686584
 30
0.0
 11
226.979752
 21
212.575684
 31
0.0
210
0.0
220
0.0
230
1.0
  0
LINE
  5
82
100
AcDbEntity
  8
0
370
    35
390
0
 62
     7
100
AcDbLine
 10
269.406158
 20
170.149277
 30
0.0
 11
226.979752
 21
212.575684
 31
0.0
210
0.0
220
0.0
230
1.0
  0
LINE
  5
83
100
AcDbEntity
  8
0
370
    35
390
0
 62
     7
 48
0.1375
100
AcDbLine
 10
265.517059
 20
166.260193
 30
0.0
 11
269.406158
 21
170.149277
 31
0.0
210
0.0
220
0.0
230
1.0
  0
LINE
  5
84
100
AcDbEntity
  8
0
370
    35
390
0
 62
     7
100
AcDbLine
 10
269.406158
 20
119.944687
 30
0.0
 11
226.979752
 21
77.518288
 31
0.0
210
0.0
220
0.0
230
1.0
  0
LINE
  5
85
100
AcDbEntity
  8
0
370
    35
390
0
 62
     7
 48
0.1375
100
AcDbLine
 10
223.090668
 20
81.407372
 30
0.0
 11
226.979752
 21
77.518288
 31
0.0
210
0.0
220
0.0
230
1.0
  0
LINE
  5
86
100
AcDbEntity
  8
0
370
    35
390
0
 62
     7
100
AcDbLine
 10
223.090668
 20
81.407372
 30
0.0
 11
265.517059
 21
123.833778
 31
0.0
210
0.0
220
0.0
230
1.0
  0
LINE
  5
87
100
AcDbEntity
  8
0
370
    35
390
0
 62
     7
 48
0.1375
100
AcDbLine
 10
265.517059
 20
123.833778
 30
0.0
 11
269.406158
 21
119.944687
 31
0.0
210
0.0
220
0.0
230
1.0
  0
LINE
  5
88
100
AcDbEntity
  8
0
370
    35
390
0
 62
     7
 48
0.25
100
AcDbLine
 10
204.627457
 20
230.046982
 30
0.0
 11
204.627457
 21
220.046982
 31
0.0
210
0.0
220
0.0
230
1.0
  0
LINE
  5
89
100
AcDbEntity
  8
0
370
    35
390
0
 62
     7
 48
0.1375
100
AcDbLine
 10
204.627457
 20
220.046982
 30
0.0
 11
199.127457
 21
220.046982
 31
0.0
210
0.0
220
0.0
230
1.0
  0
LINE
  5
8A
100
AcDbEntity
  8
0
370
    35
390
0
 62
     7
 48
0.25
100
AcDbLine
 10
199.127457
 20
220.046982
 30
0.0
 11
199.127457
 21
230.046982
 31
0.0
210
0.0
220
0.0
230
1.0
  0
LINE
  5
8B
100
AcDbEntity
  8
0
370
    35
390
0
 62
     7
 48
0.1375
100
AcDbLine
 10
199.127457
 20
230.046982
 30
0.0
 11
204.627457
 21
230.046982
 31
0.0
210
0.0
220
0.0
230
1.0
  0
LINE
  5
8C
100
AcDbEntity
  8
0
370
    35
390
0
 62
     7
 48
0.1375
100
AcDbLine
 10
199.127457
 20
60.046982
 30
0.0
 11
204.627457
 21
60.046982
 31
0.0
210
0.0
220
0.0
230
1.0
  0
LINE
  5
8D
100
AcDbEntity
  8
0
370
    35
390
0
 62
     7
 48
0.25
100
AcDbLine
 10
199.127457
 20
70.046982
 30
0.0
 11
199.127457
 21
60.046982
 31
0.0
210
0.0
220
0.0
230
1.0
  0
LINE
  5
8E
100
AcDbEntity
  8
0
370
    35
390
0
 62
     7
 48
0.1375
100
AcDbLine
 10
204.627457
 20
70.046982
 30
0.0
 11
199.127457
 21
70.046982
 31
0.0
210
0.0
220
0.0
230
1.0
  0
LINE
  5
8F
100
AcDbEntity
  8
0
370
    35
390
0
 62
     7
 48
0.25
100
AcDbLine
 10
204.627457
 20
60.046982
 30
0.0
 11
204.627457
 21
70.046982
 31
0.0
210
0.0
220
0.0
230
1.0
  0
LINE
  5
90
100
AcDbEntity
  8
0
370
    35
390
0
 62
     7
 48
0.1375
100
AcDbLine
 10
286.877441
 20
147.796982
 30
0.0
 11
286.877441
 21
142.296982
 31
0.0
210
0.0
220
0.0
230
1.0
  0
LINE
  5
91
100
AcDbEntity
  8
0
370
    35
390
0
 62
     7
 48
0.25
100
AcDbLine
 10
286.877441
 20
142.296982
 30
0.0
 11
276.877441
 21
142.296982
 31
0.0
210
0.0
220
0.0
230
1.0
  0
LINE
  5
92
100
AcDbEntity
  8
0
370
    35
390
0
 62
     7
 48
0.1375
100
AcDbLine
 10
276.877441
 20
142.296982
 30
0.0
 11
276.877441
 21
147.796982
 31
0.0
210
0.0
220
0.0
230
1.0
  0
LINE
  5
93
100
AcDbEntity
  8
0
370
    35
390
0
 62
     7
 48
0.25
100
AcDbLine
 10
276.877441
 20
147.796982
 30
0.0
 11
286.877441
 21
147.796982
 31
0.0
210
0.0
220
0.0
230
1.0
  0
LINE
  5
94
100
AcDbEntity
  8
0
370
    35
390
0
 62
     7
 48
0.25
100
AcDbLine
 10
126.877457
 20
147.796982
 30
0.0
 11
116.877457
 21
147.796982
 31
0.0
210
0.0
220
0.0
230
1.0
  0
LINE
  5
95
100
AcDbEntity
  8
0
370
    35
390
0
 62
     7
 48
0.1375
100
AcDbLine
 10
126.877457
 20
142.296982
 30
0.0
 11
126.877457
 21
147.796982
 31
0.0
210
0.0
220
0.0
230
1.0
  0
LINE
  5
96
100
AcDbEntity
  8
0
370
    35
390
0
 62
     7
 48
0.25
100
AcDbLine
 10
116.877457
 20
142.296982
 30
0.0
 11
126.877457
 21
142.296982
 31
0.0
210
0.0
220
0.0
230
1.0
  0
LINE
  5
97
100
AcDbEntity
  8
0
370
    35
390
0
 62
     7
 48
0.1375
100
AcDbLine
 10
116.877457
 20
147.796982
 30
0.0
 11
116.877457
 21
142.296982
 31
0.0
210
0.0
220
0.0
230
1.0
  0
CIRCLE
  5
98
100
AcDbEntity
  8
0
370
    35
390
0
 62
     7
100
AcDbCircle
 10
145.308914
 20
201.615524
 30
0.0
 40
2.0
210
0.0
220
0.0
230
1.0
  0
CIRCLE
  5
99
100
AcDbEntity
  8
0
370
    35
390
0
 62
     7
100
AcDbCircle
 10
451.474884
 20
89.139023
 30
0.0
 40
2.0
210
0.0
220
0.0
230
1.0
  0
ARC
  5
9A
100
AcDbEntity
  8
0
370
    35
390
0
 62
     7
100
AcDbCircle
 10
394.906342
 20
145.707565
 30
0.0
 40
94.5
210
0.0
220
0.0
230
1.0
100
AcDbArc
 50
55.593129
 51
214.406868
  0
ARC
  5
9B
100
AcDbEntity
  8
0
370
    35
390
0
 62
     7
100
AcDbCircle
 10
327.731201
 20
78.532417
 30
0.0
 40
17.5
210
0.0
220
0.0
230
1.0
100
AcDbArc
 50
321.926818
 51
128.073178
  0
ARC
  5
9C
100
AcDbEntity
  8
0
370
    35
390
0
 62
     7
100
AcDbCircle
 10
394.906342
 20
145.707565
 30
0.0
 40
94.5
210
0.0
220
0.0
230
1.0
100
AcDbArc
 50
235.593131
 51
34.40687
  0
ARC
  5
9D
100
AcDbEntity
  8
0
370
    35
390
0
 62
     7
100
AcDbCircle
 10
462.081482
 20
212.882721
 30
0.0
 40
17.5
210
0.0
220
0.0
230
1.0
100
AcDbArc
 50
141.926823
 51
308.073179
  0
CIRCLE
  5
9E
100
AcDbEntity
  8
0
370
    35
390
0
 62
     7
100
AcDbCircle
 10
394.906342
 20
145.707565
 30
0.0
 40
46.75
210
0.0
220
0.0
230
1.0
  0
LINE
  5
9F
100
AcDbEntity
  8
0
370
    35
390
0
 62
     7
 48
0.1375
100
AcDbLine
 10
331.266724
 20
166.920776
 30
0.0
 11
327.377655
 21
170.80986
 31
0.0
210
0.0
220
0.0
230
1.0
  0
LINE
  5
A0
100
AcDbEntity
  8
0
370
    35
390
0
 62
     7
100
AcDbLine
 10
327.377655
 20
170.80986
 30
0.0
 11
369.804047
 21
213.236267
 31
0.0
210
0.0
220
0.0
230
1.0
  0
LINE
  5
A1
100
AcDbEntity
  8
0
370
    35
390
0
 62
     7
 48
0.1375
100
AcDbLine
 10
373.693146
 20
209.347168
 30
0.0
 11
369.804047
 21
213.236267
 31
0.0
210
0.0
220
0.0
230
1.0
  0
LINE
  5
A2
100
AcDbEntity
  8
0
370
    35
390
0
 62
     7
100
AcDbLine
 10
373.693146
 20
209.347168
 30
0.0
 11
331.266724
 21
166.920776
 31
0.0
210
0.0
220
0.0
230
1.0
  0
LINE
  5
A3
100
AcDbEntity
  8
0
370
    35
390
0
 62
     7
 48
0.1375
100
AcDbLine
 10
331.266724
 20
124.494362
 30
0.0
 11
327.377655
 21
120.60527
 31
0.0
210
0.0
220
0.0
230
1.0
  0
LINE
  5
A4
100
AcDbEntity
  8
0
370
    35
390
0
 62
     7
100
AcDbLine
 10
373.693146
 20
82.067955
 30
0.0
 11
331.266724
 21
124.494362
 31
0.0
210
0.0
220
0.0
230
1.0
  0
LINE
  5
A5
100
AcDbEntity
  8
0
370
    35
390
0
 62
     7
 48
0.1375
100
AcDbLine
 10
373.693146
 20
82.067955
 30
0.0
 11
369.804047
 21
78.178871
 31
0.0
210
0.0
220
0.0
230
1.0
  0
LINE
  5
A6
100
AcDbEntity
  8
0
370
    35
390
0
 62
     7
100
AcDbLine
 10
327.377655
 20
120.60527
 30
0.0
 11
369.804047
 21
78.178871
 31
0.0
210
0.0
220
0.0
230
1.0
  0
LINE
  5
A7
100
AcDbEntity
  8
0
370
    35
390
0
 62
     7
100
AcDbLine
 10
416.119537
 20
209.347168
 30
0.0
 11
458.545959
 21
166.920776
 31
0.0
210
0.0
220
0.0
230
1.0
  0
LINE
  5
A8
100
AcDbEntity
  8
0
370
    35
390
0
 62
     7
 48
0.1375
100
AcDbLine
 10
416.119537
 20
209.347168
 30
0.0
 11
420.008636
 21
213.236267
 31
0.0
210
0.0
220
0.0
230
1.0
  0
LINE
  5
A9
100
AcDbEntity
  8
0
370
    35
390
0
 62
     7
100
AcDbLine
 10
462.435028
 20
170.80986
 30
0.0
 11
420.008636
 21
213.236267
 31
0.0
210
0.0
220
0.0
230
1.0
  0
LINE
  5
AA
100
AcDbEntity
  8
0
370
    35
390
0
 62
     7
 48
0.1375
100
AcDbLine
 10
458.545959
 20
166.920776
 30
0.0
 11
462.435028
 21
170.80986
 31
0.0
210
0.0
220
0.0
230
1.0
  0
LINE
  5
AB
100
AcDbEntity
  8
0
370
    35
390
0
 62
     7
100
AcDbLine
 10
462.435028
 20
120.60527
 30
0.0
 11
420.008636
 21
78.178871
 31
0.0
210
0.0
220
0.0
230
1.0
  0
LINE
  5
AC
100
AcDbEntity
  8
0
370
    35
390
0
 62
     7
 48
0.1375
100
AcDbLine
 10
416.119537
 20
82.067955
 30
0.0
 11
420.008636
 21
78.178871
 31
0.0
210
0.0
220
0.0
230
1.0
  0
LINE
  5
AD
100
AcDbEntity
  8
0
370
    35
390
0
 62
     7
100
AcDbLine
 10
416.119537
 20
82.067955
 30
0.0
 11
458.545959
 21
124.494362
 31
0.0
210
0.0
220
0.0
230
1.0
  0
LINE
  5
AE
100
AcDbEntity
  8
0
370
    35
390
0
 62
     7
 48
0.1375
100
AcDbLine
 10
458.545959
 20
124.494362
 30
0.0
 11
462.435028
 21
120.60527
 31
0.0
210
0.0
220
0.0
230
1.0
  0
LINE
  5
AF
100
AcDbEntity
  8
0
370
    35
390
0
 62
     7
 48
0.25
100
AcDbLine
 10
397.656342
 20
230.707565
 30
0.0
 11
397.656342
 21
220.707565
 31
0.0
210
0.0
220
0.0
230
1.0
  0
LINE
  5
B0
100
AcDbEntity
  8
0
370
    35
390
0
 62
     7
 48
0.1375
100
AcDbLine
 10
397.656342
 20
220.707565
 30
0.0
 11
392.156342
 21
220.707565
 31
0.0
210
0.0
220
0.0
230
1.0
  0
LINE
  5
B1
100
AcDbEntity
  8
0
370
    35
390
0
 62
     7
 48
0.25
100
AcDbLine
 10
392.156342
 20
220.707565
 30
0.0
 11
392.156342
 21
230.707565
 31
0.0
210
0.0
220
0.0
230
1.0
  0
LINE
  5
B2
100
AcDbEntity
  8
0
370
    35
390
0
 62
     7
 48
0.1375
100
AcDbLine
 10
392.156342
 20
230.707565
 30
0.0
 11
397.656342
 21
230.707565
 31
0.0
210
0.0
220
0.0
230
1.0
  0
LINE
  5
B3
100
AcDbEntity
  8
0
370
    35
390
0
 62
     7
 48
0.1375
100
AcDbLine
 10
392.156342
 20
60.707565
 30
0.0
 11
397.656342
 21
60.707565
 31
0.0
210
0.0
220
0.0
230
1.0
  0
LINE
  5
B4
100
AcDbEntity
  8
0
370
    35
390
0
 62
     7
 48
0.25
100
AcDbLine
 10
392.156342
 20
70.707565
 30
0.0
 11
392.156342
 21
60.707565
 31
0.0
210
0.0
220
0.0
230
1.0
  0
LINE
  5
B5
100
AcDbEntity
  8
0
370
    35
390
0
 62
     7
 48
0.1375
100
AcDbLine
 10
397.656342
 20
70.707565
 30
0.0
 11
392.156342
 21
70.707565
 31
0.0
210
0.0
220
0.0
230
1.0
  0
LINE
  5
B6
100
AcDbEntity
  8
0
370
    35
390
0
 62
     7
 48
0.25
100
AcDbLine
 10
397.656342
 20
60.707565
 30
0.0
 11
397.656342
 21
70.707565
 31
0.0
210
0.0
220
0.0
230
1.0
  0
LINE
  5
B7
100
AcDbEntity
  8
0
370
    35
390
0
 62
     7
 48
0.1375
100
AcDbLine
 10
479.906342
 20
148.457565
 30
0.0
 11
479.906342
 21
142.957565
 31
0.0
210
0.0
220
0.0
230
1.0
  0
LINE
  5
B8
100
AcDbEntity
  8
0
370
    35
390
0
 62
     7
 48
0.25
100
AcDbLine
 10
479.906342
 20
142.957565
 30
0.0
 11
469.906342
 21
142.957565
 31
0.0
210
0.0
220
0.0
230
1.0
  0
LINE
  5
B9
100
AcDbEntity
  8
0
370
    35
390
0
 62
     7
 48
0.1375
100
AcDbLine
 10
469.906342
 20
142.957565
 30
0.0
 11
469.906342
 21
148.457565
 31
0.0
210
0.0
220
0.0
230
1.0
  0
LINE
  5
BA
100
AcDbEntity
  8
0
370
    35
390
0
 62
     7
 48
0.25
100
AcDbLine
 10
469.906342
 20
148.457565
 30
0.0
 11
479.906342
 21
148.457565
 31
0.0
210
0.0
220
0.0
230
1.0
  0
LINE
  5
BB
100
AcDbEntity
  8
0
370
    35
390
0
 62
     7
 48
0.25
100
AcDbLine
 10
319.906342
 20
148.457565
 30
0.0
 11
309.906342
 21
148.457565
 31
0.0
210
0.0
220
0.0
230
1.0
  0
LINE
  5
BC
100
AcDbEntity
  8
0
370
    35
390
0
 62
     7
 48
0.1375
100
AcDbLine
 10
319.906342
 20
142.957565
 30
0.0
 11
319.906342
 21
148.457565
 31
0.0
210
0.0
220
0.0
230
1.0
  0
LINE
  5
BD
100
AcDbEntity
  8
0
370
    35
390
0
 62
     7
 48
0.25
100
AcDbLine
 10
309.906342
 20
142.957565
 30
0.0
 11
319.906342
 21
142.957565
 31
0.0
210
0.0
220
0.0
230
1.0
  0
LINE
  5
BE
100
AcDbEntity
  8
0
370
    35
390
0
 62
     7
 48
0.1375
100
AcDbLine
 10
309.906342
 20
148.457565
 30
0.0
 11
309.906342
 21
142.957565
 31
0.0
210
0.0
220
0.0
230
1.0
  0
CIRCLE
  5
BF
100
AcDbEntity
  8
0
370
    35
390
0
 62
     7
100
AcDbCircle
 10
338.337799
 20
202.276108
 30
0.0
 40
2.0
210
0.0
220
0.0
230
1.0
  0
LINE
  5
C0
100
AcDbEntity
  8
0
370
    35
390
0
 62
     7
 48
0.25
100
AcDbLine
 10
402.956818
 20
261.115967
 30
0.0
 11
412.956818
 21
261.115967
 31
0.0
210
0.0
220
0.0
230
1.0
  0
LINE
  5
C1
100
AcDbEntity
  8
0
370
    35
390
0
 62
     7
 48
0.275
100
AcDbLine
 10
412.956818
 20
261.115967
 30
0.0
 11
412.956818
 21
250.115967
 31
0.0
210
0.0
220
0.0
230
1.0
  0
LINE
  5
C2
100
AcDbEntity
  8
0
370
    35
390
0
 62
     7
100
AcDbLine
 10
412.956818
 20
250.115967
 30
0.0
 11
472.956818
 21
250.115967
 31
0.0
210
0.0
220
0.0
230
1.0
  0
LINE
  5
C3
100
AcDbEntity
  8
0
370
    35
390
0
 62
     7
 48
0.275
100
AcDbLine
 10
472.956818
 20
261.115967
 30
0.0
 11
472.956818
 21
250.115967
 31
0.0
210
0.0
220
0.0
230
1.0
  0
LINE
  5
C4
100
AcDbEntity
  8
0
370
    35
390
0
 62
     7
 48
0.25
100
AcDbLine
 10
482.956818
 20
261.115967
 30
0.0
 11
472.956818
 21
261.115967
 31
0.0
210
0.0
220
0.0
230
1.0
  0
LINE
  5
C5
100
AcDbEntity
  8
0
370
    35
390
0
 62
     7
100
AcDbLine
 10
482.956818
 20
389.115967
 30
0.0
 11
482.956818
 21
261.115967
 31
0.0
210
0.0
220
0.0
230
1.0
  0
LINE
  5
C6
100
AcDbEntity
  8
0
370
    35
390
0
 62
     7
 48
0.25
100
AcDbLine
 10
482.956818
 20
389.115967
 30
0.0
 11
472.956818
 21
389.115967
 31
0.0
210
0.0
220
0.0
230
1.0
  0
LINE
  5
C7
100
AcDbEntity
  8
0
370
    35
390
0
 62
     7
 48
0.275
100
AcDbLine
 10
472.956818
 20
389.115967
 30
0.0
 11
472.956818
 21
400.115967
 31
0.0
210
0.0
220
0.0
230
1.0
  0
LINE
  5
C8
100
AcDbEntity
  8
0
370
    35
390
0
 62
     7
100
AcDbLine
 10
412.956818
 20
400.115967
 30
0.0
 11
472.956818
 21
400.115967
 31
0.0
210
0.0
220
0.0
230
1.0
  0
LINE
  5
C9
100
AcDbEntity
  8
0
370
    35
390
0
 62
     7
 48
0.275
100
AcDbLine
 10
412.956818
 20
389.115967
 30
0.0
 11
412.956818
 21
400.115967
 31
0.0
210
0.0
220
0.0
230
1.0
  0
LINE
  5
CA
100
AcDbEntity
  8
0
370
    35
390
0
 62
     7
 48
0.25
100
AcDbLine
 10
402.956818
 20
389.115967
 30
0.0
 11
412.956818
 21
389.115967
 31
0.0
210
0.0
220
0.0
230
1.0
  0
LINE
  5
CB
100
AcDbEntity
  8
0
370
    35
390
0
 62
     7
100
AcDbLine
 10
402.956818
 20
389.115967
 30
0.0
 11
402.956818
 21
261.115967
 31
0.0
210
0.0
220
0.0
230
1.0
  0
POINT
  5
CC
100
AcDbEntity
  8
0
370
     5
390
0
 62
     7
100
AcDbPoint
 10
9.411594
 20
410.785034
 30
0.0
210
0.0
220
0.0
230
1.0
  0
LINE
  5
CD
100
AcDbEntity
  8
0
370
    35
390
0
 62
     7
100
AcDbLine
 10
9.411594
 20
410.785034
 30
0.0
 11
9.411594
 21
374.198761
 31
0.0
210
0.0
220
0.0
230
1.0
  0
LINE
  5
CE
100
AcDbEntity
  8
0
370
    35
390
0
 62
     7
100
AcDbLine
 10
9.411594
 20
410.785034
 30
0.0
 11
48.439434
 21
410.785034
 31
0.0
210
0.0
220
0.0
230
1.0
  0
LINE
  5
CF
100
AcDbEntity
  8
0
370
    35
390
0
 62
     7
100
AcDbLine
 10
48.439434
 20
410.785034
 30
0.0
 11
9.411594
 21
374.198761
 31
0.0
210
0.0
220
0.0
230
1.0
  0
LINE
  5
D0
100
AcDbEntity
  8
0
370
    35
390
0
 62
     7
 48
0.25
100
AcDbLine
 10
18.016251
 20
79.637482
 30
0.0
 11
28.016251
 21
79.637482
 31
0.0
210
0.0
220
0.0
230
1.0
  0
LINE
  5
D1
100
AcDbEntity
  8
0
370
    35
390
0
 62
     7
 48
0.275
100
AcDbLine
 10
28.016251
 20
79.637482
 30
0.0
 11
28.016251
 21
68.637482
 31
0.0
210
0.0
220
0.0
230
1.0
  0
LINE
  5
D2
100
AcDbEntity
  8
0
370
    35
390
0
 62
     7
100
AcDbLine
 10
28.016251
 20
68.637482
 30
0.0
 11
88.016251
 21
68.637482
 31
0.0
210
0.0
220
0.0
230
1.0
  0
LINE
  5
D3
100
AcDbEntity
  8
0
370
    35
390
0
 62
     7
 48
0.275
100
AcDbLine
 10
88.016251
 20
79.637482
 30
0.0
 11
88.016251
 21
68.637482
 31
0.0
210
0.0
220
0.0
230
1.0
  0
LINE
  5
D4
100
AcDbEntity
  8
0
370
    35
390
0
 62
     7
 48
0.25
100
AcDbLine
 10
98.016251
 20
79.637482
 30
0.0
 11
88.016251
 21
79.637482
 31
0.0
210
0.0
220
0.0
230
1.0
  0
LINE
  5
D5
100
AcDbEntity
  8
0
370
    35
390
0
 62
     7
100
AcDbLine
 10
98.016251
 20
207.637482
 30
0.0
 11
98.016251
 21
79.637482
 31
0.0
210
0.0
220
0.0
230
1.0
  0
LINE
  5
D6
100
AcDbEntity
  8
0
370
    35
390
0
 62
     7
 48
0.25
100
AcDbLine
 10
98.016251
 20
207.637482
 30
0.0
 11
88.016251
 21
207.637482
 31
0.0
210
0.0
220
0.0
230
1.0
  0
LINE
  5
D7
100
AcDbEntity
  8
0
370
    35
390
0
 62
     7
 48
0.275
100
AcDbLine
 10
88.016251
 20
207.637482
 30
0.0
 11
88.016251
 21
218.637482
 31
0.0
210
0.0
220
0.0
230
1.0
  0
LINE
  5
D8
100
AcDbEntity
  8
0
370
    35
390
0
 62
     7
100
AcDbLine
 10
28.016251
 20
218.637482
 30
0.0
 11
88.016251
 21
218.637482
 31
0.0
210
0.0
220
0.0
230
1.0
  0
LINE
  5
D9
100
AcDbEntity
  8
0
370
    35
390
0
 62
     7
 48
0.275
100
AcDbLine
 10
28.016251
 20
207.637482
 30
0.0
 11
28.016251
 21
218.637482
 31
0.0
210
0.0
220
0.0
230
1.0
  0
LINE
  5
DA
100
AcDbEntity
  8
0
370
    35
390
0
 62
     7
 48
0.25
100
AcDbLine
 10
18.016251
 20
207.637482
 30
0.0
 11
28.016251
 21
207.637482
 31
0.0
210
0.0
220
0.0
230
1.0
  0
LINE
  5
DB
100
AcDbEntity
  8
0
370
    35
390
0
 62
     7
100
AcDbLine
 10
18.016251
 20
207.637482
 30
0.0
 11
18.016251
 21
79.637482
 31
0.0
210
0.0
220
0.0
230
1.0
  0
LINE
  5
DC
100
AcDbEntity
  8
0
370
    35
390
0
 62
     7
 48
0.25
100
AcDbLine
 10
487.710571
 20
257.993073
 30
0.0
 11
497.710571
 21
257.993073
 31
0.0
210
0.0
220
0.0
230
1.0
  0
LINE
  5
DD
100
AcDbEntity
  8
0
370
    35
390
0
 62
     7
 48
0.275
100
AcDbLine
 10
497.710571
 20
257.993073
 30
0.0
 11
497.710571
 21
246.993073
 31
0.0
210
0.0
220
0.0
230
1.0
  0
LINE
  5
DE
100
AcDbEntity
  8
0
370
    35
390
0
 62
     7
100
AcDbLine
 10
497.710571
 20
246.993073
 30
0.0
 11
557.710571
 21
246.993073
 31
0.0
210
0.0
220
0.0
230
1.0
  0
LINE
  5
DF
100
AcDbEntity
  8
0
370
    35
390
0
 62
     7
 48
0.275
100
AcDbLine
 10
557.710571
 20
257.993073
 30
0.0
 11
557.710571
 21
246.993073
 31
0.0
210
0.0
220
0.0
230
1.0
  0
LINE
  5
E0
100
AcDbEntity
  8
0
370
    35
390
0
 62
     7
 48
0.25
100
AcDbLine
 10
567.710571
 20
257.993073
 30
0.0
 11
557.710571
 21
257.993073
 31
0.0
210
0.0
220
0.0
230
1.0
  0
LINE
  5
E1
100
AcDbEntity
  8
0
370
    35
390
0
 62
     7
100
AcDbLine
 10
567.710571
 20
385.993073
 30
0.0
 11
567.710571
 21
257.993073
 31
0.0
210
0.0
220
0.0
230
1.0
  0
LINE
  5
E2
100
AcDbEntity
  8
0
370
    35
390
0
 62
     7
 48
0.25
100
AcDbLine
 10
567.710571
 20
385.993073
 30
0.0
 11
557.710571
 21
385.993073
 31
0.0
210
0.0
220
0.0
230
1.0
  0
LINE
  5
E3
100
AcDbEntity
  8
0
370
    35
390
0
 62
     7
 48
0.275
100
AcDbLine
 10
557.710571
 20
385.993073
 30
0.0
 11
557.710571
 21
396.993073
 31
0.0
210
0.0
220
0.0
230
1.0
  0
LINE
  5
E4
100
AcDbEntity
  8
0
370
    35
390
0
 62
     7
100
AcDbLine
 10
497.710571
 20
396.993073
 30
0.0
 11
557.710571
 21
396.993073
 31
0.0
210
0.0
220
0.0
230
1.0
  0
LINE
  5
E5
100
AcDbEntity
  8
0
370
    35
390
0
 62
     7
 48
0.275
100
AcDbLine
 10
497.710571
 20
385.993073
 30
0.0
 11
497.710571
 21
396.993073
 31
0.0
210
0.0
220
0.0
230
1.0
  0
LINE
  5
E6
100
AcDbEntity
  8
0
370
    35
390
0
 62
     7
 48
0.25
100
AcDbLine
 10
487.710571
 20
385.993073
 30
0.0
 11
497.710571
 21
385.993073
 31
0.0
210
0.0
220
0.0
230
1.0
  0
LINE
  5
E7
100
AcDbEntity
  8
0
370
    35
390
0
 62
     7
100
AcDbLine
 10
487.710571
 20
385.993073
 30
0.0
 11
487.710571
 21
257.993073
 31
0.0
210
0.0
220
0.0
230
1.0
  0
LINE
  5
E8
100
AcDbEntity
  8
0
370
    35
390
0
 62
     7
 48
0.25
100
AcDbLine
 10
494.316772
 20
104.369705
 30
0.0
 11
504.316772
 21
104.369705
 31
0.0
210
0.0
220
0.0
230
1.0
  0
LINE
  5
E9
100
AcDbEntity
  8
0
370
    35
390
0
 62
     7
 48
0.275
100
AcDbLine
 10
504.316772
 20
104.369705
 30
0.0
 11
504.316772
 21
93.369705
 31
0.0
210
0.0
220
0.0
230
1.0
  0
LINE
  5
EA
100
AcDbEntity
  8
0
370
    35
390
0
 62
     7
100
AcDbLine
 10
504.316772
 20
93.369705
 30
0.0
 11
564.316772
 21
93.369705
 31
0.0
210
0.0
220
0.0
230
1.0
  0
LINE
  5
EB
100
AcDbEntity
  8
0
370
    35
390
0
 62
     7
 48
0.275
100
AcDbLine
 10
564.316772
 20
104.369705
 30
0.0
 11
564.316772
 21
93.369705
 31
0.0
210
0.0
220
0.0
230
1.0
  0
LINE
  5
EC
100
AcDbEntity
  8
0
370
    35
390
0
 62
     7
 48
0.25
100
AcDbLine
 10
574.316772
 20
104.369705
 30
0.0
 11
564.316772
 21
104.369705
 31
0.0
210
0.0
220
0.0
230
1.0
  0
LINE
  5
ED
100
AcDbEntity
  8
0
370
    35
390
0
 62
     7
100
AcDbLine
 10
574.316772
 20
232.369705
 30
0.0
 11
574.316772
 21
104.369705
 31
0.0
210
0.0
220
0.0
230
1.0
  0
LINE
  5
EE
100
AcDbEntity
  8
0
370
    35
390
0
 62
     7
 48
0.25
100
AcDbLine
 10
574.316772
 20
232.369705
 30
0.0
 11
564.316772
 21
232.369705
 31
0.0
210
0.0
220
0.0
230
1.0
  0
LINE
  5
EF
100
AcDbEntity
  8
0
370
    35
390
0
 62
     7
 48
0.275
100
AcDbLine
 10
564.316772
 20
232.369705
 30
0.0
 11
564.316772
 21
243.369705
 31
0.0
210
0.0
220
0.0
230
1.0
  0
LINE
  5
F0
100
AcDbEntity
  8
0
370
    35
390
0
 62
     7
100
AcDbLine
 10
504.316772
 20
243.369705
 30
0.0
 11
564.316772
 21
243.369705
 31
0.0
210
0.0
220
0.0
230
1.0
  0
LINE
  5
F1
100
AcDbEntity
  8
0
370
    35
390
0
 62
     7
 48
0.275
100
AcDbLine
 10
504.316772
 20
232.369705
 30
0.0
 11
504.316772
 21
243.369705
 31
0.0
210
0.0
220
0.0
230
1.0
  0
LINE
  5
F2
100
AcDbEntity
  8
0
370
    35
390
0
 62
     7
 48
0.25
100
AcDbLine
 10
494.316772
 20
232.369705
 30
0.0
 11
504.316772
 21
232.369705
 31
0.0
210
0.0
220
0.0
230
1.0
  0
LINE
  5
F3
100
AcDbEntity
  8
0
370
    35
390
0
 62
     7
100
AcDbLine
 10
494.316772
 20
232.369705
 30
0.0
 11
494.316772
 21
104.369705
 31
0.0
210
0.0
220
0.0
230
1.0
  0
LINE
  5
F4
100
AcDbEntity
  8
0
370
    35
390
0
 62
     5
100
AcDbLine
 10
502.525574
 20
85.210068
 30
0.0
 11
532.525574
 21
85.210068
 31
0.0
210
0.0
220
0.0
230
1.0
  0
LINE
  5
F5
100
AcDbEntity
  8
0
370
    35
390
0
 62
     5
100
AcDbLine
 10
502.525574
 20
55.210068
 30
0.0
 11
502.525574
 21
85.210068
 31
0.0
210
0.0
220
0.0
230
1.0
  0
LINE
  5
F6
100
AcDbEntity
  8
0
370
    35
390
0
 62
     5
100
AcDbLine
 10
532.525574
 20
55.210068
 30
0.0
 11
502.525574
 21
55.210068
 31
0.0
210
0.0
220
0.0
230
1.0
  0
LINE
  5
F7
100
AcDbEntity
  8
0
370
    35
390
0
 62
     5
100
AcDbLine
 10
532.525574
 20
85.210068
 30
0.0
 11
532.525574
 21
55.210068
 31
0.0
210
0.0
220
0.0
230
1.0
  0
CIRCLE
  5
F8
100
AcDbEntity
  8
0
370
    35
390
0
 62
     5
100
AcDbCircle
 10
512.47052
 20
70.210068
 30
0.0
 40
1.0
210
0.0
220
0.0
230
1.0
  0
CIRCLE
  5
F9
100
AcDbEntity
  8
0
370
    35
390
0
 62
     5
100
AcDbCircle
 10
522.514893
 20
82.680069
 30
0.0
 40
0.75
210
0.0
220
0.0
230
1.0
  0
LINE
  5
FA
100
AcDbEntity
  8
0
370
    35
390
0
 62
     5
 48
0.2475
100
AcDbLine
 10
510.225586
 20
82.660065
 30
0.0
 11
510.225586
 21
72.760071
 31
0.0
210
0.0
220
0.0
230
1.0
  0
LINE
  5
FB
100
AcDbEntity
  8
0
370
    35
390
0
 62
     5
 48
0.135001
100
AcDbLine
 10
510.225586
 20
72.760071
 30
0.0
 11
504.825562
 21
72.760071
 31
0.0
210
0.0
220
0.0
230
1.0
  0
LINE
  5
FC
100
AcDbEntity
  8
0
370
    35
390
0
 62
     5
 48
0.2475
100
AcDbLine
 10
504.825562
 20
72.760071
 30
0.0
 11
504.825562
 21
82.660065
 31
0.0
210
0.0
220
0.0
230
1.0
  0
LINE
  5
FD
100
AcDbEntity
  8
0
370
    35
390
0
 62
     5
 48
0.135001
100
AcDbLine
 10
504.825562
 20
82.660065
 30
0.0
 11
510.225586
 21
82.660065
 31
0.0
210
0.0
220
0.0
230
1.0
  0
LINE
  5
FE
100
AcDbEntity
  8
0
370
    35
390
0
 62
     5
 48
0.248
100
AcDbLine
 10
520.235596
 20
82.670067
 30
0.0
 11
520.235596
 21
72.750069
 31
0.0
210
0.0
220
0.0
230
1.0
  0
LINE
  5
FF
100
AcDbEntity
  8
0
370
    35
390
0
 62
     5
 48
0.135501
100
AcDbLine
 10
520.235596
 20
72.750069
 30
0.0
 11
514.815552
 21
72.750069
 31
0.0
210
0.0
220
0.0
230
1.0
  0
LINE
  5
100
100
AcDbEntity
  8
0
370
    35
390
0
 62
     5
 48
0.248
100
AcDbLine
 10
514.815552
 20
72.750069
 30
0.0
 11
514.815552
 21
82.670067
 31
0.0
210
0.0
220
0.0
230
1.0
  0
LINE
  5
101
100
AcDbEntity
  8
0
370
    35
390
0
 62
     5
 48
0.135501
100
AcDbLine
 10
514.815552
 20
82.670067
 30
0.0
 11
520.235596
 21
82.670067
 31
0.0
210
0.0
220
0.0
230
1.0
  0
LINE
  5
102
100
AcDbEntity
  8
0
370
    35
390
0
 62
     5
 48
0.2485
100
AcDbLine
 10
530.245544
 20
82.680069
 30
0.0
 11
530.245544
 21
72.740067
 31
0.0
210
0.0
220
0.0
230
1.0
  0
LINE
  5
103
100
AcDbEntity
  8
0
370
    35
390
0
 62
     5
 48
0.135999
100
AcDbLine
 10
530.245544
 20
72.740067
 30
0.0
 11
524.805603
 21
72.740067
 31
0.0
210
0.0
220
0.0
230
1.0
  0
LINE
  5
104
100
AcDbEntity
  8
0
370
    35
390
0
 62
     5
 48
0.2485
100
AcDbLine
 10
524.805603
 20
72.740067
 30
0.0
 11
524.805603
 21
82.680069
 31
0.0
210
0.0
220
0.0
230
1.0
  0
LINE
  5
105
100
AcDbEntity
  8
0
370
    35
390
0
 62
     5
 48
0.135999
100
AcDbLine
 10
524.805603
 20
82.680069
 30
0.0
 11
530.245544
 21
82.680069
 31
0.0
210
0.0
220
0.0
230
1.0
  0
LINE
  5
106
100
AcDbEntity
  8
0
370
    35
390
0
 62
     5
 48
0.2465
100
AcDbLine
 10
520.205566
 20
67.640068
 30
0.0
 11
520.205566
 21
57.780067
 31
0.0
210
0.0
220
0.0
230
1.0
  0
LINE
  5
107
100
AcDbEntity
  8
0
370
    35
390
0
 62
     5
 48
0.134
100
AcDbLine
 10
520.205566
 20
57.780067
 30
0.0
 11
514.845581
 21
57.780067
 31
0.0
210
0.0
220
0.0
230
1.0
  0
LINE
  5
108
100
AcDbEntity
  8
0
370
    35
390
0
 62
     5
 48
0.2465
100
AcDbLine
 10
514.845581
 20
57.780067
 30
0.0
 11
514.845581
 21
67.640068
 31
0.0
210
0.0
220
0.0
230
1.0
  0
LINE
  5
109
100
AcDbEntity
  8
0
370
    35
390
0
 62
     5
 48
0.134
100
AcDbLine
 10
514.845581
 20
67.640068
 30
0.0
 11
520.205566
 21
67.640068
 31
0.0
210
0.0
220
0.0
230
1.0
  0
LINE
  5
10A
100
AcDbEntity
  8
0
370
    35
390
0
 62
     5
 48
0.247
100
AcDbLine
 10
530.215576
 20
67.65007
 30
0.0
 11
530.215576
 21
57.770069
 31
0.0
210
0.0
220
0.0
230
1.0
  0
LINE
  5
10B
100
AcDbEntity
  8
0
370
    35
390
0
 62
     5
 48
0.1345
100
AcDbLine
 10
530.215576
 20
57.770069
 30
0.0
 11
524.835571
 21
57.770069
 31
0.0
210
0.0
220
0.0
230
1.0
  0
LINE
  5
10C
100
AcDbEntity
  8
0
370
    35
390
0
 62
     5
 48
0.247
100
AcDbLine
 10
524.835571
 20
57.770069
 30
0.0
 11
524.835571
 21
67.65007
 31
0.0
210
0.0
220
0.0
230
1.0
  0
LINE
  5
10D
100
AcDbEntity
  8
0
370
    35
390
0
 62
     5
 48
0.1345
100
AcDbLine
 10
524.835571
 20
67.65007
 30
0.0
 11
530.215576
 21
67.65007
 31
0.0
210
0.0
220
0.0
230
1.0
  0
LINE
  5
10E
100
AcDbEntity
  8
0
370
    35
390
0
 62
     5
 48
0.246
100
AcDbLine
 10
510.195587
 20
67.630066
 30
0.0
 11
510.195587
 21
57.79007
 31
0.0
210
0.0
220
0.0
230
1.0
  0
LINE
  5
10F
100
AcDbEntity
  8
0
370
    35
390
0
 62
     5
 48
0.133501
100
AcDbLine
 10
510.195587
 20
57.79007
 30
0.0
 11
504.85556
 21
57.79007
 31
0.0
210
0.0
220
0.0
230
1.0
  0
LINE
  5
110
100
AcDbEntity
  8
0
370
    35
390
0
 62
     5
 48
0.246
100
AcDbLine
 10
504.85556
 20
57.79007
 30
0.0
 11
504.85556
 21
67.630066
 31
0.0
210
0.0
220
0.0
230
1.0
  0
LINE
  5
111
100
AcDbEntity
  8
0
370
    35
390
0
 62
     5
 48
0.133501
100
AcDbLine
 10
504.85556
 20
67.630066
 30
0.0
 11
510.195587
 21
67.630066
 31
0.0
210
0.0
220
0.0
230
1.0
  0
LINE
  5
112
100
AcDbEntity
  8
0
370
    35
390
0
 62
     5
 48
0.1375
100
AcDbLine
 10
558.075562
 20
80.210068
 30
0.0
 11
558.075562
 21
85.710068
 31
0.0
210
0.0
220
0.0
230
1.0
  0
LINE
  5
113
100
AcDbEntity
  8
0
370
    35
390
0
 62
     5
 48
0.252499
100
AcDbLine
 10
547.975586
 20
85.710068
 30
0.0
 11
558.075562
 21
85.710068
 31
0.0
210
0.0
220
0.0
230
1.0
  0
LINE
  5
114
100
AcDbEntity
  8
0
370
    35
390
0
 62
     5
 48
0.1375
100
AcDbLine
 10
547.975586
 20
80.210068
 30
0.0
 11
547.975586
 21
85.710068
 31
0.0
210
0.0
220
0.0
230
1.0
  0
LINE
  5
115
100
AcDbEntity
  8
0
370
    35
390
0
 62
     5
 48
0.12375
100
AcDbLine
 10
547.975586
 20
80.210068
 30
0.0
 11
543.025574
 21
80.210068
 31
0.0
210
0.0
220
0.0
230
1.0
  0
LINE
  5
116
100
AcDbEntity
  8
0
370
    35
390
0
 62
     5
 48
0.124
100
AcDbLine
 10
543.025574
 20
80.210068
 30
0.0
 11
543.025574
 21
75.250069
 31
0.0
210
0.0
220
0.0
230
1.0
  0
LINE
  5
117
100
AcDbEntity
  8
0
370
    35
390
0
 62
     5
 48
0.1375
100
AcDbLine
 10
543.025574
 20
75.250069
 30
0.0
 11
537.525574
 21
75.250069
 31
0.0
210
0.0
220
0.0
230
1.0
  0
LINE
  5
118
100
AcDbEntity
  8
0
370
    35
390
0
 62
     5
 48
0.252
100
AcDbLine
 10
537.525574
 20
65.170067
 30
0.0
 11
537.525574
 21
75.250069
 31
0.0
210
0.0
220
0.0
230
1.0
  0
LINE
  5
119
100
AcDbEntity
  8
0
370
    35
390
0
 62
     5
 48
0.1375
100
AcDbLine
 10
543.025574
 20
65.170067
 30
0.0
 11
537.525574
 21
65.170067
 31
0.0
210
0.0
220
0.0
230
1.0
  0
LINE
  5
11A
100
AcDbEntity
  8
0
370
    35
390
0
 62
     5
 48
0.124
100
AcDbLine
 10
543.025574
 20
60.210068
 30
0.0
 11
543.025574
 21
65.170067
 31
0.0
210
0.0
220
0.0
230
1.0
  0
LINE
  5
11B
100
AcDbEntity
  8
0
370
    35
390
0
 62
     5
 48
0.12325
100
AcDbLine
 10
543.025574
 20
60.210068
 30
0.0
 11
547.955566
 21
60.210068
 31
0.0
210
0.0
220
0.0
230
1.0
  0
LINE
  5
11C
100
AcDbEntity
  8
0
370
    35
390
0
 62
     5
 48
0.1375
100
AcDbLine
 10
547.955566
 20
60.210068
 30
0.0
 11
547.955566
 21
54.710068
 31
0.0
210
0.0
220
0.0
230
1.0
  0
LINE
  5
11D
100
AcDbEntity
  8
0
370
    35
390
0
 62
     5
 48
0.2535
100
AcDbLine
 10
558.095581
 20
54.710068
 30
0.0
 11
547.955566
 21
54.710068
 31
0.0
210
0.0
220
0.0
230
1.0
  0
LINE
  5
11E
100
AcDbEntity
  8
0
370
    35
390
0
 62
     5
 48
0.1375
100
AcDbLine
 10
558.095581
 20
60.210068
 30
0.0
 11
558.095581
 21
54.710068
 31
0.0
210
0.0
220
0.0
230
1.0
  0
LINE
  5
11F
100
AcDbEntity
  8
0
370
    35
390
0
 62
     5
 48
0.12325
100
AcDbLine
 10
563.025574
 20
60.210068
 30
0.0
 11
558.095581
 21
60.210068
 31
0.0
210
0.0
220
0.0
230
1.0
  0
LINE
  5
120
100
AcDbEntity
  8
0
370
    35
390
0
 62
     5
 48
0.1235
100
AcDbLine
 10
563.025574
 20
60.210068
 30
0.0
 11
563.025574
 21
65.15007
 31
0.0
210
0.0
220
0.0
230
1.0
  0
LINE
  5
121
100
AcDbEntity
  8
0
370
    35
390
0
 62
     5
 48
0.1375
100
AcDbLine
 10
563.025574
 20
65.15007
 30
0.0
 11
568.525574
 21
65.15007
 31
0.0
210
0.0
220
0.0
230
1.0
  0
LINE
  5
122
100
AcDbEntity
  8
0
370
    35
390
0
 62
     5
 48
0.253
100
AcDbLine
 10
568.525574
 20
75.270065
 30
0.0
 11
568.525574
 21
65.15007
 31
0.0
210
0.0
220
0.0
230
1.0
  0
LINE
  5
123
100
AcDbEntity
  8
0
370
    35
390
0
 62
     5
 48
0.1375
100
AcDbLine
 10
563.025574
 20
75.270065
 30
0.0
 11
568.525574
 21
75.270065
 31
0.0
210
0.0
220
0.0
230
1.0
  0
LINE
  5
124
100
AcDbEntity
  8
0
370
    35
390
0
 62
     5
 48
0.1235
100
AcDbLine
 10
563.025574
 20
80.210068
 30
0.0
 11
563.025574
 21
75.270065
 31
0.0
210
0.0
220
0.0
230
1.0
  0
LINE
  5
125
100
AcDbEntity
  8
0
370
    35
390
0
 62
     5
 48
0.12375
100
AcDbLine
 10
558.075562
 20
80.210068
 30
0.0
 11
563.025574
 21
80.210068
 31
0.0
210
0.0
220
0.0
230
1.0
  0
CIRCLE
  5
126
100
AcDbEntity
  8
0
370
    35
390
0
 62
     5
100
AcDbCircle
 10
553.025574
 20
80.210068
 30
0.0
 40
1.0
210
0.0
220
0.0
230
1.0
  0
CIRCLE
  5
127
100
AcDbEntity
  8
0
370
    35
390
0
 62
     5
100
AcDbCircle
 10
563.025574
 20
70.210068
 30
0.0
 40
2.0
210
0.0
220
0.0
230
1.0
  0
ENDSEC
  0
SECTION
  2
OBJECTS
  0
DICTIONARY
  5
19
100
AcDbDictionary
280
     0
281
     1
  3
ACAD_GROUP
350
1A
  3
ACAD_MLINESTYLE
350
1B
  3
ACAD_LAYOUT
350
1E
  3
ACAD_PLOTSETTINGS
350
22
  3
ACAD_PLOTSTYLENAME
350
1F
  3
ACAD_WIPEOUT_VARS
350
23
  0
DICTIONARY
  5
1A
102
{ACAD_REACTORS
330
19
102
}
100
AcDbDictionary
280
     0
281
     1
  0
DICTIONARY
  5
1B
102
{ACAD_REACTORS
330
19
102
}
100
AcDbDictionary
280
     0
281
     1
  3
Standard
350
1C
  0
MLINESTYLE
  5
1C
102
{ACAD_REACTORS
330
1B
102
}
100
AcDbMlineStyle
  2
Standard
 70
     0
  3

 62
     0
 51
90.0
 52
90.0
 71
     2
 49
0.5
 62
   256
  6
ByLayer
 49
-0.5
 62
   256
  6
ByLayer
  0
ACDBDICTIONARYWDFLT
  5
1F
102
{ACAD_REACTORS
330
19
102
}
100
AcDbDictionary
281
     1
  3
Normal
350
1D
100
AcDbDictionaryWithDefault
340
1D
  0
ACDBPLACEHOLDER
  5
1D
102
{ACAD_REACTORS
330
1F
102
}
  0
LAYOUT
  5
20
102
{ACAD_REACTORS
330
1E
102
}
100
AcDbPlotSettings
  1

  2

  4

  6

 40
0.0
 41
0.0
 42
0.0
 43
0.0
 44
0.0
 45
0.0
 46
0.0
 47
0.0
 48
0.0
 49
0.0
140
0.0
141
0.0
142
1.0
143
1.0
 70
  1024
 72
     0
 73
     0
 74
     0
  7

 75
     0
147
1.0
148
0.0
149
0.0
100
AcDbLayout
  1
Model
 70
     0
 71
     0
 10
0.0
 20
0.0
 11
0.0
 21
0.0
 12
0.0
 22
0.0
 32
0.0
 14
0.0
 24
0.0
 34
0.0
 15
0.0
 25
0.0
 35
0.0
146
0.0
 13
0.0
 23
0.0
 33
0.0
 16
0.0
 26
0.0
 36
0.0
 17
0.0
 27
0.0
 37
0.0
 76
     0
330
A
331
0
345
0
346
0
  0
LAYOUT
  5
21
102
{ACAD_REACTORS
330
1E
102
}
100
AcDbPlotSettings
  1

  2

  4

  6

 40
0.0
 41
0.0
 42
0.0
 43
0.0
 44
0.0
 45
0.0
 46
0.0
 47
0.0
 48
0.0
 49
0.0
140
0.0
141
0.0
142
1.0
143
1.0
 70
     0
 72
     0
 73
     0
 74
     0
  7

 75
     0
147
1.0
148
0.0
149
0.0
100
AcDbLayout
  1
Layout1
 70
     0
 71
     0
 10
0.0
 20
0.0
 11
0.0
 21
0.0
 12
0.0
 22
0.0
 32
0.0
 14
0.0
 24
0.0
 34
0.0
 15
0.0
 25
0.0
 35
0.0
146
0.0
 13
0.0
 23
0.0
 33
0.0
 16
0.0
 26
0.0
 36
0.0
 17
0.0
 27
0.0
 37
0.0
 76
     0
330
B
331
0
345
0
346
0
  0
DICTIONARY
  5
1E
102
{ACAD_REACTORS
330
19
102
}
100
AcDbDictionary
280
     0
281
     1
  3
Layout1
350
21
  3
Model
350
20
  0
DICTIONARY
  5
22
102
{ACAD_REACTORS
330
19
102
}
100
AcDbDictionary
280
     0
281
     1
  0
WIPEOUTVARIABLES
  5
23
100
AcDbWipeoutVariables
 70
     1
  0
ENDSEC
  0
EOF
