  0
SECTION
  2
HEADER
  9
$ACADVER
  1
AC1015
  9
$ACADMAINTVER
 70
     6
  9
$DWGCODEPAGE
  3
ANSI_1252
  9
$INSBASE
 10
0.0
 20
0.0
 30
0.0
  9
$EXTMIN
 10
0.0
 20
0.0
 30
0.0
  9
$EXTMAX
 10
536.089539
 20
416.718567
 30
2.0
  9
$LIMMIN
 10
0.0
 20
0.0
  9
$LIMMAX
 10
420.0
 20
297.0
  9
$ORTHOMODE
 70
     0
  9
$REGENMODE
 70
     1
  9
$FILLMODE
 70
     1
  9
$QTEXTMODE
 70
     0
  9
$MIRRTEXT
 70
     1
  9
$LTSCALE
 40
1.0
  9
$ATTMODE
 70
     1
  9
$TEXTSIZE
 40
2.5
  9
$TRACEWID
 40
1.0
  9
$TEXTSTYLE
  7
Standard
  9
$CLAYER
  8
0
  9
$CELTYPE
  6
ByLayer
  9
$CECOLOR
 62
   256
  9
$CELTSCALE
 40
1.0
  9
$DISPSILH
 70
     0
  9
$DIMSCALE
 40
1.0
  9
$DIMASZ
 40
2.5
  9
$DIMEXO
 40
0.625
  9
$DIMDLI
 40
3.75
  9
$DIMRND
 40
0.0
  9
$DIMDLE
 40
0.0
  9
$DIMEXE
 40
1.25
  9
$DIMTP
 40
0.0
  9
$DIMTM
 40
0.0
  9
$DIMTXT
 40
2.5
  9
$DIMCEN
 40
2.5
  9
$DIMTSZ
 40
0.0
  9
$DIMTOL
 70
     0
  9
$DIMLIM
 70
     0
  9
$DIMTIH
 70
     0
  9
$DIMTOH
 70
     0
  9
$DIMSE1
 70
     0
  9
$DIMSE2
 70
     0
  9
$DIMTAD
 70
     1
  9
$DIMZIN
 70
     8
  9
$DIMBLK
  1

  9
$DIMASO
 70
     1
  9
$DIMSHO
 70
     1
  9
$DIMPOST
  1

  9
$DIMAPOST
  1

  9
$DIMALT
 70
     0
  9
$DIMALTD
 70
     3
  9
$DIMALTF
 40
0.03937
  9
$DIMLFAC
 40
1.0
  9
$DIMTOFL
 70
     1
  9
$DIMTVP
 40
0.0
  9
$DIMTIX
 70
     0
  9
$DIMSOXD
 70
     0
  9
$DIMSAH
 70
     0
  9
$DIMBLK1
  1

  9
$DIMBLK2
  1

  9
$DIMSTYLE
  2

  9
$DIMCLRD
 70
     0
  9
$DIMCLRE
 70
     0
  9
$DIMCLRT
 70
     0
  9
$DIMTFAC
 40
1.0
  9
$DIMGAP
 40
0.625
  9
$DIMJUST
 70
     0
  9
$DIMSD1
 70
     0
  9
$DIMSD2
 70
     0
  9
$DIMTOLJ
 70
     0
  9
$DIMTZIN
 70
     8
  9
$DIMALTZ
 70
     0
  9
$DIMALTTZ
 70
     0
  9
$DIMUPT
 70
     0
  9
$DIMDEC
 70
     2
  9
$DIMTDEC
 70
     2
  9
$DIMALTU
 70
     2
  9
$DIMALTTD
 70
     3
  9
$DIMTXSTY
  7
Standard
  9
$DIMAUNIT
 70
     0
  9
$DIMADEC
 70
     0
  9
$DIMALTRND
 40
0.0
  9
$DIMAZIN
 70
     0
  9
$DIMDSEP
 70
    44
  9
$DIMATFIT
 70
     0
  9
$DIMFRAC
 70
     0
  9
$DIMLDRBLK
  1

  9
$DIMLUNIT
 70
     2
  9
$DIMLWD
 70
    -2
  9
$DIMLWE
 70
    -2
  9
$DIMTMOVE
 70
     0
  9
$LUNITS
 70
     2
  9
$LUPREC
 70
     4
  9
$SKETCHINC
 40
1.0
  9
$FILLETRAD
 40
2.5
  9
$AUNITS
 70
     0
  9
$AUPREC
 70
     0
  9
$MENU
  1
.
  9
$ELEVATION
 40
0.0
  9
$PELEVATION
 40
0.0
  9
$THICKNESS
 40
0.0
  9
$LIMCHECK
 70
     0
  9
$CHAMFERA
 40
2.5
  9
$CHAMFERB
 40
2.5
  9
$CHAMFERC
 40
0.0
  9
$CHAMFERD
 40
0.0
  9
$SKPOLY
 70
     0
  9
$TDCREATE
 40
0.000000000
  9
$TDUCREATE
 40
0.000000000
  9
$TDUPDATE
 40
0.000000000
  9
$TDUUPDATE
 40
0.000000000
  9
$TDINDWG
 40
0.0000000000
  9
$TDUSRTIMER
 40
0.0000000000
  9
$USRTIMER
 70
     1
  9
$ANGBASE
 50
0.0
  9
$ANGDIR
 70
     0
  9
$PDMODE
 70
     0
  9
$PDSIZE
 40
0.0
  9
$PLINEWID
 40
0.0
  9
$SPLFRAME
 70
     0
  9
$SPLINETYPE
 70
     6
  9
$SPLINESEGS
 70
     8
  9
$HANDSEED
  5
243
  9
$SURFTAB1
 70
     6
  9
$SURFTAB2
 70
     6
  9
$SURFTYPE
 70
     6
  9
$SURFU
 70
     6
  9
$SURFV
 70
     6
  9
$UCSBASE
  2

  9
$UCSNAME
  2

  9
$UCSORG
 10
0.0
 20
0.0
 30
0.0
  9
$UCSXDIR
 10
1.0
 20
0.0
 30
0.0
  9
$UCSYDIR
 10
0.0
 20
1.0
 30
0.0
  9
$UCSORTHOREF
  2

  9
$UCSORTHOVIEW
 70
     1
  9
$UCSORGTOP
 10
0.0
 20
0.0
 30
0.0
  9
$UCSORGBOTTOM
 10
0.0
 20
0.0
 30
0.0
  9
$UCSORGLEFT
 10
0.0
 20
0.0
 30
0.0
  9
$UCSORGRIGHT
 10
0.0
 20
0.0
 30
0.0
  9
$UCSORGFRONT
 10
0.0
 20
0.0
 30
0.0
  9
$UCSORGBACK
 10
0.0
 20
0.0
 30
0.0
  9
$PUCSBASE
  2

  9
$PUCSNAME
  2

  9
$PUCSORG
 10
0.0
 20
0.0
 30
0.0
  9
$PUCSXDIR
 10
1.0
 20
0.0
 30
0.0
  9
$PUCSYDIR
 10
0.0
 20
1.0
 30
0.0
  9
$PUCSORTHOREF
  2

  9
$PUCSORTHOVIEW
 70
     0
  9
$PUCSORGTOP
 10
0.0
 20
0.0
 30
0.0
  9
$PUCSORGBOTTOM
 10
0.0
 20
0.0
 30
0.0
  9
$PUCSORGLEFT
 10
0.0
 20
0.0
 30
0.0
  9
$PUCSORGRIGHT
 10
0.0
 20
0.0
 30
0.0
  9
$PUCSORGFRONT
 10
0.0
 20
0.0
 30
0.0
  9
$PUCSORGBACK
 10
0.0
 20
0.0
 30
0.0
  9
$USERI1
 70
     0
  9
$USERI2
 70
     0
  9
$USERI3
 70
     0
  9
$USERI4
 70
     0
  9
$USERI5
 70
     0
  9
$USERR1
 40
0.0
  9
$USERR2
 40
0.0
  9
$USERR3
 40
0.0
  9
$USERR4
 40
0.0
  9
$USERR5
 40
0.0
  9
$WORLDVIEW
 70
     1
  9
$SHADEDGE
 70
     3
  9
$SHADEDIF
 70
    70
  9
$TILEMODE
 70
     1
  9
$MAXACTVP
 70
    48
  9
$PINSBASE
 10
0.0
 20
0.0
 30
0.0
  9
$PLIMCHECK
 70
     0
  9
$PEXTMIN
 10
0.0
 20
0.0
 30
0.0
  9
$PEXTMAX
 10
536.089539
 20
416.718567
 30
2.0
  9
$PLIMMIN
 10
0.0
 20
0.0
  9
$PLIMMAX
 10
420.0
 20
297.0
  9
$UNITMODE
 70
     0
  9
$VISRETAIN
 70
     0
  9
$PLINEGEN
 70
     0
  9
$PSLTSCALE
 70
     1
  9
$TREEDEPTH
 70
  3020
  9
$CMLSTYLE
  2
Standard
  9
$CMLJUST
 70
     0
  9
$CMLSCALE
 40
20.0
  9
$PROXYGRAPHICS
 70
     1
  9
$MEASUREMENT
 70
     1
  9
$CELWEIGHT
370
    -1
  9
$ENDCAPS
280
     0
  9
$JOINSTYLE
280
     0
  9
$LWDISPLAY
290
     0
  9
$INSUNITS
 70
     0
  9
$HYPERLINKBASE
  1

  9
$STYLESHEET
  1

  9
$XEDIT
290
     1
  9
$CEPSNTYPE
380
     0
  9
$PSTYLEMODE
290
     0
  9
$FINGERPRINTGUID
  2

  9
$VERSIONGUID
  2

  9
$EXTNAMES
290
     0
  9
$PSVPSCALE
 40
0.0
  0
ENDSEC
  0
SECTION
  2
CLASSES
  0
CLASS
  1
LWPOLYLINE
  2
AcDbPolyline
  3
AutoCAD 2000
 90
        0
280
     0
281
     1
  0
CLASS
  1
IMAGE
  2
AcDbRasterImage
  3
ISM
 90
      127
280
     0
281
     1
  0
CLASS
  1
OLE2FRAME
  2
AcDbOle2Frame
  3
AutoCAD 2000
 90
        0
280
     0
281
     1
  0
CLASS
  1
HATCH
  2
AcDbHatch
  3
AutoCAD 2000
 90
        0
280
     0
281
     1
  0
CLASS
  1
DICTIONARYVAR
  2
AcDbDictionaryVar
  3
AutoCAD 2000
 90
        0
280
     0
281
     0
  0
CLASS
  1
RASTERVARIABLES
  2
AcDbRasterVariables
  3
ISM
 90
        0
280
     0
281
     0
  0
CLASS
  1
IMAGEDEF
  2
AcDbRasterImageDef
  3
ISM
 90
        0
280
     0
281
     0
  0
CLASS
  1
IMAGEDEF_REACTOR
  2
AcDbRasterImageDefReactor
  3
ISM
 90
        1
280
     0
281
     0
  0
CLASS
  1
IDBUFFER
  2
AcDbIdBuffer
  3
AutoCAD 2000
 90
        0
280
     0
281
     0
  0
CLASS
  1
SPATIAL_FILTER
  2
AcDbSpatialFilter
  3
AutoCAD 2000
 90
        0
280
     0
281
     0
  0
CLASS
  1
XRECORD
  2
AcDbXrecord
  3
AutoCAD 2000
 90
        0
280
     0
281
     0
  0
CLASS
  1
SORTENTSTABLE
  2
AcDbSortentsTable
  3
AutoCAD 2000
 90
        0
280
     0
281
     0
  0
CLASS
  1
LAYER_INDEX
  2
AcDbLayerIndex
  3
AutoCAD 2000
 90
        0
280
     0
281
     0
  0
CLASS
  1
SPATIAL_INDEX
  2
AcDbSpatialIndex
  3
AutoCAD 2000
 90
        0
280
     0
281
     0
  0
CLASS
  1
OBJECT_PTR
  2
CAseDLPNTableRecord
  3
"ASE-LPNTableRecord"
 90
        1
280
     0
281
     0
  0
CLASS
  1
LAYOUT
  2
AcDbLayout
  3
AutoCAD 2000
 90
        0
280
     0
281
     0
  0
CLASS
  1
PLOTSETTINGS
  2
AcDbPlotSettings
  3
AutoCAD 2000
 90
        0
280
     0
281
     0
  0
CLASS
  1
ACDBDICTIONARYWDFLT
  2
AcDbDictionaryWithDefault
  3
AutoCAD 2000
 90
        0
280
     0
281
     0
  0
CLASS
  1
ACDBPLACEHOLDER
  2
AcDbPlaceHolder
  3
AutoCAD 2000
 90
        0
280
     0
281
     0
  0
CLASS
  1
VBA_PROJECT
  2
AcDbVbaProject
  3
acadvba
 90
        0
280
     0
281
     0
  0
CLASS
  1
WIPEOUT
  2
AcDbWipeout
  3
WipeOut|AutoCAD Express Tool|expresstools@autodesk.com
 90
      127
280
     0
281
     1
  0
CLASS
  1
WIPEOUTVARIABLES
  2
AcDbWipeoutVariables
  3
WipeOut|AutoCAD Express Tool|expresstools@autodesk.com
 90
        0
280
     0
281
     0
  0
CLASS
  1
RTEXT
  2
RText
  3
RText|AutoCAD Express Tool|expresstools@autodesk.com
 90
        0
280
     0
281
     1
  0
CLASS
  1
ARCALIGNEDTEXT
  2
AcDbArcAlignedText
  3
ATEXT|AutoCAD Express Tool|expresstools@autodesk.com
 90
        0
280
     0
281
     1
  0
ENDSEC
  0
SECTION
  2
TABLES
  0
TABLE
  2
VPORT
  5
7
100
AcDbSymbolTable
 70
     1
  0
VPORT
  5
15
100
AcDbSymbolTableRecord
100
AcDbViewportTableRecord
  2
*ACTIVE
 70
     0
 10
0.0
 20
0.0
 11
1.0
 21
1.0
 12
6.591288
 22
4.579184
 13
0.0
 23
0.0
 14
1.0
 24
1.0
 15
0.0
 25
0.0
 16
0.0
 26
0.0
 36
1.0
 17
0.0
 27
0.0
 37
0.0
 40
9.158369
 41
0.688564
 42
50.0
 43
0.0
 44
0.0
 50
0.0
 51
0.0
 71
     0
 72
   100
 73
     1
 74
     1
 75
     0
 76
     0
 77
     0
 78
     0
281
     0
 65
     0
110
0.0
120
0.0
130
0.0
111
1.0
121
0.0
131
0.0
112
0.0
122
1.0
132
0.0
345
0
346
0
 79
     0
146
0.0
  0
ENDTAB
  0
TABLE
  2
LTYPE
  5
4
100
AcDbSymbolTable
 70
     3
  0
LTYPE
  5
11
100
AcDbSymbolTableRecord
100
AcDbLinetypeTableRecord
  2
ByBlock
 70
    64
  3

 72
    65
 73
     0
 40
0.0
  0
LTYPE
  5
12
100
AcDbSymbolTableRecord
100
AcDbLinetypeTableRecord
  2
ByLayer
 70
    64
  3

 72
    65
 73
     0
 40
0.0
  0
LTYPE
  5
13
100
AcDbSymbolTableRecord
100
AcDbLinetypeTableRecord
  2
Continuous
 70
    64
  3
Solid line
 72
    65
 73
     0
 40
0.0
  0
ENDTAB
  0
TABLE
  2
LAYER
  5
2
100
AcDbSymbolTable
 70
     1
  0
LAYER
  5
14
100
AcDbSymbolTableRecord
100
AcDbLayerTableRecord
  2
0
 70
     0
 62
     7
  6
Continuous
290
     1
370
    -3
390
1D
  0
ENDTAB
  0
TABLE
  2
STYLE
  5
3
100
AcDbSymbolTable
 70
     1
  0
STYLE
  5
17
100
AcDbSymbolTableRecord
100
AcDbTextStyleTableRecord
  2
Standard
 70
     0
 40
0.0
 41
1.0
 50
0.0
 71
     0
 42
0.0
  3
txt
  4

  0
ENDTAB
  0
TABLE
  2
VIEW
  5
5
100
AcDbSymbolTable
 70
     0
  0
ENDTAB
  0
TABLE
  2
UCS
  5
6
100
AcDbSymbolTable
 70
     0
  0
ENDTAB
  0
TABLE
  2
APPID
  5
8
100
AcDbSymbolTable
 70
     1
  0
APPID
  5
16
100
AcDbSymbolTableRecord
100
AcDbRegAppTableRecord
  2
ACAD
 70
     0
  0
ENDTAB
  0
TABLE
  2
DIMSTYLE
  5
9
100
AcDbSymbolTable
 70
     1
100
AcDbDimStyleTable
 71
     0
  0
DIMSTYLE
105
18
100
AcDbSymbolTableRecord
100
AcDbDimStyleTableRecord
  2
Standard
 70
     0
  3

  4

 40
1.0
 41
0.18
 42
0.0625
 43
0.38
 44
0.18
 45
0.0
 46
0.0
 47
0.0
 48
0.0
 71
     0
 72
     0
 73
     1
 74
     1
 75
     0
 76
     0
 77
     0
 78
     0
 79
     0
140
0.18
141
0.09
142
0.0
143
25.4
144
1.0
145
0.0
146
1.0
147
0.09
148
0.0
170
     0
171
     2
172
     0
173
     0
174
     0
175
     0
176
     0
177
     0
178
     0
179
     0
271
     4
272
     4
273
     2
274
     2
275
     0
276
     0
277
     2
278
    46
279
     0
280
     0
281
     0
282
     0
283
     1
284
     0
285
     0
286
     0
288
     0
289
     3
340
17
341
0
342
0
343
0
344
0
371
    -2
372
    -2
  0
ENDTAB
  0
TABLE
  2
BLOCK_RECORD
  5
1
100
AcDbSymbolTable
 70
     0
  0
BLOCK_RECORD
  5
A
100
AcDbSymbolTableRecord
100
AcDbBlockTableRecord
  2
*MODEL_SPACE
340
20
  0
BLOCK_RECORD
  5
B
100
AcDbSymbolTableRecord
100
AcDbBlockTableRecord
  2
*PAPER_SPACE
340
21
  0
ENDTAB
  0
ENDSEC
  0
SECTION
  2
BLOCKS
  0
BLOCK
  5
D
100
AcDbEntity
  8
0
390
0
100
AcDbBlockBegin
  2
*MODEL_SPACE
 70
     0
 10
0.0
 20
0.0
 30
0.0
  3
*MODEL_SPACE
  1

  0
ENDBLK
  5
E
100
AcDbEntity
  8
0
390
0
100
AcDbBlockEnd
  0
BLOCK
  5
F
100
AcDbEntity
 67
     1
  8
0
390
0
100
AcDbBlockBegin
  2
*PAPER_SPACE
 70
     0
 10
0.0
 20
0.0
 30
0.0
  3
*PAPER_SPACE
  1

  0
ENDBLK
  5
10
100
AcDbEntity
 67
     1
  8
0
390
0
100
AcDbBlockEnd
  0
ENDSEC
  0
SECTION
  2
ENTITIES
  0
VIEWPORT
  5
242
100
AcDbEntity
 67
     1
  8
0
370
     0
390
0
 62
     0
 48
0.0
100
AcDbViewport
 10
0.0
 20
0.0
 30
0.0
 40
1000.0
 41
1000.0
 68
     1
 69
     1
 12
0.0
 22
0.0
 13
0.0
 23
0.0
 14
1.0
 24
1.0
 15
1.0
 25
1.0
 16
0.0
 26
0.0
 36
1.0
 17
0.0
 27
0.0
 37
0.0
 42
50.0
 43
0.0
 44
0.0
 45
1000.0
 50
0.0
 51
0.0
 72
   100
 90
        0
340
0
  1

281
     0
 71
     0
 74
     1
110
0.0
120
0.0
130
0.0
111
1.0
121
0.0
131
0.0
112
0.0
122
1.0
132
0.0
345
0
346
0
 79
     0
146
0.0
  0
LINE
  5
24
100
AcDbEntity
  8
0
370
    35
390
0
 62
     7
 48
0.142548
100
AcDbLine
 10
37.617325
 20
392.209106
 30
0.0
 11
41.649185
 21
388.177246
 31
0.0
210
0.0
220
0.0
230
1.0
  0
LINE
  5
25
100
AcDbEntity
  8
0
370
    35
390
0
 62
     7
 48
0.374999
100
AcDbLine
 10
41.649185
 20
388.177246
 30
0.0
 11
31.042587
 21
377.570679
 31
0.0
210
0.0
220
0.0
230
1.0
  0
ARC
  5
26
100
AcDbEntity
  8
0
370
    35
390
0
 62
     7
100
AcDbCircle
 10
98.924835
 20
320.295013
 30
0.0
 40
94.5
210
0.0
220
0.0
230
1.0
100
AcDbArc
 50
319.552071
 51
40.447929
  0
ARC
  5
27
100
AcDbEntity
  8
0
370
    35
390
0
 62
     7
100
AcDbCircle
 10
98.924835
 20
320.295013
 30
0.0
 40
94.5
210
0.0
220
0.0
230
1.0
100
AcDbArc
 50
229.552075
 51
310.447927
  0
ARC
  5
28
100
AcDbEntity
  8
0
370
    35
390
0
 62
     7
100
AcDbCircle
 10
98.924835
 20
320.295013
 30
0.0
 40
94.5
210
0.0
220
0.0
230
1.0
100
AcDbArc
 50
139.552076
 51
220.447924
  0
CIRCLE
  5
29
100
AcDbEntity
  8
0
370
    35
390
0
 62
     6
100
AcDbCircle
 10
98.924835
 20
320.295013
 30
0.0
 40
55.0
210
0.0
220
0.0
230
1.0
  0
LINE
  5
2A
100
AcDbEntity
  8
0
370
    35
390
0
 62
     4
 48
0.127705
100
AcDbLine
 10
127.767014
 20
300.467529
 30
0.0
 11
132.190857
 21
297.913452
 31
0.0
210
0.0
220
0.0
230
1.0
  0
LINE
  5
2B
100
AcDbEntity
  8
0
370
    35
390
0
 62
     4
 48
0.1375
100
AcDbLine
 10
132.190857
 20
297.913452
 30
0.0
 11
134.940857
 21
302.676575
 31
0.0
210
0.0
220
0.0
230
1.0
  0
LINE
  5
2C
100
AcDbEntity
  8
0
370
    35
390
0
 62
     4
 48
0.127705
100
AcDbLine
 10
134.940857
 20
302.676575
 30
0.0
 11
130.517014
 21
305.230682
 31
0.0
210
0.0
220
0.0
230
1.0
  0
ARC
  5
2D
100
AcDbEntity
  8
0
370
    35
390
0
 62
     4
100
AcDbCircle
 10
98.924835
 20
320.295013
 30
0.0
 40
35.0
210
0.0
220
0.0
230
1.0
100
AcDbArc
 50
334.506456
 51
25.493544
  0
LINE
  5
2E
100
AcDbEntity
  8
0
370
    35
390
0
 62
     4
 48
0.127705
100
AcDbLine
 10
130.517014
 20
335.359344
 30
0.0
 11
134.940857
 21
337.913452
 31
0.0
210
0.0
220
0.0
230
1.0
  0
LINE
  5
2F
100
AcDbEntity
  8
0
370
    35
390
0
 62
     4
 48
0.1375
100
AcDbLine
 10
134.940857
 20
337.913452
 30
0.0
 11
132.190857
 21
342.676575
 31
0.0
210
0.0
220
0.0
230
1.0
  0
LINE
  5
30
100
AcDbEntity
  8
0
370
    35
390
0
 62
     4
 48
0.127705
100
AcDbLine
 10
132.190857
 20
342.676575
 30
0.0
 11
127.767014
 21
340.122498
 31
0.0
210
0.0
220
0.0
230
1.0
  0
ARC
  5
31
100
AcDbEntity
  8
0
370
    35
390
0
 62
     4
100
AcDbCircle
 10
98.924835
 20
320.295013
 30
0.0
 40
35.0
210
0.0
220
0.0
230
1.0
100
AcDbArc
 50
34.506457
 51
85.493546
  0
LINE
  5
32
100
AcDbEntity
  8
0
370
    35
390
0
 62
     4
 48
0.127705
100
AcDbLine
 10
101.674835
 20
355.186798
 30
0.0
 11
101.674835
 21
360.295013
 31
0.0
210
0.0
220
0.0
230
1.0
  0
LINE
  5
33
100
AcDbEntity
  8
0
370
    35
390
0
 62
     4
 48
0.1375
100
AcDbLine
 10
101.674835
 20
360.295013
 30
0.0
 11
96.174835
 21
360.295013
 31
0.0
210
0.0
220
0.0
230
1.0
  0
LINE
  5
34
100
AcDbEntity
  8
0
370
    35
390
0
 62
     4
 48
0.127705
100
AcDbLine
 10
96.174835
 20
360.295013
 30
0.0
 11
96.174835
 21
355.186798
 31
0.0
210
0.0
220
0.0
230
1.0
  0
ARC
  5
35
100
AcDbEntity
  8
0
370
    35
390
0
 62
     4
100
AcDbCircle
 10
98.924835
 20
320.295013
 30
0.0
 40
35.0
210
0.0
220
0.0
230
1.0
100
AcDbArc
 50
94.506459
 51
145.493548
  0
LINE
  5
36
100
AcDbEntity
  8
0
370
    35
390
0
 62
     4
 48
0.127705
100
AcDbLine
 10
70.082657
 20
340.122498
 30
0.0
 11
65.658813
 21
342.676575
 31
0.0
210
0.0
220
0.0
230
1.0
  0
LINE
  5
37
100
AcDbEntity
  8
0
370
    35
390
0
 62
     4
 48
0.1375
100
AcDbLine
 10
65.658813
 20
342.676575
 30
0.0
 11
62.908817
 21
337.913452
 31
0.0
210
0.0
220
0.0
230
1.0
  0
LINE
  5
38
100
AcDbEntity
  8
0
370
    35
390
0
 62
     4
 48
0.127705
100
AcDbLine
 10
62.908817
 20
337.913452
 30
0.0
 11
67.332657
 21
335.359344
 31
0.0
210
0.0
220
0.0
230
1.0
  0
ARC
  5
39
100
AcDbEntity
  8
0
370
    35
390
0
 62
     4
100
AcDbCircle
 10
98.924835
 20
320.295013
 30
0.0
 40
35.0
210
0.0
220
0.0
230
1.0
100
AcDbArc
 50
154.506461
 51
205.493539
  0
LINE
  5
3A
100
AcDbEntity
  8
0
370
    35
390
0
 62
     4
 48
0.127705
100
AcDbLine
 10
67.332657
 20
305.230682
 30
0.0
 11
62.908817
 21
302.676575
 31
0.0
210
0.0
220
0.0
230
1.0
  0
LINE
  5
3B
100
AcDbEntity
  8
0
370
    35
390
0
 62
     4
 48
0.1375
100
AcDbLine
 10
62.908817
 20
302.676575
 30
0.0
 11
65.658813
 21
297.913452
 31
0.0
210
0.0
220
0.0
230
1.0
  0
LINE
  5
3C
100
AcDbEntity
  8
0
370
    35
390
0
 62
     4
 48
0.127705
100
AcDbLine
 10
65.658813
 20
297.913452
 30
0.0
 11
70.082657
 21
300.467529
 31
0.0
210
0.0
220
0.0
230
1.0
  0
ARC
  5
3D
100
AcDbEntity
  8
0
370
    35
390
0
 62
     4
100
AcDbCircle
 10
98.924835
 20
320.295013
 30
0.0
 40
35.0
210
0.0
220
0.0
230
1.0
100
AcDbArc
 50
214.506452
 51
265.493541
  0
LINE
  5
3E
100
AcDbEntity
  8
0
370
    35
390
0
 62
     4
 48
0.127705
100
AcDbLine
 10
96.174835
 20
285.403229
 30
0.0
 11
96.174835
 21
280.295013
 31
0.0
210
0.0
220
0.0
230
1.0
  0
LINE
  5
3F
100
AcDbEntity
  8
0
370
    35
390
0
 62
     4
 48
0.1375
100
AcDbLine
 10
96.174835
 20
280.295013
 30
0.0
 11
101.674835
 21
280.295013
 31
0.0
210
0.0
220
0.0
230
1.0
  0
LINE
  5
40
100
AcDbEntity
  8
0
370
    35
390
0
 62
     4
 48
0.127705
100
AcDbLine
 10
101.674835
 20
280.295013
 30
0.0
 11
101.674835
 21
285.403229
 31
0.0
210
0.0
220
0.0
230
1.0
  0
ARC
  5
41
100
AcDbEntity
  8
0
370
    35
390
0
 62
     4
100
AcDbCircle
 10
98.924835
 20
320.295013
 30
0.0
 40
35.0
210
0.0
220
0.0
230
1.0
100
AcDbArc
 50
274.506454
 51
325.493543
  0
CIRCLE
  5
42
100
AcDbEntity
  8
0
370
    35
390
0
 62
     6
100
AcDbCircle
 10
98.924835
 20
320.295013
 30
0.0
 40
70.0
210
0.0
220
0.0
230
1.0
  0
LINE
  5
43
100
AcDbEntity
  8
0
370
    35
390
0
 62
     4
 48
0.1375
100
AcDbLine
 10
49.073807
 20
387.8237
 30
0.0
 11
45.184719
 21
391.712799
 31
0.0
210
0.0
220
0.0
230
1.0
  0
LINE
  5
44
100
AcDbEntity
  8
0
370
    35
390
0
 62
     4
 48
0.1875
100
AcDbLine
 10
50.488022
 20
397.016113
 30
0.0
 11
45.184719
 21
391.712799
 31
0.0
210
0.0
220
0.0
230
1.0
  0
LINE
  5
45
100
AcDbEntity
  8
0
370
    35
390
0
 62
     4
 48
0.1375
100
AcDbLine
 10
50.488022
 20
397.016113
 30
0.0
 11
54.37711
 21
393.127014
 31
0.0
210
0.0
220
0.0
230
1.0
  0
LINE
  5
46
100
AcDbEntity
  8
0
370
    35
390
0
 62
     4
 48
0.1875
100
AcDbLine
 10
49.073807
 20
387.8237
 30
0.0
 11
54.37711
 21
393.127014
 31
0.0
210
0.0
220
0.0
230
1.0
  0
LINE
  5
47
100
AcDbEntity
  8
0
370
    35
390
0
 62
     4
 48
0.1875
100
AcDbLine
 10
27.50705
 20
374.035126
 30
0.0
 11
22.203751
 21
368.731812
 31
0.0
210
0.0
220
0.0
230
1.0
  0
LINE
  5
48
100
AcDbEntity
  8
0
370
    35
390
0
 62
     4
 48
0.1375
100
AcDbLine
 10
31.396141
 20
370.146057
 30
0.0
 11
27.50705
 21
374.035126
 31
0.0
210
0.0
220
0.0
230
1.0
  0
LINE
  5
49
100
AcDbEntity
  8
0
370
    35
390
0
 62
     4
 48
0.1875
100
AcDbLine
 10
26.092834
 20
364.842743
 30
0.0
 11
31.396141
 21
370.146057
 31
0.0
210
0.0
220
0.0
230
1.0
  0
LINE
  5
4A
100
AcDbEntity
  8
0
370
    35
390
0
 62
     4
 48
0.1375
100
AcDbLine
 10
22.203751
 20
368.731812
 30
0.0
 11
26.092834
 21
364.842743
 31
0.0
210
0.0
220
0.0
230
1.0
  0
LINE
  5
4B
100
AcDbEntity
  8
0
370
    35
390
0
 62
     7
 48
0.142548
100
AcDbLine
 10
31.042587
 20
377.570679
 30
0.0
 11
27.010727
 21
381.602539
 31
0.0
210
0.0
220
0.0
230
1.0
  0
ARC
  5
4C
100
AcDbEntity
  8
0
370
    35
390
0
 62
     7
100
AcDbCircle
 10
98.924835
 20
320.295013
 30
0.0
 40
94.5
210
0.0
220
0.0
230
1.0
100
AcDbArc
 50
49.552073
 51
130.447925
  0
LINE
  5
4D
100
AcDbEntity
  8
0
370
    35
390
0
 62
     7
 48
0.142548
100
AcDbLine
 10
166.807083
 20
263.019348
 30
0.0
 11
170.838943
 21
258.987488
 31
0.0
210
0.0
220
0.0
230
1.0
  0
LINE
  5
4E
100
AcDbEntity
  8
0
370
    35
390
0
 62
     7
 48
0.375
100
AcDbLine
 10
156.200485
 20
252.412766
 30
0.0
 11
166.807083
 21
263.019348
 31
0.0
210
0.0
220
0.0
230
1.0
  0
LINE
  5
4F
100
AcDbEntity
  8
0
370
    35
390
0
 62
     7
 48
0.142548
100
AcDbLine
 10
160.232346
 20
248.380905
 30
0.0
 11
156.200485
 21
252.412766
 31
0.0
210
0.0
220
0.0
230
1.0
  0
LINE
  5
50
100
AcDbEntity
  8
0
370
    35
390
0
 62
     7
 48
0.142548
100
AcDbLine
 10
41.649185
 20
252.412766
 30
0.0
 11
37.617325
 21
248.380905
 31
0.0
210
0.0
220
0.0
230
1.0
  0
LINE
  5
51
100
AcDbEntity
  8
0
370
    35
390
0
 62
     7
 48
0.375
100
AcDbLine
 10
31.042587
 20
263.019348
 30
0.0
 11
41.649185
 21
252.412766
 31
0.0
210
0.0
220
0.0
230
1.0
  0
LINE
  5
52
100
AcDbEntity
  8
0
370
    35
390
0
 62
     7
 48
0.142548
100
AcDbLine
 10
27.010727
 20
258.987488
 30
0.0
 11
31.042587
 21
263.019348
 31
0.0
210
0.0
220
0.0
230
1.0
  0
LINE
  5
53
100
AcDbEntity
  8
0
370
    35
390
0
 62
     7
 48
0.142548
100
AcDbLine
 10
156.200485
 20
388.177246
 30
0.0
 11
160.232346
 21
392.209106
 31
0.0
210
0.0
220
0.0
230
1.0
  0
LINE
  5
54
100
AcDbEntity
  8
0
370
    35
390
0
 62
     7
 48
0.374999
100
AcDbLine
 10
166.807083
 20
377.570679
 30
0.0
 11
156.200485
 21
388.177246
 31
0.0
210
0.0
220
0.0
230
1.0
  0
LINE
  5
55
100
AcDbEntity
  8
0
370
    35
390
0
 62
     7
 48
0.142548
100
AcDbLine
 10
170.838943
 20
381.602539
 30
0.0
 11
166.807083
 21
377.570679
 31
0.0
210
0.0
220
0.0
230
1.0
  0
LINE
  5
56
100
AcDbEntity
  8
0
370
    35
390
0
 62
     4
 48
0.1875
100
AcDbLine
 10
143.472565
 20
393.127014
 30
0.0
 11
148.775864
 21
387.8237
 31
0.0
210
0.0
220
0.0
230
1.0
  0
LINE
  5
57
100
AcDbEntity
  8
0
370
    35
390
0
 62
     4
 48
0.1375
100
AcDbLine
 10
148.775864
 20
387.8237
 30
0.0
 11
152.664948
 21
391.712799
 31
0.0
210
0.0
220
0.0
230
1.0
  0
LINE
  5
58
100
AcDbEntity
  8
0
370
    35
390
0
 62
     4
 48
0.1875
100
AcDbLine
 10
152.664948
 20
391.712799
 30
0.0
 11
147.361649
 21
397.016113
 31
0.0
210
0.0
220
0.0
230
1.0
  0
LINE
  5
59
100
AcDbEntity
  8
0
370
    35
390
0
 62
     4
 48
0.1375
100
AcDbLine
 10
147.361649
 20
397.016113
 30
0.0
 11
143.472565
 21
393.127014
 31
0.0
210
0.0
220
0.0
230
1.0
  0
LINE
  5
5A
100
AcDbEntity
  8
0
370
    35
390
0
 62
     4
 48
0.1375
100
AcDbLine
 10
175.64592
 20
368.731812
 30
0.0
 11
171.756836
 21
364.842743
 31
0.0
210
0.0
220
0.0
230
1.0
  0
LINE
  5
5B
100
AcDbEntity
  8
0
370
    35
390
0
 62
     4
 48
0.1875
100
AcDbLine
 10
175.64592
 20
368.731812
 30
0.0
 11
170.342621
 21
374.035126
 31
0.0
210
0.0
220
0.0
230
1.0
  0
LINE
  5
5C
100
AcDbEntity
  8
0
370
    35
390
0
 62
     4
 48
0.1375
100
AcDbLine
 10
166.453522
 20
370.146057
 30
0.0
 11
170.342621
 21
374.035126
 31
0.0
210
0.0
220
0.0
230
1.0
  0
LINE
  5
5D
100
AcDbEntity
  8
0
370
    35
390
0
 62
     4
 48
0.1875
100
AcDbLine
 10
166.453522
 20
370.146057
 30
0.0
 11
171.756836
 21
364.842743
 31
0.0
210
0.0
220
0.0
230
1.0
  0
LINE
  5
5E
100
AcDbEntity
  8
0
370
    35
390
0
 62
     4
 48
0.1875
100
AcDbLine
 10
171.756836
 20
275.747284
 30
0.0
 11
166.453522
 21
270.44397
 31
0.0
210
0.0
220
0.0
230
1.0
  0
LINE
  5
5F
100
AcDbEntity
  8
0
370
    35
390
0
 62
     4
 48
0.1375
100
AcDbLine
 10
166.453522
 20
270.44397
 30
0.0
 11
170.342621
 21
266.554901
 31
0.0
210
0.0
220
0.0
230
1.0
  0
LINE
  5
60
100
AcDbEntity
  8
0
370
    35
390
0
 62
     4
 48
0.1875
100
AcDbLine
 10
170.342621
 20
266.554901
 30
0.0
 11
175.64592
 21
271.858215
 31
0.0
210
0.0
220
0.0
230
1.0
  0
LINE
  5
61
100
AcDbEntity
  8
0
370
    35
390
0
 62
     4
 48
0.1375
100
AcDbLine
 10
175.64592
 20
271.858215
 30
0.0
 11
171.756836
 21
275.747284
 31
0.0
210
0.0
220
0.0
230
1.0
  0
LINE
  5
62
100
AcDbEntity
  8
0
370
    35
390
0
 62
     4
 48
0.1375
100
AcDbLine
 10
147.361649
 20
243.573929
 30
0.0
 11
143.472565
 21
247.463013
 31
0.0
210
0.0
220
0.0
230
1.0
  0
LINE
  5
63
100
AcDbEntity
  8
0
370
    35
390
0
 62
     4
 48
0.1875
100
AcDbLine
 10
147.361649
 20
243.573929
 30
0.0
 11
152.664948
 21
248.877228
 31
0.0
210
0.0
220
0.0
230
1.0
  0
LINE
  5
64
100
AcDbEntity
  8
0
370
    35
390
0
 62
     4
 48
0.1375
100
AcDbLine
 10
148.775864
 20
252.766327
 30
0.0
 11
152.664948
 21
248.877228
 31
0.0
210
0.0
220
0.0
230
1.0
  0
LINE
  5
65
100
AcDbEntity
  8
0
370
    35
390
0
 62
     4
 48
0.1875
100
AcDbLine
 10
148.775864
 20
252.766327
 30
0.0
 11
143.472565
 21
247.463013
 31
0.0
210
0.0
220
0.0
230
1.0
  0
LINE
  5
66
100
AcDbEntity
  8
0
370
    35
390
0
 62
     4
 48
0.1875
100
AcDbLine
 10
54.37711
 20
247.463013
 30
0.0
 11
49.073807
 21
252.766327
 31
0.0
210
0.0
220
0.0
230
1.0
  0
LINE
  5
67
100
AcDbEntity
  8
0
370
    35
390
0
 62
     4
 48
0.1375
100
AcDbLine
 10
49.073807
 20
252.766327
 30
0.0
 11
45.184719
 21
248.877228
 31
0.0
210
0.0
220
0.0
230
1.0
  0
LINE
  5
68
100
AcDbEntity
  8
0
370
    35
390
0
 62
     4
 48
0.1875
100
AcDbLine
 10
45.184719
 20
248.877228
 30
0.0
 11
50.488022
 21
243.573929
 31
0.0
210
0.0
220
0.0
230
1.0
  0
LINE
  5
69
100
AcDbEntity
  8
0
370
    35
390
0
 62
     4
 48
0.1375
100
AcDbLine
 10
50.488022
 20
243.573929
 30
0.0
 11
54.37711
 21
247.463013
 31
0.0
210
0.0
220
0.0
230
1.0
  0
LINE
  5
6A
100
AcDbEntity
  8
0
370
    35
390
0
 62
     4
 48
0.1375
100
AcDbLine
 10
22.203751
 20
271.858215
 30
0.0
 11
26.092834
 21
275.747284
 31
0.0
210
0.0
220
0.0
230
1.0
  0
LINE
  5
6B
100
AcDbEntity
  8
0
370
    35
390
0
 62
     4
 48
0.1875
100
AcDbLine
 10
22.203751
 20
271.858215
 30
0.0
 11
27.50705
 21
266.554901
 31
0.0
210
0.0
220
0.0
230
1.0
  0
LINE
  5
6C
100
AcDbEntity
  8
0
370
    35
390
0
 62
     4
 48
0.1375
100
AcDbLine
 10
31.396141
 20
270.44397
 30
0.0
 11
27.50705
 21
266.554901
 31
0.0
210
0.0
220
0.0
230
1.0
  0
LINE
  5
6D
100
AcDbEntity
  8
0
370
    35
390
0
 62
     4
 48
0.1875
100
AcDbLine
 10
31.396141
 20
270.44397
 30
0.0
 11
26.092834
 21
275.747284
 31
0.0
210
0.0
220
0.0
230
1.0
  0
CIRCLE
  5
6E
100
AcDbEntity
  8
0
370
    35
390
0
 62
     7
100
AcDbCircle
 10
98.468773
 20
117.716652
 30
0.0
 40
94.5
210
0.0
220
0.0
230
1.0
  0
ARC
  5
6F
100
AcDbEntity
  8
0
370
    35
390
0
 62
     4
100
AcDbCircle
 10
98.468773
 20
117.716652
 30
0.0
 40
60.0
210
0.0
220
0.0
230
1.0
100
AcDbArc
 50
92.626975
 51
114.740498
  0
LINE
  5
70
100
AcDbEntity
  8
0
370
    35
390
0
 62
     4
 48
0.251576
100
AcDbLine
 10
95.718773
 20
177.653595
 30
0.0
 11
95.718773
 21
187.716644
 31
0.0
210
0.0
220
0.0
230
1.0
  0
LINE
  5
71
100
AcDbEntity
  8
0
370
    35
390
0
 62
     4
 48
0.1375
100
AcDbLine
 10
95.718773
 20
187.716644
 30
0.0
 11
101.218773
 21
187.716644
 31
0.0
210
0.0
220
0.0
230
1.0
  0
LINE
  5
72
100
AcDbEntity
  8
0
370
    35
390
0
 62
     4
 48
0.251576
100
AcDbLine
 10
101.218773
 20
187.716644
 30
0.0
 11
101.218773
 21
177.653595
 31
0.0
210
0.0
220
0.0
230
1.0
  0
ARC
  5
73
100
AcDbEntity
  8
0
370
    35
390
0
 62
     4
100
AcDbCircle
 10
98.468773
 20
117.716652
 30
0.0
 40
60.0
210
0.0
220
0.0
230
1.0
100
AcDbArc
 50
65.259493
 51
87.373023
  0
LINE
  5
74
100
AcDbEntity
  8
0
370
    35
390
0
 62
     4
 48
0.056315
100
AcDbLine
 10
124.705635
 20
174.160233
 30
0.0
 11
123.579323
 21
172.209412
 31
0.0
210
0.0
220
0.0
230
1.0
  0
LINE
  5
75
100
AcDbEntity
  8
0
370
    35
390
0
 62
     4
 48
0.09375
100
AcDbLine
 10
124.705635
 20
174.160233
 30
0.0
 11
121.458038
 21
176.035233
 31
0.0
210
0.0
220
0.0
230
1.0
  0
LINE
  5
76
100
AcDbEntity
  8
0
370
    35
390
0
 62
     4
 48
0.05
100
AcDbLine
 10
121.458038
 20
176.035233
 30
0.0
 11
122.458038
 21
177.767273
 31
0.0
210
0.0
220
0.0
230
1.0
  0
LINE
  5
77
100
AcDbEntity
  8
0
370
    35
390
0
 62
     4
 48
0.06875
100
AcDbLine
 10
122.458038
 20
177.767273
 30
0.0
 11
124.839607
 21
176.392273
 31
0.0
210
0.0
220
0.0
230
1.0
  0
LINE
  5
78
100
AcDbEntity
  8
0
370
    35
390
0
 62
     4
 48
0.23125
100
AcDbLine
 10
124.839607
 20
176.392273
 30
0.0
 11
129.4646
 21
184.403015
 31
0.0
210
0.0
220
0.0
230
1.0
  0
LINE
  5
79
100
AcDbEntity
  8
0
370
    35
390
0
 62
     4
 48
0.325
100
AcDbLine
 10
140.722931
 20
177.903015
 30
0.0
 11
129.4646
 21
184.403015
 31
0.0
210
0.0
220
0.0
230
1.0
  0
LINE
  5
7A
100
AcDbEntity
  8
0
370
    35
390
0
 62
     4
 48
0.23125
100
AcDbLine
 10
136.097931
 20
169.892273
 30
0.0
 11
140.722931
 21
177.903015
 31
0.0
210
0.0
220
0.0
230
1.0
  0
LINE
  5
7B
100
AcDbEntity
  8
0
370
    35
390
0
 62
     4
 48
0.06875
100
AcDbLine
 10
138.479507
 20
168.517273
 30
0.0
 11
136.097931
 21
169.892273
 31
0.0
210
0.0
220
0.0
230
1.0
  0
LINE
  5
7C
100
AcDbEntity
  8
0
370
    35
390
0
 62
     4
 48
0.05
100
AcDbLine
 10
137.479507
 20
166.785233
 30
0.0
 11
138.479507
 21
168.517273
 31
0.0
210
0.0
220
0.0
230
1.0
  0
LINE
  5
7D
100
AcDbEntity
  8
0
370
    35
390
0
 62
     4
 48
0.09375
100
AcDbLine
 10
134.231903
 20
168.660233
 30
0.0
 11
137.479507
 21
166.785233
 31
0.0
210
0.0
220
0.0
230
1.0
  0
LINE
  5
7E
100
AcDbEntity
  8
0
370
    35
390
0
 62
     4
 48
0.056315
100
AcDbLine
 10
134.231903
 20
168.660233
 30
0.0
 11
133.105606
 21
166.709412
 31
0.0
210
0.0
220
0.0
230
1.0
  0
ARC
  5
7F
100
AcDbEntity
  8
0
370
    35
390
0
 62
     4
100
AcDbCircle
 10
98.468773
 20
117.716652
 30
0.0
 40
60.0
210
0.0
220
0.0
230
1.0
100
AcDbArc
 50
32.626977
 51
54.740503
  0
LINE
  5
80
100
AcDbEntity
  8
0
370
    35
390
0
 62
     4
 48
0.251576
100
AcDbLine
 10
149.000687
 20
150.066696
 30
0.0
 11
157.715546
 21
155.098221
 31
0.0
210
0.0
220
0.0
230
1.0
  0
LINE
  5
81
100
AcDbEntity
  8
0
370
    35
390
0
 62
     4
 48
0.1375
100
AcDbLine
 10
157.715546
 20
155.098221
 30
0.0
 11
160.465546
 21
150.335083
 31
0.0
210
0.0
220
0.0
230
1.0
  0
LINE
  5
82
100
AcDbEntity
  8
0
370
    35
390
0
 62
     4
 48
0.251576
100
AcDbLine
 10
160.465546
 20
150.335083
 30
0.0
 11
151.750687
 21
145.303558
 31
0.0
210
0.0
220
0.0
230
1.0
  0
ARC
  5
83
100
AcDbEntity
  8
0
370
    35
390
0
 62
     4
100
AcDbCircle
 10
98.468773
 20
117.716652
 30
0.0
 40
60.0
210
0.0
220
0.0
230
1.0
100
AcDbArc
 50
5.259497
 51
27.373023
  0
LINE
  5
84
100
AcDbEntity
  8
0
370
    35
390
0
 62
     4
 48
0.056316
100
AcDbLine
 10
160.468781
 20
123.216652
 30
0.0
 11
158.216156
 21
123.216652
 31
0.0
210
0.0
220
0.0
230
1.0
  0
LINE
  5
85
100
AcDbEntity
  8
0
370
    35
390
0
 62
     4
 48
0.09375
100
AcDbLine
 10
160.468781
 20
123.216652
 30
0.0
 11
160.468781
 21
126.966652
 31
0.0
210
0.0
220
0.0
230
1.0
  0
LINE
  5
86
100
AcDbEntity
  8
0
370
    35
390
0
 62
     4
 48
0.05
100
AcDbLine
 10
160.468781
 20
126.966652
 30
0.0
 11
162.468781
 21
126.966652
 31
0.0
210
0.0
220
0.0
230
1.0
  0
LINE
  5
87
100
AcDbEntity
  8
0
370
    35
390
0
 62
     4
 48
0.06875
100
AcDbLine
 10
162.468781
 20
126.966652
 30
0.0
 11
162.468781
 21
124.216652
 31
0.0
210
0.0
220
0.0
230
1.0
  0
LINE
  5
88
100
AcDbEntity
  8
0
370
    35
390
0
 62
     4
 48
0.23125
100
AcDbLine
 10
162.468781
 20
124.216652
 30
0.0
 11
171.718781
 21
124.216652
 31
0.0
210
0.0
220
0.0
230
1.0
  0
LINE
  5
89
100
AcDbEntity
  8
0
370
    35
390
0
 62
     4
 48
0.325
100
AcDbLine
 10
171.718781
 20
111.216652
 30
0.0
 11
171.718781
 21
124.216652
 31
0.0
210
0.0
220
0.0
230
1.0
  0
LINE
  5
8A
100
AcDbEntity
  8
0
370
    35
390
0
 62
     4
 48
0.23125
100
AcDbLine
 10
162.468781
 20
111.216652
 30
0.0
 11
171.718781
 21
111.216652
 31
0.0
210
0.0
220
0.0
230
1.0
  0
LINE
  5
8B
100
AcDbEntity
  8
0
370
    35
390
0
 62
     4
 48
0.06875
100
AcDbLine
 10
162.468781
 20
108.466652
 30
0.0
 11
162.468781
 21
111.216652
 31
0.0
210
0.0
220
0.0
230
1.0
  0
LINE
  5
8C
100
AcDbEntity
  8
0
370
    35
390
0
 62
     4
 48
0.05
100
AcDbLine
 10
160.468781
 20
108.466652
 30
0.0
 11
162.468781
 21
108.466652
 31
0.0
210
0.0
220
0.0
230
1.0
  0
LINE
  5
8D
100
AcDbEntity
  8
0
370
    35
390
0
 62
     4
 48
0.09375
100
AcDbLine
 10
160.468781
 20
112.216652
 30
0.0
 11
160.468781
 21
108.466652
 31
0.0
210
0.0
220
0.0
230
1.0
  0
LINE
  5
8E
100
AcDbEntity
  8
0
370
    35
390
0
 62
     4
 48
0.056316
100
AcDbLine
 10
160.468781
 20
112.216652
 30
0.0
 11
158.216156
 21
112.216652
 31
0.0
210
0.0
220
0.0
230
1.0
  0
ARC
  5
8F
100
AcDbEntity
  8
0
370
    35
390
0
 62
     4
100
AcDbCircle
 10
98.468773
 20
117.716652
 30
0.0
 40
60.0
210
0.0
220
0.0
230
1.0
100
AcDbArc
 50
332.626977
 51
354.740503
  0
LINE
  5
90
100
AcDbEntity
  8
0
370
    35
390
0
 62
     4
 48
0.251576
100
AcDbLine
 10
151.750687
 20
90.129745
 30
0.0
 11
160.465546
 21
85.098221
 31
0.0
210
0.0
220
0.0
230
1.0
  0
LINE
  5
91
100
AcDbEntity
  8
0
370
    35
390
0
 62
     4
 48
0.1375
100
AcDbLine
 10
160.465546
 20
85.098221
 30
0.0
 11
157.715546
 21
80.335083
 31
0.0
210
0.0
220
0.0
230
1.0
  0
LINE
  5
92
100
AcDbEntity
  8
0
370
    35
390
0
 62
     4
 48
0.251576
100
AcDbLine
 10
157.715546
 20
80.335083
 30
0.0
 11
149.000687
 21
85.366608
 31
0.0
210
0.0
220
0.0
230
1.0
  0
ARC
  5
93
100
AcDbEntity
  8
0
370
    35
390
0
 62
     4
100
AcDbCircle
 10
98.468773
 20
117.716652
 30
0.0
 40
60.0
210
0.0
220
0.0
230
1.0
100
AcDbArc
 50
305.259497
 51
327.373023
  0
LINE
  5
94
100
AcDbEntity
  8
0
370
    35
390
0
 62
     4
 48
0.056315
100
AcDbLine
 10
134.231903
 20
66.773071
 30
0.0
 11
133.105606
 21
68.7239
 31
0.0
210
0.0
220
0.0
230
1.0
  0
LINE
  5
95
100
AcDbEntity
  8
0
370
    35
390
0
 62
     4
 48
0.09375
100
AcDbLine
 10
134.231903
 20
66.773071
 30
0.0
 11
137.479507
 21
68.648071
 31
0.0
210
0.0
220
0.0
230
1.0
  0
LINE
  5
96
100
AcDbEntity
  8
0
370
    35
390
0
 62
     4
 48
0.05
100
AcDbLine
 10
137.479507
 20
68.648071
 30
0.0
 11
138.479507
 21
66.916031
 31
0.0
210
0.0
220
0.0
230
1.0
  0
LINE
  5
97
100
AcDbEntity
  8
0
370
    35
390
0
 62
     4
 48
0.06875
100
AcDbLine
 10
138.479507
 20
66.916031
 30
0.0
 11
136.097931
 21
65.541031
 31
0.0
210
0.0
220
0.0
230
1.0
  0
LINE
  5
98
100
AcDbEntity
  8
0
370
    35
390
0
 62
     4
 48
0.23125
100
AcDbLine
 10
136.097931
 20
65.541031
 30
0.0
 11
140.722931
 21
57.530293
 31
0.0
210
0.0
220
0.0
230
1.0
  0
LINE
  5
99
100
AcDbEntity
  8
0
370
    35
390
0
 62
     4
 48
0.325
100
AcDbLine
 10
129.4646
 20
51.030289
 30
0.0
 11
140.722931
 21
57.530293
 31
0.0
210
0.0
220
0.0
230
1.0
  0
LINE
  5
9A
100
AcDbEntity
  8
0
370
    35
390
0
 62
     4
 48
0.23125
100
AcDbLine
 10
124.839607
 20
59.041027
 30
0.0
 11
129.4646
 21
51.030289
 31
0.0
210
0.0
220
0.0
230
1.0
  0
LINE
  5
9B
100
AcDbEntity
  8
0
370
    35
390
0
 62
     4
 48
0.06875
100
AcDbLine
 10
122.458038
 20
57.666027
 30
0.0
 11
124.839607
 21
59.041027
 31
0.0
210
0.0
220
0.0
230
1.0
  0
LINE
  5
9C
100
AcDbEntity
  8
0
370
    35
390
0
 62
     4
 48
0.05
100
AcDbLine
 10
121.458038
 20
59.398075
 30
0.0
 11
122.458038
 21
57.666027
 31
0.0
210
0.0
220
0.0
230
1.0
  0
LINE
  5
9D
100
AcDbEntity
  8
0
370
    35
390
0
 62
     4
 48
0.09375
100
AcDbLine
 10
124.705635
 20
61.273075
 30
0.0
 11
121.458038
 21
59.398075
 31
0.0
210
0.0
220
0.0
230
1.0
  0
LINE
  5
9E
100
AcDbEntity
  8
0
370
    35
390
0
 62
     4
 48
0.056315
100
AcDbLine
 10
124.705635
 20
61.273075
 30
0.0
 11
123.579323
 21
63.2239
 31
0.0
210
0.0
220
0.0
230
1.0
  0
ARC
  5
9F
100
AcDbEntity
  8
0
370
    35
390
0
 62
     4
100
AcDbCircle
 10
98.468773
 20
117.716652
 30
0.0
 40
60.0
210
0.0
220
0.0
230
1.0
100
AcDbArc
 50
272.626977
 51
294.740507
  0
LINE
  5
A0
100
AcDbEntity
  8
0
370
    35
390
0
 62
     4
 48
0.251576
100
AcDbLine
 10
101.218773
 20
57.779705
 30
0.0
 11
101.218773
 21
47.716652
 31
0.0
210
0.0
220
0.0
230
1.0
  0
LINE
  5
A1
100
AcDbEntity
  8
0
370
    35
390
0
 62
     4
 48
0.1375
100
AcDbLine
 10
101.218773
 20
47.716652
 30
0.0
 11
95.718773
 21
47.716652
 31
0.0
210
0.0
220
0.0
230
1.0
  0
LINE
  5
A2
100
AcDbEntity
  8
0
370
    35
390
0
 62
     4
 48
0.251576
100
AcDbLine
 10
95.718773
 20
47.716652
 30
0.0
 11
95.718773
 21
57.779705
 31
0.0
210
0.0
220
0.0
230
1.0
  0
ARC
  5
A3
100
AcDbEntity
  8
0
370
    35
390
0
 62
     4
100
AcDbCircle
 10
98.468773
 20
117.716652
 30
0.0
 40
60.0
210
0.0
220
0.0
230
1.0
100
AcDbArc
 50
245.259502
 51
267.373025
  0
LINE
  5
A4
100
AcDbEntity
  8
0
370
    35
390
0
 62
     4
 48
0.056315
100
AcDbLine
 10
72.231911
 20
61.273075
 30
0.0
 11
73.358223
 21
63.2239
 31
0.0
210
0.0
220
0.0
230
1.0
  0
LINE
  5
A5
100
AcDbEntity
  8
0
370
    35
390
0
 62
     4
 48
0.09375
100
AcDbLine
 10
72.231911
 20
61.273075
 30
0.0
 11
75.479507
 21
59.398075
 31
0.0
210
0.0
220
0.0
230
1.0
  0
LINE
  5
A6
100
AcDbEntity
  8
0
370
    35
390
0
 62
     4
 48
0.05
100
AcDbLine
 10
75.479507
 20
59.398075
 30
0.0
 11
74.479507
 21
57.666027
 31
0.0
210
0.0
220
0.0
230
1.0
  0
LINE
  5
A7
100
AcDbEntity
  8
0
370
    35
390
0
 62
     4
 48
0.06875
100
AcDbLine
 10
74.479507
 20
57.666027
 30
0.0
 11
72.097939
 21
59.041027
 31
0.0
210
0.0
220
0.0
230
1.0
  0
LINE
  5
A8
100
AcDbEntity
  8
0
370
    35
390
0
 62
     4
 48
0.23125
100
AcDbLine
 10
72.097939
 20
59.041027
 30
0.0
 11
67.472939
 21
51.030289
 31
0.0
210
0.0
220
0.0
230
1.0
  0
LINE
  5
A9
100
AcDbEntity
  8
0
370
    35
390
0
 62
     4
 48
0.325
100
AcDbLine
 10
56.214607
 20
57.530293
 30
0.0
 11
67.472939
 21
51.030289
 31
0.0
210
0.0
220
0.0
230
1.0
  0
LINE
  5
AA
100
AcDbEntity
  8
0
370
    35
390
0
 62
     4
 48
0.23125
100
AcDbLine
 10
60.839607
 20
65.541031
 30
0.0
 11
56.214607
 21
57.530293
 31
0.0
210
0.0
220
0.0
230
1.0
  0
LINE
  5
AB
100
AcDbEntity
  8
0
370
    35
390
0
 62
     4
 48
0.06875
100
AcDbLine
 10
58.458038
 20
66.916031
 30
0.0
 11
60.839607
 21
65.541031
 31
0.0
210
0.0
220
0.0
230
1.0
  0
LINE
  5
AC
100
AcDbEntity
  8
0
370
    35
390
0
 62
     4
 48
0.05
100
AcDbLine
 10
59.458038
 20
68.648071
 30
0.0
 11
58.458038
 21
66.916031
 31
0.0
210
0.0
220
0.0
230
1.0
  0
LINE
  5
AD
100
AcDbEntity
  8
0
370
    35
390
0
 62
     4
 48
0.09375
100
AcDbLine
 10
62.705635
 20
66.773071
 30
0.0
 11
59.458038
 21
68.648071
 31
0.0
210
0.0
220
0.0
230
1.0
  0
LINE
  5
AE
100
AcDbEntity
  8
0
370
    35
390
0
 62
     4
 48
0.056315
100
AcDbLine
 10
62.705635
 20
66.773071
 30
0.0
 11
63.83194
 21
68.7239
 31
0.0
210
0.0
220
0.0
230
1.0
  0
ARC
  5
AF
100
AcDbEntity
  8
0
370
    35
390
0
 62
     4
100
AcDbCircle
 10
98.468773
 20
117.716652
 30
0.0
 40
60.0
210
0.0
220
0.0
230
1.0
100
AcDbArc
 50
212.626975
 51
234.740505
  0
LINE
  5
B0
100
AcDbEntity
  8
0
370
    35
390
0
 62
     4
 48
0.251576
100
AcDbLine
 10
47.936855
 20
85.366608
 30
0.0
 11
39.221996
 21
80.335083
 31
0.0
210
0.0
220
0.0
230
1.0
  0
LINE
  5
B1
100
AcDbEntity
  8
0
370
    35
390
0
 62
     4
 48
0.1375
100
AcDbLine
 10
39.221996
 20
80.335083
 30
0.0
 11
36.471996
 21
85.098221
 31
0.0
210
0.0
220
0.0
230
1.0
  0
LINE
  5
B2
100
AcDbEntity
  8
0
370
    35
390
0
 62
     4
 48
0.251576
100
AcDbLine
 10
36.471996
 20
85.098221
 30
0.0
 11
45.186855
 21
90.129745
 31
0.0
210
0.0
220
0.0
230
1.0
  0
ARC
  5
B3
100
AcDbEntity
  8
0
370
    35
390
0
 62
     4
100
AcDbCircle
 10
98.468773
 20
117.716652
 30
0.0
 40
60.0
210
0.0
220
0.0
230
1.0
100
AcDbArc
 50
185.2595
 51
207.373016
  0
LINE
  5
B4
100
AcDbEntity
  8
0
370
    35
390
0
 62
     4
 48
0.056315
100
AcDbLine
 10
36.468773
 20
112.216652
 30
0.0
 11
38.72139
 21
112.216652
 31
0.0
210
0.0
220
0.0
230
1.0
  0
LINE
  5
B5
100
AcDbEntity
  8
0
370
    35
390
0
 62
     4
 48
0.09375
100
AcDbLine
 10
36.468773
 20
112.216652
 30
0.0
 11
36.468773
 21
108.466652
 31
0.0
210
0.0
220
0.0
230
1.0
  0
LINE
  5
B6
100
AcDbEntity
  8
0
370
    35
390
0
 62
     4
 48
0.05
100
AcDbLine
 10
36.468773
 20
108.466652
 30
0.0
 11
34.468773
 21
108.466652
 31
0.0
210
0.0
220
0.0
230
1.0
  0
LINE
  5
B7
100
AcDbEntity
  8
0
370
    35
390
0
 62
     4
 48
0.06875
100
AcDbLine
 10
34.468773
 20
108.466652
 30
0.0
 11
34.468773
 21
111.216652
 31
0.0
210
0.0
220
0.0
230
1.0
  0
LINE
  5
B8
100
AcDbEntity
  8
0
370
    35
390
0
 62
     4
 48
0.23125
100
AcDbLine
 10
34.468773
 20
111.216652
 30
0.0
 11
25.218773
 21
111.216652
 31
0.0
210
0.0
220
0.0
230
1.0
  0
LINE
  5
B9
100
AcDbEntity
  8
0
370
    35
390
0
 62
     4
 48
0.325
100
AcDbLine
 10
25.218773
 20
124.216652
 30
0.0
 11
25.218773
 21
111.216652
 31
0.0
210
0.0
220
0.0
230
1.0
  0
LINE
  5
BA
100
AcDbEntity
  8
0
370
    35
390
0
 62
     4
 48
0.23125
100
AcDbLine
 10
34.468773
 20
124.216652
 30
0.0
 11
25.218773
 21
124.216652
 31
0.0
210
0.0
220
0.0
230
1.0
  0
LINE
  5
BB
100
AcDbEntity
  8
0
370
    35
390
0
 62
     4
 48
0.06875
100
AcDbLine
 10
34.468773
 20
126.966652
 30
0.0
 11
34.468773
 21
124.216652
 31
0.0
210
0.0
220
0.0
230
1.0
  0
LINE
  5
BC
100
AcDbEntity
  8
0
370
    35
390
0
 62
     4
 48
0.05
100
AcDbLine
 10
36.468773
 20
126.966652
 30
0.0
 11
34.468773
 21
126.966652
 31
0.0
210
0.0
220
0.0
230
1.0
  0
LINE
  5
BD
100
AcDbEntity
  8
0
370
    35
390
0
 62
     4
 48
0.09375
100
AcDbLine
 10
36.468773
 20
123.216652
 30
0.0
 11
36.468773
 21
126.966652
 31
0.0
210
0.0
220
0.0
230
1.0
  0
LINE
  5
BE
100
AcDbEntity
  8
0
370
    35
390
0
 62
     4
 48
0.056315
100
AcDbLine
 10
36.468773
 20
123.216652
 30
0.0
 11
38.72139
 21
123.216652
 31
0.0
210
0.0
220
0.0
230
1.0
  0
ARC
  5
BF
100
AcDbEntity
  8
0
370
    35
390
0
 62
     4
100
AcDbCircle
 10
98.468773
 20
117.716652
 30
0.0
 40
60.0
210
0.0
220
0.0
230
1.0
100
AcDbArc
 50
152.626984
 51
174.7405
  0
LINE
  5
C0
100
AcDbEntity
  8
0
370
    35
390
0
 62
     4
 48
0.251576
100
AcDbLine
 10
45.186855
 20
145.303558
 30
0.0
 11
36.471996
 21
150.335083
 31
0.0
210
0.0
220
0.0
230
1.0
  0
LINE
  5
C1
100
AcDbEntity
  8
0
370
    35
390
0
 62
     4
 48
0.1375
100
AcDbLine
 10
36.471996
 20
150.335083
 30
0.0
 11
39.221996
 21
155.098221
 31
0.0
210
0.0
220
0.0
230
1.0
  0
LINE
  5
C2
100
AcDbEntity
  8
0
370
    35
390
0
 62
     4
 48
0.251576
100
AcDbLine
 10
39.221996
 20
155.098221
 30
0.0
 11
47.936855
 21
150.066696
 31
0.0
210
0.0
220
0.0
230
1.0
  0
ARC
  5
C3
100
AcDbEntity
  8
0
370
    35
390
0
 62
     4
100
AcDbCircle
 10
98.468773
 20
117.716652
 30
0.0
 40
60.0
210
0.0
220
0.0
230
1.0
100
AcDbArc
 50
125.259495
 51
147.373025
  0
LINE
  5
C4
100
AcDbEntity
  8
0
370
    35
390
0
 62
     4
 48
0.056315
100
AcDbLine
 10
62.705635
 20
168.660233
 30
0.0
 11
63.83194
 21
166.709412
 31
0.0
210
0.0
220
0.0
230
1.0
  0
LINE
  5
C5
100
AcDbEntity
  8
0
370
    35
390
0
 62
     4
 48
0.09375
100
AcDbLine
 10
62.705635
 20
168.660233
 30
0.0
 11
59.458038
 21
166.785233
 31
0.0
210
0.0
220
0.0
230
1.0
  0
LINE
  5
C6
100
AcDbEntity
  8
0
370
    35
390
0
 62
     4
 48
0.05
100
AcDbLine
 10
59.458038
 20
166.785233
 30
0.0
 11
58.458038
 21
168.517273
 31
0.0
210
0.0
220
0.0
230
1.0
  0
LINE
  5
C7
100
AcDbEntity
  8
0
370
    35
390
0
 62
     4
 48
0.06875
100
AcDbLine
 10
58.458038
 20
168.517273
 30
0.0
 11
60.839607
 21
169.892273
 31
0.0
210
0.0
220
0.0
230
1.0
  0
LINE
  5
C8
100
AcDbEntity
  8
0
370
    35
390
0
 62
     4
 48
0.23125
100
AcDbLine
 10
60.839607
 20
169.892273
 30
0.0
 11
56.214607
 21
177.903015
 31
0.0
210
0.0
220
0.0
230
1.0
  0
LINE
  5
C9
100
AcDbEntity
  8
0
370
    35
390
0
 62
     4
 48
0.325
100
AcDbLine
 10
67.472939
 20
184.403015
 30
0.0
 11
56.214607
 21
177.903015
 31
0.0
210
0.0
220
0.0
230
1.0
  0
LINE
  5
CA
100
AcDbEntity
  8
0
370
    35
390
0
 62
     4
 48
0.23125
100
AcDbLine
 10
72.097939
 20
176.392273
 30
0.0
 11
67.472939
 21
184.403015
 31
0.0
210
0.0
220
0.0
230
1.0
  0
LINE
  5
CB
100
AcDbEntity
  8
0
370
    35
390
0
 62
     4
 48
0.06875
100
AcDbLine
 10
74.479507
 20
177.767273
 30
0.0
 11
72.097939
 21
176.392273
 31
0.0
210
0.0
220
0.0
230
1.0
  0
LINE
  5
CC
100
AcDbEntity
  8
0
370
    35
390
0
 62
     4
 48
0.05
100
AcDbLine
 10
75.479507
 20
176.035233
 30
0.0
 11
74.479507
 21
177.767273
 31
0.0
210
0.0
220
0.0
230
1.0
  0
LINE
  5
CD
100
AcDbEntity
  8
0
370
    35
390
0
 62
     4
 48
0.09375
100
AcDbLine
 10
72.231911
 20
174.160233
 30
0.0
 11
75.479507
 21
176.035233
 31
0.0
210
0.0
220
0.0
230
1.0
  0
LINE
  5
CE
100
AcDbEntity
  8
0
370
    35
390
0
 62
     4
 48
0.056315
100
AcDbLine
 10
72.231911
 20
174.160233
 30
0.0
 11
73.358223
 21
172.209412
 31
0.0
210
0.0
220
0.0
230
1.0
  0
CIRCLE
  5
CF
100
AcDbEntity
  8
0
370
    35
390
0
 62
     4
100
AcDbCircle
 10
115.101707
 20
195.96846
 30
0.0
 40
7.5
210
0.0
220
0.0
230
1.0
  0
CIRCLE
  5
D0
100
AcDbEntity
  8
0
370
    35
390
0
 62
     4
100
AcDbCircle
 10
81.835838
 20
195.96846
 30
0.0
 40
7.5
210
0.0
220
0.0
230
1.0
  0
CIRCLE
  5
D1
100
AcDbEntity
  8
0
370
    35
390
0
 62
     4
100
AcDbCircle
 10
39.017185
 20
171.247101
 30
0.0
 40
7.5
210
0.0
220
0.0
230
1.0
  0
CIRCLE
  5
D2
100
AcDbEntity
  8
0
370
    35
390
0
 62
     4
100
AcDbCircle
 10
22.384254
 20
142.438019
 30
0.0
 40
7.5
210
0.0
220
0.0
230
1.0
  0
CIRCLE
  5
D3
100
AcDbEntity
  8
0
370
    35
390
0
 62
     4
100
AcDbCircle
 10
22.384254
 20
92.995293
 30
0.0
 40
7.5
210
0.0
220
0.0
230
1.0
  0
CIRCLE
  5
D4
100
AcDbEntity
  8
0
370
    35
390
0
 62
     4
100
AcDbCircle
 10
39.017185
 20
64.186203
 30
0.0
 40
7.5
210
0.0
220
0.0
230
1.0
  0
CIRCLE
  5
D5
100
AcDbEntity
  8
0
370
    35
390
0
 62
     4
100
AcDbCircle
 10
81.835838
 20
39.464844
 30
0.0
 40
7.5
210
0.0
220
0.0
230
1.0
  0
CIRCLE
  5
D6
100
AcDbEntity
  8
0
370
    35
390
0
 62
     4
100
AcDbCircle
 10
115.101707
 20
39.464844
 30
0.0
 40
7.5
210
0.0
220
0.0
230
1.0
  0
CIRCLE
  5
D7
100
AcDbEntity
  8
0
370
    35
390
0
 62
     4
100
AcDbCircle
 10
157.920364
 20
64.186203
 30
0.0
 40
7.5
210
0.0
220
0.0
230
1.0
  0
CIRCLE
  5
D8
100
AcDbEntity
  8
0
370
    35
390
0
 62
     4
100
AcDbCircle
 10
174.553284
 20
92.995293
 30
0.0
 40
7.5
210
0.0
220
0.0
230
1.0
  0
CIRCLE
  5
D9
100
AcDbEntity
  8
0
370
    35
390
0
 62
     4
100
AcDbCircle
 10
174.553284
 20
142.438019
 30
0.0
 40
7.5
210
0.0
220
0.0
230
1.0
  0
CIRCLE
  5
DA
100
AcDbEntity
  8
0
370
    35
390
0
 62
     4
100
AcDbCircle
 10
157.920364
 20
171.247101
 30
0.0
 40
7.5
210
0.0
220
0.0
230
1.0
  0
CIRCLE
  5
DB
100
AcDbEntity
  8
0
370
    35
390
0
 62
     7
100
AcDbCircle
 10
238.22197
 20
219.903519
 30
0.0
 40
72.5
210
0.0
220
0.0
230
1.0
  0
ARC
  5
DC
100
AcDbEntity
  8
0
370
    35
390
0
 62
     4
100
AcDbCircle
 10
238.22197
 20
219.903519
 30
0.0
 40
57.5
210
0.0
220
0.0
230
1.0
100
AcDbArc
 50
152.74128
 51
207.25872
  0
ARC
  5
DD
100
AcDbEntity
  8
0
370
    35
390
0
 62
     4
100
AcDbCircle
 10
238.22197
 20
219.903519
 30
0.0
 40
57.5
210
0.0
220
0.0
230
1.0
100
AcDbArc
 50
212.741285
 51
267.258722
  0
ARC
  5
DE
100
AcDbEntity
  8
0
370
    35
390
0
 62
     4
100
AcDbCircle
 10
238.22197
 20
219.903519
 30
0.0
 40
57.5
210
0.0
220
0.0
230
1.0
100
AcDbArc
 50
272.74128
 51
327.25872
  0
ARC
  5
DF
100
AcDbEntity
  8
0
370
    35
390
0
 62
     4
100
AcDbCircle
 10
238.22197
 20
219.903519
 30
0.0
 40
57.5
210
0.0
220
0.0
230
1.0
100
AcDbArc
 50
332.741279
 51
27.258721
  0
LINE
  5
E0
100
AcDbEntity
  8
0
370
    35
390
0
 62
     4
 48
0.189145
100
AcDbLine
 10
189.857483
 20
188.80484
 30
0.0
 11
183.305313
 21
185.021942
 31
0.0
210
0.0
220
0.0
230
1.0
  0
LINE
  5
E1
100
AcDbEntity
  8
0
370
    35
390
0
 62
     4
 48
0.1375
100
AcDbLine
 10
183.305313
 20
185.021942
 30
0.0
 11
180.555313
 21
189.785095
 31
0.0
210
0.0
220
0.0
230
1.0
  0
LINE
  5
E2
100
AcDbEntity
  8
0
370
    35
390
0
 62
     4
 48
0.189145
100
AcDbLine
 10
180.555313
 20
189.785095
 30
0.0
 11
187.107483
 21
193.567993
 31
0.0
210
0.0
220
0.0
230
1.0
  0
LINE
  5
E3
100
AcDbEntity
  8
0
370
    35
390
0
 62
     4
 48
0.189145
100
AcDbLine
 10
187.107483
 20
246.239044
 30
0.0
 11
180.555313
 21
250.021942
 31
0.0
210
0.0
220
0.0
230
1.0
  0
LINE
  5
E4
100
AcDbEntity
  8
0
370
    35
390
0
 62
     4
 48
0.1375
100
AcDbLine
 10
180.555313
 20
250.021942
 30
0.0
 11
183.305313
 21
254.785095
 31
0.0
210
0.0
220
0.0
230
1.0
  0
LINE
  5
E5
100
AcDbEntity
  8
0
370
    35
390
0
 62
     4
 48
0.189145
100
AcDbLine
 10
183.305313
 20
254.785095
 30
0.0
 11
189.857483
 21
251.002197
 31
0.0
210
0.0
220
0.0
230
1.0
  0
ARC
  5
E6
100
AcDbEntity
  8
0
370
    35
390
0
 62
     4
100
AcDbCircle
 10
238.22197
 20
219.903519
 30
0.0
 40
57.5
210
0.0
220
0.0
230
1.0
100
AcDbArc
 50
92.741278
 51
147.258715
  0
LINE
  5
E7
100
AcDbEntity
  8
0
370
    35
390
0
 62
     4
 48
0.189145
100
AcDbLine
 10
235.47197
 20
277.337708
 30
0.0
 11
235.47197
 21
284.903503
 31
0.0
210
0.0
220
0.0
230
1.0
  0
LINE
  5
E8
100
AcDbEntity
  8
0
370
    35
390
0
 62
     4
 48
0.1375
100
AcDbLine
 10
235.47197
 20
284.903503
 30
0.0
 11
240.97197
 21
284.903503
 31
0.0
210
0.0
220
0.0
230
1.0
  0
LINE
  5
E9
100
AcDbEntity
  8
0
370
    35
390
0
 62
     4
 48
0.189145
100
AcDbLine
 10
240.97197
 20
284.903503
 30
0.0
 11
240.97197
 21
277.337708
 31
0.0
210
0.0
220
0.0
230
1.0
  0
ARC
  5
EA
100
AcDbEntity
  8
0
370
    35
390
0
 62
     4
100
AcDbCircle
 10
238.22197
 20
219.903519
 30
0.0
 40
57.5
210
0.0
220
0.0
230
1.0
100
AcDbArc
 50
32.74128
 51
87.25872
  0
LINE
  5
EB
100
AcDbEntity
  8
0
370
    35
390
0
 62
     4
 48
0.189145
100
AcDbLine
 10
286.586456
 20
251.002197
 30
0.0
 11
293.138611
 21
254.785095
 31
0.0
210
0.0
220
0.0
230
1.0
  0
LINE
  5
EC
100
AcDbEntity
  8
0
370
    35
390
0
 62
     4
 48
0.1375
100
AcDbLine
 10
293.138611
 20
254.785095
 30
0.0
 11
295.888611
 21
250.021942
 31
0.0
210
0.0
220
0.0
230
1.0
  0
LINE
  5
ED
100
AcDbEntity
  8
0
370
    35
390
0
 62
     4
 48
0.189145
100
AcDbLine
 10
295.888611
 20
250.021942
 30
0.0
 11
289.336456
 21
246.239044
 31
0.0
210
0.0
220
0.0
230
1.0
  0
LINE
  5
EE
100
AcDbEntity
  8
0
370
    35
390
0
 62
     4
 48
0.189145
100
AcDbLine
 10
289.336456
 20
193.567993
 30
0.0
 11
295.888611
 21
189.785095
 31
0.0
210
0.0
220
0.0
230
1.0
  0
LINE
  5
EF
100
AcDbEntity
  8
0
370
    35
390
0
 62
     4
 48
0.1375
100
AcDbLine
 10
295.888611
 20
189.785095
 30
0.0
 11
293.138611
 21
185.021942
 31
0.0
210
0.0
220
0.0
230
1.0
  0
LINE
  5
F0
100
AcDbEntity
  8
0
370
    35
390
0
 62
     4
 48
0.189145
100
AcDbLine
 10
293.138611
 20
185.021942
 30
0.0
 11
286.586456
 21
188.80484
 31
0.0
210
0.0
220
0.0
230
1.0
  0
LINE
  5
F1
100
AcDbEntity
  8
0
370
    35
390
0
 62
     4
 48
0.189145
100
AcDbLine
 10
240.97197
 20
162.469315
 30
0.0
 11
240.97197
 21
154.903519
 31
0.0
210
0.0
220
0.0
230
1.0
  0
LINE
  5
F2
100
AcDbEntity
  8
0
370
    35
390
0
 62
     4
 48
0.1375
100
AcDbLine
 10
240.97197
 20
154.903519
 30
0.0
 11
235.47197
 21
154.903519
 31
0.0
210
0.0
220
0.0
230
1.0
  0
LINE
  5
F3
100
AcDbEntity
  8
0
370
    35
390
0
 62
     4
 48
0.189145
100
AcDbLine
 10
235.47197
 20
154.903519
 30
0.0
 11
235.47197
 21
162.469315
 31
0.0
210
0.0
220
0.0
230
1.0
  0
CIRCLE
  5
F4
100
AcDbEntity
  8
0
370
    35
390
0
 62
     7
100
AcDbCircle
 10
339.008087
 20
99.554001
 30
0.0
 40
75.0
210
0.0
220
0.0
230
1.0
  0
LINE
  5
F5
100
AcDbEntity
  8
0
370
    35
390
0
 62
     4
 48
0.06875
100
AcDbLine
 10
399.629852
 20
134.554001
 30
0.0
 11
401.004852
 21
132.172424
 31
0.0
210
0.0
220
0.0
230
1.0
  0
LINE
  5
F6
100
AcDbEntity
  8
0
370
    35
390
0
 62
     4
 48
0.06875
100
AcDbLine
 10
398.254852
 20
136.935577
 30
0.0
 11
399.629852
 21
134.554001
 31
0.0
210
0.0
220
0.0
230
1.0
  0
LINE
  5
F7
100
AcDbEntity
  8
0
370
    35
390
0
 62
     4
 48
0.248649
100
AcDbLine
 10
389.594604
 20
131.935577
 30
0.0
 11
398.208069
 21
136.908554
 31
0.0
210
0.0
220
0.0
230
1.0
  0
LINE
  5
F8
100
AcDbEntity
  8
0
370
    35
390
0
 62
     4
 48
0.001351
100
AcDbLine
 10
398.208069
 20
136.908554
 30
0.0
 11
398.254852
 21
136.935577
 31
0.0
210
0.0
220
0.0
230
1.0
  0
LINE
  5
F9
100
AcDbEntity
  8
0
370
    35
390
0
 62
     4
 48
0.1375
100
AcDbLine
 10
392.344604
 20
127.172432
 30
0.0
 11
389.594604
 21
131.935577
 31
0.0
210
0.0
220
0.0
230
1.0
  0
LINE
  5
FA
100
AcDbEntity
  8
0
370
    35
390
0
 62
     4
 48
0.248649
100
AcDbLine
 10
400.958069
 20
132.145416
 30
0.0
 11
392.344604
 21
127.172432
 31
0.0
210
0.0
220
0.0
230
1.0
  0
LINE
  5
FB
100
AcDbEntity
  8
0
370
    35
390
0
 62
    30
 48
0.00135
100
AcDbLine
 10
401.004852
 20
132.172424
 30
0.0
 11
400.958069
 21
132.145416
 31
0.0
210
0.0
220
0.0
230
1.0
  0
LINE
  5
FC
100
AcDbEntity
  8
0
370
    35
390
0
 62
     4
 48
0.06875
100
AcDbLine
 10
399.629852
 20
64.554001
 30
0.0
 11
398.254852
 21
62.172432
 31
0.0
210
0.0
220
0.0
230
1.0
  0
LINE
  5
FD
100
AcDbEntity
  8
0
370
    35
390
0
 62
     4
 48
0.06875
100
AcDbLine
 10
401.004852
 20
66.93557
 30
0.0
 11
399.629852
 21
64.554001
 31
0.0
210
0.0
220
0.0
230
1.0
  0
LINE
  5
FE
100
AcDbEntity
  8
0
370
    35
390
0
 62
     4
 48
0.248649
100
AcDbLine
 10
392.344604
 20
71.93557
 30
0.0
 11
400.958069
 21
66.962585
 31
0.0
210
0.0
220
0.0
230
1.0
  0
LINE
  5
FF
100
AcDbEntity
  8
0
370
    35
390
0
 62
     4
 48
0.001351
100
AcDbLine
 10
400.958069
 20
66.962585
 30
0.0
 11
401.004852
 21
66.93557
 31
0.0
210
0.0
220
0.0
230
1.0
  0
LINE
  5
100
100
AcDbEntity
  8
0
370
    35
390
0
 62
     4
 48
0.1375
100
AcDbLine
 10
389.594604
 20
67.172432
 30
0.0
 11
392.344604
 21
71.93557
 31
0.0
210
0.0
220
0.0
230
1.0
  0
LINE
  5
101
100
AcDbEntity
  8
0
370
    35
390
0
 62
     4
 48
0.248649
100
AcDbLine
 10
398.208069
 20
62.199451
 30
0.0
 11
389.594604
 21
67.172432
 31
0.0
210
0.0
220
0.0
230
1.0
  0
LINE
  5
102
100
AcDbEntity
  8
0
370
    35
390
0
 62
     4
 48
0.001351
100
AcDbLine
 10
398.254852
 20
62.172432
 30
0.0
 11
398.208069
 21
62.199451
 31
0.0
210
0.0
220
0.0
230
1.0
  0
LINE
  5
103
100
AcDbEntity
  8
0
370
    35
390
0
 62
     4
 48
0.06875
100
AcDbLine
 10
278.386322
 20
64.554001
 30
0.0
 11
277.011322
 21
66.93557
 31
0.0
210
0.0
220
0.0
230
1.0
  0
LINE
  5
104
100
AcDbEntity
  8
0
370
    35
390
0
 62
     4
 48
0.06875
100
AcDbLine
 10
279.761322
 20
62.172432
 30
0.0
 11
278.386322
 21
64.554001
 31
0.0
210
0.0
220
0.0
230
1.0
  0
LINE
  5
105
100
AcDbEntity
  8
0
370
    35
390
0
 62
     4
 48
0.248649
100
AcDbLine
 10
288.42157
 20
67.172432
 30
0.0
 11
279.808105
 21
62.199451
 31
0.0
210
0.0
220
0.0
230
1.0
  0
LINE
  5
106
100
AcDbEntity
  8
0
370
    35
390
0
 62
     4
 48
0.001351
100
AcDbLine
 10
279.808105
 20
62.199451
 30
0.0
 11
279.761322
 21
62.172432
 31
0.0
210
0.0
220
0.0
230
1.0
  0
LINE
  5
107
100
AcDbEntity
  8
0
370
    35
390
0
 62
     4
 48
0.1375
100
AcDbLine
 10
285.67157
 20
71.93557
 30
0.0
 11
288.42157
 21
67.172432
 31
0.0
210
0.0
220
0.0
230
1.0
  0
LINE
  5
108
100
AcDbEntity
  8
0
370
    35
390
0
 62
     4
 48
0.248649
100
AcDbLine
 10
277.058105
 20
66.962585
 30
0.0
 11
285.67157
 21
71.93557
 31
0.0
210
0.0
220
0.0
230
1.0
  0
LINE
  5
109
100
AcDbEntity
  8
0
370
    35
390
0
 62
     4
 48
0.001351
100
AcDbLine
 10
277.011322
 20
66.93557
 30
0.0
 11
277.058105
 21
66.962585
 31
0.0
210
0.0
220
0.0
230
1.0
  0
LINE
  5
10A
100
AcDbEntity
  8
0
370
    35
390
0
 62
     4
 48
0.06875
100
AcDbLine
 10
278.386322
 20
134.554001
 30
0.0
 11
279.761322
 21
136.935577
 31
0.0
210
0.0
220
0.0
230
1.0
  0
LINE
  5
10B
100
AcDbEntity
  8
0
370
    35
390
0
 62
     4
 48
0.06875
100
AcDbLine
 10
277.011322
 20
132.172424
 30
0.0
 11
278.386322
 21
134.554001
 31
0.0
210
0.0
220
0.0
230
1.0
  0
LINE
  5
10C
100
AcDbEntity
  8
0
370
    35
390
0
 62
     4
 48
0.248649
100
AcDbLine
 10
285.67157
 20
127.172432
 30
0.0
 11
277.058105
 21
132.145416
 31
0.0
210
0.0
220
0.0
230
1.0
  0
LINE
  5
10D
100
AcDbEntity
  8
0
370
    35
390
0
 62
     4
 48
0.00135
100
AcDbLine
 10
277.058105
 20
132.145416
 30
0.0
 11
277.011322
 21
132.172424
 31
0.0
210
0.0
220
0.0
230
1.0
  0
LINE
  5
10E
100
AcDbEntity
  8
0
370
    35
390
0
 62
     4
 48
0.1375
100
AcDbLine
 10
288.42157
 20
131.935577
 30
0.0
 11
285.67157
 21
127.172432
 31
0.0
210
0.0
220
0.0
230
1.0
  0
LINE
  5
10F
100
AcDbEntity
  8
0
370
    35
390
0
 62
     4
 48
0.248649
100
AcDbLine
 10
279.808105
 20
136.908554
 30
0.0
 11
288.42157
 21
131.935577
 31
0.0
210
0.0
220
0.0
230
1.0
  0
LINE
  5
110
100
AcDbEntity
  8
0
370
    35
390
0
 62
     4
 48
0.001351
100
AcDbLine
 10
279.761322
 20
136.935577
 30
0.0
 11
279.808105
 21
136.908554
 31
0.0
210
0.0
220
0.0
230
1.0
  0
LINE
  5
111
100
AcDbEntity
  8
0
370
    35
390
0
 62
     4
 48
0.06875
100
AcDbLine
 10
339.008087
 20
29.554001
 30
0.0
 11
336.258087
 21
29.554001
 31
0.0
210
0.0
220
0.0
230
1.0
  0
LINE
  5
112
100
AcDbEntity
  8
0
370
    35
390
0
 62
     4
 48
0.06875
100
AcDbLine
 10
341.758087
 20
29.554001
 30
0.0
 11
339.008087
 21
29.554001
 31
0.0
210
0.0
220
0.0
230
1.0
  0
LINE
  5
113
100
AcDbEntity
  8
0
370
    35
390
0
 62
     4
 48
0.248649
100
AcDbLine
 10
341.758087
 20
29.60804
 30
0.0
 11
341.758087
 21
39.554001
 31
0.0
210
0.0
220
0.0
230
1.0
  0
LINE
  5
114
100
AcDbEntity
  8
0
370
    35
390
0
 62
     4
 48
0.001351
100
AcDbLine
 10
341.758087
 20
29.60804
 30
0.0
 11
341.758087
 21
29.554001
 31
0.0
210
0.0
220
0.0
230
1.0
  0
LINE
  5
115
100
AcDbEntity
  8
0
370
    35
390
0
 62
     4
 48
0.1375
100
AcDbLine
 10
336.258087
 20
39.554001
 30
0.0
 11
341.758087
 21
39.554001
 31
0.0
210
0.0
220
0.0
230
1.0
  0
LINE
  5
116
100
AcDbEntity
  8
0
370
    35
390
0
 62
     4
 48
0.248649
100
AcDbLine
 10
336.258087
 20
29.60804
 30
0.0
 11
336.258087
 21
39.554001
 31
0.0
210
0.0
220
0.0
230
1.0
  0
LINE
  5
117
100
AcDbEntity
  8
0
370
    35
390
0
 62
     4
 48
0.001351
100
AcDbLine
 10
336.258087
 20
29.554001
 30
0.0
 11
336.258087
 21
29.60804
 31
0.0
210
0.0
220
0.0
230
1.0
  0
LINE
  5
118
100
AcDbEntity
  8
0
370
    35
390
0
 62
     4
 48
0.06875
100
AcDbLine
 10
339.008087
 20
169.554001
 30
0.0
 11
341.758087
 21
169.554001
 31
0.0
210
0.0
220
0.0
230
1.0
  0
LINE
  5
119
100
AcDbEntity
  8
0
370
    35
390
0
 62
     4
 48
0.06875
100
AcDbLine
 10
336.258087
 20
169.554001
 30
0.0
 11
339.008087
 21
169.554001
 31
0.0
210
0.0
220
0.0
230
1.0
  0
ARC
  5
11A
100
AcDbEntity
  8
0
370
    35
390
0
 62
     6
100
AcDbCircle
 10
339.008087
 20
99.554001
 30
0.0
 40
70.0
210
0.0
220
0.0
230
1.0
100
AcDbArc
 50
32.251487
 51
87.748513
  0
ARC
  5
11B
100
AcDbEntity
  8
0
370
    35
390
0
 62
     6
100
AcDbCircle
 10
339.008087
 20
99.554001
 30
0.0
 40
70.0
210
0.0
220
0.0
230
1.0
100
AcDbArc
 50
332.251486
 51
27.748514
  0
ARC
  5
11C
100
AcDbEntity
  8
0
370
    35
390
0
 62
     6
100
AcDbCircle
 10
339.008087
 20
99.554001
 30
0.0
 40
70.0
210
0.0
220
0.0
230
1.0
100
AcDbArc
 50
272.251487
 51
327.748513
  0
ARC
  5
11D
100
AcDbEntity
  8
0
370
    35
390
0
 62
     6
100
AcDbCircle
 10
339.008087
 20
99.554001
 30
0.0
 40
70.0
210
0.0
220
0.0
230
1.0
100
AcDbArc
 50
212.251493
 51
267.748514
  0
ARC
  5
11E
100
AcDbEntity
  8
0
370
    35
390
0
 62
     6
100
AcDbCircle
 10
339.008087
 20
99.554001
 30
0.0
 40
70.0
210
0.0
220
0.0
230
1.0
100
AcDbArc
 50
152.251487
 51
207.748513
  0
ARC
  5
11F
100
AcDbEntity
  8
0
370
    35
390
0
 62
     6
100
AcDbCircle
 10
339.008087
 20
99.554001
 30
0.0
 40
70.0
210
0.0
220
0.0
230
1.0
100
AcDbArc
 50
92.251486
 51
147.748507
  0
LINE
  5
120
100
AcDbEntity
  8
0
370
    35
390
0
 62
     4
 48
0.001351
100
AcDbLine
 10
336.258087
 20
169.499969
 30
0.0
 11
336.258087
 21
169.554001
 31
0.0
210
0.0
220
0.0
230
1.0
  0
LINE
  5
121
100
AcDbEntity
  8
0
370
    35
390
0
 62
     4
 48
0.001351
100
AcDbLine
 10
341.758087
 20
169.554001
 30
0.0
 11
341.758087
 21
169.499969
 31
0.0
210
0.0
220
0.0
230
1.0
  0
LINE
  5
122
100
AcDbEntity
  8
0
370
    35
390
0
 62
     4
 48
0.248649
100
AcDbLine
 10
336.258087
 20
169.499969
 30
0.0
 11
336.258087
 21
159.554001
 31
0.0
210
0.0
220
0.0
230
1.0
  0
LINE
  5
123
100
AcDbEntity
  8
0
370
    35
390
0
 62
     4
 48
0.1375
100
AcDbLine
 10
341.758087
 20
159.554001
 30
0.0
 11
336.258087
 21
159.554001
 31
0.0
210
0.0
220
0.0
230
1.0
  0
LINE
  5
124
100
AcDbEntity
  8
0
370
    35
390
0
 62
     4
 48
0.248649
100
AcDbLine
 10
341.758087
 20
169.499969
 30
0.0
 11
341.758087
 21
159.554001
 31
0.0
210
0.0
220
0.0
230
1.0
  0
CIRCLE
  5
125
100
AcDbEntity
  8
0
370
    35
390
0
 62
     7
100
AcDbCircle
 10
343.484924
 20
333.830536
 30
0.0
 40
80.0
210
0.0
220
0.0
230
1.0
  0
ARC
  5
126
100
AcDbEntity
  8
0
370
    35
390
0
 62
     4
100
AcDbCircle
 10
343.484924
 20
333.830536
 30
0.0
 40
60.0
210
0.0
220
0.0
230
1.0
100
AcDbArc
 50
92.626975
 51
114.740498
  0
LINE
  5
127
100
AcDbEntity
  8
0
370
    35
390
0
 62
     4
 48
0.251576
100
AcDbLine
 10
340.734924
 20
393.767487
 30
0.0
 11
340.734924
 21
403.830536
 31
0.0
210
0.0
220
0.0
230
1.0
  0
LINE
  5
128
100
AcDbEntity
  8
0
370
    35
390
0
 62
     4
 48
0.1375
100
AcDbLine
 10
340.734924
 20
403.830536
 30
0.0
 11
346.234924
 21
403.830536
 31
0.0
210
0.0
220
0.0
230
1.0
  0
LINE
  5
129
100
AcDbEntity
  8
0
370
    35
390
0
 62
     4
 48
0.251576
100
AcDbLine
 10
346.234924
 20
403.830536
 30
0.0
 11
346.234924
 21
393.767487
 31
0.0
210
0.0
220
0.0
230
1.0
  0
ARC
  5
12A
100
AcDbEntity
  8
0
370
    35
390
0
 62
     4
100
AcDbCircle
 10
343.484924
 20
333.830536
 30
0.0
 40
60.0
210
0.0
220
0.0
230
1.0
100
AcDbArc
 50
65.259493
 51
87.373023
  0
LINE
  5
12B
100
AcDbEntity
  8
0
370
    35
390
0
 62
     4
 48
0.056315
100
AcDbLine
 10
369.721771
 20
390.274109
 30
0.0
 11
368.59549
 21
388.323303
 31
0.0
210
0.0
220
0.0
230
1.0
  0
LINE
  5
12C
100
AcDbEntity
  8
0
370
    35
390
0
 62
     4
 48
0.09375
100
AcDbLine
 10
369.721771
 20
390.274109
 30
0.0
 11
366.474182
 21
392.149109
 31
0.0
210
0.0
220
0.0
230
1.0
  0
LINE
  5
12D
100
AcDbEntity
  8
0
370
    35
390
0
 62
     4
 48
0.05
100
AcDbLine
 10
366.474182
 20
392.149109
 30
0.0
 11
367.474182
 21
393.881165
 31
0.0
210
0.0
220
0.0
230
1.0
  0
LINE
  5
12E
100
AcDbEntity
  8
0
370
    35
390
0
 62
     4
 48
0.06875
100
AcDbLine
 10
367.474182
 20
393.881165
 30
0.0
 11
369.855774
 21
392.506165
 31
0.0
210
0.0
220
0.0
230
1.0
  0
LINE
  5
12F
100
AcDbEntity
  8
0
370
    35
390
0
 62
     4
 48
0.23125
100
AcDbLine
 10
369.855774
 20
392.506165
 30
0.0
 11
374.480774
 21
400.516907
 31
0.0
210
0.0
220
0.0
230
1.0
  0
LINE
  5
130
100
AcDbEntity
  8
0
370
    35
390
0
 62
     4
 48
0.324999
100
AcDbLine
 10
385.739075
 20
394.016907
 30
0.0
 11
374.480774
 21
400.516907
 31
0.0
210
0.0
220
0.0
230
1.0
  0
LINE
  5
131
100
AcDbEntity
  8
0
370
    35
390
0
 62
     4
 48
0.23125
100
AcDbLine
 10
381.114075
 20
386.006165
 30
0.0
 11
385.739075
 21
394.016907
 31
0.0
210
0.0
220
0.0
230
1.0
  0
LINE
  5
132
100
AcDbEntity
  8
0
370
    35
390
0
 62
     4
 48
0.06875
100
AcDbLine
 10
383.495667
 20
384.631165
 30
0.0
 11
381.114075
 21
386.006165
 31
0.0
210
0.0
220
0.0
230
1.0
  0
LINE
  5
133
100
AcDbEntity
  8
0
370
    35
390
0
 62
     4
 48
0.05
100
AcDbLine
 10
382.495667
 20
382.899109
 30
0.0
 11
383.495667
 21
384.631165
 31
0.0
210
0.0
220
0.0
230
1.0
  0
LINE
  5
134
100
AcDbEntity
  8
0
370
    35
390
0
 62
     4
 48
0.093751
100
AcDbLine
 10
379.248047
 20
384.774109
 30
0.0
 11
382.495667
 21
382.899109
 31
0.0
210
0.0
220
0.0
230
1.0
  0
LINE
  5
135
100
AcDbEntity
  8
0
370
    35
390
0
 62
     4
 48
0.056315
100
AcDbLine
 10
379.248047
 20
384.774109
 30
0.0
 11
378.121765
 21
382.823303
 31
0.0
210
0.0
220
0.0
230
1.0
  0
ARC
  5
136
100
AcDbEntity
  8
0
370
    35
390
0
 62
     4
100
AcDbCircle
 10
343.484924
 20
333.830536
 30
0.0
 40
60.0
210
0.0
220
0.0
230
1.0
100
AcDbArc
 50
32.626977
 51
54.740503
  0
LINE
  5
137
100
AcDbEntity
  8
0
370
    35
390
0
 62
     4
 48
0.251576
100
AcDbLine
 10
394.016846
 20
366.180573
 30
0.0
 11
402.731689
 21
371.212097
 31
0.0
210
0.0
220
0.0
230
1.0
  0
LINE
  5
138
100
AcDbEntity
  8
0
370
    35
390
0
 62
     4
 48
0.1375
100
AcDbLine
 10
402.731689
 20
371.212097
 30
0.0
 11
405.481689
 21
366.448975
 31
0.0
210
0.0
220
0.0
230
1.0
  0
LINE
  5
139
100
AcDbEntity
  8
0
370
    35
390
0
 62
     4
 48
0.251576
100
AcDbLine
 10
405.481689
 20
366.448975
 30
0.0
 11
396.766846
 21
361.41745
 31
0.0
210
0.0
220
0.0
230
1.0
  0
ARC
  5
13A
100
AcDbEntity
  8
0
370
    35
390
0
 62
     4
100
AcDbCircle
 10
343.484924
 20
333.830536
 30
0.0
 40
60.0
210
0.0
220
0.0
230
1.0
100
AcDbArc
 50
5.259497
 51
27.373023
  0
LINE
  5
13B
100
AcDbEntity
  8
0
370
    35
390
0
 62
     4
 48
0.056316
100
AcDbLine
 10
405.484924
 20
339.330536
 30
0.0
 11
403.2323
 21
339.330536
 31
0.0
210
0.0
220
0.0
230
1.0
  0
LINE
  5
13C
100
AcDbEntity
  8
0
370
    35
390
0
 62
     4
 48
0.09375
100
AcDbLine
 10
405.484924
 20
339.330536
 30
0.0
 11
405.484924
 21
343.080536
 31
0.0
210
0.0
220
0.0
230
1.0
  0
LINE
  5
13D
100
AcDbEntity
  8
0
370
    35
390
0
 62
     4
 48
0.05
100
AcDbLine
 10
405.484924
 20
343.080536
 30
0.0
 11
407.484924
 21
343.080536
 31
0.0
210
0.0
220
0.0
230
1.0
  0
LINE
  5
13E
100
AcDbEntity
  8
0
370
    35
390
0
 62
     4
 48
0.06875
100
AcDbLine
 10
407.484924
 20
343.080536
 30
0.0
 11
407.484924
 21
340.330536
 31
0.0
210
0.0
220
0.0
230
1.0
  0
LINE
  5
13F
100
AcDbEntity
  8
0
370
    35
390
0
 62
     4
 48
0.23125
100
AcDbLine
 10
407.484924
 20
340.330536
 30
0.0
 11
416.734924
 21
340.330536
 31
0.0
210
0.0
220
0.0
230
1.0
  0
LINE
  5
140
100
AcDbEntity
  8
0
370
    35
390
0
 62
     4
 48
0.325
100
AcDbLine
 10
416.734924
 20
327.330536
 30
0.0
 11
416.734924
 21
340.330536
 31
0.0
210
0.0
220
0.0
230
1.0
  0
LINE
  5
141
100
AcDbEntity
  8
0
370
    35
390
0
 62
     4
 48
0.23125
100
AcDbLine
 10
407.484924
 20
327.330536
 30
0.0
 11
416.734924
 21
327.330536
 31
0.0
210
0.0
220
0.0
230
1.0
  0
LINE
  5
142
100
AcDbEntity
  8
0
370
    35
390
0
 62
     4
 48
0.06875
100
AcDbLine
 10
407.484924
 20
324.580536
 30
0.0
 11
407.484924
 21
327.330536
 31
0.0
210
0.0
220
0.0
230
1.0
  0
LINE
  5
143
100
AcDbEntity
  8
0
370
    35
390
0
 62
     4
 48
0.05
100
AcDbLine
 10
405.484924
 20
324.580536
 30
0.0
 11
407.484924
 21
324.580536
 31
0.0
210
0.0
220
0.0
230
1.0
  0
LINE
  5
144
100
AcDbEntity
  8
0
370
    35
390
0
 62
     4
 48
0.09375
100
AcDbLine
 10
405.484924
 20
328.330536
 30
0.0
 11
405.484924
 21
324.580536
 31
0.0
210
0.0
220
0.0
230
1.0
  0
LINE
  5
145
100
AcDbEntity
  8
0
370
    35
390
0
 62
     4
 48
0.056316
100
AcDbLine
 10
405.484924
 20
328.330536
 30
0.0
 11
403.2323
 21
328.330536
 31
0.0
210
0.0
220
0.0
230
1.0
  0
ARC
  5
146
100
AcDbEntity
  8
0
370
    35
390
0
 62
     4
100
AcDbCircle
 10
343.484924
 20
333.830536
 30
0.0
 40
60.0
210
0.0
220
0.0
230
1.0
100
AcDbArc
 50
332.626977
 51
354.740503
  0
LINE
  5
147
100
AcDbEntity
  8
0
370
    35
390
0
 62
     4
 48
0.251576
100
AcDbLine
 10
396.766846
 20
306.243622
 30
0.0
 11
405.481689
 21
301.212097
 31
0.0
210
0.0
220
0.0
230
1.0
  0
LINE
  5
148
100
AcDbEntity
  8
0
370
    35
390
0
 62
     4
 48
0.1375
100
AcDbLine
 10
405.481689
 20
301.212097
 30
0.0
 11
402.731689
 21
296.448975
 31
0.0
210
0.0
220
0.0
230
1.0
  0
LINE
  5
149
100
AcDbEntity
  8
0
370
    35
390
0
 62
     4
 48
0.251576
100
AcDbLine
 10
402.731689
 20
296.448975
 30
0.0
 11
394.016846
 21
301.480499
 31
0.0
210
0.0
220
0.0
230
1.0
  0
ARC
  5
14A
100
AcDbEntity
  8
0
370
    35
390
0
 62
     4
100
AcDbCircle
 10
343.484924
 20
333.830536
 30
0.0
 40
60.0
210
0.0
220
0.0
230
1.0
100
AcDbArc
 50
305.259497
 51
327.373023
  0
LINE
  5
14B
100
AcDbEntity
  8
0
370
    35
390
0
 62
     4
 48
0.056315
100
AcDbLine
 10
379.248047
 20
282.886963
 30
0.0
 11
378.121765
 21
284.837769
 31
0.0
210
0.0
220
0.0
230
1.0
  0
LINE
  5
14C
100
AcDbEntity
  8
0
370
    35
390
0
 62
     4
 48
0.093751
100
AcDbLine
 10
379.248047
 20
282.886963
 30
0.0
 11
382.495667
 21
284.761963
 31
0.0
210
0.0
220
0.0
230
1.0
  0
LINE
  5
14D
100
AcDbEntity
  8
0
370
    35
390
0
 62
     4
 48
0.05
100
AcDbLine
 10
382.495667
 20
284.761963
 30
0.0
 11
383.495667
 21
283.029907
 31
0.0
210
0.0
220
0.0
230
1.0
  0
LINE
  5
14E
100
AcDbEntity
  8
0
370
    35
390
0
 62
     4
 48
0.06875
100
AcDbLine
 10
383.495667
 20
283.029907
 30
0.0
 11
381.114075
 21
281.654907
 31
0.0
210
0.0
220
0.0
230
1.0
  0
LINE
  5
14F
100
AcDbEntity
  8
0
370
    35
390
0
 62
     4
 48
0.23125
100
AcDbLine
 10
381.114075
 20
281.654907
 30
0.0
 11
385.739075
 21
273.644165
 31
0.0
210
0.0
220
0.0
230
1.0
  0
LINE
  5
150
100
AcDbEntity
  8
0
370
    35
390
0
 62
     4
 48
0.324999
100
AcDbLine
 10
374.480774
 20
267.144165
 30
0.0
 11
385.739075
 21
273.644165
 31
0.0
210
0.0
220
0.0
230
1.0
  0
LINE
  5
151
100
AcDbEntity
  8
0
370
    35
390
0
 62
     4
 48
0.23125
100
AcDbLine
 10
369.855774
 20
275.154907
 30
0.0
 11
374.480774
 21
267.144165
 31
0.0
210
0.0
220
0.0
230
1.0
  0
LINE
  5
152
100
AcDbEntity
  8
0
370
    35
390
0
 62
     4
 48
0.06875
100
AcDbLine
 10
367.474182
 20
273.779907
 30
0.0
 11
369.855774
 21
275.154907
 31
0.0
210
0.0
220
0.0
230
1.0
  0
LINE
  5
153
100
AcDbEntity
  8
0
370
    35
390
0
 62
     4
 48
0.05
100
AcDbLine
 10
366.474182
 20
275.511963
 30
0.0
 11
367.474182
 21
273.779907
 31
0.0
210
0.0
220
0.0
230
1.0
  0
LINE
  5
154
100
AcDbEntity
  8
0
370
    35
390
0
 62
     4
 48
0.09375
100
AcDbLine
 10
369.721771
 20
277.386963
 30
0.0
 11
366.474182
 21
275.511963
 31
0.0
210
0.0
220
0.0
230
1.0
  0
LINE
  5
155
100
AcDbEntity
  8
0
370
    35
390
0
 62
     4
 48
0.056315
100
AcDbLine
 10
369.721771
 20
277.386963
 30
0.0
 11
368.59549
 21
279.337769
 31
0.0
210
0.0
220
0.0
230
1.0
  0
ARC
  5
156
100
AcDbEntity
  8
0
370
    35
390
0
 62
     4
100
AcDbCircle
 10
343.484924
 20
333.830536
 30
0.0
 40
60.0
210
0.0
220
0.0
230
1.0
100
AcDbArc
 50
272.626977
 51
294.740507
  0
LINE
  5
157
100
AcDbEntity
  8
0
370
    35
390
0
 62
     4
 48
0.251576
100
AcDbLine
 10
346.234924
 20
273.893585
 30
0.0
 11
346.234924
 21
263.830536
 31
0.0
210
0.0
220
0.0
230
1.0
  0
LINE
  5
158
100
AcDbEntity
  8
0
370
    35
390
0
 62
     4
 48
0.1375
100
AcDbLine
 10
346.234924
 20
263.830536
 30
0.0
 11
340.734924
 21
263.830536
 31
0.0
210
0.0
220
0.0
230
1.0
  0
LINE
  5
159
100
AcDbEntity
  8
0
370
    35
390
0
 62
     4
 48
0.251576
100
AcDbLine
 10
340.734924
 20
263.830536
 30
0.0
 11
340.734924
 21
273.893585
 31
0.0
210
0.0
220
0.0
230
1.0
  0
ARC
  5
15A
100
AcDbEntity
  8
0
370
    35
390
0
 62
     4
100
AcDbCircle
 10
343.484924
 20
333.830536
 30
0.0
 40
60.0
210
0.0
220
0.0
230
1.0
100
AcDbArc
 50
245.259502
 51
267.373025
  0
LINE
  5
15B
100
AcDbEntity
  8
0
370
    35
390
0
 62
     4
 48
0.056315
100
AcDbLine
 10
317.248077
 20
277.386963
 30
0.0
 11
318.374359
 21
279.337769
 31
0.0
210
0.0
220
0.0
230
1.0
  0
LINE
  5
15C
100
AcDbEntity
  8
0
370
    35
390
0
 62
     4
 48
0.09375
100
AcDbLine
 10
317.248077
 20
277.386963
 30
0.0
 11
320.495667
 21
275.511963
 31
0.0
210
0.0
220
0.0
230
1.0
  0
LINE
  5
15D
100
AcDbEntity
  8
0
370
    35
390
0
 62
     4
 48
0.05
100
AcDbLine
 10
320.495667
 20
275.511963
 30
0.0
 11
319.495667
 21
273.779907
 31
0.0
210
0.0
220
0.0
230
1.0
  0
LINE
  5
15E
100
AcDbEntity
  8
0
370
    35
390
0
 62
     4
 48
0.06875
100
AcDbLine
 10
319.495667
 20
273.779907
 30
0.0
 11
317.114075
 21
275.154907
 31
0.0
210
0.0
220
0.0
230
1.0
  0
LINE
  5
15F
100
AcDbEntity
  8
0
370
    35
390
0
 62
     4
 48
0.23125
100
AcDbLine
 10
317.114075
 20
275.154907
 30
0.0
 11
312.489075
 21
267.144165
 31
0.0
210
0.0
220
0.0
230
1.0
  0
LINE
  5
160
100
AcDbEntity
  8
0
370
    35
390
0
 62
     4
 48
0.324999
100
AcDbLine
 10
301.230774
 20
273.644165
 30
0.0
 11
312.489075
 21
267.144165
 31
0.0
210
0.0
220
0.0
230
1.0
  0
LINE
  5
161
100
AcDbEntity
  8
0
370
    35
390
0
 62
     4
 48
0.23125
100
AcDbLine
 10
305.855774
 20
281.654907
 30
0.0
 11
301.230774
 21
273.644165
 31
0.0
210
0.0
220
0.0
230
1.0
  0
LINE
  5
162
100
AcDbEntity
  8
0
370
    35
390
0
 62
     4
 48
0.06875
100
AcDbLine
 10
303.474182
 20
283.029907
 30
0.0
 11
305.855774
 21
281.654907
 31
0.0
210
0.0
220
0.0
230
1.0
  0
LINE
  5
163
100
AcDbEntity
  8
0
370
    35
390
0
 62
     4
 48
0.05
100
AcDbLine
 10
304.474182
 20
284.761963
 30
0.0
 11
303.474182
 21
283.029907
 31
0.0
210
0.0
220
0.0
230
1.0
  0
LINE
  5
164
100
AcDbEntity
  8
0
370
    35
390
0
 62
     4
 48
0.093751
100
AcDbLine
 10
307.721802
 20
282.886963
 30
0.0
 11
304.474182
 21
284.761963
 31
0.0
210
0.0
220
0.0
230
1.0
  0
LINE
  5
165
100
AcDbEntity
  8
0
370
    35
390
0
 62
     4
 48
0.056315
100
AcDbLine
 10
307.721802
 20
282.886963
 30
0.0
 11
308.848083
 21
284.837769
 31
0.0
210
0.0
220
0.0
230
1.0
  0
ARC
  5
166
100
AcDbEntity
  8
0
370
    35
390
0
 62
     4
100
AcDbCircle
 10
343.484924
 20
333.830536
 30
0.0
 40
60.0
210
0.0
220
0.0
230
1.0
100
AcDbArc
 50
212.626975
 51
234.740505
  0
LINE
  5
167
100
AcDbEntity
  8
0
370
    35
390
0
 62
     4
 48
0.251576
100
AcDbLine
 10
292.953003
 20
301.480499
 30
0.0
 11
284.238159
 21
296.448975
 31
0.0
210
0.0
220
0.0
230
1.0
  0
LINE
  5
168
100
AcDbEntity
  8
0
370
    35
390
0
 62
     4
 48
0.1375
100
AcDbLine
 10
284.238159
 20
296.448975
 30
0.0
 11
281.488159
 21
301.212097
 31
0.0
210
0.0
220
0.0
230
1.0
  0
LINE
  5
169
100
AcDbEntity
  8
0
370
    35
390
0
 62
     4
 48
0.251576
100
AcDbLine
 10
281.488159
 20
301.212097
 30
0.0
 11
290.203003
 21
306.243622
 31
0.0
210
0.0
220
0.0
230
1.0
  0
ARC
  5
16A
100
AcDbEntity
  8
0
370
    35
390
0
 62
     4
100
AcDbCircle
 10
343.484924
 20
333.830536
 30
0.0
 40
60.0
210
0.0
220
0.0
230
1.0
100
AcDbArc
 50
185.2595
 51
207.373016
  0
LINE
  5
16B
100
AcDbEntity
  8
0
370
    35
390
0
 62
     4
 48
0.056316
100
AcDbLine
 10
281.484924
 20
328.330536
 30
0.0
 11
283.737549
 21
328.330536
 31
0.0
210
0.0
220
0.0
230
1.0
  0
LINE
  5
16C
100
AcDbEntity
  8
0
370
    35
390
0
 62
     4
 48
0.09375
100
AcDbLine
 10
281.484924
 20
328.330536
 30
0.0
 11
281.484924
 21
324.580536
 31
0.0
210
0.0
220
0.0
230
1.0
  0
LINE
  5
16D
100
AcDbEntity
  8
0
370
    35
390
0
 62
     4
 48
0.05
100
AcDbLine
 10
281.484924
 20
324.580536
 30
0.0
 11
279.484924
 21
324.580536
 31
0.0
210
0.0
220
0.0
230
1.0
  0
LINE
  5
16E
100
AcDbEntity
  8
0
370
    35
390
0
 62
     4
 48
0.06875
100
AcDbLine
 10
279.484924
 20
324.580536
 30
0.0
 11
279.484924
 21
327.330536
 31
0.0
210
0.0
220
0.0
230
1.0
  0
LINE
  5
16F
100
AcDbEntity
  8
0
370
    35
390
0
 62
     4
 48
0.23125
100
AcDbLine
 10
279.484924
 20
327.330536
 30
0.0
 11
270.234924
 21
327.330536
 31
0.0
210
0.0
220
0.0
230
1.0
  0
LINE
  5
170
100
AcDbEntity
  8
0
370
    35
390
0
 62
     4
 48
0.325
100
AcDbLine
 10
270.234924
 20
340.330536
 30
0.0
 11
270.234924
 21
327.330536
 31
0.0
210
0.0
220
0.0
230
1.0
  0
LINE
  5
171
100
AcDbEntity
  8
0
370
    35
390
0
 62
     4
 48
0.23125
100
AcDbLine
 10
279.484924
 20
340.330536
 30
0.0
 11
270.234924
 21
340.330536
 31
0.0
210
0.0
220
0.0
230
1.0
  0
LINE
  5
172
100
AcDbEntity
  8
0
370
    35
390
0
 62
     4
 48
0.06875
100
AcDbLine
 10
279.484924
 20
343.080536
 30
0.0
 11
279.484924
 21
340.330536
 31
0.0
210
0.0
220
0.0
230
1.0
  0
LINE
  5
173
100
AcDbEntity
  8
0
370
    35
390
0
 62
     4
 48
0.05
100
AcDbLine
 10
281.484924
 20
343.080536
 30
0.0
 11
279.484924
 21
343.080536
 31
0.0
210
0.0
220
0.0
230
1.0
  0
LINE
  5
174
100
AcDbEntity
  8
0
370
    35
390
0
 62
     4
 48
0.09375
100
AcDbLine
 10
281.484924
 20
339.330536
 30
0.0
 11
281.484924
 21
343.080536
 31
0.0
210
0.0
220
0.0
230
1.0
  0
LINE
  5
175
100
AcDbEntity
  8
0
370
    35
390
0
 62
     4
 48
0.056316
100
AcDbLine
 10
281.484924
 20
339.330536
 30
0.0
 11
283.737549
 21
339.330536
 31
0.0
210
0.0
220
0.0
230
1.0
  0
ARC
  5
176
100
AcDbEntity
  8
0
370
    35
390
0
 62
     4
100
AcDbCircle
 10
343.484924
 20
333.830536
 30
0.0
 40
60.0
210
0.0
220
0.0
230
1.0
100
AcDbArc
 50
152.626984
 51
174.7405
  0
LINE
  5
177
100
AcDbEntity
  8
0
370
    35
390
0
 62
     4
 48
0.251576
100
AcDbLine
 10
290.203003
 20
361.41745
 30
0.0
 11
281.488159
 21
366.448975
 31
0.0
210
0.0
220
0.0
230
1.0
  0
LINE
  5
178
100
AcDbEntity
  8
0
370
    35
390
0
 62
     4
 48
0.1375
100
AcDbLine
 10
281.488159
 20
366.448975
 30
0.0
 11
284.238159
 21
371.212097
 31
0.0
210
0.0
220
0.0
230
1.0
  0
LINE
  5
179
100
AcDbEntity
  8
0
370
    35
390
0
 62
     4
 48
0.251576
100
AcDbLine
 10
284.238159
 20
371.212097
 30
0.0
 11
292.953003
 21
366.180573
 31
0.0
210
0.0
220
0.0
230
1.0
  0
ARC
  5
17A
100
AcDbEntity
  8
0
370
    35
390
0
 62
     4
100
AcDbCircle
 10
343.484924
 20
333.830536
 30
0.0
 40
60.0
210
0.0
220
0.0
230
1.0
100
AcDbArc
 50
125.259495
 51
147.373025
  0
LINE
  5
17B
100
AcDbEntity
  8
0
370
    35
390
0
 62
     4
 48
0.056315
100
AcDbLine
 10
307.721802
 20
384.774109
 30
0.0
 11
308.848083
 21
382.823303
 31
0.0
210
0.0
220
0.0
230
1.0
  0
LINE
  5
17C
100
AcDbEntity
  8
0
370
    35
390
0
 62
     4
 48
0.093751
100
AcDbLine
 10
307.721802
 20
384.774109
 30
0.0
 11
304.474182
 21
382.899109
 31
0.0
210
0.0
220
0.0
230
1.0
  0
LINE
  5
17D
100
AcDbEntity
  8
0
370
    35
390
0
 62
     4
 48
0.05
100
AcDbLine
 10
304.474182
 20
382.899109
 30
0.0
 11
303.474182
 21
384.631165
 31
0.0
210
0.0
220
0.0
230
1.0
  0
LINE
  5
17E
100
AcDbEntity
  8
0
370
    35
390
0
 62
     4
 48
0.06875
100
AcDbLine
 10
303.474182
 20
384.631165
 30
0.0
 11
305.855774
 21
386.006165
 31
0.0
210
0.0
220
0.0
230
1.0
  0
LINE
  5
17F
100
AcDbEntity
  8
0
370
    35
390
0
 62
     4
 48
0.23125
100
AcDbLine
 10
305.855774
 20
386.006165
 30
0.0
 11
301.230774
 21
394.016907
 31
0.0
210
0.0
220
0.0
230
1.0
  0
LINE
  5
180
100
AcDbEntity
  8
0
370
    35
390
0
 62
     4
 48
0.324999
100
AcDbLine
 10
312.489075
 20
400.516907
 30
0.0
 11
301.230774
 21
394.016907
 31
0.0
210
0.0
220
0.0
230
1.0
  0
LINE
  5
181
100
AcDbEntity
  8
0
370
    35
390
0
 62
     4
 48
0.23125
100
AcDbLine
 10
317.114075
 20
392.506165
 30
0.0
 11
312.489075
 21
400.516907
 31
0.0
210
0.0
220
0.0
230
1.0
  0
LINE
  5
182
100
AcDbEntity
  8
0
370
    35
390
0
 62
     4
 48
0.06875
100
AcDbLine
 10
319.495667
 20
393.881165
 30
0.0
 11
317.114075
 21
392.506165
 31
0.0
210
0.0
220
0.0
230
1.0
  0
LINE
  5
183
100
AcDbEntity
  8
0
370
    35
390
0
 62
     4
 48
0.05
100
AcDbLine
 10
320.495667
 20
392.149109
 30
0.0
 11
319.495667
 21
393.881165
 31
0.0
210
0.0
220
0.0
230
1.0
  0
LINE
  5
184
100
AcDbEntity
  8
0
370
    35
390
0
 62
     4
 48
0.09375
100
AcDbLine
 10
317.248077
 20
390.274109
 30
0.0
 11
320.495667
 21
392.149109
 31
0.0
210
0.0
220
0.0
230
1.0
  0
LINE
  5
185
100
AcDbEntity
  8
0
370
    35
390
0
 62
     4
 48
0.056315
100
AcDbLine
 10
317.248077
 20
390.274109
 30
0.0
 11
318.374359
 21
388.323303
 31
0.0
210
0.0
220
0.0
230
1.0
  0
CIRCLE
  5
186
100
AcDbEntity
  8
0
370
    35
390
0
 62
     4
100
AcDbCircle
 10
490.680756
 20
379.958008
 30
0.0
 40
1.0
210
0.0
220
0.0
230
1.0
  0
ARC
  5
187
100
AcDbEntity
  8
0
370
    35
390
0
 62
     7
100
AcDbCircle
 10
307.859802
 20
18.647202
 30
0.0
 40
200.0
210
0.0
220
0.0
230
1.0
100
AcDbArc
 50
19.667067
 51
28.460584
  0
LINE
  5
188
100
AcDbEntity
  8
0
370
    35
390
0
 62
     7
 48
0.1375
100
AcDbLine
 10
490.680756
 20
85.958008
 30
0.0
 11
490.680756
 21
80.458008
 31
0.0
210
0.0
220
0.0
230
1.0
  0
ARC
  5
189
100
AcDbEntity
  8
0
370
    35
390
0
 62
     7
100
AcDbCircle
 10
307.859802
 20
18.647202
 30
0.0
 40
200.0
210
0.0
220
0.0
230
1.0
100
AcDbArc
 50
8.137783
 51
18.002232
  0
LINE
  5
18A
100
AcDbEntity
  8
0
370
    35
390
0
 62
     7
 48
0.191629
100
AcDbLine
 10
498.180756
 20
46.958008
 30
0.0
 11
505.845917
 21
46.958008
 31
0.0
210
0.0
220
0.0
230
1.0
  0
LINE
  5
18B
100
AcDbEntity
  8
0
370
    35
390
0
 62
     7
 48
0.1375
100
AcDbLine
 10
498.180756
 20
46.958008
 30
0.0
 11
498.180756
 21
52.458008
 31
0.0
210
0.0
220
0.0
230
1.0
  0
ARC
  5
18C
100
AcDbEntity
  8
0
370
    35
390
0
 62
     7
100
AcDbCircle
 10
307.859802
 20
18.647202
 30
0.0
 40
185.0
210
0.0
220
0.0
230
1.0
100
AcDbArc
 50
10.53063
 51
32.318713
  0
ARC
  5
18D
100
AcDbEntity
  8
0
370
    35
390
0
 62
     7
100
AcDbCircle
 10
510.680756
 20
146.958008
 30
0.0
 40
55.0
210
0.0
220
0.0
230
1.0
100
AcDbArc
 50
180.000005
 51
212.318715
  0
LINE
  5
18E
100
AcDbEntity
  8
0
370
    35
390
0
 62
     7
 48
0.075
100
AcDbLine
 10
455.680756
 20
146.958008
 30
0.0
 11
455.680756
 21
149.958008
 31
0.0
210
0.0
220
0.0
230
1.0
  0
ARC
  5
18F
100
AcDbEntity
  8
0
370
    35
390
0
 62
     7
100
AcDbCircle
 10
473.680756
 20
149.958008
 30
0.0
 40
18.0
210
0.0
220
0.0
230
1.0
100
AcDbArc
 50
90.000003
 51
179.999995
  0
LINE
  5
190
100
AcDbEntity
  8
0
370
    35
390
0
 62
     7
 48
0.125
100
AcDbLine
 10
495.680756
 20
373.458008
 30
0.0
 11
500.680756
 21
373.458008
 31
0.0
210
0.0
220
0.0
230
1.0
  0
LINE
  5
191
100
AcDbEntity
  8
0
370
    35
390
0
 62
     7
 48
0.15
100
AcDbLine
 10
500.680756
 20
367.458008
 30
0.0
 11
500.680756
 21
373.458008
 31
0.0
210
0.0
220
0.0
230
1.0
  0
LINE
  5
192
100
AcDbEntity
  8
0
370
    35
390
0
 62
     7
 48
0.1375
100
AcDbLine
 10
495.680756
 20
367.458008
 30
0.0
 11
495.680756
 21
361.958008
 31
0.0
210
0.0
220
0.0
230
1.0
  0
LINE
  5
193
100
AcDbEntity
  8
0
370
    35
390
0
 62
     7
 48
0.125
100
AcDbLine
 10
495.680756
 20
361.958008
 30
0.0
 11
500.680756
 21
361.958008
 31
0.0
210
0.0
220
0.0
230
1.0
  0
LINE
  5
194
100
AcDbEntity
  8
0
370
    35
390
0
 62
     7
100
AcDbLine
 10
500.680756
 20
303.458008
 30
0.0
 11
500.680756
 21
361.958008
 31
0.0
210
0.0
220
0.0
230
1.0
  0
LINE
  5
195
100
AcDbEntity
  8
0
370
    35
390
0
 62
     7
 48
0.1375
100
AcDbLine
 10
495.680756
 20
303.458008
 30
0.0
 11
495.680756
 21
297.958008
 31
0.0
210
0.0
220
0.0
230
1.0
  0
LINE
  5
196
100
AcDbEntity
  8
0
370
    35
390
0
 62
     7
 48
0.125
100
AcDbLine
 10
500.680756
 20
297.958008
 30
0.0
 11
495.680756
 21
297.958008
 31
0.0
210
0.0
220
0.0
230
1.0
  0
LINE
  5
197
100
AcDbEntity
  8
0
370
    35
390
0
 62
     7
100
AcDbLine
 10
500.680756
 20
237.458008
 30
0.0
 11
500.680756
 21
297.958008
 31
0.0
210
0.0
220
0.0
230
1.0
  0
LINE
  5
198
100
AcDbEntity
  8
0
370
    35
390
0
 62
     7
 48
0.1375
100
AcDbLine
 10
495.680756
 20
237.458008
 30
0.0
 11
495.680756
 21
231.958008
 31
0.0
210
0.0
220
0.0
230
1.0
  0
LINE
  5
199
100
AcDbEntity
  8
0
370
    35
390
0
 62
     7
 48
0.125
100
AcDbLine
 10
500.680756
 20
231.958008
 30
0.0
 11
495.680756
 21
231.958008
 31
0.0
210
0.0
220
0.0
230
1.0
  0
LINE
  5
19A
100
AcDbEntity
  8
0
370
    35
390
0
 62
     7
100
AcDbLine
 10
500.680756
 20
173.458008
 30
0.0
 11
500.680756
 21
231.958008
 31
0.0
210
0.0
220
0.0
230
1.0
  0
LINE
  5
19B
100
AcDbEntity
  8
0
370
    35
390
0
 62
     7
 48
0.1375
100
AcDbLine
 10
495.680756
 20
173.458008
 30
0.0
 11
495.680756
 21
167.958008
 31
0.0
210
0.0
220
0.0
230
1.0
  0
LINE
  5
19C
100
AcDbEntity
  8
0
370
    35
390
0
 62
     7
 48
0.125
100
AcDbLine
 10
500.680756
 20
167.958008
 30
0.0
 11
495.680756
 21
167.958008
 31
0.0
210
0.0
220
0.0
230
1.0
  0
LINE
  5
19D
100
AcDbEntity
  8
0
370
    35
390
0
 62
     7
 48
0.25
100
AcDbLine
 10
500.680756
 20
157.958008
 30
0.0
 11
500.680756
 21
167.958008
 31
0.0
210
0.0
220
0.0
230
1.0
  0
ARC
  5
19E
100
AcDbEntity
  8
0
370
    35
390
0
 62
     7
100
AcDbCircle
 10
495.680756
 20
157.958008
 30
0.0
 40
5.0
210
0.0
220
0.0
230
1.0
100
AcDbArc
 50
269.999997
 51
360.0
  0
LINE
  5
19F
100
AcDbEntity
  8
0
370
    35
390
0
 62
     7
 48
0.375
100
AcDbLine
 10
480.680756
 20
152.958008
 30
0.0
 11
495.680756
 21
152.958008
 31
0.0
210
0.0
220
0.0
230
1.0
  0
LINE
  5
1A0
100
AcDbEntity
  8
0
370
    35
390
0
 62
     7
 48
0.0125
100
AcDbLine
 10
480.680756
 20
152.458008
 30
0.0
 11
480.680756
 21
152.958008
 31
0.0
210
0.0
220
0.0
230
1.0
  0
LINE
  5
1A1
100
AcDbEntity
  8
0
370
    35
390
0
 62
     7
 48
0.125
100
AcDbLine
 10
470.680756
 20
146.958008
 30
0.0
 11
465.680756
 21
146.958008
 31
0.0
210
0.0
220
0.0
230
1.0
  0
ARC
  5
1A2
100
AcDbEntity
  8
0
370
    35
390
0
 62
     7
100
AcDbCircle
 10
510.680756
 20
146.958008
 30
0.0
 40
40.0
210
0.0
220
0.0
230
1.0
100
AcDbArc
 50
180.000005
 51
212.318715
  0
ARC
  5
1A3
100
AcDbEntity
  8
0
370
    35
390
0
 62
     7
100
AcDbCircle
 10
307.859802
 20
18.647202
 30
0.0
 40
200.0
210
0.0
220
0.0
230
1.0
100
AcDbArc
 50
30.268578
 51
32.318713
  0
LINE
  5
1A4
100
AcDbEntity
  8
0
370
    35
390
0
 62
     7
 48
0.1375
100
AcDbLine
 10
476.180756
 20
119.458008
 30
0.0
 11
476.180756
 21
113.958008
 31
0.0
210
0.0
220
0.0
230
1.0
  0
LINE
  5
1A5
100
AcDbEntity
  8
0
370
    35
390
0
 62
     7
 48
0.187702
100
AcDbLine
 10
483.688843
 20
113.958008
 30
0.0
 11
476.180756
 21
113.958008
 31
0.0
210
0.0
220
0.0
230
1.0
  0
LINE
  5
1A6
100
AcDbEntity
  8
0
370
    35
390
0
 62
     7
 48
0.110337
100
AcDbLine
 10
476.180756
 20
119.458008
 30
0.0
 11
480.594238
 21
119.458008
 31
0.0
210
0.0
220
0.0
230
1.0
  0
LINE
  5
1A7
100
AcDbEntity
  8
0
370
    35
390
0
 62
     7
 48
0.1375
100
AcDbLine
 10
465.680756
 20
146.958008
 30
0.0
 11
465.680756
 21
152.458008
 31
0.0
210
0.0
220
0.0
230
1.0
  0
LINE
  5
1A8
100
AcDbEntity
  8
0
370
    35
390
0
 62
     7
 48
0.375
100
AcDbLine
 10
465.680756
 20
152.458008
 30
0.0
 11
480.680756
 21
152.458008
 31
0.0
210
0.0
220
0.0
230
1.0
  0
LINE
  5
1A9
100
AcDbEntity
  8
0
370
    35
390
0
 62
     7
 48
0.125
100
AcDbLine
 10
495.680756
 20
173.458008
 30
0.0
 11
500.680756
 21
173.458008
 31
0.0
210
0.0
220
0.0
230
1.0
  0
LINE
  5
1AA
100
AcDbEntity
  8
0
370
    35
390
0
 62
     7
 48
0.125
100
AcDbLine
 10
495.680756
 20
237.458008
 30
0.0
 11
500.680756
 21
237.458008
 31
0.0
210
0.0
220
0.0
230
1.0
  0
LINE
  5
1AB
100
AcDbEntity
  8
0
370
    35
390
0
 62
     7
 48
0.125
100
AcDbLine
 10
495.680756
 20
303.458008
 30
0.0
 11
500.680756
 21
303.458008
 31
0.0
210
0.0
220
0.0
230
1.0
  0
LINE
  5
1AC
100
AcDbEntity
  8
0
370
    35
390
0
 62
     7
 48
0.125
100
AcDbLine
 10
500.680756
 20
367.458008
 30
0.0
 11
495.680756
 21
367.458008
 31
0.0
210
0.0
220
0.0
230
1.0
  0
LINE
  5
1AD
100
AcDbEntity
  8
0
370
    35
390
0
 62
     7
 48
0.210921
100
AcDbLine
 10
489.743927
 20
52.458008
 30
0.0
 11
498.180756
 21
52.458008
 31
0.0
210
0.0
220
0.0
230
1.0
  0
LINE
  5
1AE
100
AcDbEntity
  8
0
370
    35
390
0
 62
     7
 48
0.184698
100
AcDbLine
 10
498.068695
 20
80.458008
 30
0.0
 11
490.680756
 21
80.458008
 31
0.0
210
0.0
220
0.0
230
1.0
  0
LINE
  5
1AF
100
AcDbEntity
  8
0
370
    35
390
0
 62
     7
 48
0.137797
100
AcDbLine
 10
490.680756
 20
85.958008
 30
0.0
 11
496.192627
 21
85.958008
 31
0.0
210
0.0
220
0.0
230
1.0
  0
LINE
  5
1B0
100
AcDbEntity
  8
0
370
    35
390
0
 62
     7
 48
0.175
100
AcDbLine
 10
473.680756
 20
167.958008
 30
0.0
 11
480.680756
 21
167.958008
 31
0.0
210
0.0
220
0.0
230
1.0
  0
ARC
  5
1B1
100
AcDbEntity
  8
0
370
    35
390
0
 62
     7
100
AcDbCircle
 10
480.680756
 20
172.958008
 30
0.0
 40
5.0
210
0.0
220
0.0
230
1.0
100
AcDbArc
 50
269.999997
 51
360.0
  0
LINE
  5
1B2
100
AcDbEntity
  8
0
370
    35
390
0
 62
     7
100
AcDbLine
 10
485.680756
 20
172.958008
 30
0.0
 11
485.680756
 21
378.958008
 31
0.0
210
0.0
220
0.0
230
1.0
  0
ARC
  5
1B3
100
AcDbEntity
  8
0
370
    35
390
0
 62
     7
100
AcDbCircle
 10
490.680756
 20
378.958008
 30
0.0
 40
5.0
210
0.0
220
0.0
230
1.0
100
AcDbArc
 50
0.0
 51
180.000005
  0
LINE
  5
1B4
100
AcDbEntity
  8
0
370
    35
390
0
 62
     7
 48
0.1375
100
AcDbLine
 10
495.680756
 20
378.958008
 30
0.0
 11
495.680756
 21
373.458008
 31
0.0
210
0.0
220
0.0
230
1.0
  0
CIRCLE
  5
1B5
100
AcDbEntity
  8
0
370
    35
390
0
 62
     4
100
AcDbCircle
 10
461.472473
 20
396.163208
 30
0.0
 40
1.0
210
0.0
220
0.0
230
1.0
  0
ARC
  5
1B6
100
AcDbEntity
  8
0
370
    35
390
0
 62
     7
100
AcDbCircle
 10
278.65152
 20
34.852386
 30
0.0
 40
200.0
210
0.0
220
0.0
230
1.0
100
AcDbArc
 50
19.667067
 51
28.460584
  0
LINE
  5
1B7
100
AcDbEntity
  8
0
370
    35
390
0
 62
     7
 48
0.1375
100
AcDbLine
 10
461.472473
 20
102.163193
 30
0.0
 11
461.472473
 21
96.663193
 31
0.0
210
0.0
220
0.0
230
1.0
  0
ARC
  5
1B8
100
AcDbEntity
  8
0
370
    35
390
0
 62
     7
100
AcDbCircle
 10
278.65152
 20
34.852386
 30
0.0
 40
200.0
210
0.0
220
0.0
230
1.0
100
AcDbArc
 50
8.137783
 51
18.002232
  0
LINE
  5
1B9
100
AcDbEntity
  8
0
370
    35
390
0
 62
     7
 48
0.191629
100
AcDbLine
 10
468.972473
 20
63.163193
 30
0.0
 11
476.637634
 21
63.163193
 31
0.0
210
0.0
220
0.0
230
1.0
  0
LINE
  5
1BA
100
AcDbEntity
  8
0
370
    35
390
0
 62
     7
 48
0.1375
100
AcDbLine
 10
468.972473
 20
63.163193
 30
0.0
 11
468.972473
 21
68.663193
 31
0.0
210
0.0
220
0.0
230
1.0
  0
ARC
  5
1BB
100
AcDbEntity
  8
0
370
    35
390
0
 62
     7
100
AcDbCircle
 10
278.65152
 20
34.852386
 30
0.0
 40
185.0
210
0.0
220
0.0
230
1.0
100
AcDbArc
 50
10.53063
 51
32.318713
  0
ARC
  5
1BC
100
AcDbEntity
  8
0
370
    35
390
0
 62
     7
100
AcDbCircle
 10
481.472473
 20
163.163193
 30
0.0
 40
55.0
210
0.0
220
0.0
230
1.0
100
AcDbArc
 50
180.000005
 51
212.318715
  0
LINE
  5
1BD
100
AcDbEntity
  8
0
370
    35
390
0
 62
     7
 48
0.075
100
AcDbLine
 10
426.472473
 20
163.163193
 30
0.0
 11
426.472473
 21
166.163193
 31
0.0
210
0.0
220
0.0
230
1.0
  0
ARC
  5
1BE
100
AcDbEntity
  8
0
370
    35
390
0
 62
     7
100
AcDbCircle
 10
444.472473
 20
166.163193
 30
0.0
 40
18.0
210
0.0
220
0.0
230
1.0
100
AcDbArc
 50
90.000003
 51
179.999995
  0
LINE
  5
1BF
100
AcDbEntity
  8
0
370
    35
390
0
 62
     7
 48
0.125
100
AcDbLine
 10
466.472473
 20
389.663208
 30
0.0
 11
471.472473
 21
389.663208
 31
0.0
210
0.0
220
0.0
230
1.0
  0
LINE
  5
1C0
100
AcDbEntity
  8
0
370
    35
390
0
 62
     7
 48
0.15
100
AcDbLine
 10
471.472473
 20
383.663208
 30
0.0
 11
471.472473
 21
389.663208
 31
0.0
210
0.0
220
0.0
230
1.0
  0
LINE
  5
1C1
100
AcDbEntity
  8
0
370
    35
390
0
 62
     7
 48
0.1375
100
AcDbLine
 10
466.472473
 20
383.663208
 30
0.0
 11
466.472473
 21
378.163208
 31
0.0
210
0.0
220
0.0
230
1.0
  0
LINE
  5
1C2
100
AcDbEntity
  8
0
370
    35
390
0
 62
     7
 48
0.125
100
AcDbLine
 10
466.472473
 20
378.163208
 30
0.0
 11
471.472473
 21
378.163208
 31
0.0
210
0.0
220
0.0
230
1.0
  0
LINE
  5
1C3
100
AcDbEntity
  8
0
370
    35
390
0
 62
     7
100
AcDbLine
 10
471.472473
 20
319.663208
 30
0.0
 11
471.472473
 21
378.163208
 31
0.0
210
0.0
220
0.0
230
1.0
  0
LINE
  5
1C4
100
AcDbEntity
  8
0
370
    35
390
0
 62
     7
 48
0.1375
100
AcDbLine
 10
466.472473
 20
319.663208
 30
0.0
 11
466.472473
 21
314.163208
 31
0.0
210
0.0
220
0.0
230
1.0
  0
LINE
  5
1C5
100
AcDbEntity
  8
0
370
    35
390
0
 62
     7
 48
0.125
100
AcDbLine
 10
471.472473
 20
314.163208
 30
0.0
 11
466.472473
 21
314.163208
 31
0.0
210
0.0
220
0.0
230
1.0
  0
LINE
  5
1C6
100
AcDbEntity
  8
0
370
    35
390
0
 62
     7
100
AcDbLine
 10
471.472473
 20
253.663193
 30
0.0
 11
471.472473
 21
314.163208
 31
0.0
210
0.0
220
0.0
230
1.0
  0
LINE
  5
1C7
100
AcDbEntity
  8
0
370
    35
390
0
 62
     7
 48
0.1375
100
AcDbLine
 10
466.472473
 20
253.663193
 30
0.0
 11
466.472473
 21
248.163193
 31
0.0
210
0.0
220
0.0
230
1.0
  0
LINE
  5
1C8
100
AcDbEntity
  8
0
370
    35
390
0
 62
     7
 48
0.125
100
AcDbLine
 10
471.472473
 20
248.163193
 30
0.0
 11
466.472473
 21
248.163193
 31
0.0
210
0.0
220
0.0
230
1.0
  0
LINE
  5
1C9
100
AcDbEntity
  8
0
370
    35
390
0
 62
     7
100
AcDbLine
 10
471.472473
 20
189.663193
 30
0.0
 11
471.472473
 21
248.163193
 31
0.0
210
0.0
220
0.0
230
1.0
  0
LINE
  5
1CA
100
AcDbEntity
  8
0
370
    35
390
0
 62
     7
 48
0.1375
100
AcDbLine
 10
466.472473
 20
189.663193
 30
0.0
 11
466.472473
 21
184.163193
 31
0.0
210
0.0
220
0.0
230
1.0
  0
LINE
  5
1CB
100
AcDbEntity
  8
0
370
    35
390
0
 62
     7
 48
0.125
100
AcDbLine
 10
471.472473
 20
184.163193
 30
0.0
 11
466.472473
 21
184.163193
 31
0.0
210
0.0
220
0.0
230
1.0
  0
LINE
  5
1CC
100
AcDbEntity
  8
0
370
    35
390
0
 62
     7
 48
0.25
100
AcDbLine
 10
471.472473
 20
174.163193
 30
0.0
 11
471.472473
 21
184.163193
 31
0.0
210
0.0
220
0.0
230
1.0
  0
ARC
  5
1CD
100
AcDbEntity
  8
0
370
    35
390
0
 62
     7
100
AcDbCircle
 10
466.472473
 20
174.163193
 30
0.0
 40
5.0
210
0.0
220
0.0
230
1.0
100
AcDbArc
 50
269.999997
 51
360.0
  0
LINE
  5
1CE
100
AcDbEntity
  8
0
370
    35
390
0
 62
     7
 48
0.375
100
AcDbLine
 10
451.472473
 20
169.163193
 30
0.0
 11
466.472473
 21
169.163193
 31
0.0
210
0.0
220
0.0
230
1.0
  0
LINE
  5
1CF
100
AcDbEntity
  8
0
370
    35
390
0
 62
     7
 48
0.0125
100
AcDbLine
 10
451.472473
 20
168.663193
 30
0.0
 11
451.472473
 21
169.163193
 31
0.0
210
0.0
220
0.0
230
1.0
  0
LINE
  5
1D0
100
AcDbEntity
  8
0
370
    35
390
0
 62
     7
 48
0.125
100
AcDbLine
 10
441.472473
 20
163.163193
 30
0.0
 11
436.472473
 21
163.163193
 31
0.0
210
0.0
220
0.0
230
1.0
  0
ARC
  5
1D1
100
AcDbEntity
  8
0
370
    35
390
0
 62
     7
100
AcDbCircle
 10
481.472473
 20
163.163193
 30
0.0
 40
40.0
210
0.0
220
0.0
230
1.0
100
AcDbArc
 50
180.000005
 51
212.318715
  0
ARC
  5
1D2
100
AcDbEntity
  8
0
370
    35
390
0
 62
     7
100
AcDbCircle
 10
278.65152
 20
34.852386
 30
0.0
 40
200.0
210
0.0
220
0.0
230
1.0
100
AcDbArc
 50
30.268578
 51
32.318713
  0
LINE
  5
1D3
100
AcDbEntity
  8
0
370
    35
390
0
 62
     7
 48
0.1375
100
AcDbLine
 10
446.972473
 20
135.663193
 30
0.0
 11
446.972473
 21
130.163193
 31
0.0
210
0.0
220
0.0
230
1.0
  0
LINE
  5
1D4
100
AcDbEntity
  8
0
370
    35
390
0
 62
     7
 48
0.187702
100
AcDbLine
 10
454.48056
 20
130.163193
 30
0.0
 11
446.972473
 21
130.163193
 31
0.0
210
0.0
220
0.0
230
1.0
  0
LINE
  5
1D5
100
AcDbEntity
  8
0
370
    35
390
0
 62
     7
 48
0.110337
100
AcDbLine
 10
446.972473
 20
135.663193
 30
0.0
 11
451.385956
 21
135.663193
 31
0.0
210
0.0
220
0.0
230
1.0
  0
LINE
  5
1D6
100
AcDbEntity
  8
0
370
    35
390
0
 62
     7
 48
0.1375
100
AcDbLine
 10
436.472473
 20
163.163193
 30
0.0
 11
436.472473
 21
168.663193
 31
0.0
210
0.0
220
0.0
230
1.0
  0
LINE
  5
1D7
100
AcDbEntity
  8
0
370
    35
390
0
 62
     7
 48
0.375
100
AcDbLine
 10
436.472473
 20
168.663193
 30
0.0
 11
451.472473
 21
168.663193
 31
0.0
210
0.0
220
0.0
230
1.0
  0
LINE
  5
1D8
100
AcDbEntity
  8
0
370
    35
390
0
 62
     7
 48
0.125
100
AcDbLine
 10
466.472473
 20
189.663193
 30
0.0
 11
471.472473
 21
189.663193
 31
0.0
210
0.0
220
0.0
230
1.0
  0
LINE
  5
1D9
100
AcDbEntity
  8
0
370
    35
390
0
 62
     7
 48
0.125
100
AcDbLine
 10
466.472473
 20
253.663193
 30
0.0
 11
471.472473
 21
253.663193
 31
0.0
210
0.0
220
0.0
230
1.0
  0
LINE
  5
1DA
100
AcDbEntity
  8
0
370
    35
390
0
 62
     7
 48
0.125
100
AcDbLine
 10
466.472473
 20
319.663208
 30
0.0
 11
471.472473
 21
319.663208
 31
0.0
210
0.0
220
0.0
230
1.0
  0
LINE
  5
1DB
100
AcDbEntity
  8
0
370
    35
390
0
 62
     7
 48
0.125
100
AcDbLine
 10
471.472473
 20
383.663208
 30
0.0
 11
466.472473
 21
383.663208
 31
0.0
210
0.0
220
0.0
230
1.0
  0
LINE
  5
1DC
100
AcDbEntity
  8
0
370
    35
390
0
 62
     7
 48
0.210921
100
AcDbLine
 10
460.535645
 20
68.663193
 30
0.0
 11
468.972473
 21
68.663193
 31
0.0
210
0.0
220
0.0
230
1.0
  0
LINE
  5
1DD
100
AcDbEntity
  8
0
370
    35
390
0
 62
     7
 48
0.184698
100
AcDbLine
 10
468.860413
 20
96.663193
 30
0.0
 11
461.472473
 21
96.663193
 31
0.0
210
0.0
220
0.0
230
1.0
  0
LINE
  5
1DE
100
AcDbEntity
  8
0
370
    35
390
0
 62
     7
 48
0.137798
100
AcDbLine
 10
461.472473
 20
102.163193
 30
0.0
 11
466.984375
 21
102.163193
 31
0.0
210
0.0
220
0.0
230
1.0
  0
LINE
  5
1DF
100
AcDbEntity
  8
0
370
    35
390
0
 62
     7
 48
0.175
100
AcDbLine
 10
444.472473
 20
184.163193
 30
0.0
 11
451.472473
 21
184.163193
 31
0.0
210
0.0
220
0.0
230
1.0
  0
ARC
  5
1E0
100
AcDbEntity
  8
0
370
    35
390
0
 62
     7
100
AcDbCircle
 10
451.472473
 20
189.163193
 30
0.0
 40
5.0
210
0.0
220
0.0
230
1.0
100
AcDbArc
 50
269.999997
 51
360.0
  0
LINE
  5
1E1
100
AcDbEntity
  8
0
370
    35
390
0
 62
     7
100
AcDbLine
 10
456.472473
 20
189.163193
 30
0.0
 11
456.472473
 21
395.163208
 31
0.0
210
0.0
220
0.0
230
1.0
  0
ARC
  5
1E2
100
AcDbEntity
  8
0
370
    35
390
0
 62
     7
100
AcDbCircle
 10
461.472473
 20
395.163208
 30
0.0
 40
5.0
210
0.0
220
0.0
230
1.0
100
AcDbArc
 50
0.0
 51
180.000005
  0
LINE
  5
1E3
100
AcDbEntity
  8
0
370
    35
390
0
 62
     7
 48
0.1375
100
AcDbLine
 10
466.472473
 20
395.163208
 30
0.0
 11
466.472473
 21
389.663208
 31
0.0
210
0.0
220
0.0
230
1.0
  0
CIRCLE
  5
1E4
100
AcDbEntity
  8
0
370
    35
390
0
 62
     4
100
AcDbCircle
 10
432.865021
 20
412.718567
 30
0.0
 40
1.0
210
0.0
220
0.0
230
1.0
  0
ARC
  5
1E5
100
AcDbEntity
  8
0
370
    35
390
0
 62
     7
100
AcDbCircle
 10
250.044067
 20
51.407745
 30
0.0
 40
200.0
210
0.0
220
0.0
230
1.0
100
AcDbArc
 50
19.667067
 51
28.460584
  0
LINE
  5
1E6
100
AcDbEntity
  8
0
370
    35
390
0
 62
     7
 48
0.1375
100
AcDbLine
 10
432.865021
 20
118.718552
 30
0.0
 11
432.865021
 21
113.218552
 31
0.0
210
0.0
220
0.0
230
1.0
  0
ARC
  5
1E7
100
AcDbEntity
  8
0
370
    35
390
0
 62
     7
100
AcDbCircle
 10
250.044067
 20
51.407745
 30
0.0
 40
200.0
210
0.0
220
0.0
230
1.0
100
AcDbArc
 50
8.137783
 51
18.002232
  0
LINE
  5
1E8
100
AcDbEntity
  8
0
370
    35
390
0
 62
     7
 48
0.191629
100
AcDbLine
 10
440.365021
 20
79.718552
 30
0.0
 11
448.030182
 21
79.718552
 31
0.0
210
0.0
220
0.0
230
1.0
  0
LINE
  5
1E9
100
AcDbEntity
  8
0
370
    35
390
0
 62
     7
 48
0.1375
100
AcDbLine
 10
440.365021
 20
79.718552
 30
0.0
 11
440.365021
 21
85.218552
 31
0.0
210
0.0
220
0.0
230
1.0
  0
ARC
  5
1EA
100
AcDbEntity
  8
0
370
    35
390
0
 62
     7
100
AcDbCircle
 10
250.044067
 20
51.407745
 30
0.0
 40
185.0
210
0.0
220
0.0
230
1.0
100
AcDbArc
 50
10.53063
 51
32.318713
  0
ARC
  5
1EB
100
AcDbEntity
  8
0
370
    35
390
0
 62
     7
100
AcDbCircle
 10
452.865021
 20
179.718552
 30
0.0
 40
55.0
210
0.0
220
0.0
230
1.0
100
AcDbArc
 50
180.000005
 51
212.318715
  0
LINE
  5
1EC
100
AcDbEntity
  8
0
370
    35
390
0
 62
     7
 48
0.075
100
AcDbLine
 10
397.865021
 20
179.718552
 30
0.0
 11
397.865021
 21
182.718552
 31
0.0
210
0.0
220
0.0
230
1.0
  0
ARC
  5
1ED
100
AcDbEntity
  8
0
370
    35
390
0
 62
     7
100
AcDbCircle
 10
415.865021
 20
182.718552
 30
0.0
 40
18.0
210
0.0
220
0.0
230
1.0
100
AcDbArc
 50
90.000003
 51
179.999995
  0
LINE
  5
1EE
100
AcDbEntity
  8
0
370
    35
390
0
 62
     7
 48
0.125
100
AcDbLine
 10
437.865021
 20
406.218567
 30
0.0
 11
442.865021
 21
406.218567
 31
0.0
210
0.0
220
0.0
230
1.0
  0
LINE
  5
1EF
100
AcDbEntity
  8
0
370
    35
390
0
 62
     7
 48
0.15
100
AcDbLine
 10
442.865021
 20
400.218567
 30
0.0
 11
442.865021
 21
406.218567
 31
0.0
210
0.0
220
0.0
230
1.0
  0
LINE
  5
1F0
100
AcDbEntity
  8
0
370
    35
390
0
 62
     7
 48
0.1375
100
AcDbLine
 10
437.865021
 20
400.218567
 30
0.0
 11
437.865021
 21
394.718567
 31
0.0
210
0.0
220
0.0
230
1.0
  0
LINE
  5
1F1
100
AcDbEntity
  8
0
370
    35
390
0
 62
     7
 48
0.125
100
AcDbLine
 10
437.865021
 20
394.718567
 30
0.0
 11
442.865021
 21
394.718567
 31
0.0
210
0.0
220
0.0
230
1.0
  0
LINE
  5
1F2
100
AcDbEntity
  8
0
370
    35
390
0
 62
     7
100
AcDbLine
 10
442.865021
 20
336.218567
 30
0.0
 11
442.865021
 21
394.718567
 31
0.0
210
0.0
220
0.0
230
1.0
  0
LINE
  5
1F3
100
AcDbEntity
  8
0
370
    35
390
0
 62
     7
 48
0.1375
100
AcDbLine
 10
437.865021
 20
336.218567
 30
0.0
 11
437.865021
 21
330.718567
 31
0.0
210
0.0
220
0.0
230
1.0
  0
LINE
  5
1F4
100
AcDbEntity
  8
0
370
    35
390
0
 62
     7
 48
0.125
100
AcDbLine
 10
442.865021
 20
330.718567
 30
0.0
 11
437.865021
 21
330.718567
 31
0.0
210
0.0
220
0.0
230
1.0
  0
LINE
  5
1F5
100
AcDbEntity
  8
0
370
    35
390
0
 62
     7
100
AcDbLine
 10
442.865021
 20
270.218567
 30
0.0
 11
442.865021
 21
330.718567
 31
0.0
210
0.0
220
0.0
230
1.0
  0
LINE
  5
1F6
100
AcDbEntity
  8
0
370
    35
390
0
 62
     7
 48
0.1375
100
AcDbLine
 10
437.865021
 20
270.218567
 30
0.0
 11
437.865021
 21
264.718567
 31
0.0
210
0.0
220
0.0
230
1.0
  0
LINE
  5
1F7
100
AcDbEntity
  8
0
370
    35
390
0
 62
     7
 48
0.125
100
AcDbLine
 10
442.865021
 20
264.718567
 30
0.0
 11
437.865021
 21
264.718567
 31
0.0
210
0.0
220
0.0
230
1.0
  0
LINE
  5
1F8
100
AcDbEntity
  8
0
370
    35
390
0
 62
     7
100
AcDbLine
 10
442.865021
 20
206.218552
 30
0.0
 11
442.865021
 21
264.718567
 31
0.0
210
0.0
220
0.0
230
1.0
  0
LINE
  5
1F9
100
AcDbEntity
  8
0
370
    35
390
0
 62
     7
 48
0.1375
100
AcDbLine
 10
437.865021
 20
206.218552
 30
0.0
 11
437.865021
 21
200.718552
 31
0.0
210
0.0
220
0.0
230
1.0
  0
LINE
  5
1FA
100
AcDbEntity
  8
0
370
    35
390
0
 62
     7
 48
0.125
100
AcDbLine
 10
442.865021
 20
200.718552
 30
0.0
 11
437.865021
 21
200.718552
 31
0.0
210
0.0
220
0.0
230
1.0
  0
LINE
  5
1FB
100
AcDbEntity
  8
0
370
    35
390
0
 62
     7
 48
0.25
100
AcDbLine
 10
442.865021
 20
190.718552
 30
0.0
 11
442.865021
 21
200.718552
 31
0.0
210
0.0
220
0.0
230
1.0
  0
ARC
  5
1FC
100
AcDbEntity
  8
0
370
    35
390
0
 62
     7
100
AcDbCircle
 10
437.865021
 20
190.718552
 30
0.0
 40
5.0
210
0.0
220
0.0
230
1.0
100
AcDbArc
 50
269.999997
 51
360.0
  0
LINE
  5
1FD
100
AcDbEntity
  8
0
370
    35
390
0
 62
     7
 48
0.375
100
AcDbLine
 10
422.865021
 20
185.718552
 30
0.0
 11
437.865021
 21
185.718552
 31
0.0
210
0.0
220
0.0
230
1.0
  0
LINE
  5
1FE
100
AcDbEntity
  8
0
370
    35
390
0
 62
     7
 48
0.0125
100
AcDbLine
 10
422.865021
 20
185.218552
 30
0.0
 11
422.865021
 21
185.718552
 31
0.0
210
0.0
220
0.0
230
1.0
  0
LINE
  5
1FF
100
AcDbEntity
  8
0
370
    35
390
0
 62
     7
 48
0.125
100
AcDbLine
 10
412.865021
 20
179.718552
 30
0.0
 11
407.865021
 21
179.718552
 31
0.0
210
0.0
220
0.0
230
1.0
  0
ARC
  5
200
100
AcDbEntity
  8
0
370
    35
390
0
 62
     7
100
AcDbCircle
 10
452.865021
 20
179.718552
 30
0.0
 40
40.0
210
0.0
220
0.0
230
1.0
100
AcDbArc
 50
180.000005
 51
212.318715
  0
ARC
  5
201
100
AcDbEntity
  8
0
370
    35
390
0
 62
     7
100
AcDbCircle
 10
250.044067
 20
51.407745
 30
0.0
 40
200.0
210
0.0
220
0.0
230
1.0
100
AcDbArc
 50
30.268578
 51
32.318713
  0
LINE
  5
202
100
AcDbEntity
  8
0
370
    35
390
0
 62
     7
 48
0.1375
100
AcDbLine
 10
418.365021
 20
152.218552
 30
0.0
 11
418.365021
 21
146.718552
 31
0.0
210
0.0
220
0.0
230
1.0
  0
LINE
  5
203
100
AcDbEntity
  8
0
370
    35
390
0
 62
     7
 48
0.187702
100
AcDbLine
 10
425.873108
 20
146.718552
 30
0.0
 11
418.365021
 21
146.718552
 31
0.0
210
0.0
220
0.0
230
1.0
  0
LINE
  5
204
100
AcDbEntity
  8
0
370
    35
390
0
 62
     7
 48
0.110337
100
AcDbLine
 10
418.365021
 20
152.218552
 30
0.0
 11
422.778503
 21
152.218552
 31
0.0
210
0.0
220
0.0
230
1.0
  0
LINE
  5
205
100
AcDbEntity
  8
0
370
    35
390
0
 62
     7
 48
0.1375
100
AcDbLine
 10
407.865021
 20
179.718552
 30
0.0
 11
407.865021
 21
185.218552
 31
0.0
210
0.0
220
0.0
230
1.0
  0
LINE
  5
206
100
AcDbEntity
  8
0
370
    35
390
0
 62
     7
 48
0.375
100
AcDbLine
 10
407.865021
 20
185.218552
 30
0.0
 11
422.865021
 21
185.218552
 31
0.0
210
0.0
220
0.0
230
1.0
  0
LINE
  5
207
100
AcDbEntity
  8
0
370
    35
390
0
 62
     7
 48
0.125
100
AcDbLine
 10
437.865021
 20
206.218552
 30
0.0
 11
442.865021
 21
206.218552
 31
0.0
210
0.0
220
0.0
230
1.0
  0
LINE
  5
208
100
AcDbEntity
  8
0
370
    35
390
0
 62
     7
 48
0.125
100
AcDbLine
 10
437.865021
 20
270.218567
 30
0.0
 11
442.865021
 21
270.218567
 31
0.0
210
0.0
220
0.0
230
1.0
  0
LINE
  5
209
100
AcDbEntity
  8
0
370
    35
390
0
 62
     7
 48
0.125
100
AcDbLine
 10
437.865021
 20
336.218567
 30
0.0
 11
442.865021
 21
336.218567
 31
0.0
210
0.0
220
0.0
230
1.0
  0
LINE
  5
20A
100
AcDbEntity
  8
0
370
    35
390
0
 62
     7
 48
0.125
100
AcDbLine
 10
442.865021
 20
400.218567
 30
0.0
 11
437.865021
 21
400.218567
 31
0.0
210
0.0
220
0.0
230
1.0
  0
LINE
  5
20B
100
AcDbEntity
  8
0
370
    35
390
0
 62
     7
 48
0.210921
100
AcDbLine
 10
431.928192
 20
85.218552
 30
0.0
 11
440.365021
 21
85.218552
 31
0.0
210
0.0
220
0.0
230
1.0
  0
LINE
  5
20C
100
AcDbEntity
  8
0
370
    35
390
0
 62
     7
 48
0.184698
100
AcDbLine
 10
440.25296
 20
113.218552
 30
0.0
 11
432.865021
 21
113.218552
 31
0.0
210
0.0
220
0.0
230
1.0
  0
LINE
  5
20D
100
AcDbEntity
  8
0
370
    35
390
0
 62
     7
 48
0.137797
100
AcDbLine
 10
432.865021
 20
118.718552
 30
0.0
 11
438.376892
 21
118.718552
 31
0.0
210
0.0
220
0.0
230
1.0
  0
LINE
  5
20E
100
AcDbEntity
  8
0
370
    35
390
0
 62
     7
 48
0.175
100
AcDbLine
 10
415.865021
 20
200.718552
 30
0.0
 11
422.865021
 21
200.718552
 31
0.0
210
0.0
220
0.0
230
1.0
  0
ARC
  5
20F
100
AcDbEntity
  8
0
370
    35
390
0
 62
     7
100
AcDbCircle
 10
422.865021
 20
205.718552
 30
0.0
 40
5.0
210
0.0
220
0.0
230
1.0
100
AcDbArc
 50
269.999997
 51
360.0
  0
LINE
  5
210
100
AcDbEntity
  8
0
370
    35
390
0
 62
     7
100
AcDbLine
 10
427.865021
 20
205.718552
 30
0.0
 11
427.865021
 21
411.718567
 31
0.0
210
0.0
220
0.0
230
1.0
  0
ARC
  5
211
100
AcDbEntity
  8
0
370
    35
390
0
 62
     7
100
AcDbCircle
 10
432.865021
 20
411.718567
 30
0.0
 40
5.0
210
0.0
220
0.0
230
1.0
100
AcDbArc
 50
0.0
 51
180.000005
  0
LINE
  5
212
100
AcDbEntity
  8
0
370
    35
390
0
 62
     7
 48
0.1375
100
AcDbLine
 10
437.865021
 20
411.718567
 30
0.0
 11
437.865021
 21
406.218567
 31
0.0
210
0.0
220
0.0
230
1.0
  0
CIRCLE
  5
213
100
AcDbEntity
  8
0
370
    35
390
0
 62
     4
100
AcDbCircle
 10
520.924377
 20
361.974762
 30
0.0
 40
1.0
210
0.0
220
0.0
230
1.0
  0
ARC
  5
214
100
AcDbEntity
  8
0
370
    35
390
0
 62
     7
100
AcDbCircle
 10
338.103424
 20
0.663956
 30
0.0
 40
200.0
210
0.0
220
0.0
230
1.0
100
AcDbArc
 50
19.667067
 51
28.460584
  0
LINE
  5
215
100
AcDbEntity
  8
0
370
    35
390
0
 62
     7
 48
0.1375
100
AcDbLine
 10
520.924377
 20
67.974762
 30
0.0
 11
520.924377
 21
62.474762
 31
0.0
210
0.0
220
0.0
230
1.0
  0
ARC
  5
216
100
AcDbEntity
  8
0
370
    35
390
0
 62
     7
100
AcDbCircle
 10
338.103424
 20
0.663956
 30
0.0
 40
200.0
210
0.0
220
0.0
230
1.0
100
AcDbArc
 50
8.137783
 51
18.002232
  0
LINE
  5
217
100
AcDbEntity
  8
0
370
    35
390
0
 62
     7
 48
0.191629
100
AcDbLine
 10
528.424377
 20
28.974762
 30
0.0
 11
536.089539
 21
28.974762
 31
0.0
210
0.0
220
0.0
230
1.0
  0
LINE
  5
218
100
AcDbEntity
  8
0
370
    35
390
0
 62
     7
 48
0.1375
100
AcDbLine
 10
528.424377
 20
28.974762
 30
0.0
 11
528.424377
 21
34.474762
 31
0.0
210
0.0
220
0.0
230
1.0
  0
ARC
  5
219
100
AcDbEntity
  8
0
370
    35
390
0
 62
     7
100
AcDbCircle
 10
338.103424
 20
0.663956
 30
0.0
 40
185.0
210
0.0
220
0.0
230
1.0
100
AcDbArc
 50
10.53063
 51
32.318713
  0
ARC
  5
21A
100
AcDbEntity
  8
0
370
    35
390
0
 62
     7
100
AcDbCircle
 10
540.924377
 20
128.974762
 30
0.0
 40
55.0
210
0.0
220
0.0
230
1.0
100
AcDbArc
 50
180.000005
 51
212.318715
  0
LINE
  5
21B
100
AcDbEntity
  8
0
370
    35
390
0
 62
     7
 48
0.075
100
AcDbLine
 10
485.924377
 20
128.974762
 30
0.0
 11
485.924377
 21
131.974762
 31
0.0
210
0.0
220
0.0
230
1.0
  0
ARC
  5
21C
100
AcDbEntity
  8
0
370
    35
390
0
 62
     7
100
AcDbCircle
 10
503.924377
 20
131.974762
 30
0.0
 40
18.0
210
0.0
220
0.0
230
1.0
100
AcDbArc
 50
90.000003
 51
179.999995
  0
LINE
  5
21D
100
AcDbEntity
  8
0
370
    35
390
0
 62
     7
 48
0.125
100
AcDbLine
 10
525.924377
 20
355.474762
 30
0.0
 11
530.924377
 21
355.474762
 31
0.0
210
0.0
220
0.0
230
1.0
  0
LINE
  5
21E
100
AcDbEntity
  8
0
370
    35
390
0
 62
     7
 48
0.15
100
AcDbLine
 10
530.924377
 20
349.474762
 30
0.0
 11
530.924377
 21
355.474762
 31
0.0
210
0.0
220
0.0
230
1.0
  0
LINE
  5
21F
100
AcDbEntity
  8
0
370
    35
390
0
 62
     7
 48
0.1375
100
AcDbLine
 10
525.924377
 20
349.474762
 30
0.0
 11
525.924377
 21
343.974762
 31
0.0
210
0.0
220
0.0
230
1.0
  0
LINE
  5
220
100
AcDbEntity
  8
0
370
    35
390
0
 62
     7
 48
0.125
100
AcDbLine
 10
525.924377
 20
343.974762
 30
0.0
 11
530.924377
 21
343.974762
 31
0.0
210
0.0
220
0.0
230
1.0
  0
LINE
  5
221
100
AcDbEntity
  8
0
370
    35
390
0
 62
     7
100
AcDbLine
 10
530.924377
 20
285.474762
 30
0.0
 11
530.924377
 21
343.974762
 31
0.0
210
0.0
220
0.0
230
1.0
  0
LINE
  5
222
100
AcDbEntity
  8
0
370
    35
390
0
 62
     7
 48
0.1375
100
AcDbLine
 10
525.924377
 20
285.474762
 30
0.0
 11
525.924377
 21
279.974762
 31
0.0
210
0.0
220
0.0
230
1.0
  0
LINE
  5
223
100
AcDbEntity
  8
0
370
    35
390
0
 62
     7
 48
0.125
100
AcDbLine
 10
530.924377
 20
279.974762
 30
0.0
 11
525.924377
 21
279.974762
 31
0.0
210
0.0
220
0.0
230
1.0
  0
LINE
  5
224
100
AcDbEntity
  8
0
370
    35
390
0
 62
     7
100
AcDbLine
 10
530.924377
 20
219.474762
 30
0.0
 11
530.924377
 21
279.974762
 31
0.0
210
0.0
220
0.0
230
1.0
  0
LINE
  5
225
100
AcDbEntity
  8
0
370
    35
390
0
 62
     7
 48
0.1375
100
AcDbLine
 10
525.924377
 20
219.474762
 30
0.0
 11
525.924377
 21
213.974762
 31
0.0
210
0.0
220
0.0
230
1.0
  0
LINE
  5
226
100
AcDbEntity
  8
0
370
    35
390
0
 62
     7
 48
0.125
100
AcDbLine
 10
530.924377
 20
213.974762
 30
0.0
 11
525.924377
 21
213.974762
 31
0.0
210
0.0
220
0.0
230
1.0
  0
LINE
  5
227
100
AcDbEntity
  8
0
370
    35
390
0
 62
     7
100
AcDbLine
 10
530.924377
 20
155.474762
 30
0.0
 11
530.924377
 21
213.974762
 31
0.0
210
0.0
220
0.0
230
1.0
  0
LINE
  5
228
100
AcDbEntity
  8
0
370
    35
390
0
 62
     7
 48
0.1375
100
AcDbLine
 10
525.924377
 20
155.474762
 30
0.0
 11
525.924377
 21
149.974762
 31
0.0
210
0.0
220
0.0
230
1.0
  0
LINE
  5
229
100
AcDbEntity
  8
0
370
    35
390
0
 62
     7
 48
0.125
100
AcDbLine
 10
530.924377
 20
149.974762
 30
0.0
 11
525.924377
 21
149.974762
 31
0.0
210
0.0
220
0.0
230
1.0
  0
LINE
  5
22A
100
AcDbEntity
  8
0
370
    35
390
0
 62
     7
 48
0.25
100
AcDbLine
 10
530.924377
 20
139.974762
 30
0.0
 11
530.924377
 21
149.974762
 31
0.0
210
0.0
220
0.0
230
1.0
  0
ARC
  5
22B
100
AcDbEntity
  8
0
370
    35
390
0
 62
     7
100
AcDbCircle
 10
525.924377
 20
139.974762
 30
0.0
 40
5.0
210
0.0
220
0.0
230
1.0
100
AcDbArc
 50
269.999997
 51
360.0
  0
LINE
  5
22C
100
AcDbEntity
  8
0
370
    35
390
0
 62
     7
 48
0.375
100
AcDbLine
 10
510.924377
 20
134.974762
 30
0.0
 11
525.924377
 21
134.974762
 31
0.0
210
0.0
220
0.0
230
1.0
  0
LINE
  5
22D
100
AcDbEntity
  8
0
370
    35
390
0
 62
     7
 48
0.0125
100
AcDbLine
 10
510.924377
 20
134.474762
 30
0.0
 11
510.924377
 21
134.974762
 31
0.0
210
0.0
220
0.0
230
1.0
  0
LINE
  5
22E
100
AcDbEntity
  8
0
370
    35
390
0
 62
     7
 48
0.125
100
AcDbLine
 10
500.924377
 20
128.974762
 30
0.0
 11
495.924377
 21
128.974762
 31
0.0
210
0.0
220
0.0
230
1.0
  0
ARC
  5
22F
100
AcDbEntity
  8
0
370
    35
390
0
 62
     7
100
AcDbCircle
 10
540.924377
 20
128.974762
 30
0.0
 40
40.0
210
0.0
220
0.0
230
1.0
100
AcDbArc
 50
180.000005
 51
212.318715
  0
ARC
  5
230
100
AcDbEntity
  8
0
370
    35
390
0
 62
     7
100
AcDbCircle
 10
338.103424
 20
0.663956
 30
0.0
 40
200.0
210
0.0
220
0.0
230
1.0
100
AcDbArc
 50
30.268578
 51
32.318713
  0
LINE
  5
231
100
AcDbEntity
  8
0
370
    35
390
0
 62
     7
 48
0.1375
100
AcDbLine
 10
506.424377
 20
101.474762
 30
0.0
 11
506.424377
 21
95.974762
 31
0.0
210
0.0
220
0.0
230
1.0
  0
LINE
  5
232
100
AcDbEntity
  8
0
370
    35
390
0
 62
     7
 48
0.187703
100
AcDbLine
 10
513.932495
 20
95.974762
 30
0.0
 11
506.424377
 21
95.974762
 31
0.0
210
0.0
220
0.0
230
1.0
  0
LINE
  5
233
100
AcDbEntity
  8
0
370
    35
390
0
 62
     7
 48
0.110337
100
AcDbLine
 10
506.424377
 20
101.474762
 30
0.0
 11
510.83786
 21
101.474762
 31
0.0
210
0.0
220
0.0
230
1.0
  0
LINE
  5
234
100
AcDbEntity
  8
0
370
    35
390
0
 62
     7
 48
0.1375
100
AcDbLine
 10
495.924377
 20
128.974762
 30
0.0
 11
495.924377
 21
134.474762
 31
0.0
210
0.0
220
0.0
230
1.0
  0
LINE
  5
235
100
AcDbEntity
  8
0
370
    35
390
0
 62
     7
 48
0.375
100
AcDbLine
 10
495.924377
 20
134.474762
 30
0.0
 11
510.924377
 21
134.474762
 31
0.0
210
0.0
220
0.0
230
1.0
  0
LINE
  5
236
100
AcDbEntity
  8
0
370
    35
390
0
 62
     7
 48
0.125
100
AcDbLine
 10
525.924377
 20
155.474762
 30
0.0
 11
530.924377
 21
155.474762
 31
0.0
210
0.0
220
0.0
230
1.0
  0
LINE
  5
237
100
AcDbEntity
  8
0
370
    35
390
0
 62
     7
 48
0.125
100
AcDbLine
 10
525.924377
 20
219.474762
 30
0.0
 11
530.924377
 21
219.474762
 31
0.0
210
0.0
220
0.0
230
1.0
  0
LINE
  5
238
100
AcDbEntity
  8
0
370
    35
390
0
 62
     7
 48
0.125
100
AcDbLine
 10
525.924377
 20
285.474762
 30
0.0
 11
530.924377
 21
285.474762
 31
0.0
210
0.0
220
0.0
230
1.0
  0
LINE
  5
239
100
AcDbEntity
  8
0
370
    35
390
0
 62
     7
 48
0.125
100
AcDbLine
 10
530.924377
 20
349.474762
 30
0.0
 11
525.924377
 21
349.474762
 31
0.0
210
0.0
220
0.0
230
1.0
  0
LINE
  5
23A
100
AcDbEntity
  8
0
370
    35
390
0
 62
     7
 48
0.210921
100
AcDbLine
 10
519.987549
 20
34.474762
 30
0.0
 11
528.424377
 21
34.474762
 31
0.0
210
0.0
220
0.0
230
1.0
  0
LINE
  5
23B
100
AcDbEntity
  8
0
370
    35
390
0
 62
     7
 48
0.184698
100
AcDbLine
 10
528.312317
 20
62.474762
 30
0.0
 11
520.924377
 21
62.474762
 31
0.0
210
0.0
220
0.0
230
1.0
  0
LINE
  5
23C
100
AcDbEntity
  8
0
370
    35
390
0
 62
     7
 48
0.137798
100
AcDbLine
 10
520.924377
 20
67.974762
 30
0.0
 11
526.436279
 21
67.974762
 31
0.0
210
0.0
220
0.0
230
1.0
  0
LINE
  5
23D
100
AcDbEntity
  8
0
370
    35
390
0
 62
     7
 48
0.175
100
AcDbLine
 10
503.924377
 20
149.974762
 30
0.0
 11
510.924377
 21
149.974762
 31
0.0
210
0.0
220
0.0
230
1.0
  0
ARC
  5
23E
100
AcDbEntity
  8
0
370
    35
390
0
 62
     7
100
AcDbCircle
 10
510.924377
 20
154.974762
 30
0.0
 40
5.0
210
0.0
220
0.0
230
1.0
100
AcDbArc
 50
269.999997
 51
360.0
  0
LINE
  5
23F
100
AcDbEntity
  8
0
370
    35
390
0
 62
     7
100
AcDbLine
 10
515.924377
 20
154.974762
 30
0.0
 11
515.924377
 21
360.974762
 31
0.0
210
0.0
220
0.0
230
1.0
  0
ARC
  5
240
100
AcDbEntity
  8
0
370
    35
390
0
 62
     7
100
AcDbCircle
 10
520.924377
 20
360.974762
 30
0.0
 40
5.0
210
0.0
220
0.0
230
1.0
100
AcDbArc
 50
0.0
 51
180.000005
  0
LINE
  5
241
100
AcDbEntity
  8
0
370
    35
390
0
 62
     7
 48
0.1375
100
AcDbLine
 10
525.924377
 20
360.974762
 30
0.0
 11
525.924377
 21
355.474762
 31
0.0
210
0.0
220
0.0
230
1.0
  0
ENDSEC
  0
SECTION
  2
OBJECTS
  0
DICTIONARY
  5
19
100
AcDbDictionary
280
     0
281
     1
  3
ACAD_GROUP
350
1A
  3
ACAD_MLINESTYLE
350
1B
  3
ACAD_LAYOUT
350
1E
  3
ACAD_PLOTSETTINGS
350
22
  3
ACAD_PLOTSTYLENAME
350
1F
  3
ACAD_WIPEOUT_VARS
350
23
  0
DICTIONARY
  5
1A
102
{ACAD_REACTORS
330
19
102
}
100
AcDbDictionary
280
     0
281
     1
  0
DICTIONARY
  5
1B
102
{ACAD_REACTORS
330
19
102
}
100
AcDbDictionary
280
     0
281
     1
  3
Standard
350
1C
  0
MLINESTYLE
  5
1C
102
{ACAD_REACTORS
330
1B
102
}
100
AcDbMlineStyle
  2
Standard
 70
     0
  3

 62
     0
 51
90.0
 52
90.0
 71
     2
 49
0.5
 62
   256
  6
ByLayer
 49
-0.5
 62
   256
  6
ByLayer
  0
ACDBDICTIONARYWDFLT
  5
1F
102
{ACAD_REACTORS
330
19
102
}
100
AcDbDictionary
281
     1
  3
Normal
350
1D
100
AcDbDictionaryWithDefault
340
1D
  0
ACDBPLACEHOLDER
  5
1D
102
{ACAD_REACTORS
330
1F
102
}
  0
LAYOUT
  5
20
102
{ACAD_REACTORS
330
1E
102
}
100
AcDbPlotSettings
  1

  2

  4

  6

 40
0.0
 41
0.0
 42
0.0
 43
0.0
 44
0.0
 45
0.0
 46
0.0
 47
0.0
 48
0.0
 49
0.0
140
0.0
141
0.0
142
1.0
143
1.0
 70
  1024
 72
     0
 73
     0
 74
     0
  7

 75
     0
147
1.0
148
0.0
149
0.0
100
AcDbLayout
  1
Model
 70
     0
 71
     0
 10
0.0
 20
0.0
 11
0.0
 21
0.0
 12
0.0
 22
0.0
 32
0.0
 14
0.0
 24
0.0
 34
0.0
 15
0.0
 25
0.0
 35
0.0
146
0.0
 13
0.0
 23
0.0
 33
0.0
 16
0.0
 26
0.0
 36
0.0
 17
0.0
 27
0.0
 37
0.0
 76
     0
330
A
331
0
345
0
346
0
  0
LAYOUT
  5
21
102
{ACAD_REACTORS
330
1E
102
}
100
AcDbPlotSettings
  1

  2

  4

  6

 40
0.0
 41
0.0
 42
0.0
 43
0.0
 44
0.0
 45
0.0
 46
0.0
 47
0.0
 48
0.0
 49
0.0
140
0.0
141
0.0
142
1.0
143
1.0
 70
     0
 72
     0
 73
     0
 74
     0
  7

 75
     0
147
1.0
148
0.0
149
0.0
100
AcDbLayout
  1
Layout1
 70
     0
 71
     0
 10
0.0
 20
0.0
 11
0.0
 21
0.0
 12
0.0
 22
0.0
 32
0.0
 14
0.0
 24
0.0
 34
0.0
 15
0.0
 25
0.0
 35
0.0
146
0.0
 13
0.0
 23
0.0
 33
0.0
 16
0.0
 26
0.0
 36
0.0
 17
0.0
 27
0.0
 37
0.0
 76
     0
330
B
331
0
345
0
346
0
  0
DICTIONARY
  5
1E
102
{ACAD_REACTORS
330
19
102
}
100
AcDbDictionary
280
     0
281
     1
  3
Layout1
350
21
  3
Model
350
20
  0
DICTIONARY
  5
22
102
{ACAD_REACTORS
330
19
102
}
100
AcDbDictionary
280
     0
281
     1
  0
WIPEOUTVARIABLES
  5
23
100
AcDbWipeoutVariables
 70
     1
  0
ENDSEC
  0
EOF
