  0
SECTION
  2
HEADER
  9
$ACADVER
  1
AC1015
  9
$ACADMAINTVER
 70
     6
  9
$DWGCODEPAGE
  3
ANSI_1252
  9
$INSBASE
 10
0.0
 20
0.0
 30
0.0
  9
$EXTMIN
 10
0.0
 20
0.0
 30
0.0
  9
$EXTMAX
 10
597.907654
 20
417.011383
 30
2.0
  9
$LIMMIN
 10
0.0
 20
0.0
  9
$LIMMAX
 10
420.0
 20
297.0
  9
$ORTHOMODE
 70
     0
  9
$REGENMODE
 70
     1
  9
$FILLMODE
 70
     1
  9
$QTEXTMODE
 70
     0
  9
$MIRRTEXT
 70
     1
  9
$LTSCALE
 40
1.0
  9
$ATTMODE
 70
     1
  9
$TEXTSIZE
 40
2.5
  9
$TRACEWID
 40
1.0
  9
$TEXTSTYLE
  7
Standard
  9
$CLAYER
  8
0
  9
$CELTYPE
  6
ByLayer
  9
$CECOLOR
 62
   256
  9
$CELTSCALE
 40
1.0
  9
$DISPSILH
 70
     0
  9
$DIMSCALE
 40
1.0
  9
$DIMASZ
 40
2.5
  9
$DIMEXO
 40
0.625
  9
$DIMDLI
 40
3.75
  9
$DIMRND
 40
0.0
  9
$DIMDLE
 40
0.0
  9
$DIMEXE
 40
1.25
  9
$DIMTP
 40
0.0
  9
$DIMTM
 40
0.0
  9
$DIMTXT
 40
2.5
  9
$DIMCEN
 40
2.5
  9
$DIMTSZ
 40
0.0
  9
$DIMTOL
 70
     0
  9
$DIMLIM
 70
     0
  9
$DIMTIH
 70
     0
  9
$DIMTOH
 70
     0
  9
$DIMSE1
 70
     0
  9
$DIMSE2
 70
     0
  9
$DIMTAD
 70
     1
  9
$DIMZIN
 70
     8
  9
$DIMBLK
  1

  9
$DIMASO
 70
     1
  9
$DIMSHO
 70
     1
  9
$DIMPOST
  1

  9
$DIMAPOST
  1

  9
$DIMALT
 70
     0
  9
$DIMALTD
 70
     3
  9
$DIMALTF
 40
0.03937
  9
$DIMLFAC
 40
1.0
  9
$DIMTOFL
 70
     1
  9
$DIMTVP
 40
0.0
  9
$DIMTIX
 70
     0
  9
$DIMSOXD
 70
     0
  9
$DIMSAH
 70
     0
  9
$DIMBLK1
  1

  9
$DIMBLK2
  1

  9
$DIMSTYLE
  2

  9
$DIMCLRD
 70
     0
  9
$DIMCLRE
 70
     0
  9
$DIMCLRT
 70
     0
  9
$DIMTFAC
 40
1.0
  9
$DIMGAP
 40
0.625
  9
$DIMJUST
 70
     0
  9
$DIMSD1
 70
     0
  9
$DIMSD2
 70
     0
  9
$DIMTOLJ
 70
     0
  9
$DIMTZIN
 70
     8
  9
$DIMALTZ
 70
     0
  9
$DIMALTTZ
 70
     0
  9
$DIMUPT
 70
     0
  9
$DIMDEC
 70
     2
  9
$DIMTDEC
 70
     2
  9
$DIMALTU
 70
     2
  9
$DIMALTTD
 70
     3
  9
$DIMTXSTY
  7
Standard
  9
$DIMAUNIT
 70
     0
  9
$DIMADEC
 70
     0
  9
$DIMALTRND
 40
0.0
  9
$DIMAZIN
 70
     0
  9
$DIMDSEP
 70
    44
  9
$DIMATFIT
 70
     0
  9
$DIMFRAC
 70
     0
  9
$DIMLDRBLK
  1

  9
$DIMLUNIT
 70
     2
  9
$DIMLWD
 70
    -2
  9
$DIMLWE
 70
    -2
  9
$DIMTMOVE
 70
     0
  9
$LUNITS
 70
     2
  9
$LUPREC
 70
     4
  9
$SKETCHINC
 40
1.0
  9
$FILLETRAD
 40
2.5
  9
$AUNITS
 70
     0
  9
$AUPREC
 70
     0
  9
$MENU
  1
.
  9
$ELEVATION
 40
0.0
  9
$PELEVATION
 40
0.0
  9
$THICKNESS
 40
0.0
  9
$LIMCHECK
 70
     0
  9
$CHAMFERA
 40
2.5
  9
$CHAMFERB
 40
2.5
  9
$CHAMFERC
 40
0.0
  9
$CHAMFERD
 40
0.0
  9
$SKPOLY
 70
     0
  9
$TDCREATE
 40
0.000000000
  9
$TDUCREATE
 40
0.000000000
  9
$TDUPDATE
 40
0.000000000
  9
$TDUUPDATE
 40
0.000000000
  9
$TDINDWG
 40
0.0000000000
  9
$TDUSRTIMER
 40
0.0000000000
  9
$USRTIMER
 70
     1
  9
$ANGBASE
 50
0.0
  9
$ANGDIR
 70
     0
  9
$PDMODE
 70
     0
  9
$PDSIZE
 40
0.0
  9
$PLINEWID
 40
0.0
  9
$SPLFRAME
 70
     0
  9
$SPLINETYPE
 70
     6
  9
$SPLINESEGS
 70
     8
  9
$HANDSEED
  5
272
  9
$SURFTAB1
 70
     6
  9
$SURFTAB2
 70
     6
  9
$SURFTYPE
 70
     6
  9
$SURFU
 70
     6
  9
$SURFV
 70
     6
  9
$UCSBASE
  2

  9
$UCSNAME
  2

  9
$UCSORG
 10
0.0
 20
0.0
 30
0.0
  9
$UCSXDIR
 10
1.0
 20
0.0
 30
0.0
  9
$UCSYDIR
 10
0.0
 20
1.0
 30
0.0
  9
$UCSORTHOREF
  2

  9
$UCSORTHOVIEW
 70
     1
  9
$UCSORGTOP
 10
0.0
 20
0.0
 30
0.0
  9
$UCSORGBOTTOM
 10
0.0
 20
0.0
 30
0.0
  9
$UCSORGLEFT
 10
0.0
 20
0.0
 30
0.0
  9
$UCSORGRIGHT
 10
0.0
 20
0.0
 30
0.0
  9
$UCSORGFRONT
 10
0.0
 20
0.0
 30
0.0
  9
$UCSORGBACK
 10
0.0
 20
0.0
 30
0.0
  9
$PUCSBASE
  2

  9
$PUCSNAME
  2

  9
$PUCSORG
 10
0.0
 20
0.0
 30
0.0
  9
$PUCSXDIR
 10
1.0
 20
0.0
 30
0.0
  9
$PUCSYDIR
 10
0.0
 20
1.0
 30
0.0
  9
$PUCSORTHOREF
  2

  9
$PUCSORTHOVIEW
 70
     0
  9
$PUCSORGTOP
 10
0.0
 20
0.0
 30
0.0
  9
$PUCSORGBOTTOM
 10
0.0
 20
0.0
 30
0.0
  9
$PUCSORGLEFT
 10
0.0
 20
0.0
 30
0.0
  9
$PUCSORGRIGHT
 10
0.0
 20
0.0
 30
0.0
  9
$PUCSORGFRONT
 10
0.0
 20
0.0
 30
0.0
  9
$PUCSORGBACK
 10
0.0
 20
0.0
 30
0.0
  9
$USERI1
 70
     0
  9
$USERI2
 70
     0
  9
$USERI3
 70
     0
  9
$USERI4
 70
     0
  9
$USERI5
 70
     0
  9
$USERR1
 40
0.0
  9
$USERR2
 40
0.0
  9
$USERR3
 40
0.0
  9
$USERR4
 40
0.0
  9
$USERR5
 40
0.0
  9
$WORLDVIEW
 70
     1
  9
$SHADEDGE
 70
     3
  9
$SHADEDIF
 70
    70
  9
$TILEMODE
 70
     1
  9
$MAXACTVP
 70
    48
  9
$PINSBASE
 10
0.0
 20
0.0
 30
0.0
  9
$PLIMCHECK
 70
     0
  9
$PEXTMIN
 10
0.0
 20
0.0
 30
0.0
  9
$PEXTMAX
 10
597.907654
 20
417.011383
 30
2.0
  9
$PLIMMIN
 10
0.0
 20
0.0
  9
$PLIMMAX
 10
420.0
 20
297.0
  9
$UNITMODE
 70
     0
  9
$VISRETAIN
 70
     0
  9
$PLINEGEN
 70
     0
  9
$PSLTSCALE
 70
     1
  9
$TREEDEPTH
 70
  3020
  9
$CMLSTYLE
  2
Standard
  9
$CMLJUST
 70
     0
  9
$CMLSCALE
 40
20.0
  9
$PROXYGRAPHICS
 70
     1
  9
$MEASUREMENT
 70
     1
  9
$CELWEIGHT
370
    -1
  9
$ENDCAPS
280
     0
  9
$JOINSTYLE
280
     0
  9
$LWDISPLAY
290
     0
  9
$INSUNITS
 70
     0
  9
$HYPERLINKBASE
  1

  9
$STYLESHEET
  1

  9
$XEDIT
290
     1
  9
$CEPSNTYPE
380
     0
  9
$PSTYLEMODE
290
     0
  9
$FINGERPRINTGUID
  2

  9
$VERSIONGUID
  2

  9
$EXTNAMES
290
     0
  9
$PSVPSCALE
 40
0.0
  0
ENDSEC
  0
SECTION
  2
CLASSES
  0
CLASS
  1
LWPOLYLINE
  2
AcDbPolyline
  3
AutoCAD 2000
 90
        0
280
     0
281
     1
  0
CLASS
  1
IMAGE
  2
AcDbRasterImage
  3
ISM
 90
      127
280
     0
281
     1
  0
CLASS
  1
OLE2FRAME
  2
AcDbOle2Frame
  3
AutoCAD 2000
 90
        0
280
     0
281
     1
  0
CLASS
  1
HATCH
  2
AcDbHatch
  3
AutoCAD 2000
 90
        0
280
     0
281
     1
  0
CLASS
  1
DICTIONARYVAR
  2
AcDbDictionaryVar
  3
AutoCAD 2000
 90
        0
280
     0
281
     0
  0
CLASS
  1
RASTERVARIABLES
  2
AcDbRasterVariables
  3
ISM
 90
        0
280
     0
281
     0
  0
CLASS
  1
IMAGEDEF
  2
AcDbRasterImageDef
  3
ISM
 90
        0
280
     0
281
     0
  0
CLASS
  1
IMAGEDEF_REACTOR
  2
AcDbRasterImageDefReactor
  3
ISM
 90
        1
280
     0
281
     0
  0
CLASS
  1
IDBUFFER
  2
AcDbIdBuffer
  3
AutoCAD 2000
 90
        0
280
     0
281
     0
  0
CLASS
  1
SPATIAL_FILTER
  2
AcDbSpatialFilter
  3
AutoCAD 2000
 90
        0
280
     0
281
     0
  0
CLASS
  1
XRECORD
  2
AcDbXrecord
  3
AutoCAD 2000
 90
        0
280
     0
281
     0
  0
CLASS
  1
SORTENTSTABLE
  2
AcDbSortentsTable
  3
AutoCAD 2000
 90
        0
280
     0
281
     0
  0
CLASS
  1
LAYER_INDEX
  2
AcDbLayerIndex
  3
AutoCAD 2000
 90
        0
280
     0
281
     0
  0
CLASS
  1
SPATIAL_INDEX
  2
AcDbSpatialIndex
  3
AutoCAD 2000
 90
        0
280
     0
281
     0
  0
CLASS
  1
OBJECT_PTR
  2
CAseDLPNTableRecord
  3
"ASE-LPNTableRecord"
 90
        1
280
     0
281
     0
  0
CLASS
  1
LAYOUT
  2
AcDbLayout
  3
AutoCAD 2000
 90
        0
280
     0
281
     0
  0
CLASS
  1
PLOTSETTINGS
  2
AcDbPlotSettings
  3
AutoCAD 2000
 90
        0
280
     0
281
     0
  0
CLASS
  1
ACDBDICTIONARYWDFLT
  2
AcDbDictionaryWithDefault
  3
AutoCAD 2000
 90
        0
280
     0
281
     0
  0
CLASS
  1
ACDBPLACEHOLDER
  2
AcDbPlaceHolder
  3
AutoCAD 2000
 90
        0
280
     0
281
     0
  0
CLASS
  1
VBA_PROJECT
  2
AcDbVbaProject
  3
acadvba
 90
        0
280
     0
281
     0
  0
CLASS
  1
WIPEOUT
  2
AcDbWipeout
  3
WipeOut|AutoCAD Express Tool|expresstools@autodesk.com
 90
      127
280
     0
281
     1
  0
CLASS
  1
WIPEOUTVARIABLES
  2
AcDbWipeoutVariables
  3
WipeOut|AutoCAD Express Tool|expresstools@autodesk.com
 90
        0
280
     0
281
     0
  0
CLASS
  1
RTEXT
  2
RText
  3
RText|AutoCAD Express Tool|expresstools@autodesk.com
 90
        0
280
     0
281
     1
  0
CLASS
  1
ARCALIGNEDTEXT
  2
AcDbArcAlignedText
  3
ATEXT|AutoCAD Express Tool|expresstools@autodesk.com
 90
        0
280
     0
281
     1
  0
ENDSEC
  0
SECTION
  2
TABLES
  0
TABLE
  2
VPORT
  5
7
100
AcDbSymbolTable
 70
     1
  0
VPORT
  5
15
100
AcDbSymbolTableRecord
100
AcDbViewportTableRecord
  2
*ACTIVE
 70
     0
 10
0.0
 20
0.0
 11
1.0
 21
1.0
 12
6.591288
 22
4.579184
 13
0.0
 23
0.0
 14
1.0
 24
1.0
 15
0.0
 25
0.0
 16
0.0
 26
0.0
 36
1.0
 17
0.0
 27
0.0
 37
0.0
 40
9.158369
 41
0.688564
 42
50.0
 43
0.0
 44
0.0
 50
0.0
 51
0.0
 71
     0
 72
   100
 73
     1
 74
     1
 75
     0
 76
     0
 77
     0
 78
     0
281
     0
 65
     0
110
0.0
120
0.0
130
0.0
111
1.0
121
0.0
131
0.0
112
0.0
122
1.0
132
0.0
345
0
346
0
 79
     0
146
0.0
  0
ENDTAB
  0
TABLE
  2
LTYPE
  5
4
100
AcDbSymbolTable
 70
     3
  0
LTYPE
  5
11
100
AcDbSymbolTableRecord
100
AcDbLinetypeTableRecord
  2
ByBlock
 70
    64
  3

 72
    65
 73
     0
 40
0.0
  0
LTYPE
  5
12
100
AcDbSymbolTableRecord
100
AcDbLinetypeTableRecord
  2
ByLayer
 70
    64
  3

 72
    65
 73
     0
 40
0.0
  0
LTYPE
  5
13
100
AcDbSymbolTableRecord
100
AcDbLinetypeTableRecord
  2
Continuous
 70
    64
  3
Solid line
 72
    65
 73
     0
 40
0.0
  0
ENDTAB
  0
TABLE
  2
LAYER
  5
2
100
AcDbSymbolTable
 70
     1
  0
LAYER
  5
14
100
AcDbSymbolTableRecord
100
AcDbLayerTableRecord
  2
0
 70
     0
 62
     7
  6
Continuous
290
     1
370
    -3
390
1D
  0
ENDTAB
  0
TABLE
  2
STYLE
  5
3
100
AcDbSymbolTable
 70
     1
  0
STYLE
  5
17
100
AcDbSymbolTableRecord
100
AcDbTextStyleTableRecord
  2
Standard
 70
     0
 40
0.0
 41
1.0
 50
0.0
 71
     0
 42
0.0
  3
txt
  4

  0
ENDTAB
  0
TABLE
  2
VIEW
  5
5
100
AcDbSymbolTable
 70
     0
  0
ENDTAB
  0
TABLE
  2
UCS
  5
6
100
AcDbSymbolTable
 70
     0
  0
ENDTAB
  0
TABLE
  2
APPID
  5
8
100
AcDbSymbolTable
 70
     1
  0
APPID
  5
16
100
AcDbSymbolTableRecord
100
AcDbRegAppTableRecord
  2
ACAD
 70
     0
  0
ENDTAB
  0
TABLE
  2
DIMSTYLE
  5
9
100
AcDbSymbolTable
 70
     1
100
AcDbDimStyleTable
 71
     0
  0
DIMSTYLE
105
18
100
AcDbSymbolTableRecord
100
AcDbDimStyleTableRecord
  2
Standard
 70
     0
  3

  4

 40
1.0
 41
0.18
 42
0.0625
 43
0.38
 44
0.18
 45
0.0
 46
0.0
 47
0.0
 48
0.0
 71
     0
 72
     0
 73
     1
 74
     1
 75
     0
 76
     0
 77
     0
 78
     0
 79
     0
140
0.18
141
0.09
142
0.0
143
25.4
144
1.0
145
0.0
146
1.0
147
0.09
148
0.0
170
     0
171
     2
172
     0
173
     0
174
     0
175
     0
176
     0
177
     0
178
     0
179
     0
271
     4
272
     4
273
     2
274
     2
275
     0
276
     0
277
     2
278
    46
279
     0
280
     0
281
     0
282
     0
283
     1
284
     0
285
     0
286
     0
288
     0
289
     3
340
17
341
0
342
0
343
0
344
0
371
    -2
372
    -2
  0
ENDTAB
  0
TABLE
  2
BLOCK_RECORD
  5
1
100
AcDbSymbolTable
 70
     0
  0
BLOCK_RECORD
  5
A
100
AcDbSymbolTableRecord
100
AcDbBlockTableRecord
  2
*MODEL_SPACE
340
20
  0
BLOCK_RECORD
  5
B
100
AcDbSymbolTableRecord
100
AcDbBlockTableRecord
  2
*PAPER_SPACE
340
21
  0
ENDTAB
  0
ENDSEC
  0
SECTION
  2
BLOCKS
  0
BLOCK
  5
D
100
AcDbEntity
  8
0
390
0
100
AcDbBlockBegin
  2
*MODEL_SPACE
 70
     0
 10
0.0
 20
0.0
 30
0.0
  3
*MODEL_SPACE
  1

  0
ENDBLK
  5
E
100
AcDbEntity
  8
0
390
0
100
AcDbBlockEnd
  0
BLOCK
  5
F
100
AcDbEntity
 67
     1
  8
0
390
0
100
AcDbBlockBegin
  2
*PAPER_SPACE
 70
     0
 10
0.0
 20
0.0
 30
0.0
  3
*PAPER_SPACE
  1

  0
ENDBLK
  5
10
100
AcDbEntity
 67
     1
  8
0
390
0
100
AcDbBlockEnd
  0
ENDSEC
  0
SECTION
  2
ENTITIES
  0
VIEWPORT
  5
271
100
AcDbEntity
 67
     1
  8
0
370
     0
390
0
 62
     0
 48
0.0
100
AcDbViewport
 10
0.0
 20
0.0
 30
0.0
 40
1000.0
 41
1000.0
 68
     1
 69
     1
 12
0.0
 22
0.0
 13
0.0
 23
0.0
 14
1.0
 24
1.0
 15
1.0
 25
1.0
 16
0.0
 26
0.0
 36
1.0
 17
0.0
 27
0.0
 37
0.0
 42
50.0
 43
0.0
 44
0.0
 45
1000.0
 50
0.0
 51
0.0
 72
   100
 90
        0
340
0
  1

281
     0
 71
     0
 74
     1
110
0.0
120
0.0
130
0.0
111
1.0
121
0.0
131
0.0
112
0.0
122
1.0
132
0.0
345
0
346
0
 79
     0
146
0.0
  0
LINE
  5
24
100
AcDbEntity
  8
0
370
    35
390
0
 62
     7
 48
0.25
100
AcDbLine
 10
116.567688
 20
396.952393
 30
0.0
 11
116.567688
 21
406.952393
 31
0.0
210
0.0
220
0.0
230
1.0
  0
LINE
  5
25
100
AcDbEntity
  8
0
370
    35
390
0
 62
     7
 48
0.25
100
AcDbLine
 10
255.567688
 20
396.952393
 30
0.0
 11
255.567688
 21
406.952393
 31
0.0
210
0.0
220
0.0
230
1.0
  0
ARC
  5
26
100
AcDbEntity
  8
0
370
    35
390
0
 62
     7
100
AcDbCircle
 10
164.971573
 20
196.952393
 30
0.0
 40
5.0
210
0.0
220
0.0
230
1.0
100
AcDbArc
 50
194.036239
 51
269.999997
  0
LINE
  5
27
100
AcDbEntity
  8
0
370
    35
390
0
 62
     7
100
AcDbLine
 10
164.971573
 20
191.952393
 30
0.0
 11
256.067688
 21
191.952393
 31
0.0
210
0.0
220
0.0
230
1.0
  0
ARC
  5
28
100
AcDbEntity
  8
0
370
    35
390
0
 62
     7
100
AcDbCircle
 10
256.067688
 20
196.952393
 30
0.0
 40
5.0
210
0.0
220
0.0
230
1.0
100
AcDbArc
 50
269.999997
 51
360.0
  0
LINE
  5
29
100
AcDbEntity
  8
0
370
    35
390
0
 62
     7
100
AcDbLine
 10
111.21698
 20
391.355255
 30
0.0
 11
160.12085
 21
195.739716
 31
0.0
210
0.0
220
0.0
230
1.0
  0
ARC
  5
2A
100
AcDbEntity
  8
0
370
    35
390
0
 62
     7
100
AcDbCircle
 10
116.067688
 20
392.567932
 30
0.0
 40
5.0
210
0.0
220
0.0
230
1.0
100
AcDbArc
 50
180.000005
 51
194.036239
  0
LINE
  5
2B
100
AcDbEntity
  8
0
370
    35
390
0
 62
     7
 48
0.1125
100
AcDbLine
 10
116.567688
 20
396.952393
 30
0.0
 11
112.067688
 21
396.952393
 31
0.0
210
0.0
220
0.0
230
1.0
  0
LINE
  5
2C
100
AcDbEntity
  8
0
370
    35
390
0
 62
     7
 48
0.084612
100
AcDbLine
 10
111.067688
 20
395.952393
 30
0.0
 11
111.067688
 21
392.567932
 31
0.0
210
0.0
220
0.0
230
1.0
  0
ARC
  5
2D
100
AcDbEntity
  8
0
370
    35
390
0
 62
     7
100
AcDbCircle
 10
112.067688
 20
395.952393
 30
0.0
 40
1.0
210
0.0
220
0.0
230
1.0
100
AcDbArc
 50
90.000003
 51
180.000005
  0
LINE
  5
2E
100
AcDbEntity
  8
0
370
    35
390
0
 62
     7
 48
0.1125
100
AcDbLine
 10
112.067688
 20
406.952393
 30
0.0
 11
116.567688
 21
406.952393
 31
0.0
210
0.0
220
0.0
230
1.0
  0
ARC
  5
2F
100
AcDbEntity
  8
0
370
    35
390
0
 62
     7
100
AcDbCircle
 10
112.067688
 20
407.952393
 30
0.0
 40
1.0
210
0.0
220
0.0
230
1.0
100
AcDbArc
 50
180.000005
 51
269.999997
  0
LINE
  5
30
100
AcDbEntity
  8
0
370
    35
390
0
 62
     7
 48
0.2
100
AcDbLine
 10
111.067688
 20
415.952393
 30
0.0
 11
111.067688
 21
407.952393
 31
0.0
210
0.0
220
0.0
230
1.0
  0
ARC
  5
31
100
AcDbEntity
  8
0
370
    35
390
0
 62
     7
100
AcDbCircle
 10
112.067688
 20
415.952393
 30
0.0
 40
1.0
210
0.0
220
0.0
230
1.0
100
AcDbArc
 50
90.000003
 51
180.000005
  0
LINE
  5
32
100
AcDbEntity
  8
0
370
    35
390
0
 62
     7
 48
0.1125
100
AcDbLine
 10
255.567688
 20
396.952393
 30
0.0
 11
260.067688
 21
396.952393
 31
0.0
210
0.0
220
0.0
230
1.0
  0
LINE
  5
33
100
AcDbEntity
  8
0
370
    35
390
0
 62
     7
100
AcDbLine
 10
261.067688
 20
196.952393
 30
0.0
 11
261.067688
 21
395.952393
 31
0.0
210
0.0
220
0.0
230
1.0
  0
ARC
  5
34
100
AcDbEntity
  8
0
370
    35
390
0
 62
     7
100
AcDbCircle
 10
260.067688
 20
395.952393
 30
0.0
 40
1.0
210
0.0
220
0.0
230
1.0
100
AcDbArc
 50
0.0
 51
90.000003
  0
LINE
  5
35
100
AcDbEntity
  8
0
370
    35
390
0
 62
     7
 48
0.1125
100
AcDbLine
 10
260.067688
 20
406.952393
 30
0.0
 11
255.567688
 21
406.952393
 31
0.0
210
0.0
220
0.0
230
1.0
  0
ARC
  5
36
100
AcDbEntity
  8
0
370
    35
390
0
 62
     7
100
AcDbCircle
 10
260.067688
 20
407.952393
 30
0.0
 40
1.0
210
0.0
220
0.0
230
1.0
100
AcDbArc
 50
269.999997
 51
360.0
  0
LINE
  5
37
100
AcDbEntity
  8
0
370
    35
390
0
 62
     7
100
AcDbLine
 10
260.067688
 20
416.952393
 30
0.0
 11
112.067688
 21
416.952393
 31
0.0
210
0.0
220
0.0
230
1.0
  0
LINE
  5
38
100
AcDbEntity
  8
0
370
    35
390
0
 62
     7
 48
0.2
100
AcDbLine
 10
261.067688
 20
407.952393
 30
0.0
 11
261.067688
 21
415.952393
 31
0.0
210
0.0
220
0.0
230
1.0
  0
ARC
  5
39
100
AcDbEntity
  8
0
370
    35
390
0
 62
     7
100
AcDbCircle
 10
260.067688
 20
415.952393
 30
0.0
 40
1.0
210
0.0
220
0.0
230
1.0
100
AcDbArc
 50
0.0
 51
90.000003
  0
LINE
  5
3A
100
AcDbEntity
  8
0
370
    35
390
0
 62
     7
 48
0.25
100
AcDbLine
 10
147.345413
 20
211.966599
 30
0.0
 11
147.345413
 21
201.966599
 31
0.0
210
0.0
220
0.0
230
1.0
  0
LINE
  5
3B
100
AcDbEntity
  8
0
370
    35
390
0
 62
     7
 48
0.25
100
AcDbLine
 10
8.345421
 20
211.966599
 30
0.0
 11
8.345421
 21
201.966599
 31
0.0
210
0.0
220
0.0
230
1.0
  0
ARC
  5
3C
100
AcDbEntity
  8
0
370
    35
390
0
 62
     7
100
AcDbCircle
 10
98.941536
 20
411.966614
 30
0.0
 40
5.0
210
0.0
220
0.0
230
1.0
100
AcDbArc
 50
14.036244
 51
90.000003
  0
LINE
  5
3D
100
AcDbEntity
  8
0
370
    35
390
0
 62
     7
100
AcDbLine
 10
98.941536
 20
416.966614
 30
0.0
 11
7.845421
 21
416.966614
 31
0.0
210
0.0
220
0.0
230
1.0
  0
ARC
  5
3E
100
AcDbEntity
  8
0
370
    35
390
0
 62
     7
100
AcDbCircle
 10
7.845421
 20
411.966614
 30
0.0
 40
5.0
210
0.0
220
0.0
230
1.0
100
AcDbArc
 50
90.000003
 51
180.000005
  0
LINE
  5
3F
100
AcDbEntity
  8
0
370
    35
390
0
 62
     7
100
AcDbLine
 10
152.696121
 20
217.563751
 30
0.0
 11
103.792252
 21
413.17926
 31
0.0
210
0.0
220
0.0
230
1.0
  0
ARC
  5
40
100
AcDbEntity
  8
0
370
    35
390
0
 62
     7
100
AcDbCircle
 10
147.845413
 20
216.351074
 30
0.0
 40
5.0
210
0.0
220
0.0
230
1.0
100
AcDbArc
 50
0.0
 51
14.036244
  0
LINE
  5
41
100
AcDbEntity
  8
0
370
    35
390
0
 62
     7
 48
0.1125
100
AcDbLine
 10
147.345413
 20
211.966599
 30
0.0
 11
151.845413
 21
211.966599
 31
0.0
210
0.0
220
0.0
230
1.0
  0
LINE
  5
42
100
AcDbEntity
  8
0
370
    35
390
0
 62
     7
 48
0.084612
100
AcDbLine
 10
152.845413
 20
212.966599
 30
0.0
 11
152.845413
 21
216.351074
 31
0.0
210
0.0
220
0.0
230
1.0
  0
ARC
  5
43
100
AcDbEntity
  8
0
370
    35
390
0
 62
     7
100
AcDbCircle
 10
151.845413
 20
212.966599
 30
0.0
 40
1.0
210
0.0
220
0.0
230
1.0
100
AcDbArc
 50
269.999997
 51
360.0
  0
LINE
  5
44
100
AcDbEntity
  8
0
370
    35
390
0
 62
     7
 48
0.1125
100
AcDbLine
 10
151.845413
 20
201.966599
 30
0.0
 11
147.345413
 21
201.966599
 31
0.0
210
0.0
220
0.0
230
1.0
  0
ARC
  5
45
100
AcDbEntity
  8
0
370
    35
390
0
 62
     7
100
AcDbCircle
 10
151.845413
 20
200.966599
 30
0.0
 40
1.0
210
0.0
220
0.0
230
1.0
100
AcDbArc
 50
0.0
 51
90.000003
  0
LINE
  5
46
100
AcDbEntity
  8
0
370
    35
390
0
 62
     7
 48
0.2
100
AcDbLine
 10
152.845413
 20
192.966599
 30
0.0
 11
152.845413
 21
200.966599
 31
0.0
210
0.0
220
0.0
230
1.0
  0
ARC
  5
47
100
AcDbEntity
  8
0
370
    35
390
0
 62
     7
100
AcDbCircle
 10
151.845413
 20
192.966599
 30
0.0
 40
1.0
210
0.0
220
0.0
230
1.0
100
AcDbArc
 50
269.999997
 51
360.0
  0
LINE
  5
48
100
AcDbEntity
  8
0
370
    35
390
0
 62
     7
 48
0.1125
100
AcDbLine
 10
8.345421
 20
211.966599
 30
0.0
 11
3.845421
 21
211.966599
 31
0.0
210
0.0
220
0.0
230
1.0
  0
LINE
  5
49
100
AcDbEntity
  8
0
370
    35
390
0
 62
     7
100
AcDbLine
 10
2.845421
 20
411.966614
 30
0.0
 11
2.845421
 21
212.966599
 31
0.0
210
0.0
220
0.0
230
1.0
  0
ARC
  5
4A
100
AcDbEntity
  8
0
370
    35
390
0
 62
     7
100
AcDbCircle
 10
3.845421
 20
212.966599
 30
0.0
 40
1.0
210
0.0
220
0.0
230
1.0
100
AcDbArc
 50
180.000005
 51
269.999997
  0
LINE
  5
4B
100
AcDbEntity
  8
0
370
    35
390
0
 62
     7
 48
0.1125
100
AcDbLine
 10
3.845421
 20
201.966599
 30
0.0
 11
8.345421
 21
201.966599
 31
0.0
210
0.0
220
0.0
230
1.0
  0
ARC
  5
4C
100
AcDbEntity
  8
0
370
    35
390
0
 62
     7
100
AcDbCircle
 10
3.845421
 20
200.966599
 30
0.0
 40
1.0
210
0.0
220
0.0
230
1.0
100
AcDbArc
 50
90.000003
 51
180.000005
  0
LINE
  5
4D
100
AcDbEntity
  8
0
370
    35
390
0
 62
     7
100
AcDbLine
 10
3.845421
 20
191.966599
 30
0.0
 11
151.845413
 21
191.966599
 31
0.0
210
0.0
220
0.0
230
1.0
  0
LINE
  5
4E
100
AcDbEntity
  8
0
370
    35
390
0
 62
     7
 48
0.2
100
AcDbLine
 10
2.845421
 20
200.966599
 30
0.0
 11
2.845421
 21
192.966599
 31
0.0
210
0.0
220
0.0
230
1.0
  0
ARC
  5
4F
100
AcDbEntity
  8
0
370
    35
390
0
 62
     7
100
AcDbCircle
 10
3.845421
 20
192.966599
 30
0.0
 40
1.0
210
0.0
220
0.0
230
1.0
100
AcDbArc
 50
180.000005
 51
269.999997
  0
LINE
  5
50
100
AcDbEntity
  8
0
370
    35
390
0
 62
     7
 48
0.25
100
AcDbLine
 10
376.891602
 20
397.011383
 30
0.0
 11
376.891602
 21
407.011383
 31
0.0
210
0.0
220
0.0
230
1.0
  0
LINE
  5
51
100
AcDbEntity
  8
0
370
    35
390
0
 62
     7
 48
0.25
100
AcDbLine
 10
515.891602
 20
397.011383
 30
0.0
 11
515.891602
 21
407.011383
 31
0.0
210
0.0
220
0.0
230
1.0
  0
ARC
  5
52
100
AcDbEntity
  8
0
370
    35
390
0
 62
     7
100
AcDbCircle
 10
425.295471
 20
197.011383
 30
0.0
 40
5.0
210
0.0
220
0.0
230
1.0
100
AcDbArc
 50
194.036239
 51
269.999997
  0
LINE
  5
53
100
AcDbEntity
  8
0
370
    35
390
0
 62
     7
100
AcDbLine
 10
425.295471
 20
192.011383
 30
0.0
 11
516.391602
 21
192.011383
 31
0.0
210
0.0
220
0.0
230
1.0
  0
ARC
  5
54
100
AcDbEntity
  8
0
370
    35
390
0
 62
     7
100
AcDbCircle
 10
516.391602
 20
197.011383
 30
0.0
 40
5.0
210
0.0
220
0.0
230
1.0
100
AcDbArc
 50
269.999997
 51
360.0
  0
LINE
  5
55
100
AcDbEntity
  8
0
370
    35
390
0
 62
     7
100
AcDbLine
 10
371.540894
 20
391.414246
 30
0.0
 11
420.444763
 21
195.798706
 31
0.0
210
0.0
220
0.0
230
1.0
  0
ARC
  5
56
100
AcDbEntity
  8
0
370
    35
390
0
 62
     7
100
AcDbCircle
 10
376.391602
 20
392.626923
 30
0.0
 40
5.0
210
0.0
220
0.0
230
1.0
100
AcDbArc
 50
180.000005
 51
194.036239
  0
LINE
  5
57
100
AcDbEntity
  8
0
370
    35
390
0
 62
     7
 48
0.1125
100
AcDbLine
 10
376.891602
 20
397.011383
 30
0.0
 11
372.391602
 21
397.011383
 31
0.0
210
0.0
220
0.0
230
1.0
  0
LINE
  5
58
100
AcDbEntity
  8
0
370
    35
390
0
 62
     7
 48
0.084612
100
AcDbLine
 10
371.391602
 20
396.011383
 30
0.0
 11
371.391602
 21
392.626923
 31
0.0
210
0.0
220
0.0
230
1.0
  0
ARC
  5
59
100
AcDbEntity
  8
0
370
    35
390
0
 62
     7
100
AcDbCircle
 10
372.391602
 20
396.011383
 30
0.0
 40
1.0
210
0.0
220
0.0
230
1.0
100
AcDbArc
 50
90.000003
 51
180.000005
  0
LINE
  5
5A
100
AcDbEntity
  8
0
370
    35
390
0
 62
     7
 48
0.1125
100
AcDbLine
 10
372.391602
 20
407.011383
 30
0.0
 11
376.891602
 21
407.011383
 31
0.0
210
0.0
220
0.0
230
1.0
  0
ARC
  5
5B
100
AcDbEntity
  8
0
370
    35
390
0
 62
     7
100
AcDbCircle
 10
372.391602
 20
408.011383
 30
0.0
 40
1.0
210
0.0
220
0.0
230
1.0
100
AcDbArc
 50
180.000005
 51
269.999997
  0
LINE
  5
5C
100
AcDbEntity
  8
0
370
    35
390
0
 62
     7
 48
0.2
100
AcDbLine
 10
371.391602
 20
416.011383
 30
0.0
 11
371.391602
 21
408.011383
 31
0.0
210
0.0
220
0.0
230
1.0
  0
ARC
  5
5D
100
AcDbEntity
  8
0
370
    35
390
0
 62
     7
100
AcDbCircle
 10
372.391602
 20
416.011383
 30
0.0
 40
1.0
210
0.0
220
0.0
230
1.0
100
AcDbArc
 50
90.000003
 51
180.000005
  0
LINE
  5
5E
100
AcDbEntity
  8
0
370
    35
390
0
 62
     7
 48
0.1125
100
AcDbLine
 10
515.891602
 20
397.011383
 30
0.0
 11
520.391602
 21
397.011383
 31
0.0
210
0.0
220
0.0
230
1.0
  0
LINE
  5
5F
100
AcDbEntity
  8
0
370
    35
390
0
 62
     7
100
AcDbLine
 10
521.391602
 20
197.011383
 30
0.0
 11
521.391602
 21
396.011383
 31
0.0
210
0.0
220
0.0
230
1.0
  0
ARC
  5
60
100
AcDbEntity
  8
0
370
    35
390
0
 62
     7
100
AcDbCircle
 10
520.391602
 20
396.011383
 30
0.0
 40
1.0
210
0.0
220
0.0
230
1.0
100
AcDbArc
 50
0.0
 51
90.000003
  0
LINE
  5
61
100
AcDbEntity
  8
0
370
    35
390
0
 62
     7
 48
0.1125
100
AcDbLine
 10
520.391602
 20
407.011383
 30
0.0
 11
515.891602
 21
407.011383
 31
0.0
210
0.0
220
0.0
230
1.0
  0
ARC
  5
62
100
AcDbEntity
  8
0
370
    35
390
0
 62
     7
100
AcDbCircle
 10
520.391602
 20
408.011383
 30
0.0
 40
1.0
210
0.0
220
0.0
230
1.0
100
AcDbArc
 50
269.999997
 51
360.0
  0
LINE
  5
63
100
AcDbEntity
  8
0
370
    35
390
0
 62
     7
100
AcDbLine
 10
520.391602
 20
417.011383
 30
0.0
 11
372.391602
 21
417.011383
 31
0.0
210
0.0
220
0.0
230
1.0
  0
LINE
  5
64
100
AcDbEntity
  8
0
370
    35
390
0
 62
     7
 48
0.2
100
AcDbLine
 10
521.391602
 20
408.011383
 30
0.0
 11
521.391602
 21
416.011383
 31
0.0
210
0.0
220
0.0
230
1.0
  0
ARC
  5
65
100
AcDbEntity
  8
0
370
    35
390
0
 62
     7
100
AcDbCircle
 10
520.391602
 20
416.011383
 30
0.0
 40
1.0
210
0.0
220
0.0
230
1.0
100
AcDbArc
 50
0.0
 51
90.000003
  0
LINE
  5
66
100
AcDbEntity
  8
0
370
    35
390
0
 62
     7
 48
0.25
100
AcDbLine
 10
407.190033
 20
211.926743
 30
0.0
 11
407.190033
 21
201.926743
 31
0.0
210
0.0
220
0.0
230
1.0
  0
LINE
  5
67
100
AcDbEntity
  8
0
370
    35
390
0
 62
     7
 48
0.25
100
AcDbLine
 10
268.190033
 20
211.926743
 30
0.0
 11
268.190033
 21
201.926743
 31
0.0
210
0.0
220
0.0
230
1.0
  0
ARC
  5
68
100
AcDbEntity
  8
0
370
    35
390
0
 62
     7
100
AcDbCircle
 10
358.786133
 20
411.926758
 30
0.0
 40
5.0
210
0.0
220
0.0
230
1.0
100
AcDbArc
 50
14.036244
 51
90.000003
  0
LINE
  5
69
100
AcDbEntity
  8
0
370
    35
390
0
 62
     7
100
AcDbLine
 10
358.786133
 20
416.926758
 30
0.0
 11
267.690033
 21
416.926758
 31
0.0
210
0.0
220
0.0
230
1.0
  0
ARC
  5
6A
100
AcDbEntity
  8
0
370
    35
390
0
 62
     7
100
AcDbCircle
 10
267.690033
 20
411.926758
 30
0.0
 40
5.0
210
0.0
220
0.0
230
1.0
100
AcDbArc
 50
90.000003
 51
180.000005
  0
LINE
  5
6B
100
AcDbEntity
  8
0
370
    35
390
0
 62
     7
100
AcDbLine
 10
412.540741
 20
217.523895
 30
0.0
 11
363.636871
 21
413.139404
 31
0.0
210
0.0
220
0.0
230
1.0
  0
ARC
  5
6C
100
AcDbEntity
  8
0
370
    35
390
0
 62
     7
100
AcDbCircle
 10
407.690033
 20
216.311218
 30
0.0
 40
5.0
210
0.0
220
0.0
230
1.0
100
AcDbArc
 50
0.0
 51
14.036244
  0
LINE
  5
6D
100
AcDbEntity
  8
0
370
    35
390
0
 62
     7
 48
0.1125
100
AcDbLine
 10
407.190033
 20
211.926743
 30
0.0
 11
411.690033
 21
211.926743
 31
0.0
210
0.0
220
0.0
230
1.0
  0
LINE
  5
6E
100
AcDbEntity
  8
0
370
    35
390
0
 62
     7
 48
0.084612
100
AcDbLine
 10
412.690033
 20
212.926743
 30
0.0
 11
412.690033
 21
216.311218
 31
0.0
210
0.0
220
0.0
230
1.0
  0
ARC
  5
6F
100
AcDbEntity
  8
0
370
    35
390
0
 62
     7
100
AcDbCircle
 10
411.690033
 20
212.926743
 30
0.0
 40
1.0
210
0.0
220
0.0
230
1.0
100
AcDbArc
 50
269.999997
 51
360.0
  0
LINE
  5
70
100
AcDbEntity
  8
0
370
    35
390
0
 62
     7
 48
0.1125
100
AcDbLine
 10
411.690033
 20
201.926743
 30
0.0
 11
407.190033
 21
201.926743
 31
0.0
210
0.0
220
0.0
230
1.0
  0
ARC
  5
71
100
AcDbEntity
  8
0
370
    35
390
0
 62
     7
100
AcDbCircle
 10
411.690033
 20
200.926743
 30
0.0
 40
1.0
210
0.0
220
0.0
230
1.0
100
AcDbArc
 50
0.0
 51
90.000003
  0
LINE
  5
72
100
AcDbEntity
  8
0
370
    35
390
0
 62
     7
 48
0.2
100
AcDbLine
 10
412.690033
 20
192.926743
 30
0.0
 11
412.690033
 21
200.926743
 31
0.0
210
0.0
220
0.0
230
1.0
  0
ARC
  5
73
100
AcDbEntity
  8
0
370
    35
390
0
 62
     7
100
AcDbCircle
 10
411.690033
 20
192.926743
 30
0.0
 40
1.0
210
0.0
220
0.0
230
1.0
100
AcDbArc
 50
269.999997
 51
360.0
  0
LINE
  5
74
100
AcDbEntity
  8
0
370
    35
390
0
 62
     7
 48
0.1125
100
AcDbLine
 10
268.190033
 20
211.926743
 30
0.0
 11
263.690033
 21
211.926743
 31
0.0
210
0.0
220
0.0
230
1.0
  0
LINE
  5
75
100
AcDbEntity
  8
0
370
    35
390
0
 62
     7
100
AcDbLine
 10
262.690033
 20
411.926758
 30
0.0
 11
262.690033
 21
212.926743
 31
0.0
210
0.0
220
0.0
230
1.0
  0
ARC
  5
76
100
AcDbEntity
  8
0
370
    35
390
0
 62
     7
100
AcDbCircle
 10
263.690033
 20
212.926743
 30
0.0
 40
1.0
210
0.0
220
0.0
230
1.0
100
AcDbArc
 50
180.000005
 51
269.999997
  0
LINE
  5
77
100
AcDbEntity
  8
0
370
    35
390
0
 62
     7
 48
0.1125
100
AcDbLine
 10
263.690033
 20
201.926743
 30
0.0
 11
268.190033
 21
201.926743
 31
0.0
210
0.0
220
0.0
230
1.0
  0
ARC
  5
78
100
AcDbEntity
  8
0
370
    35
390
0
 62
     7
100
AcDbCircle
 10
263.690033
 20
200.926743
 30
0.0
 40
1.0
210
0.0
220
0.0
230
1.0
100
AcDbArc
 50
90.000003
 51
180.000005
  0
LINE
  5
79
100
AcDbEntity
  8
0
370
    35
390
0
 62
     7
100
AcDbLine
 10
263.690033
 20
191.926743
 30
0.0
 11
411.690033
 21
191.926743
 31
0.0
210
0.0
220
0.0
230
1.0
  0
LINE
  5
7A
100
AcDbEntity
  8
0
370
    35
390
0
 62
     7
 48
0.2
100
AcDbLine
 10
262.690033
 20
200.926743
 30
0.0
 11
262.690033
 21
192.926743
 31
0.0
210
0.0
220
0.0
230
1.0
  0
ARC
  5
7B
100
AcDbEntity
  8
0
370
    35
390
0
 62
     7
100
AcDbCircle
 10
263.690033
 20
192.926743
 30
0.0
 40
1.0
210
0.0
220
0.0
230
1.0
100
AcDbArc
 50
180.000005
 51
269.999997
  0
CIRCLE
  5
7C
100
AcDbEntity
  8
0
370
    35
390
0
 62
     7
100
AcDbCircle
 10
251.718262
 20
108.517151
 30
0.0
 40
80.0
210
0.0
220
0.0
230
1.0
  0
ARC
  5
7D
100
AcDbEntity
  8
0
370
    35
390
0
 62
     4
100
AcDbCircle
 10
251.718262
 20
108.517151
 30
0.0
 40
60.0
210
0.0
220
0.0
230
1.0
100
AcDbArc
 50
92.626975
 51
114.740498
  0
LINE
  5
7E
100
AcDbEntity
  8
0
370
    35
390
0
 62
     4
 48
0.251576
100
AcDbLine
 10
248.968262
 20
168.454102
 30
0.0
 11
248.968262
 21
178.517151
 31
0.0
210
0.0
220
0.0
230
1.0
  0
LINE
  5
7F
100
AcDbEntity
  8
0
370
    35
390
0
 62
     4
 48
0.1375
100
AcDbLine
 10
248.968262
 20
178.517151
 30
0.0
 11
254.468262
 21
178.517151
 31
0.0
210
0.0
220
0.0
230
1.0
  0
LINE
  5
80
100
AcDbEntity
  8
0
370
    35
390
0
 62
     4
 48
0.251576
100
AcDbLine
 10
254.468262
 20
178.517151
 30
0.0
 11
254.468262
 21
168.454102
 31
0.0
210
0.0
220
0.0
230
1.0
  0
ARC
  5
81
100
AcDbEntity
  8
0
370
    35
390
0
 62
     4
100
AcDbCircle
 10
251.718262
 20
108.517151
 30
0.0
 40
60.0
210
0.0
220
0.0
230
1.0
100
AcDbArc
 50
65.259493
 51
87.373023
  0
LINE
  5
82
100
AcDbEntity
  8
0
370
    35
390
0
 62
     4
 48
0.056315
100
AcDbLine
 10
277.955109
 20
164.960724
 30
0.0
 11
276.828827
 21
163.009903
 31
0.0
210
0.0
220
0.0
230
1.0
  0
LINE
  5
83
100
AcDbEntity
  8
0
370
    35
390
0
 62
     4
 48
0.09375
100
AcDbLine
 10
277.955109
 20
164.960724
 30
0.0
 11
274.70752
 21
166.835724
 31
0.0
210
0.0
220
0.0
230
1.0
  0
LINE
  5
84
100
AcDbEntity
  8
0
370
    35
390
0
 62
     4
 48
0.05
100
AcDbLine
 10
274.70752
 20
166.835724
 30
0.0
 11
275.70752
 21
168.56778
 31
0.0
210
0.0
220
0.0
230
1.0
  0
LINE
  5
85
100
AcDbEntity
  8
0
370
    35
390
0
 62
     4
 48
0.06875
100
AcDbLine
 10
275.70752
 20
168.56778
 30
0.0
 11
278.089111
 21
167.19278
 31
0.0
210
0.0
220
0.0
230
1.0
  0
LINE
  5
86
100
AcDbEntity
  8
0
370
    35
390
0
 62
     4
 48
0.23125
100
AcDbLine
 10
278.089111
 20
167.19278
 30
0.0
 11
282.714111
 21
175.203522
 31
0.0
210
0.0
220
0.0
230
1.0
  0
LINE
  5
87
100
AcDbEntity
  8
0
370
    35
390
0
 62
     4
 48
0.325
100
AcDbLine
 10
293.972412
 20
168.703506
 30
0.0
 11
282.714111
 21
175.203522
 31
0.0
210
0.0
220
0.0
230
1.0
  0
LINE
  5
88
100
AcDbEntity
  8
0
370
    35
390
0
 62
     4
 48
0.23125
100
AcDbLine
 10
289.347412
 20
160.69278
 30
0.0
 11
293.972412
 21
168.703506
 31
0.0
210
0.0
220
0.0
230
1.0
  0
LINE
  5
89
100
AcDbEntity
  8
0
370
    35
390
0
 62
     4
 48
0.06875
100
AcDbLine
 10
291.729004
 20
159.31778
 30
0.0
 11
289.347412
 21
160.69278
 31
0.0
210
0.0
220
0.0
230
1.0
  0
LINE
  5
8A
100
AcDbEntity
  8
0
370
    35
390
0
 62
     4
 48
0.05
100
AcDbLine
 10
290.729004
 20
157.585724
 30
0.0
 11
291.729004
 21
159.31778
 31
0.0
210
0.0
220
0.0
230
1.0
  0
LINE
  5
8B
100
AcDbEntity
  8
0
370
    35
390
0
 62
     4
 48
0.093751
100
AcDbLine
 10
287.481384
 20
159.460724
 30
0.0
 11
290.729004
 21
157.585724
 31
0.0
210
0.0
220
0.0
230
1.0
  0
LINE
  5
8C
100
AcDbEntity
  8
0
370
    35
390
0
 62
     4
 48
0.056315
100
AcDbLine
 10
287.481384
 20
159.460724
 30
0.0
 11
286.355103
 21
157.509903
 31
0.0
210
0.0
220
0.0
230
1.0
  0
ARC
  5
8D
100
AcDbEntity
  8
0
370
    35
390
0
 62
     4
100
AcDbCircle
 10
251.718262
 20
108.517151
 30
0.0
 40
60.0
210
0.0
220
0.0
230
1.0
100
AcDbArc
 50
32.626977
 51
54.740503
  0
LINE
  5
8E
100
AcDbEntity
  8
0
370
    35
390
0
 62
     4
 48
0.251576
100
AcDbLine
 10
302.250183
 20
140.867188
 30
0.0
 11
310.965027
 21
145.898712
 31
0.0
210
0.0
220
0.0
230
1.0
  0
LINE
  5
8F
100
AcDbEntity
  8
0
370
    35
390
0
 62
     4
 48
0.1375
100
AcDbLine
 10
310.965027
 20
145.898712
 30
0.0
 11
313.715027
 21
141.13559
 31
0.0
210
0.0
220
0.0
230
1.0
  0
LINE
  5
90
100
AcDbEntity
  8
0
370
    35
390
0
 62
     4
 48
0.251576
100
AcDbLine
 10
313.715027
 20
141.13559
 30
0.0
 11
305.000183
 21
136.10405
 31
0.0
210
0.0
220
0.0
230
1.0
  0
ARC
  5
91
100
AcDbEntity
  8
0
370
    35
390
0
 62
     4
100
AcDbCircle
 10
251.718262
 20
108.517151
 30
0.0
 40
60.0
210
0.0
220
0.0
230
1.0
100
AcDbArc
 50
5.259497
 51
27.373023
  0
LINE
  5
92
100
AcDbEntity
  8
0
370
    35
390
0
 62
     4
 48
0.056316
100
AcDbLine
 10
313.718262
 20
114.017151
 30
0.0
 11
311.465637
 21
114.017151
 31
0.0
210
0.0
220
0.0
230
1.0
  0
LINE
  5
93
100
AcDbEntity
  8
0
370
    35
390
0
 62
     4
 48
0.09375
100
AcDbLine
 10
313.718262
 20
114.017151
 30
0.0
 11
313.718262
 21
117.767151
 31
0.0
210
0.0
220
0.0
230
1.0
  0
LINE
  5
94
100
AcDbEntity
  8
0
370
    35
390
0
 62
     4
 48
0.05
100
AcDbLine
 10
313.718262
 20
117.767151
 30
0.0
 11
315.718262
 21
117.767151
 31
0.0
210
0.0
220
0.0
230
1.0
  0
LINE
  5
95
100
AcDbEntity
  8
0
370
    35
390
0
 62
     4
 48
0.06875
100
AcDbLine
 10
315.718262
 20
117.767151
 30
0.0
 11
315.718262
 21
115.017151
 31
0.0
210
0.0
220
0.0
230
1.0
  0
LINE
  5
96
100
AcDbEntity
  8
0
370
    35
390
0
 62
     4
 48
0.23125
100
AcDbLine
 10
315.718262
 20
115.017151
 30
0.0
 11
324.968262
 21
115.017151
 31
0.0
210
0.0
220
0.0
230
1.0
  0
LINE
  5
97
100
AcDbEntity
  8
0
370
    35
390
0
 62
     4
 48
0.325
100
AcDbLine
 10
324.968262
 20
102.017151
 30
0.0
 11
324.968262
 21
115.017151
 31
0.0
210
0.0
220
0.0
230
1.0
  0
LINE
  5
98
100
AcDbEntity
  8
0
370
    35
390
0
 62
     4
 48
0.23125
100
AcDbLine
 10
315.718262
 20
102.017151
 30
0.0
 11
324.968262
 21
102.017151
 31
0.0
210
0.0
220
0.0
230
1.0
  0
LINE
  5
99
100
AcDbEntity
  8
0
370
    35
390
0
 62
     4
 48
0.06875
100
AcDbLine
 10
315.718262
 20
99.267151
 30
0.0
 11
315.718262
 21
102.017151
 31
0.0
210
0.0
220
0.0
230
1.0
  0
LINE
  5
9A
100
AcDbEntity
  8
0
370
    35
390
0
 62
     4
 48
0.05
100
AcDbLine
 10
313.718262
 20
99.267151
 30
0.0
 11
315.718262
 21
99.267151
 31
0.0
210
0.0
220
0.0
230
1.0
  0
LINE
  5
9B
100
AcDbEntity
  8
0
370
    35
390
0
 62
     4
 48
0.09375
100
AcDbLine
 10
313.718262
 20
103.017151
 30
0.0
 11
313.718262
 21
99.267151
 31
0.0
210
0.0
220
0.0
230
1.0
  0
LINE
  5
9C
100
AcDbEntity
  8
0
370
    35
390
0
 62
     4
 48
0.056316
100
AcDbLine
 10
313.718262
 20
103.017151
 30
0.0
 11
311.465637
 21
103.017151
 31
0.0
210
0.0
220
0.0
230
1.0
  0
ARC
  5
9D
100
AcDbEntity
  8
0
370
    35
390
0
 62
     4
100
AcDbCircle
 10
251.718262
 20
108.517151
 30
0.0
 40
60.0
210
0.0
220
0.0
230
1.0
100
AcDbArc
 50
332.626977
 51
354.740503
  0
LINE
  5
9E
100
AcDbEntity
  8
0
370
    35
390
0
 62
     4
 48
0.251576
100
AcDbLine
 10
305.000183
 20
80.930252
 30
0.0
 11
313.715027
 21
75.89872
 31
0.0
210
0.0
220
0.0
230
1.0
  0
LINE
  5
9F
100
AcDbEntity
  8
0
370
    35
390
0
 62
     4
 48
0.1375
100
AcDbLine
 10
313.715027
 20
75.89872
 30
0.0
 11
310.965027
 21
71.135582
 31
0.0
210
0.0
220
0.0
230
1.0
  0
LINE
  5
A0
100
AcDbEntity
  8
0
370
    35
390
0
 62
     4
 48
0.251576
100
AcDbLine
 10
310.965027
 20
71.135582
 30
0.0
 11
302.250183
 21
76.167107
 31
0.0
210
0.0
220
0.0
230
1.0
  0
ARC
  5
A1
100
AcDbEntity
  8
0
370
    35
390
0
 62
     4
100
AcDbCircle
 10
251.718262
 20
108.517151
 30
0.0
 40
60.0
210
0.0
220
0.0
230
1.0
100
AcDbArc
 50
305.259497
 51
327.373023
  0
LINE
  5
A2
100
AcDbEntity
  8
0
370
    35
390
0
 62
     4
 48
0.056315
100
AcDbLine
 10
287.481384
 20
57.573574
 30
0.0
 11
286.355103
 21
59.524399
 31
0.0
210
0.0
220
0.0
230
1.0
  0
LINE
  5
A3
100
AcDbEntity
  8
0
370
    35
390
0
 62
     4
 48
0.093751
100
AcDbLine
 10
287.481384
 20
57.573574
 30
0.0
 11
290.729004
 21
59.448574
 31
0.0
210
0.0
220
0.0
230
1.0
  0
LINE
  5
A4
100
AcDbEntity
  8
0
370
    35
390
0
 62
     4
 48
0.05
100
AcDbLine
 10
290.729004
 20
59.448574
 30
0.0
 11
291.729004
 21
57.716526
 31
0.0
210
0.0
220
0.0
230
1.0
  0
LINE
  5
A5
100
AcDbEntity
  8
0
370
    35
390
0
 62
     4
 48
0.06875
100
AcDbLine
 10
291.729004
 20
57.716526
 30
0.0
 11
289.347412
 21
56.341526
 31
0.0
210
0.0
220
0.0
230
1.0
  0
LINE
  5
A6
100
AcDbEntity
  8
0
370
    35
390
0
 62
     4
 48
0.23125
100
AcDbLine
 10
289.347412
 20
56.341526
 30
0.0
 11
293.972412
 21
48.330791
 31
0.0
210
0.0
220
0.0
230
1.0
  0
LINE
  5
A7
100
AcDbEntity
  8
0
370
    35
390
0
 62
     4
 48
0.324999
100
AcDbLine
 10
282.714111
 20
41.830788
 30
0.0
 11
293.972412
 21
48.330791
 31
0.0
210
0.0
220
0.0
230
1.0
  0
LINE
  5
A8
100
AcDbEntity
  8
0
370
    35
390
0
 62
     4
 48
0.23125
100
AcDbLine
 10
278.089111
 20
49.841526
 30
0.0
 11
282.714111
 21
41.830788
 31
0.0
210
0.0
220
0.0
230
1.0
  0
LINE
  5
A9
100
AcDbEntity
  8
0
370
    35
390
0
 62
     4
 48
0.06875
100
AcDbLine
 10
275.70752
 20
48.466526
 30
0.0
 11
278.089111
 21
49.841526
 31
0.0
210
0.0
220
0.0
230
1.0
  0
LINE
  5
AA
100
AcDbEntity
  8
0
370
    35
390
0
 62
     4
 48
0.05
100
AcDbLine
 10
274.70752
 20
50.198574
 30
0.0
 11
275.70752
 21
48.466526
 31
0.0
210
0.0
220
0.0
230
1.0
  0
LINE
  5
AB
100
AcDbEntity
  8
0
370
    35
390
0
 62
     4
 48
0.09375
100
AcDbLine
 10
277.955109
 20
52.073574
 30
0.0
 11
274.70752
 21
50.198574
 31
0.0
210
0.0
220
0.0
230
1.0
  0
LINE
  5
AC
100
AcDbEntity
  8
0
370
    35
390
0
 62
     4
 48
0.056315
100
AcDbLine
 10
277.955109
 20
52.073574
 30
0.0
 11
276.828827
 21
54.024399
 31
0.0
210
0.0
220
0.0
230
1.0
  0
ARC
  5
AD
100
AcDbEntity
  8
0
370
    35
390
0
 62
     4
100
AcDbCircle
 10
251.718262
 20
108.517151
 30
0.0
 40
60.0
210
0.0
220
0.0
230
1.0
100
AcDbArc
 50
272.626977
 51
294.740507
  0
LINE
  5
AE
100
AcDbEntity
  8
0
370
    35
390
0
 62
     4
 48
0.251576
100
AcDbLine
 10
254.468262
 20
48.580204
 30
0.0
 11
254.468262
 21
38.517151
 31
0.0
210
0.0
220
0.0
230
1.0
  0
LINE
  5
AF
100
AcDbEntity
  8
0
370
    35
390
0
 62
     4
 48
0.1375
100
AcDbLine
 10
254.468262
 20
38.517151
 30
0.0
 11
248.968262
 21
38.517151
 31
0.0
210
0.0
220
0.0
230
1.0
  0
LINE
  5
B0
100
AcDbEntity
  8
0
370
    35
390
0
 62
     4
 48
0.251576
100
AcDbLine
 10
248.968262
 20
38.517151
 30
0.0
 11
248.968262
 21
48.580204
 31
0.0
210
0.0
220
0.0
230
1.0
  0
ARC
  5
B1
100
AcDbEntity
  8
0
370
    35
390
0
 62
     4
100
AcDbCircle
 10
251.718262
 20
108.517151
 30
0.0
 40
60.0
210
0.0
220
0.0
230
1.0
100
AcDbArc
 50
245.259502
 51
267.373025
  0
LINE
  5
B2
100
AcDbEntity
  8
0
370
    35
390
0
 62
     4
 48
0.056315
100
AcDbLine
 10
225.4814
 20
52.073574
 30
0.0
 11
226.607712
 21
54.024399
 31
0.0
210
0.0
220
0.0
230
1.0
  0
LINE
  5
B3
100
AcDbEntity
  8
0
370
    35
390
0
 62
     4
 48
0.09375
100
AcDbLine
 10
225.4814
 20
52.073574
 30
0.0
 11
228.729004
 21
50.198574
 31
0.0
210
0.0
220
0.0
230
1.0
  0
LINE
  5
B4
100
AcDbEntity
  8
0
370
    35
390
0
 62
     4
 48
0.05
100
AcDbLine
 10
228.729004
 20
50.198574
 30
0.0
 11
227.729004
 21
48.466526
 31
0.0
210
0.0
220
0.0
230
1.0
  0
LINE
  5
B5
100
AcDbEntity
  8
0
370
    35
390
0
 62
     4
 48
0.06875
100
AcDbLine
 10
227.729004
 20
48.466526
 30
0.0
 11
225.347427
 21
49.841526
 31
0.0
210
0.0
220
0.0
230
1.0
  0
LINE
  5
B6
100
AcDbEntity
  8
0
370
    35
390
0
 62
     4
 48
0.23125
100
AcDbLine
 10
225.347427
 20
49.841526
 30
0.0
 11
220.722427
 21
41.830788
 31
0.0
210
0.0
220
0.0
230
1.0
  0
LINE
  5
B7
100
AcDbEntity
  8
0
370
    35
390
0
 62
     4
 48
0.325
100
AcDbLine
 10
209.464096
 20
48.330791
 30
0.0
 11
220.722427
 21
41.830788
 31
0.0
210
0.0
220
0.0
230
1.0
  0
LINE
  5
B8
100
AcDbEntity
  8
0
370
    35
390
0
 62
     4
 48
0.23125
100
AcDbLine
 10
214.089096
 20
56.341526
 30
0.0
 11
209.464096
 21
48.330791
 31
0.0
210
0.0
220
0.0
230
1.0
  0
LINE
  5
B9
100
AcDbEntity
  8
0
370
    35
390
0
 62
     4
 48
0.06875
100
AcDbLine
 10
211.70752
 20
57.716526
 30
0.0
 11
214.089096
 21
56.341526
 31
0.0
210
0.0
220
0.0
230
1.0
  0
LINE
  5
BA
100
AcDbEntity
  8
0
370
    35
390
0
 62
     4
 48
0.05
100
AcDbLine
 10
212.70752
 20
59.448574
 30
0.0
 11
211.70752
 21
57.716526
 31
0.0
210
0.0
220
0.0
230
1.0
  0
LINE
  5
BB
100
AcDbEntity
  8
0
370
    35
390
0
 62
     4
 48
0.09375
100
AcDbLine
 10
215.955124
 20
57.573574
 30
0.0
 11
212.70752
 21
59.448574
 31
0.0
210
0.0
220
0.0
230
1.0
  0
LINE
  5
BC
100
AcDbEntity
  8
0
370
    35
390
0
 62
     4
 48
0.056315
100
AcDbLine
 10
215.955124
 20
57.573574
 30
0.0
 11
217.081421
 21
59.524399
 31
0.0
210
0.0
220
0.0
230
1.0
  0
ARC
  5
BD
100
AcDbEntity
  8
0
370
    35
390
0
 62
     4
100
AcDbCircle
 10
251.718262
 20
108.517151
 30
0.0
 40
60.0
210
0.0
220
0.0
230
1.0
100
AcDbArc
 50
212.626975
 51
234.740505
  0
LINE
  5
BE
100
AcDbEntity
  8
0
370
    35
390
0
 62
     4
 48
0.251576
100
AcDbLine
 10
201.18634
 20
76.167107
 30
0.0
 11
192.471481
 21
71.135582
 31
0.0
210
0.0
220
0.0
230
1.0
  0
LINE
  5
BF
100
AcDbEntity
  8
0
370
    35
390
0
 62
     4
 48
0.1375
100
AcDbLine
 10
192.471481
 20
71.135582
 30
0.0
 11
189.721481
 21
75.89872
 31
0.0
210
0.0
220
0.0
230
1.0
  0
LINE
  5
C0
100
AcDbEntity
  8
0
370
    35
390
0
 62
     4
 48
0.251576
100
AcDbLine
 10
189.721481
 20
75.89872
 30
0.0
 11
198.43634
 21
80.930252
 31
0.0
210
0.0
220
0.0
230
1.0
  0
ARC
  5
C1
100
AcDbEntity
  8
0
370
    35
390
0
 62
     4
100
AcDbCircle
 10
251.718262
 20
108.517151
 30
0.0
 40
60.0
210
0.0
220
0.0
230
1.0
100
AcDbArc
 50
185.2595
 51
207.373016
  0
LINE
  5
C2
100
AcDbEntity
  8
0
370
    35
390
0
 62
     4
 48
0.056316
100
AcDbLine
 10
189.718262
 20
103.017151
 30
0.0
 11
191.970886
 21
103.017151
 31
0.0
210
0.0
220
0.0
230
1.0
  0
LINE
  5
C3
100
AcDbEntity
  8
0
370
    35
390
0
 62
     4
 48
0.09375
100
AcDbLine
 10
189.718262
 20
103.017151
 30
0.0
 11
189.718262
 21
99.267151
 31
0.0
210
0.0
220
0.0
230
1.0
  0
LINE
  5
C4
100
AcDbEntity
  8
0
370
    35
390
0
 62
     4
 48
0.05
100
AcDbLine
 10
189.718262
 20
99.267151
 30
0.0
 11
187.718262
 21
99.267151
 31
0.0
210
0.0
220
0.0
230
1.0
  0
LINE
  5
C5
100
AcDbEntity
  8
0
370
    35
390
0
 62
     4
 48
0.06875
100
AcDbLine
 10
187.718262
 20
99.267151
 30
0.0
 11
187.718262
 21
102.017151
 31
0.0
210
0.0
220
0.0
230
1.0
  0
LINE
  5
C6
100
AcDbEntity
  8
0
370
    35
390
0
 62
     4
 48
0.23125
100
AcDbLine
 10
187.718262
 20
102.017151
 30
0.0
 11
178.468262
 21
102.017151
 31
0.0
210
0.0
220
0.0
230
1.0
  0
LINE
  5
C7
100
AcDbEntity
  8
0
370
    35
390
0
 62
     4
 48
0.325
100
AcDbLine
 10
178.468262
 20
115.017151
 30
0.0
 11
178.468262
 21
102.017151
 31
0.0
210
0.0
220
0.0
230
1.0
  0
LINE
  5
C8
100
AcDbEntity
  8
0
370
    35
390
0
 62
     4
 48
0.23125
100
AcDbLine
 10
187.718262
 20
115.017151
 30
0.0
 11
178.468262
 21
115.017151
 31
0.0
210
0.0
220
0.0
230
1.0
  0
LINE
  5
C9
100
AcDbEntity
  8
0
370
    35
390
0
 62
     4
 48
0.06875
100
AcDbLine
 10
187.718262
 20
117.767151
 30
0.0
 11
187.718262
 21
115.017151
 31
0.0
210
0.0
220
0.0
230
1.0
  0
LINE
  5
CA
100
AcDbEntity
  8
0
370
    35
390
0
 62
     4
 48
0.05
100
AcDbLine
 10
189.718262
 20
117.767151
 30
0.0
 11
187.718262
 21
117.767151
 31
0.0
210
0.0
220
0.0
230
1.0
  0
LINE
  5
CB
100
AcDbEntity
  8
0
370
    35
390
0
 62
     4
 48
0.09375
100
AcDbLine
 10
189.718262
 20
114.017151
 30
0.0
 11
189.718262
 21
117.767151
 31
0.0
210
0.0
220
0.0
230
1.0
  0
LINE
  5
CC
100
AcDbEntity
  8
0
370
    35
390
0
 62
     4
 48
0.056316
100
AcDbLine
 10
189.718262
 20
114.017151
 30
0.0
 11
191.970886
 21
114.017151
 31
0.0
210
0.0
220
0.0
230
1.0
  0
ARC
  5
CD
100
AcDbEntity
  8
0
370
    35
390
0
 62
     4
100
AcDbCircle
 10
251.718262
 20
108.517151
 30
0.0
 40
60.0
210
0.0
220
0.0
230
1.0
100
AcDbArc
 50
152.626984
 51
174.7405
  0
LINE
  5
CE
100
AcDbEntity
  8
0
370
    35
390
0
 62
     4
 48
0.251576
100
AcDbLine
 10
198.43634
 20
136.10405
 30
0.0
 11
189.721481
 21
141.13559
 31
0.0
210
0.0
220
0.0
230
1.0
  0
LINE
  5
CF
100
AcDbEntity
  8
0
370
    35
390
0
 62
     4
 48
0.1375
100
AcDbLine
 10
189.721481
 20
141.13559
 30
0.0
 11
192.471481
 21
145.898712
 31
0.0
210
0.0
220
0.0
230
1.0
  0
LINE
  5
D0
100
AcDbEntity
  8
0
370
    35
390
0
 62
     4
 48
0.251576
100
AcDbLine
 10
192.471481
 20
145.898712
 30
0.0
 11
201.18634
 21
140.867188
 31
0.0
210
0.0
220
0.0
230
1.0
  0
ARC
  5
D1
100
AcDbEntity
  8
0
370
    35
390
0
 62
     4
100
AcDbCircle
 10
251.718262
 20
108.517151
 30
0.0
 40
60.0
210
0.0
220
0.0
230
1.0
100
AcDbArc
 50
125.259495
 51
147.373025
  0
LINE
  5
D2
100
AcDbEntity
  8
0
370
    35
390
0
 62
     4
 48
0.056315
100
AcDbLine
 10
215.955124
 20
159.460724
 30
0.0
 11
217.081421
 21
157.509903
 31
0.0
210
0.0
220
0.0
230
1.0
  0
LINE
  5
D3
100
AcDbEntity
  8
0
370
    35
390
0
 62
     4
 48
0.09375
100
AcDbLine
 10
215.955124
 20
159.460724
 30
0.0
 11
212.70752
 21
157.585724
 31
0.0
210
0.0
220
0.0
230
1.0
  0
LINE
  5
D4
100
AcDbEntity
  8
0
370
    35
390
0
 62
     4
 48
0.05
100
AcDbLine
 10
212.70752
 20
157.585724
 30
0.0
 11
211.70752
 21
159.31778
 31
0.0
210
0.0
220
0.0
230
1.0
  0
LINE
  5
D5
100
AcDbEntity
  8
0
370
    35
390
0
 62
     4
 48
0.06875
100
AcDbLine
 10
211.70752
 20
159.31778
 30
0.0
 11
214.089096
 21
160.69278
 31
0.0
210
0.0
220
0.0
230
1.0
  0
LINE
  5
D6
100
AcDbEntity
  8
0
370
    35
390
0
 62
     4
 48
0.23125
100
AcDbLine
 10
214.089096
 20
160.69278
 30
0.0
 11
209.464096
 21
168.703506
 31
0.0
210
0.0
220
0.0
230
1.0
  0
LINE
  5
D7
100
AcDbEntity
  8
0
370
    35
390
0
 62
     4
 48
0.325
100
AcDbLine
 10
220.722427
 20
175.203522
 30
0.0
 11
209.464096
 21
168.703506
 31
0.0
210
0.0
220
0.0
230
1.0
  0
LINE
  5
D8
100
AcDbEntity
  8
0
370
    35
390
0
 62
     4
 48
0.23125
100
AcDbLine
 10
225.347427
 20
167.19278
 30
0.0
 11
220.722427
 21
175.203522
 31
0.0
210
0.0
220
0.0
230
1.0
  0
LINE
  5
D9
100
AcDbEntity
  8
0
370
    35
390
0
 62
     4
 48
0.06875
100
AcDbLine
 10
227.729004
 20
168.56778
 30
0.0
 11
225.347427
 21
167.19278
 31
0.0
210
0.0
220
0.0
230
1.0
  0
LINE
  5
DA
100
AcDbEntity
  8
0
370
    35
390
0
 62
     4
 48
0.05
100
AcDbLine
 10
228.729004
 20
166.835724
 30
0.0
 11
227.729004
 21
168.56778
 31
0.0
210
0.0
220
0.0
230
1.0
  0
LINE
  5
DB
100
AcDbEntity
  8
0
370
    35
390
0
 62
     4
 48
0.09375
100
AcDbLine
 10
225.4814
 20
164.960724
 30
0.0
 11
228.729004
 21
166.835724
 31
0.0
210
0.0
220
0.0
230
1.0
  0
LINE
  5
DC
100
AcDbEntity
  8
0
370
    35
390
0
 62
     4
 48
0.056315
100
AcDbLine
 10
225.4814
 20
164.960724
 30
0.0
 11
226.607712
 21
163.009903
 31
0.0
210
0.0
220
0.0
230
1.0
  0
CIRCLE
  5
DD
100
AcDbEntity
  8
0
370
    35
390
0
 62
     7
100
AcDbCircle
 10
87.390457
 20
108.406143
 30
0.0
 40
58.0
210
0.0
220
0.0
230
1.0
  0
ARC
  5
DE
100
AcDbEntity
  8
0
370
    35
390
0
 62
     4
100
AcDbCircle
 10
87.390457
 20
108.406143
 30
0.0
 40
43.0
210
0.0
220
0.0
230
1.0
100
AcDbArc
 50
153.666771
 51
206.333229
  0
ARC
  5
DF
100
AcDbEntity
  8
0
370
    35
390
0
 62
     4
100
AcDbCircle
 10
87.390457
 20
108.406143
 30
0.0
 40
43.0
210
0.0
220
0.0
230
1.0
100
AcDbArc
 50
213.666762
 51
266.333231
  0
ARC
  5
E0
100
AcDbEntity
  8
0
370
    35
390
0
 62
     4
100
AcDbCircle
 10
87.390457
 20
108.406143
 30
0.0
 40
43.0
210
0.0
220
0.0
230
1.0
100
AcDbArc
 50
273.666764
 51
326.333233
  0
ARC
  5
E1
100
AcDbEntity
  8
0
370
    35
390
0
 62
     4
100
AcDbCircle
 10
87.390457
 20
108.406143
 30
0.0
 40
43.0
210
0.0
220
0.0
230
1.0
100
AcDbArc
 50
333.666767
 51
26.333233
  0
LINE
  5
E2
100
AcDbEntity
  8
0
370
    35
390
0
 62
     4
 48
0.189701
100
AcDbLine
 10
51.602596
 20
84.568588
 30
0.0
 11
45.031174
 21
80.774574
 31
0.0
210
0.0
220
0.0
230
1.0
  0
LINE
  5
E3
100
AcDbEntity
  8
0
370
    35
390
0
 62
     4
 48
0.1375
100
AcDbLine
 10
45.031174
 20
80.774574
 30
0.0
 11
42.281174
 21
85.537712
 31
0.0
210
0.0
220
0.0
230
1.0
  0
LINE
  5
E4
100
AcDbEntity
  8
0
370
    35
390
0
 62
     4
 48
0.189701
100
AcDbLine
 10
42.281174
 20
85.537712
 30
0.0
 11
48.852596
 21
89.331726
 31
0.0
210
0.0
220
0.0
230
1.0
  0
LINE
  5
E5
100
AcDbEntity
  8
0
370
    35
390
0
 62
     4
 48
0.189701
100
AcDbLine
 10
48.852596
 20
127.48056
 30
0.0
 11
42.281174
 21
131.274567
 31
0.0
210
0.0
220
0.0
230
1.0
  0
LINE
  5
E6
100
AcDbEntity
  8
0
370
    35
390
0
 62
     4
 48
0.1375
100
AcDbLine
 10
42.281174
 20
131.274567
 30
0.0
 11
45.031174
 21
136.03772
 31
0.0
210
0.0
220
0.0
230
1.0
  0
LINE
  5
E7
100
AcDbEntity
  8
0
370
    35
390
0
 62
     4
 48
0.189701
100
AcDbLine
 10
45.031174
 20
136.03772
 30
0.0
 11
51.602596
 21
132.243698
 31
0.0
210
0.0
220
0.0
230
1.0
  0
ARC
  5
E8
100
AcDbEntity
  8
0
370
    35
390
0
 62
     4
100
AcDbCircle
 10
87.390457
 20
108.406143
 30
0.0
 40
43.0
210
0.0
220
0.0
230
1.0
100
AcDbArc
 50
93.666769
 51
146.333238
  0
LINE
  5
E9
100
AcDbEntity
  8
0
370
    35
390
0
 62
     4
 48
0.189701
100
AcDbLine
 10
84.640457
 20
151.318115
 30
0.0
 11
84.640457
 21
158.906143
 31
0.0
210
0.0
220
0.0
230
1.0
  0
LINE
  5
EA
100
AcDbEntity
  8
0
370
    35
390
0
 62
     4
 48
0.1375
100
AcDbLine
 10
84.640457
 20
158.906143
 30
0.0
 11
90.140457
 21
158.906143
 31
0.0
210
0.0
220
0.0
230
1.0
  0
LINE
  5
EB
100
AcDbEntity
  8
0
370
    35
390
0
 62
     4
 48
0.189701
100
AcDbLine
 10
90.140457
 20
158.906143
 30
0.0
 11
90.140457
 21
151.318115
 31
0.0
210
0.0
220
0.0
230
1.0
  0
ARC
  5
EC
100
AcDbEntity
  8
0
370
    35
390
0
 62
     4
100
AcDbCircle
 10
87.390457
 20
108.406143
 30
0.0
 40
43.0
210
0.0
220
0.0
230
1.0
100
AcDbArc
 50
33.666767
 51
86.333236
  0
LINE
  5
ED
100
AcDbEntity
  8
0
370
    35
390
0
 62
     4
 48
0.189701
100
AcDbLine
 10
123.178314
 20
132.243698
 30
0.0
 11
129.749741
 21
136.03772
 31
0.0
210
0.0
220
0.0
230
1.0
  0
LINE
  5
EE
100
AcDbEntity
  8
0
370
    35
390
0
 62
     4
 48
0.1375
100
AcDbLine
 10
129.749741
 20
136.03772
 30
0.0
 11
132.499741
 21
131.274567
 31
0.0
210
0.0
220
0.0
230
1.0
  0
LINE
  5
EF
100
AcDbEntity
  8
0
370
    35
390
0
 62
     4
 48
0.189701
100
AcDbLine
 10
132.499741
 20
131.274567
 30
0.0
 11
125.928314
 21
127.48056
 31
0.0
210
0.0
220
0.0
230
1.0
  0
LINE
  5
F0
100
AcDbEntity
  8
0
370
    35
390
0
 62
     4
 48
0.189701
100
AcDbLine
 10
125.928314
 20
89.331726
 30
0.0
 11
132.499741
 21
85.537712
 31
0.0
210
0.0
220
0.0
230
1.0
  0
LINE
  5
F1
100
AcDbEntity
  8
0
370
    35
390
0
 62
     4
 48
0.1375
100
AcDbLine
 10
132.499741
 20
85.537712
 30
0.0
 11
129.749741
 21
80.774574
 31
0.0
210
0.0
220
0.0
230
1.0
  0
LINE
  5
F2
100
AcDbEntity
  8
0
370
    35
390
0
 62
     4
 48
0.189701
100
AcDbLine
 10
129.749741
 20
80.774574
 30
0.0
 11
123.178314
 21
84.568588
 31
0.0
210
0.0
220
0.0
230
1.0
  0
LINE
  5
F3
100
AcDbEntity
  8
0
370
    35
390
0
 62
     4
 48
0.189701
100
AcDbLine
 10
90.140457
 20
65.494171
 30
0.0
 11
90.140457
 21
57.906143
 31
0.0
210
0.0
220
0.0
230
1.0
  0
LINE
  5
F4
100
AcDbEntity
  8
0
370
    35
390
0
 62
     4
 48
0.1375
100
AcDbLine
 10
90.140457
 20
57.906143
 30
0.0
 11
84.640457
 21
57.906143
 31
0.0
210
0.0
220
0.0
230
1.0
  0
LINE
  5
F5
100
AcDbEntity
  8
0
370
    35
390
0
 62
     4
 48
0.189701
100
AcDbLine
 10
84.640457
 20
57.906143
 30
0.0
 11
84.640457
 21
65.494171
 31
0.0
210
0.0
220
0.0
230
1.0
  0
ARC
  5
F6
100
AcDbEntity
  8
0
370
    35
390
0
 62
     7
100
AcDbCircle
 10
86.995049
 20
108.364082
 30
0.0
 40
80.2
210
0.0
220
0.0
230
1.0
100
AcDbArc
 50
151.965015
 51
208.034985
  0
ARC
  5
F7
100
AcDbEntity
  8
0
370
    35
390
0
 62
     7
100
AcDbCircle
 10
86.995049
 20
108.364082
 30
0.0
 40
80.2
210
0.0
220
0.0
230
1.0
100
AcDbArc
 50
211.965021
 51
268.034986
  0
ARC
  5
F8
100
AcDbEntity
  8
0
370
    35
390
0
 62
     7
100
AcDbCircle
 10
86.995049
 20
108.364082
 30
0.0
 40
80.2
210
0.0
220
0.0
230
1.0
100
AcDbArc
 50
271.965016
 51
328.034984
  0
ARC
  5
F9
100
AcDbEntity
  8
0
370
    35
390
0
 62
     7
100
AcDbCircle
 10
86.995049
 20
108.364082
 30
0.0
 40
80.2
210
0.0
220
0.0
230
1.0
100
AcDbArc
 50
331.965016
 51
28.034984
  0
CIRCLE
  5
FA
100
AcDbEntity
  8
0
370
    35
390
0
 62
     4
100
AcDbCircle
 10
86.995049
 20
108.364082
 30
0.0
 40
64.2
210
0.0
220
0.0
230
1.0
  0
LINE
  5
FB
100
AcDbEntity
  8
0
370
    35
390
0
 62
     7
 48
0.191321
100
AcDbLine
 10
16.205658
 20
70.669235
 30
0.0
 11
22.833206
 21
74.495651
 31
0.0
210
0.0
220
0.0
230
1.0
  0
LINE
  5
FC
100
AcDbEntity
  8
0
370
    35
390
0
 62
     7
 48
0.1375
100
AcDbLine
 10
22.833206
 20
74.495651
 30
0.0
 11
25.583206
 21
69.732513
 31
0.0
210
0.0
220
0.0
230
1.0
  0
LINE
  5
FD
100
AcDbEntity
  8
0
370
    35
390
0
 62
     7
 48
0.191321
100
AcDbLine
 10
25.583206
 20
69.732513
 30
0.0
 11
18.955658
 21
65.906097
 31
0.0
210
0.0
220
0.0
230
1.0
  0
LINE
  5
FE
100
AcDbEntity
  8
0
370
    35
390
0
 62
     7
 48
0.191321
100
AcDbLine
 10
84.245049
 20
28.211243
 30
0.0
 11
84.245049
 21
35.864082
 31
0.0
210
0.0
220
0.0
230
1.0
  0
LINE
  5
FF
100
AcDbEntity
  8
0
370
    35
390
0
 62
     7
 48
0.1375
100
AcDbLine
 10
84.245049
 20
35.864082
 30
0.0
 11
89.745049
 21
35.864082
 31
0.0
210
0.0
220
0.0
230
1.0
  0
LINE
  5
100
100
AcDbEntity
  8
0
370
    35
390
0
 62
     7
 48
0.191321
100
AcDbLine
 10
89.745049
 20
35.864082
 30
0.0
 11
89.745049
 21
28.211243
 31
0.0
210
0.0
220
0.0
230
1.0
  0
LINE
  5
101
100
AcDbEntity
  8
0
370
    35
390
0
 62
     7
 48
0.191321
100
AcDbLine
 10
155.034439
 20
65.906097
 30
0.0
 11
148.406891
 21
69.732513
 31
0.0
210
0.0
220
0.0
230
1.0
  0
LINE
  5
102
100
AcDbEntity
  8
0
370
    35
390
0
 62
     7
 48
0.1375
100
AcDbLine
 10
148.406891
 20
69.732513
 30
0.0
 11
151.156891
 21
74.495651
 31
0.0
210
0.0
220
0.0
230
1.0
  0
LINE
  5
103
100
AcDbEntity
  8
0
370
    35
390
0
 62
     7
 48
0.191321
100
AcDbLine
 10
151.156891
 20
74.495651
 30
0.0
 11
157.784439
 21
70.669235
 31
0.0
210
0.0
220
0.0
230
1.0
  0
LINE
  5
104
100
AcDbEntity
  8
0
370
    35
390
0
 62
     7
 48
0.191321
100
AcDbLine
 10
157.784439
 20
146.058929
 30
0.0
 11
151.156891
 21
142.232513
 31
0.0
210
0.0
220
0.0
230
1.0
  0
LINE
  5
105
100
AcDbEntity
  8
0
370
    35
390
0
 62
     7
 48
0.1375
100
AcDbLine
 10
151.156891
 20
142.232513
 30
0.0
 11
148.406891
 21
146.995651
 31
0.0
210
0.0
220
0.0
230
1.0
  0
LINE
  5
106
100
AcDbEntity
  8
0
370
    35
390
0
 62
     7
 48
0.191321
100
AcDbLine
 10
148.406891
 20
146.995651
 30
0.0
 11
155.034439
 21
150.822067
 31
0.0
210
0.0
220
0.0
230
1.0
  0
ARC
  5
107
100
AcDbEntity
  8
0
370
    35
390
0
 62
     7
100
AcDbCircle
 10
86.995049
 20
108.364082
 30
0.0
 40
80.2
210
0.0
220
0.0
230
1.0
100
AcDbArc
 50
31.965016
 51
88.034984
  0
LINE
  5
108
100
AcDbEntity
  8
0
370
    35
390
0
 62
     7
 48
0.191321
100
AcDbLine
 10
89.745049
 20
188.516922
 30
0.0
 11
89.745049
 21
180.864075
 31
0.0
210
0.0
220
0.0
230
1.0
  0
LINE
  5
109
100
AcDbEntity
  8
0
370
    35
390
0
 62
     7
 48
0.1375
100
AcDbLine
 10
89.745049
 20
180.864075
 30
0.0
 11
84.245049
 21
180.864075
 31
0.0
210
0.0
220
0.0
230
1.0
  0
LINE
  5
10A
100
AcDbEntity
  8
0
370
    35
390
0
 62
     7
 48
0.191321
100
AcDbLine
 10
84.245049
 20
180.864075
 30
0.0
 11
84.245049
 21
188.516922
 31
0.0
210
0.0
220
0.0
230
1.0
  0
ARC
  5
10B
100
AcDbEntity
  8
0
370
    35
390
0
 62
     7
100
AcDbCircle
 10
86.995049
 20
108.364082
 30
0.0
 40
80.2
210
0.0
220
0.0
230
1.0
100
AcDbArc
 50
91.965014
 51
148.034979
  0
LINE
  5
10C
100
AcDbEntity
  8
0
370
    35
390
0
 62
     7
 48
0.191321
100
AcDbLine
 10
18.955658
 20
150.822067
 30
0.0
 11
25.583206
 21
146.995651
 31
0.0
210
0.0
220
0.0
230
1.0
  0
LINE
  5
10D
100
AcDbEntity
  8
0
370
    35
390
0
 62
     7
 48
0.1375
100
AcDbLine
 10
25.583206
 20
146.995651
 30
0.0
 11
22.833206
 21
142.232513
 31
0.0
210
0.0
220
0.0
230
1.0
  0
LINE
  5
10E
100
AcDbEntity
  8
0
370
    35
390
0
 62
     7
 48
0.191321
100
AcDbLine
 10
22.833206
 20
142.232513
 30
0.0
 11
16.205658
 21
146.058929
 31
0.0
210
0.0
220
0.0
230
1.0
  0
CIRCLE
  5
10F
100
AcDbEntity
  8
0
370
    35
390
0
 62
     4
100
AcDbCircle
 10
528.374084
 20
398.148987
 30
0.0
 40
1.0
210
0.0
220
0.0
230
1.0
  0
ARC
  5
110
100
AcDbEntity
  8
0
370
    35
390
0
 62
     7
100
AcDbCircle
 10
345.553131
 20
36.838196
 30
0.0
 40
200.0
210
0.0
220
0.0
230
1.0
100
AcDbArc
 50
19.667067
 51
28.460584
  0
LINE
  5
111
100
AcDbEntity
  8
0
370
    35
390
0
 62
     7
 48
0.1375
100
AcDbLine
 10
528.374084
 20
104.149002
 30
0.0
 11
528.374084
 21
98.649002
 31
0.0
210
0.0
220
0.0
230
1.0
  0
ARC
  5
112
100
AcDbEntity
  8
0
370
    35
390
0
 62
     7
100
AcDbCircle
 10
345.553131
 20
36.838196
 30
0.0
 40
200.0
210
0.0
220
0.0
230
1.0
100
AcDbArc
 50
8.137783
 51
18.002232
  0
LINE
  5
113
100
AcDbEntity
  8
0
370
    35
390
0
 62
     7
 48
0.191629
100
AcDbLine
 10
535.874084
 20
65.149002
 30
0.0
 11
543.539246
 21
65.149002
 31
0.0
210
0.0
220
0.0
230
1.0
  0
LINE
  5
114
100
AcDbEntity
  8
0
370
    35
390
0
 62
     7
 48
0.1375
100
AcDbLine
 10
535.874084
 20
65.149002
 30
0.0
 11
535.874084
 21
70.649002
 31
0.0
210
0.0
220
0.0
230
1.0
  0
ARC
  5
115
100
AcDbEntity
  8
0
370
    35
390
0
 62
     7
100
AcDbCircle
 10
345.553131
 20
36.838196
 30
0.0
 40
185.0
210
0.0
220
0.0
230
1.0
100
AcDbArc
 50
10.53063
 51
32.318713
  0
ARC
  5
116
100
AcDbEntity
  8
0
370
    35
390
0
 62
     7
100
AcDbCircle
 10
548.374084
 20
165.149002
 30
0.0
 40
55.0
210
0.0
220
0.0
230
1.0
100
AcDbArc
 50
180.000005
 51
212.318715
  0
LINE
  5
117
100
AcDbEntity
  8
0
370
    35
390
0
 62
     7
 48
0.075
100
AcDbLine
 10
493.374084
 20
165.149002
 30
0.0
 11
493.374084
 21
168.149002
 31
0.0
210
0.0
220
0.0
230
1.0
  0
ARC
  5
118
100
AcDbEntity
  8
0
370
    35
390
0
 62
     7
100
AcDbCircle
 10
511.374084
 20
168.149002
 30
0.0
 40
18.0
210
0.0
220
0.0
230
1.0
100
AcDbArc
 50
90.000003
 51
179.999995
  0
LINE
  5
119
100
AcDbEntity
  8
0
370
    35
390
0
 62
     7
 48
0.125
100
AcDbLine
 10
533.374084
 20
391.648987
 30
0.0
 11
538.374084
 21
391.648987
 31
0.0
210
0.0
220
0.0
230
1.0
  0
LINE
  5
11A
100
AcDbEntity
  8
0
370
    35
390
0
 62
     7
 48
0.15
100
AcDbLine
 10
538.374084
 20
385.648987
 30
0.0
 11
538.374084
 21
391.648987
 31
0.0
210
0.0
220
0.0
230
1.0
  0
LINE
  5
11B
100
AcDbEntity
  8
0
370
    35
390
0
 62
     7
 48
0.1375
100
AcDbLine
 10
533.374084
 20
385.648987
 30
0.0
 11
533.374084
 21
380.148987
 31
0.0
210
0.0
220
0.0
230
1.0
  0
LINE
  5
11C
100
AcDbEntity
  8
0
370
    35
390
0
 62
     7
 48
0.125
100
AcDbLine
 10
533.374084
 20
380.148987
 30
0.0
 11
538.374084
 21
380.148987
 31
0.0
210
0.0
220
0.0
230
1.0
  0
LINE
  5
11D
100
AcDbEntity
  8
0
370
    35
390
0
 62
     7
100
AcDbLine
 10
538.374084
 20
321.648987
 30
0.0
 11
538.374084
 21
380.148987
 31
0.0
210
0.0
220
0.0
230
1.0
  0
LINE
  5
11E
100
AcDbEntity
  8
0
370
    35
390
0
 62
     7
 48
0.1375
100
AcDbLine
 10
533.374084
 20
321.648987
 30
0.0
 11
533.374084
 21
316.148987
 31
0.0
210
0.0
220
0.0
230
1.0
  0
LINE
  5
11F
100
AcDbEntity
  8
0
370
    35
390
0
 62
     7
 48
0.125
100
AcDbLine
 10
538.374084
 20
316.148987
 30
0.0
 11
533.374084
 21
316.148987
 31
0.0
210
0.0
220
0.0
230
1.0
  0
LINE
  5
120
100
AcDbEntity
  8
0
370
    35
390
0
 62
     7
100
AcDbLine
 10
538.374084
 20
255.649002
 30
0.0
 11
538.374084
 21
316.148987
 31
0.0
210
0.0
220
0.0
230
1.0
  0
LINE
  5
121
100
AcDbEntity
  8
0
370
    35
390
0
 62
     7
 48
0.1375
100
AcDbLine
 10
533.374084
 20
255.649002
 30
0.0
 11
533.374084
 21
250.149002
 31
0.0
210
0.0
220
0.0
230
1.0
  0
LINE
  5
122
100
AcDbEntity
  8
0
370
    35
390
0
 62
     7
 48
0.125
100
AcDbLine
 10
538.374084
 20
250.149002
 30
0.0
 11
533.374084
 21
250.149002
 31
0.0
210
0.0
220
0.0
230
1.0
  0
LINE
  5
123
100
AcDbEntity
  8
0
370
    35
390
0
 62
     7
100
AcDbLine
 10
538.374084
 20
191.649002
 30
0.0
 11
538.374084
 21
250.149002
 31
0.0
210
0.0
220
0.0
230
1.0
  0
LINE
  5
124
100
AcDbEntity
  8
0
370
    35
390
0
 62
     7
 48
0.1375
100
AcDbLine
 10
533.374084
 20
191.649002
 30
0.0
 11
533.374084
 21
186.149002
 31
0.0
210
0.0
220
0.0
230
1.0
  0
LINE
  5
125
100
AcDbEntity
  8
0
370
    35
390
0
 62
     7
 48
0.125
100
AcDbLine
 10
538.374084
 20
186.149002
 30
0.0
 11
533.374084
 21
186.149002
 31
0.0
210
0.0
220
0.0
230
1.0
  0
LINE
  5
126
100
AcDbEntity
  8
0
370
    35
390
0
 62
     7
 48
0.25
100
AcDbLine
 10
538.374084
 20
176.149002
 30
0.0
 11
538.374084
 21
186.149002
 31
0.0
210
0.0
220
0.0
230
1.0
  0
ARC
  5
127
100
AcDbEntity
  8
0
370
    35
390
0
 62
     7
100
AcDbCircle
 10
533.374084
 20
176.149002
 30
0.0
 40
5.0
210
0.0
220
0.0
230
1.0
100
AcDbArc
 50
269.999997
 51
360.0
  0
LINE
  5
128
100
AcDbEntity
  8
0
370
    35
390
0
 62
     7
 48
0.375
100
AcDbLine
 10
518.374084
 20
171.149002
 30
0.0
 11
533.374084
 21
171.149002
 31
0.0
210
0.0
220
0.0
230
1.0
  0
LINE
  5
129
100
AcDbEntity
  8
0
370
    35
390
0
 62
     7
 48
0.0125
100
AcDbLine
 10
518.374084
 20
170.649002
 30
0.0
 11
518.374084
 21
171.149002
 31
0.0
210
0.0
220
0.0
230
1.0
  0
LINE
  5
12A
100
AcDbEntity
  8
0
370
    35
390
0
 62
     7
 48
0.125
100
AcDbLine
 10
508.374084
 20
165.149002
 30
0.0
 11
503.374084
 21
165.149002
 31
0.0
210
0.0
220
0.0
230
1.0
  0
ARC
  5
12B
100
AcDbEntity
  8
0
370
    35
390
0
 62
     7
100
AcDbCircle
 10
548.374084
 20
165.149002
 30
0.0
 40
40.0
210
0.0
220
0.0
230
1.0
100
AcDbArc
 50
180.000005
 51
212.318715
  0
ARC
  5
12C
100
AcDbEntity
  8
0
370
    35
390
0
 62
     7
100
AcDbCircle
 10
345.553131
 20
36.838196
 30
0.0
 40
200.0
210
0.0
220
0.0
230
1.0
100
AcDbArc
 50
30.268578
 51
32.318713
  0
LINE
  5
12D
100
AcDbEntity
  8
0
370
    35
390
0
 62
     7
 48
0.1375
100
AcDbLine
 10
513.874084
 20
137.649002
 30
0.0
 11
513.874084
 21
132.149002
 31
0.0
210
0.0
220
0.0
230
1.0
  0
LINE
  5
12E
100
AcDbEntity
  8
0
370
    35
390
0
 62
     7
 48
0.187703
100
AcDbLine
 10
521.382202
 20
132.149002
 30
0.0
 11
513.874084
 21
132.149002
 31
0.0
210
0.0
220
0.0
230
1.0
  0
LINE
  5
12F
100
AcDbEntity
  8
0
370
    35
390
0
 62
     7
 48
0.110336
100
AcDbLine
 10
513.874084
 20
137.649002
 30
0.0
 11
518.287537
 21
137.649002
 31
0.0
210
0.0
220
0.0
230
1.0
  0
LINE
  5
130
100
AcDbEntity
  8
0
370
    35
390
0
 62
     7
 48
0.1375
100
AcDbLine
 10
503.374084
 20
165.149002
 30
0.0
 11
503.374084
 21
170.649002
 31
0.0
210
0.0
220
0.0
230
1.0
  0
LINE
  5
131
100
AcDbEntity
  8
0
370
    35
390
0
 62
     7
 48
0.375
100
AcDbLine
 10
503.374084
 20
170.649002
 30
0.0
 11
518.374084
 21
170.649002
 31
0.0
210
0.0
220
0.0
230
1.0
  0
LINE
  5
132
100
AcDbEntity
  8
0
370
    35
390
0
 62
     7
 48
0.125
100
AcDbLine
 10
533.374084
 20
191.649002
 30
0.0
 11
538.374084
 21
191.649002
 31
0.0
210
0.0
220
0.0
230
1.0
  0
LINE
  5
133
100
AcDbEntity
  8
0
370
    35
390
0
 62
     7
 48
0.125
100
AcDbLine
 10
533.374084
 20
255.649002
 30
0.0
 11
538.374084
 21
255.649002
 31
0.0
210
0.0
220
0.0
230
1.0
  0
LINE
  5
134
100
AcDbEntity
  8
0
370
    35
390
0
 62
     7
 48
0.125
100
AcDbLine
 10
533.374084
 20
321.648987
 30
0.0
 11
538.374084
 21
321.648987
 31
0.0
210
0.0
220
0.0
230
1.0
  0
LINE
  5
135
100
AcDbEntity
  8
0
370
    35
390
0
 62
     7
 48
0.125
100
AcDbLine
 10
538.374084
 20
385.648987
 30
0.0
 11
533.374084
 21
385.648987
 31
0.0
210
0.0
220
0.0
230
1.0
  0
LINE
  5
136
100
AcDbEntity
  8
0
370
    35
390
0
 62
     7
 48
0.210921
100
AcDbLine
 10
527.437256
 20
70.649002
 30
0.0
 11
535.874084
 21
70.649002
 31
0.0
210
0.0
220
0.0
230
1.0
  0
LINE
  5
137
100
AcDbEntity
  8
0
370
    35
390
0
 62
     7
 48
0.184698
100
AcDbLine
 10
535.762024
 20
98.649002
 30
0.0
 11
528.374084
 21
98.649002
 31
0.0
210
0.0
220
0.0
230
1.0
  0
LINE
  5
138
100
AcDbEntity
  8
0
370
    35
390
0
 62
     7
 48
0.137798
100
AcDbLine
 10
528.374084
 20
104.149002
 30
0.0
 11
533.885986
 21
104.149002
 31
0.0
210
0.0
220
0.0
230
1.0
  0
LINE
  5
139
100
AcDbEntity
  8
0
370
    35
390
0
 62
     7
 48
0.175
100
AcDbLine
 10
511.374084
 20
186.149002
 30
0.0
 11
518.374084
 21
186.149002
 31
0.0
210
0.0
220
0.0
230
1.0
  0
ARC
  5
13A
100
AcDbEntity
  8
0
370
    35
390
0
 62
     7
100
AcDbCircle
 10
518.374084
 20
191.149002
 30
0.0
 40
5.0
210
0.0
220
0.0
230
1.0
100
AcDbArc
 50
269.999997
 51
360.0
  0
LINE
  5
13B
100
AcDbEntity
  8
0
370
    35
390
0
 62
     7
100
AcDbLine
 10
523.374084
 20
191.149002
 30
0.0
 11
523.374084
 21
397.148987
 31
0.0
210
0.0
220
0.0
230
1.0
  0
ARC
  5
13C
100
AcDbEntity
  8
0
370
    35
390
0
 62
     7
100
AcDbCircle
 10
528.374084
 20
397.148987
 30
0.0
 40
5.0
210
0.0
220
0.0
230
1.0
100
AcDbArc
 50
0.0
 51
180.000005
  0
LINE
  5
13D
100
AcDbEntity
  8
0
370
    35
390
0
 62
     7
 48
0.1375
100
AcDbLine
 10
533.374084
 20
397.148987
 30
0.0
 11
533.374084
 21
391.648987
 31
0.0
210
0.0
220
0.0
230
1.0
  0
CIRCLE
  5
13E
100
AcDbEntity
  8
0
370
    35
390
0
 62
     4
100
AcDbCircle
 10
555.50415
 20
382.821655
 30
0.0
 40
1.0
210
0.0
220
0.0
230
1.0
  0
ARC
  5
13F
100
AcDbEntity
  8
0
370
    35
390
0
 62
     7
100
AcDbCircle
 10
372.683167
 20
21.510849
 30
0.0
 40
200.0
210
0.0
220
0.0
230
1.0
100
AcDbArc
 50
19.667067
 51
28.460584
  0
LINE
  5
140
100
AcDbEntity
  8
0
370
    35
390
0
 62
     7
 48
0.1375
100
AcDbLine
 10
555.50415
 20
88.821655
 30
0.0
 11
555.50415
 21
83.321655
 31
0.0
210
0.0
220
0.0
230
1.0
  0
ARC
  5
141
100
AcDbEntity
  8
0
370
    35
390
0
 62
     7
100
AcDbCircle
 10
372.683167
 20
21.510849
 30
0.0
 40
200.0
210
0.0
220
0.0
230
1.0
100
AcDbArc
 50
8.137783
 51
18.002232
  0
LINE
  5
142
100
AcDbEntity
  8
0
370
    35
390
0
 62
     7
 48
0.191629
100
AcDbLine
 10
563.00415
 20
49.821655
 30
0.0
 11
570.669312
 21
49.821655
 31
0.0
210
0.0
220
0.0
230
1.0
  0
LINE
  5
143
100
AcDbEntity
  8
0
370
    35
390
0
 62
     7
 48
0.1375
100
AcDbLine
 10
563.00415
 20
49.821655
 30
0.0
 11
563.00415
 21
55.321655
 31
0.0
210
0.0
220
0.0
230
1.0
  0
ARC
  5
144
100
AcDbEntity
  8
0
370
    35
390
0
 62
     7
100
AcDbCircle
 10
372.683167
 20
21.510849
 30
0.0
 40
185.0
210
0.0
220
0.0
230
1.0
100
AcDbArc
 50
10.53063
 51
32.318713
  0
ARC
  5
145
100
AcDbEntity
  8
0
370
    35
390
0
 62
     7
100
AcDbCircle
 10
575.50415
 20
149.821655
 30
0.0
 40
55.0
210
0.0
220
0.0
230
1.0
100
AcDbArc
 50
180.000005
 51
212.318715
  0
LINE
  5
146
100
AcDbEntity
  8
0
370
    35
390
0
 62
     7
 48
0.075
100
AcDbLine
 10
520.50415
 20
149.821655
 30
0.0
 11
520.50415
 21
152.821655
 31
0.0
210
0.0
220
0.0
230
1.0
  0
ARC
  5
147
100
AcDbEntity
  8
0
370
    35
390
0
 62
     7
100
AcDbCircle
 10
538.50415
 20
152.821655
 30
0.0
 40
18.0
210
0.0
220
0.0
230
1.0
100
AcDbArc
 50
90.000003
 51
179.999995
  0
LINE
  5
148
100
AcDbEntity
  8
0
370
    35
390
0
 62
     7
 48
0.125
100
AcDbLine
 10
560.50415
 20
376.321655
 30
0.0
 11
565.50415
 21
376.321655
 31
0.0
210
0.0
220
0.0
230
1.0
  0
LINE
  5
149
100
AcDbEntity
  8
0
370
    35
390
0
 62
     7
 48
0.15
100
AcDbLine
 10
565.50415
 20
370.321655
 30
0.0
 11
565.50415
 21
376.321655
 31
0.0
210
0.0
220
0.0
230
1.0
  0
LINE
  5
14A
100
AcDbEntity
  8
0
370
    35
390
0
 62
     7
 48
0.1375
100
AcDbLine
 10
560.50415
 20
370.321655
 30
0.0
 11
560.50415
 21
364.821655
 31
0.0
210
0.0
220
0.0
230
1.0
  0
LINE
  5
14B
100
AcDbEntity
  8
0
370
    35
390
0
 62
     7
 48
0.125
100
AcDbLine
 10
560.50415
 20
364.821655
 30
0.0
 11
565.50415
 21
364.821655
 31
0.0
210
0.0
220
0.0
230
1.0
  0
LINE
  5
14C
100
AcDbEntity
  8
0
370
    35
390
0
 62
     7
100
AcDbLine
 10
565.50415
 20
306.321655
 30
0.0
 11
565.50415
 21
364.821655
 31
0.0
210
0.0
220
0.0
230
1.0
  0
LINE
  5
14D
100
AcDbEntity
  8
0
370
    35
390
0
 62
     7
 48
0.1375
100
AcDbLine
 10
560.50415
 20
306.321655
 30
0.0
 11
560.50415
 21
300.821655
 31
0.0
210
0.0
220
0.0
230
1.0
  0
LINE
  5
14E
100
AcDbEntity
  8
0
370
    35
390
0
 62
     7
 48
0.125
100
AcDbLine
 10
565.50415
 20
300.821655
 30
0.0
 11
560.50415
 21
300.821655
 31
0.0
210
0.0
220
0.0
230
1.0
  0
LINE
  5
14F
100
AcDbEntity
  8
0
370
    35
390
0
 62
     7
100
AcDbLine
 10
565.50415
 20
240.321655
 30
0.0
 11
565.50415
 21
300.821655
 31
0.0
210
0.0
220
0.0
230
1.0
  0
LINE
  5
150
100
AcDbEntity
  8
0
370
    35
390
0
 62
     7
 48
0.1375
100
AcDbLine
 10
560.50415
 20
240.321655
 30
0.0
 11
560.50415
 21
234.821655
 31
0.0
210
0.0
220
0.0
230
1.0
  0
LINE
  5
151
100
AcDbEntity
  8
0
370
    35
390
0
 62
     7
 48
0.125
100
AcDbLine
 10
565.50415
 20
234.821655
 30
0.0
 11
560.50415
 21
234.821655
 31
0.0
210
0.0
220
0.0
230
1.0
  0
LINE
  5
152
100
AcDbEntity
  8
0
370
    35
390
0
 62
     7
100
AcDbLine
 10
565.50415
 20
176.321655
 30
0.0
 11
565.50415
 21
234.821655
 31
0.0
210
0.0
220
0.0
230
1.0
  0
LINE
  5
153
100
AcDbEntity
  8
0
370
    35
390
0
 62
     7
 48
0.1375
100
AcDbLine
 10
560.50415
 20
176.321655
 30
0.0
 11
560.50415
 21
170.821655
 31
0.0
210
0.0
220
0.0
230
1.0
  0
LINE
  5
154
100
AcDbEntity
  8
0
370
    35
390
0
 62
     7
 48
0.125
100
AcDbLine
 10
565.50415
 20
170.821655
 30
0.0
 11
560.50415
 21
170.821655
 31
0.0
210
0.0
220
0.0
230
1.0
  0
LINE
  5
155
100
AcDbEntity
  8
0
370
    35
390
0
 62
     7
 48
0.25
100
AcDbLine
 10
565.50415
 20
160.821655
 30
0.0
 11
565.50415
 21
170.821655
 31
0.0
210
0.0
220
0.0
230
1.0
  0
ARC
  5
156
100
AcDbEntity
  8
0
370
    35
390
0
 62
     7
100
AcDbCircle
 10
560.50415
 20
160.821655
 30
0.0
 40
5.0
210
0.0
220
0.0
230
1.0
100
AcDbArc
 50
269.999997
 51
360.0
  0
LINE
  5
157
100
AcDbEntity
  8
0
370
    35
390
0
 62
     7
 48
0.375
100
AcDbLine
 10
545.50415
 20
155.821655
 30
0.0
 11
560.50415
 21
155.821655
 31
0.0
210
0.0
220
0.0
230
1.0
  0
LINE
  5
158
100
AcDbEntity
  8
0
370
    35
390
0
 62
     7
 48
0.0125
100
AcDbLine
 10
545.50415
 20
155.321655
 30
0.0
 11
545.50415
 21
155.821655
 31
0.0
210
0.0
220
0.0
230
1.0
  0
LINE
  5
159
100
AcDbEntity
  8
0
370
    35
390
0
 62
     7
 48
0.125
100
AcDbLine
 10
535.50415
 20
149.821655
 30
0.0
 11
530.50415
 21
149.821655
 31
0.0
210
0.0
220
0.0
230
1.0
  0
ARC
  5
15A
100
AcDbEntity
  8
0
370
    35
390
0
 62
     7
100
AcDbCircle
 10
575.50415
 20
149.821655
 30
0.0
 40
40.0
210
0.0
220
0.0
230
1.0
100
AcDbArc
 50
180.000005
 51
212.318715
  0
ARC
  5
15B
100
AcDbEntity
  8
0
370
    35
390
0
 62
     7
100
AcDbCircle
 10
372.683167
 20
21.510849
 30
0.0
 40
200.0
210
0.0
220
0.0
230
1.0
100
AcDbArc
 50
30.268578
 51
32.318713
  0
LINE
  5
15C
100
AcDbEntity
  8
0
370
    35
390
0
 62
     7
 48
0.1375
100
AcDbLine
 10
541.00415
 20
122.321655
 30
0.0
 11
541.00415
 21
116.821655
 31
0.0
210
0.0
220
0.0
230
1.0
  0
LINE
  5
15D
100
AcDbEntity
  8
0
370
    35
390
0
 62
     7
 48
0.187701
100
AcDbLine
 10
548.512207
 20
116.821655
 30
0.0
 11
541.00415
 21
116.821655
 31
0.0
210
0.0
220
0.0
230
1.0
  0
LINE
  5
15E
100
AcDbEntity
  8
0
370
    35
390
0
 62
     7
 48
0.110336
100
AcDbLine
 10
541.00415
 20
122.321655
 30
0.0
 11
545.417603
 21
122.321655
 31
0.0
210
0.0
220
0.0
230
1.0
  0
LINE
  5
15F
100
AcDbEntity
  8
0
370
    35
390
0
 62
     7
 48
0.1375
100
AcDbLine
 10
530.50415
 20
149.821655
 30
0.0
 11
530.50415
 21
155.321655
 31
0.0
210
0.0
220
0.0
230
1.0
  0
LINE
  5
160
100
AcDbEntity
  8
0
370
    35
390
0
 62
     7
 48
0.375
100
AcDbLine
 10
530.50415
 20
155.321655
 30
0.0
 11
545.50415
 21
155.321655
 31
0.0
210
0.0
220
0.0
230
1.0
  0
LINE
  5
161
100
AcDbEntity
  8
0
370
    35
390
0
 62
     7
 48
0.125
100
AcDbLine
 10
560.50415
 20
176.321655
 30
0.0
 11
565.50415
 21
176.321655
 31
0.0
210
0.0
220
0.0
230
1.0
  0
LINE
  5
162
100
AcDbEntity
  8
0
370
    35
390
0
 62
     7
 48
0.125
100
AcDbLine
 10
560.50415
 20
240.321655
 30
0.0
 11
565.50415
 21
240.321655
 31
0.0
210
0.0
220
0.0
230
1.0
  0
LINE
  5
163
100
AcDbEntity
  8
0
370
    35
390
0
 62
     7
 48
0.125
100
AcDbLine
 10
560.50415
 20
306.321655
 30
0.0
 11
565.50415
 21
306.321655
 31
0.0
210
0.0
220
0.0
230
1.0
  0
LINE
  5
164
100
AcDbEntity
  8
0
370
    35
390
0
 62
     7
 48
0.125
100
AcDbLine
 10
565.50415
 20
370.321655
 30
0.0
 11
560.50415
 21
370.321655
 31
0.0
210
0.0
220
0.0
230
1.0
  0
LINE
  5
165
100
AcDbEntity
  8
0
370
    35
390
0
 62
     7
 48
0.210922
100
AcDbLine
 10
554.567261
 20
55.321655
 30
0.0
 11
563.00415
 21
55.321655
 31
0.0
210
0.0
220
0.0
230
1.0
  0
LINE
  5
166
100
AcDbEntity
  8
0
370
    35
390
0
 62
     7
 48
0.184698
100
AcDbLine
 10
562.89209
 20
83.321655
 30
0.0
 11
555.50415
 21
83.321655
 31
0.0
210
0.0
220
0.0
230
1.0
  0
LINE
  5
167
100
AcDbEntity
  8
0
370
    35
390
0
 62
     7
 48
0.137796
100
AcDbLine
 10
555.50415
 20
88.821655
 30
0.0
 11
561.015991
 21
88.821655
 31
0.0
210
0.0
220
0.0
230
1.0
  0
LINE
  5
168
100
AcDbEntity
  8
0
370
    35
390
0
 62
     7
 48
0.175
100
AcDbLine
 10
538.50415
 20
170.821655
 30
0.0
 11
545.50415
 21
170.821655
 31
0.0
210
0.0
220
0.0
230
1.0
  0
ARC
  5
169
100
AcDbEntity
  8
0
370
    35
390
0
 62
     7
100
AcDbCircle
 10
545.50415
 20
175.821655
 30
0.0
 40
5.0
210
0.0
220
0.0
230
1.0
100
AcDbArc
 50
269.999997
 51
360.0
  0
LINE
  5
16A
100
AcDbEntity
  8
0
370
    35
390
0
 62
     7
100
AcDbLine
 10
550.50415
 20
175.821655
 30
0.0
 11
550.50415
 21
381.821655
 31
0.0
210
0.0
220
0.0
230
1.0
  0
ARC
  5
16B
100
AcDbEntity
  8
0
370
    35
390
0
 62
     7
100
AcDbCircle
 10
555.50415
 20
381.821655
 30
0.0
 40
5.0
210
0.0
220
0.0
230
1.0
100
AcDbArc
 50
0.0
 51
180.000005
  0
LINE
  5
16C
100
AcDbEntity
  8
0
370
    35
390
0
 62
     7
 48
0.1375
100
AcDbLine
 10
560.50415
 20
381.821655
 30
0.0
 11
560.50415
 21
376.321655
 31
0.0
210
0.0
220
0.0
230
1.0
  0
CIRCLE
  5
16D
100
AcDbEntity
  8
0
370
    35
390
0
 62
     4
100
AcDbCircle
 10
582.742493
 20
367.353271
 30
0.0
 40
1.0
210
0.0
220
0.0
230
1.0
  0
ARC
  5
16E
100
AcDbEntity
  8
0
370
    35
390
0
 62
     7
100
AcDbCircle
 10
399.921539
 20
6.042465
 30
0.0
 40
200.0
210
0.0
220
0.0
230
1.0
100
AcDbArc
 50
19.667067
 51
28.460584
  0
LINE
  5
16F
100
AcDbEntity
  8
0
370
    35
390
0
 62
     7
 48
0.1375
100
AcDbLine
 10
582.742493
 20
73.353271
 30
0.0
 11
582.742493
 21
67.853271
 31
0.0
210
0.0
220
0.0
230
1.0
  0
ARC
  5
170
100
AcDbEntity
  8
0
370
    35
390
0
 62
     7
100
AcDbCircle
 10
399.921539
 20
6.042465
 30
0.0
 40
200.0
210
0.0
220
0.0
230
1.0
100
AcDbArc
 50
8.137783
 51
18.002232
  0
LINE
  5
171
100
AcDbEntity
  8
0
370
    35
390
0
 62
     7
 48
0.191629
100
AcDbLine
 10
590.242493
 20
34.353271
 30
0.0
 11
597.907654
 21
34.353271
 31
0.0
210
0.0
220
0.0
230
1.0
  0
LINE
  5
172
100
AcDbEntity
  8
0
370
    35
390
0
 62
     7
 48
0.1375
100
AcDbLine
 10
590.242493
 20
34.353271
 30
0.0
 11
590.242493
 21
39.853271
 31
0.0
210
0.0
220
0.0
230
1.0
  0
ARC
  5
173
100
AcDbEntity
  8
0
370
    35
390
0
 62
     7
100
AcDbCircle
 10
399.921539
 20
6.042465
 30
0.0
 40
185.0
210
0.0
220
0.0
230
1.0
100
AcDbArc
 50
10.53063
 51
32.318713
  0
ARC
  5
174
100
AcDbEntity
  8
0
370
    35
390
0
 62
     7
100
AcDbCircle
 10
602.742493
 20
134.353271
 30
0.0
 40
55.0
210
0.0
220
0.0
230
1.0
100
AcDbArc
 50
180.000005
 51
212.318715
  0
LINE
  5
175
100
AcDbEntity
  8
0
370
    35
390
0
 62
     7
 48
0.075
100
AcDbLine
 10
547.742493
 20
134.353271
 30
0.0
 11
547.742493
 21
137.353271
 31
0.0
210
0.0
220
0.0
230
1.0
  0
ARC
  5
176
100
AcDbEntity
  8
0
370
    35
390
0
 62
     7
100
AcDbCircle
 10
565.742493
 20
137.353271
 30
0.0
 40
18.0
210
0.0
220
0.0
230
1.0
100
AcDbArc
 50
90.000003
 51
179.999995
  0
LINE
  5
177
100
AcDbEntity
  8
0
370
    35
390
0
 62
     7
 48
0.125
100
AcDbLine
 10
587.742493
 20
360.853271
 30
0.0
 11
592.742493
 21
360.853271
 31
0.0
210
0.0
220
0.0
230
1.0
  0
LINE
  5
178
100
AcDbEntity
  8
0
370
    35
390
0
 62
     7
 48
0.15
100
AcDbLine
 10
592.742493
 20
354.853271
 30
0.0
 11
592.742493
 21
360.853271
 31
0.0
210
0.0
220
0.0
230
1.0
  0
LINE
  5
179
100
AcDbEntity
  8
0
370
    35
390
0
 62
     7
 48
0.1375
100
AcDbLine
 10
587.742493
 20
354.853271
 30
0.0
 11
587.742493
 21
349.353271
 31
0.0
210
0.0
220
0.0
230
1.0
  0
LINE
  5
17A
100
AcDbEntity
  8
0
370
    35
390
0
 62
     7
 48
0.125
100
AcDbLine
 10
587.742493
 20
349.353271
 30
0.0
 11
592.742493
 21
349.353271
 31
0.0
210
0.0
220
0.0
230
1.0
  0
LINE
  5
17B
100
AcDbEntity
  8
0
370
    35
390
0
 62
     7
100
AcDbLine
 10
592.742493
 20
290.853271
 30
0.0
 11
592.742493
 21
349.353271
 31
0.0
210
0.0
220
0.0
230
1.0
  0
LINE
  5
17C
100
AcDbEntity
  8
0
370
    35
390
0
 62
     7
 48
0.1375
100
AcDbLine
 10
587.742493
 20
290.853271
 30
0.0
 11
587.742493
 21
285.353271
 31
0.0
210
0.0
220
0.0
230
1.0
  0
LINE
  5
17D
100
AcDbEntity
  8
0
370
    35
390
0
 62
     7
 48
0.125
100
AcDbLine
 10
592.742493
 20
285.353271
 30
0.0
 11
587.742493
 21
285.353271
 31
0.0
210
0.0
220
0.0
230
1.0
  0
LINE
  5
17E
100
AcDbEntity
  8
0
370
    35
390
0
 62
     7
100
AcDbLine
 10
592.742493
 20
224.853271
 30
0.0
 11
592.742493
 21
285.353271
 31
0.0
210
0.0
220
0.0
230
1.0
  0
LINE
  5
17F
100
AcDbEntity
  8
0
370
    35
390
0
 62
     7
 48
0.1375
100
AcDbLine
 10
587.742493
 20
224.853271
 30
0.0
 11
587.742493
 21
219.353271
 31
0.0
210
0.0
220
0.0
230
1.0
  0
LINE
  5
180
100
AcDbEntity
  8
0
370
    35
390
0
 62
     7
 48
0.125
100
AcDbLine
 10
592.742493
 20
219.353271
 30
0.0
 11
587.742493
 21
219.353271
 31
0.0
210
0.0
220
0.0
230
1.0
  0
LINE
  5
181
100
AcDbEntity
  8
0
370
    35
390
0
 62
     7
100
AcDbLine
 10
592.742493
 20
160.853271
 30
0.0
 11
592.742493
 21
219.353271
 31
0.0
210
0.0
220
0.0
230
1.0
  0
LINE
  5
182
100
AcDbEntity
  8
0
370
    35
390
0
 62
     7
 48
0.1375
100
AcDbLine
 10
587.742493
 20
160.853271
 30
0.0
 11
587.742493
 21
155.353271
 31
0.0
210
0.0
220
0.0
230
1.0
  0
LINE
  5
183
100
AcDbEntity
  8
0
370
    35
390
0
 62
     7
 48
0.125
100
AcDbLine
 10
592.742493
 20
155.353271
 30
0.0
 11
587.742493
 21
155.353271
 31
0.0
210
0.0
220
0.0
230
1.0
  0
LINE
  5
184
100
AcDbEntity
  8
0
370
    35
390
0
 62
     7
 48
0.25
100
AcDbLine
 10
592.742493
 20
145.353271
 30
0.0
 11
592.742493
 21
155.353271
 31
0.0
210
0.0
220
0.0
230
1.0
  0
ARC
  5
185
100
AcDbEntity
  8
0
370
    35
390
0
 62
     7
100
AcDbCircle
 10
587.742493
 20
145.353271
 30
0.0
 40
5.0
210
0.0
220
0.0
230
1.0
100
AcDbArc
 50
269.999997
 51
360.0
  0
LINE
  5
186
100
AcDbEntity
  8
0
370
    35
390
0
 62
     7
 48
0.375
100
AcDbLine
 10
572.742493
 20
140.353271
 30
0.0
 11
587.742493
 21
140.353271
 31
0.0
210
0.0
220
0.0
230
1.0
  0
LINE
  5
187
100
AcDbEntity
  8
0
370
    35
390
0
 62
     7
 48
0.0125
100
AcDbLine
 10
572.742493
 20
139.853271
 30
0.0
 11
572.742493
 21
140.353271
 31
0.0
210
0.0
220
0.0
230
1.0
  0
LINE
  5
188
100
AcDbEntity
  8
0
370
    35
390
0
 62
     7
 48
0.125
100
AcDbLine
 10
562.742493
 20
134.353271
 30
0.0
 11
557.742493
 21
134.353271
 31
0.0
210
0.0
220
0.0
230
1.0
  0
ARC
  5
189
100
AcDbEntity
  8
0
370
    35
390
0
 62
     7
100
AcDbCircle
 10
602.742493
 20
134.353271
 30
0.0
 40
40.0
210
0.0
220
0.0
230
1.0
100
AcDbArc
 50
180.000005
 51
212.318715
  0
ARC
  5
18A
100
AcDbEntity
  8
0
370
    35
390
0
 62
     7
100
AcDbCircle
 10
399.921539
 20
6.042465
 30
0.0
 40
200.0
210
0.0
220
0.0
230
1.0
100
AcDbArc
 50
30.268578
 51
32.318713
  0
LINE
  5
18B
100
AcDbEntity
  8
0
370
    35
390
0
 62
     7
 48
0.1375
100
AcDbLine
 10
568.242493
 20
106.853271
 30
0.0
 11
568.242493
 21
101.353271
 31
0.0
210
0.0
220
0.0
230
1.0
  0
LINE
  5
18C
100
AcDbEntity
  8
0
370
    35
390
0
 62
     7
 48
0.187703
100
AcDbLine
 10
575.75061
 20
101.353271
 30
0.0
 11
568.242493
 21
101.353271
 31
0.0
210
0.0
220
0.0
230
1.0
  0
LINE
  5
18D
100
AcDbEntity
  8
0
370
    35
390
0
 62
     7
 48
0.110336
100
AcDbLine
 10
568.242493
 20
106.853271
 30
0.0
 11
572.655945
 21
106.853271
 31
0.0
210
0.0
220
0.0
230
1.0
  0
LINE
  5
18E
100
AcDbEntity
  8
0
370
    35
390
0
 62
     7
 48
0.1375
100
AcDbLine
 10
557.742493
 20
134.353271
 30
0.0
 11
557.742493
 21
139.853271
 31
0.0
210
0.0
220
0.0
230
1.0
  0
LINE
  5
18F
100
AcDbEntity
  8
0
370
    35
390
0
 62
     7
 48
0.375
100
AcDbLine
 10
557.742493
 20
139.853271
 30
0.0
 11
572.742493
 21
139.853271
 31
0.0
210
0.0
220
0.0
230
1.0
  0
LINE
  5
190
100
AcDbEntity
  8
0
370
    35
390
0
 62
     7
 48
0.125
100
AcDbLine
 10
587.742493
 20
160.853271
 30
0.0
 11
592.742493
 21
160.853271
 31
0.0
210
0.0
220
0.0
230
1.0
  0
LINE
  5
191
100
AcDbEntity
  8
0
370
    35
390
0
 62
     7
 48
0.125
100
AcDbLine
 10
587.742493
 20
224.853271
 30
0.0
 11
592.742493
 21
224.853271
 31
0.0
210
0.0
220
0.0
230
1.0
  0
LINE
  5
192
100
AcDbEntity
  8
0
370
    35
390
0
 62
     7
 48
0.125
100
AcDbLine
 10
587.742493
 20
290.853271
 30
0.0
 11
592.742493
 21
290.853271
 31
0.0
210
0.0
220
0.0
230
1.0
  0
LINE
  5
193
100
AcDbEntity
  8
0
370
    35
390
0
 62
     7
 48
0.125
100
AcDbLine
 10
592.742493
 20
354.853271
 30
0.0
 11
587.742493
 21
354.853271
 31
0.0
210
0.0
220
0.0
230
1.0
  0
LINE
  5
194
100
AcDbEntity
  8
0
370
    35
390
0
 62
     7
 48
0.210921
100
AcDbLine
 10
581.805664
 20
39.853271
 30
0.0
 11
590.242493
 21
39.853271
 31
0.0
210
0.0
220
0.0
230
1.0
  0
LINE
  5
195
100
AcDbEntity
  8
0
370
    35
390
0
 62
     7
 48
0.184698
100
AcDbLine
 10
590.130432
 20
67.853271
 30
0.0
 11
582.742493
 21
67.853271
 31
0.0
210
0.0
220
0.0
230
1.0
  0
LINE
  5
196
100
AcDbEntity
  8
0
370
    35
390
0
 62
     7
 48
0.137798
100
AcDbLine
 10
582.742493
 20
73.353271
 30
0.0
 11
588.254395
 21
73.353271
 31
0.0
210
0.0
220
0.0
230
1.0
  0
LINE
  5
197
100
AcDbEntity
  8
0
370
    35
390
0
 62
     7
 48
0.175
100
AcDbLine
 10
565.742493
 20
155.353271
 30
0.0
 11
572.742493
 21
155.353271
 31
0.0
210
0.0
220
0.0
230
1.0
  0
ARC
  5
198
100
AcDbEntity
  8
0
370
    35
390
0
 62
     7
100
AcDbCircle
 10
572.742493
 20
160.353271
 30
0.0
 40
5.0
210
0.0
220
0.0
230
1.0
100
AcDbArc
 50
269.999997
 51
360.0
  0
LINE
  5
199
100
AcDbEntity
  8
0
370
    35
390
0
 62
     7
100
AcDbLine
 10
577.742493
 20
160.353271
 30
0.0
 11
577.742493
 21
366.353271
 31
0.0
210
0.0
220
0.0
230
1.0
  0
ARC
  5
19A
100
AcDbEntity
  8
0
370
    35
390
0
 62
     7
100
AcDbCircle
 10
582.742493
 20
366.353271
 30
0.0
 40
5.0
210
0.0
220
0.0
230
1.0
100
AcDbArc
 50
0.0
 51
180.000005
  0
LINE
  5
19B
100
AcDbEntity
  8
0
370
    35
390
0
 62
     7
 48
0.1375
100
AcDbLine
 10
587.742493
 20
366.353271
 30
0.0
 11
587.742493
 21
360.853271
 31
0.0
210
0.0
220
0.0
230
1.0
  0
CIRCLE
  5
19C
100
AcDbEntity
  8
0
370
    35
390
0
 62
     7
100
AcDbCircle
 10
415.225281
 20
109.360245
 30
0.0
 40
80.0
210
0.0
220
0.0
230
1.0
  0
ARC
  5
19D
100
AcDbEntity
  8
0
370
    35
390
0
 62
     4
100
AcDbCircle
 10
415.225281
 20
109.360245
 30
0.0
 40
60.0
210
0.0
220
0.0
230
1.0
100
AcDbArc
 50
92.626975
 51
114.740498
  0
LINE
  5
19E
100
AcDbEntity
  8
0
370
    35
390
0
 62
     4
 48
0.251576
100
AcDbLine
 10
412.475281
 20
169.297195
 30
0.0
 11
412.475281
 21
179.360245
 31
0.0
210
0.0
220
0.0
230
1.0
  0
LINE
  5
19F
100
AcDbEntity
  8
0
370
    35
390
0
 62
     4
 48
0.1375
100
AcDbLine
 10
412.475281
 20
179.360245
 30
0.0
 11
417.975281
 21
179.360245
 31
0.0
210
0.0
220
0.0
230
1.0
  0
LINE
  5
1A0
100
AcDbEntity
  8
0
370
    35
390
0
 62
     4
 48
0.251576
100
AcDbLine
 10
417.975281
 20
179.360245
 30
0.0
 11
417.975281
 21
169.297195
 31
0.0
210
0.0
220
0.0
230
1.0
  0
ARC
  5
1A1
100
AcDbEntity
  8
0
370
    35
390
0
 62
     4
100
AcDbCircle
 10
415.225281
 20
109.360245
 30
0.0
 40
60.0
210
0.0
220
0.0
230
1.0
100
AcDbArc
 50
65.259493
 51
87.373023
  0
LINE
  5
1A2
100
AcDbEntity
  8
0
370
    35
390
0
 62
     4
 48
0.056315
100
AcDbLine
 10
441.462128
 20
165.803818
 30
0.0
 11
440.335846
 21
163.852997
 31
0.0
210
0.0
220
0.0
230
1.0
  0
LINE
  5
1A3
100
AcDbEntity
  8
0
370
    35
390
0
 62
     4
 48
0.09375
100
AcDbLine
 10
441.462128
 20
165.803818
 30
0.0
 11
438.214539
 21
167.678818
 31
0.0
210
0.0
220
0.0
230
1.0
  0
LINE
  5
1A4
100
AcDbEntity
  8
0
370
    35
390
0
 62
     4
 48
0.05
100
AcDbLine
 10
438.214539
 20
167.678818
 30
0.0
 11
439.214539
 21
169.410873
 31
0.0
210
0.0
220
0.0
230
1.0
  0
LINE
  5
1A5
100
AcDbEntity
  8
0
370
    35
390
0
 62
     4
 48
0.06875
100
AcDbLine
 10
439.214539
 20
169.410873
 30
0.0
 11
441.59613
 21
168.035873
 31
0.0
210
0.0
220
0.0
230
1.0
  0
LINE
  5
1A6
100
AcDbEntity
  8
0
370
    35
390
0
 62
     4
 48
0.23125
100
AcDbLine
 10
441.59613
 20
168.035873
 30
0.0
 11
446.22113
 21
176.0466
 31
0.0
210
0.0
220
0.0
230
1.0
  0
LINE
  5
1A7
100
AcDbEntity
  8
0
370
    35
390
0
 62
     4
 48
0.324999
100
AcDbLine
 10
457.479431
 20
169.5466
 30
0.0
 11
446.22113
 21
176.0466
 31
0.0
210
0.0
220
0.0
230
1.0
  0
LINE
  5
1A8
100
AcDbEntity
  8
0
370
    35
390
0
 62
     4
 48
0.23125
100
AcDbLine
 10
452.854431
 20
161.535873
 30
0.0
 11
457.479431
 21
169.5466
 31
0.0
210
0.0
220
0.0
230
1.0
  0
LINE
  5
1A9
100
AcDbEntity
  8
0
370
    35
390
0
 62
     4
 48
0.06875
100
AcDbLine
 10
455.236023
 20
160.160873
 30
0.0
 11
452.854431
 21
161.535873
 31
0.0
210
0.0
220
0.0
230
1.0
  0
LINE
  5
1AA
100
AcDbEntity
  8
0
370
    35
390
0
 62
     4
 48
0.05
100
AcDbLine
 10
454.236023
 20
158.428818
 30
0.0
 11
455.236023
 21
160.160873
 31
0.0
210
0.0
220
0.0
230
1.0
  0
LINE
  5
1AB
100
AcDbEntity
  8
0
370
    35
390
0
 62
     4
 48
0.093751
100
AcDbLine
 10
450.988403
 20
160.303818
 30
0.0
 11
454.236023
 21
158.428818
 31
0.0
210
0.0
220
0.0
230
1.0
  0
LINE
  5
1AC
100
AcDbEntity
  8
0
370
    35
390
0
 62
     4
 48
0.056315
100
AcDbLine
 10
450.988403
 20
160.303818
 30
0.0
 11
449.862122
 21
158.352997
 31
0.0
210
0.0
220
0.0
230
1.0
  0
ARC
  5
1AD
100
AcDbEntity
  8
0
370
    35
390
0
 62
     4
100
AcDbCircle
 10
415.225281
 20
109.360245
 30
0.0
 40
60.0
210
0.0
220
0.0
230
1.0
100
AcDbArc
 50
32.626977
 51
54.740503
  0
LINE
  5
1AE
100
AcDbEntity
  8
0
370
    35
390
0
 62
     4
 48
0.251576
100
AcDbLine
 10
465.757202
 20
141.710297
 30
0.0
 11
474.472046
 21
146.741821
 31
0.0
210
0.0
220
0.0
230
1.0
  0
LINE
  5
1AF
100
AcDbEntity
  8
0
370
    35
390
0
 62
     4
 48
0.1375
100
AcDbLine
 10
474.472046
 20
146.741821
 30
0.0
 11
477.222046
 21
141.978668
 31
0.0
210
0.0
220
0.0
230
1.0
  0
LINE
  5
1B0
100
AcDbEntity
  8
0
370
    35
390
0
 62
     4
 48
0.251576
100
AcDbLine
 10
477.222046
 20
141.978668
 30
0.0
 11
468.507202
 21
136.947144
 31
0.0
210
0.0
220
0.0
230
1.0
  0
ARC
  5
1B1
100
AcDbEntity
  8
0
370
    35
390
0
 62
     4
100
AcDbCircle
 10
415.225281
 20
109.360245
 30
0.0
 40
60.0
210
0.0
220
0.0
230
1.0
100
AcDbArc
 50
5.259497
 51
27.373023
  0
LINE
  5
1B2
100
AcDbEntity
  8
0
370
    35
390
0
 62
     4
 48
0.056316
100
AcDbLine
 10
477.225281
 20
114.860245
 30
0.0
 11
474.972656
 21
114.860245
 31
0.0
210
0.0
220
0.0
230
1.0
  0
LINE
  5
1B3
100
AcDbEntity
  8
0
370
    35
390
0
 62
     4
 48
0.09375
100
AcDbLine
 10
477.225281
 20
114.860245
 30
0.0
 11
477.225281
 21
118.610245
 31
0.0
210
0.0
220
0.0
230
1.0
  0
LINE
  5
1B4
100
AcDbEntity
  8
0
370
    35
390
0
 62
     4
 48
0.05
100
AcDbLine
 10
477.225281
 20
118.610245
 30
0.0
 11
479.225281
 21
118.610245
 31
0.0
210
0.0
220
0.0
230
1.0
  0
LINE
  5
1B5
100
AcDbEntity
  8
0
370
    35
390
0
 62
     4
 48
0.06875
100
AcDbLine
 10
479.225281
 20
118.610245
 30
0.0
 11
479.225281
 21
115.860245
 31
0.0
210
0.0
220
0.0
230
1.0
  0
LINE
  5
1B6
100
AcDbEntity
  8
0
370
    35
390
0
 62
     4
 48
0.23125
100
AcDbLine
 10
479.225281
 20
115.860245
 30
0.0
 11
488.475281
 21
115.860245
 31
0.0
210
0.0
220
0.0
230
1.0
  0
LINE
  5
1B7
100
AcDbEntity
  8
0
370
    35
390
0
 62
     4
 48
0.325
100
AcDbLine
 10
488.475281
 20
102.860245
 30
0.0
 11
488.475281
 21
115.860245
 31
0.0
210
0.0
220
0.0
230
1.0
  0
LINE
  5
1B8
100
AcDbEntity
  8
0
370
    35
390
0
 62
     4
 48
0.23125
100
AcDbLine
 10
479.225281
 20
102.860245
 30
0.0
 11
488.475281
 21
102.860245
 31
0.0
210
0.0
220
0.0
230
1.0
  0
LINE
  5
1B9
100
AcDbEntity
  8
0
370
    35
390
0
 62
     4
 48
0.06875
100
AcDbLine
 10
479.225281
 20
100.110245
 30
0.0
 11
479.225281
 21
102.860245
 31
0.0
210
0.0
220
0.0
230
1.0
  0
LINE
  5
1BA
100
AcDbEntity
  8
0
370
    35
390
0
 62
     4
 48
0.05
100
AcDbLine
 10
477.225281
 20
100.110245
 30
0.0
 11
479.225281
 21
100.110245
 31
0.0
210
0.0
220
0.0
230
1.0
  0
LINE
  5
1BB
100
AcDbEntity
  8
0
370
    35
390
0
 62
     4
 48
0.09375
100
AcDbLine
 10
477.225281
 20
103.860245
 30
0.0
 11
477.225281
 21
100.110245
 31
0.0
210
0.0
220
0.0
230
1.0
  0
LINE
  5
1BC
100
AcDbEntity
  8
0
370
    35
390
0
 62
     4
 48
0.056316
100
AcDbLine
 10
477.225281
 20
103.860245
 30
0.0
 11
474.972656
 21
103.860245
 31
0.0
210
0.0
220
0.0
230
1.0
  0
ARC
  5
1BD
100
AcDbEntity
  8
0
370
    35
390
0
 62
     4
100
AcDbCircle
 10
415.225281
 20
109.360245
 30
0.0
 40
60.0
210
0.0
220
0.0
230
1.0
100
AcDbArc
 50
332.626977
 51
354.740503
  0
LINE
  5
1BE
100
AcDbEntity
  8
0
370
    35
390
0
 62
     4
 48
0.251576
100
AcDbLine
 10
468.507202
 20
81.773346
 30
0.0
 11
477.222046
 21
76.741814
 31
0.0
210
0.0
220
0.0
230
1.0
  0
LINE
  5
1BF
100
AcDbEntity
  8
0
370
    35
390
0
 62
     4
 48
0.1375
100
AcDbLine
 10
477.222046
 20
76.741814
 30
0.0
 11
474.472046
 21
71.978676
 31
0.0
210
0.0
220
0.0
230
1.0
  0
LINE
  5
1C0
100
AcDbEntity
  8
0
370
    35
390
0
 62
     4
 48
0.251576
100
AcDbLine
 10
474.472046
 20
71.978676
 30
0.0
 11
465.757202
 21
77.010201
 31
0.0
210
0.0
220
0.0
230
1.0
  0
ARC
  5
1C1
100
AcDbEntity
  8
0
370
    35
390
0
 62
     4
100
AcDbCircle
 10
415.225281
 20
109.360245
 30
0.0
 40
60.0
210
0.0
220
0.0
230
1.0
100
AcDbArc
 50
305.259497
 51
327.373023
  0
LINE
  5
1C2
100
AcDbEntity
  8
0
370
    35
390
0
 62
     4
 48
0.056315
100
AcDbLine
 10
450.988403
 20
58.416668
 30
0.0
 11
449.862122
 21
60.367493
 31
0.0
210
0.0
220
0.0
230
1.0
  0
LINE
  5
1C3
100
AcDbEntity
  8
0
370
    35
390
0
 62
     4
 48
0.093751
100
AcDbLine
 10
450.988403
 20
58.416668
 30
0.0
 11
454.236023
 21
60.291668
 31
0.0
210
0.0
220
0.0
230
1.0
  0
LINE
  5
1C4
100
AcDbEntity
  8
0
370
    35
390
0
 62
     4
 48
0.05
100
AcDbLine
 10
454.236023
 20
60.291668
 30
0.0
 11
455.236023
 21
58.55962
 31
0.0
210
0.0
220
0.0
230
1.0
  0
LINE
  5
1C5
100
AcDbEntity
  8
0
370
    35
390
0
 62
     4
 48
0.06875
100
AcDbLine
 10
455.236023
 20
58.55962
 30
0.0
 11
452.854431
 21
57.18462
 31
0.0
210
0.0
220
0.0
230
1.0
  0
LINE
  5
1C6
100
AcDbEntity
  8
0
370
    35
390
0
 62
     4
 48
0.23125
100
AcDbLine
 10
452.854431
 20
57.18462
 30
0.0
 11
457.479431
 21
49.173885
 31
0.0
210
0.0
220
0.0
230
1.0
  0
LINE
  5
1C7
100
AcDbEntity
  8
0
370
    35
390
0
 62
     4
 48
0.324999
100
AcDbLine
 10
446.22113
 20
42.673882
 30
0.0
 11
457.479431
 21
49.173885
 31
0.0
210
0.0
220
0.0
230
1.0
  0
LINE
  5
1C8
100
AcDbEntity
  8
0
370
    35
390
0
 62
     4
 48
0.23125
100
AcDbLine
 10
441.59613
 20
50.68462
 30
0.0
 11
446.22113
 21
42.673882
 31
0.0
210
0.0
220
0.0
230
1.0
  0
LINE
  5
1C9
100
AcDbEntity
  8
0
370
    35
390
0
 62
     4
 48
0.06875
100
AcDbLine
 10
439.214539
 20
49.30962
 30
0.0
 11
441.59613
 21
50.68462
 31
0.0
210
0.0
220
0.0
230
1.0
  0
LINE
  5
1CA
100
AcDbEntity
  8
0
370
    35
390
0
 62
     4
 48
0.05
100
AcDbLine
 10
438.214539
 20
51.041668
 30
0.0
 11
439.214539
 21
49.30962
 31
0.0
210
0.0
220
0.0
230
1.0
  0
LINE
  5
1CB
100
AcDbEntity
  8
0
370
    35
390
0
 62
     4
 48
0.09375
100
AcDbLine
 10
441.462128
 20
52.916668
 30
0.0
 11
438.214539
 21
51.041668
 31
0.0
210
0.0
220
0.0
230
1.0
  0
LINE
  5
1CC
100
AcDbEntity
  8
0
370
    35
390
0
 62
     4
 48
0.056315
100
AcDbLine
 10
441.462128
 20
52.916668
 30
0.0
 11
440.335846
 21
54.867493
 31
0.0
210
0.0
220
0.0
230
1.0
  0
ARC
  5
1CD
100
AcDbEntity
  8
0
370
    35
390
0
 62
     4
100
AcDbCircle
 10
415.225281
 20
109.360245
 30
0.0
 40
60.0
210
0.0
220
0.0
230
1.0
100
AcDbArc
 50
272.626977
 51
294.740507
  0
LINE
  5
1CE
100
AcDbEntity
  8
0
370
    35
390
0
 62
     4
 48
0.251576
100
AcDbLine
 10
417.975281
 20
49.423298
 30
0.0
 11
417.975281
 21
39.360245
 31
0.0
210
0.0
220
0.0
230
1.0
  0
LINE
  5
1CF
100
AcDbEntity
  8
0
370
    35
390
0
 62
     4
 48
0.1375
100
AcDbLine
 10
417.975281
 20
39.360245
 30
0.0
 11
412.475281
 21
39.360245
 31
0.0
210
0.0
220
0.0
230
1.0
  0
LINE
  5
1D0
100
AcDbEntity
  8
0
370
    35
390
0
 62
     4
 48
0.251576
100
AcDbLine
 10
412.475281
 20
39.360245
 30
0.0
 11
412.475281
 21
49.423298
 31
0.0
210
0.0
220
0.0
230
1.0
  0
ARC
  5
1D1
100
AcDbEntity
  8
0
370
    35
390
0
 62
     4
100
AcDbCircle
 10
415.225281
 20
109.360245
 30
0.0
 40
60.0
210
0.0
220
0.0
230
1.0
100
AcDbArc
 50
245.259502
 51
267.373025
  0
LINE
  5
1D2
100
AcDbEntity
  8
0
370
    35
390
0
 62
     4
 48
0.056315
100
AcDbLine
 10
388.988434
 20
52.916668
 30
0.0
 11
390.114716
 21
54.867493
 31
0.0
210
0.0
220
0.0
230
1.0
  0
LINE
  5
1D3
100
AcDbEntity
  8
0
370
    35
390
0
 62
     4
 48
0.09375
100
AcDbLine
 10
388.988434
 20
52.916668
 30
0.0
 11
392.236023
 21
51.041668
 31
0.0
210
0.0
220
0.0
230
1.0
  0
LINE
  5
1D4
100
AcDbEntity
  8
0
370
    35
390
0
 62
     4
 48
0.05
100
AcDbLine
 10
392.236023
 20
51.041668
 30
0.0
 11
391.236023
 21
49.30962
 31
0.0
210
0.0
220
0.0
230
1.0
  0
LINE
  5
1D5
100
AcDbEntity
  8
0
370
    35
390
0
 62
     4
 48
0.06875
100
AcDbLine
 10
391.236023
 20
49.30962
 30
0.0
 11
388.854431
 21
50.68462
 31
0.0
210
0.0
220
0.0
230
1.0
  0
LINE
  5
1D6
100
AcDbEntity
  8
0
370
    35
390
0
 62
     4
 48
0.23125
100
AcDbLine
 10
388.854431
 20
50.68462
 30
0.0
 11
384.229431
 21
42.673882
 31
0.0
210
0.0
220
0.0
230
1.0
  0
LINE
  5
1D7
100
AcDbEntity
  8
0
370
    35
390
0
 62
     4
 48
0.324999
100
AcDbLine
 10
372.97113
 20
49.173885
 30
0.0
 11
384.229431
 21
42.673882
 31
0.0
210
0.0
220
0.0
230
1.0
  0
LINE
  5
1D8
100
AcDbEntity
  8
0
370
    35
390
0
 62
     4
 48
0.23125
100
AcDbLine
 10
377.59613
 20
57.18462
 30
0.0
 11
372.97113
 21
49.173885
 31
0.0
210
0.0
220
0.0
230
1.0
  0
LINE
  5
1D9
100
AcDbEntity
  8
0
370
    35
390
0
 62
     4
 48
0.06875
100
AcDbLine
 10
375.214539
 20
58.55962
 30
0.0
 11
377.59613
 21
57.18462
 31
0.0
210
0.0
220
0.0
230
1.0
  0
LINE
  5
1DA
100
AcDbEntity
  8
0
370
    35
390
0
 62
     4
 48
0.05
100
AcDbLine
 10
376.214539
 20
60.291668
 30
0.0
 11
375.214539
 21
58.55962
 31
0.0
210
0.0
220
0.0
230
1.0
  0
LINE
  5
1DB
100
AcDbEntity
  8
0
370
    35
390
0
 62
     4
 48
0.093751
100
AcDbLine
 10
379.462158
 20
58.416668
 30
0.0
 11
376.214539
 21
60.291668
 31
0.0
210
0.0
220
0.0
230
1.0
  0
LINE
  5
1DC
100
AcDbEntity
  8
0
370
    35
390
0
 62
     4
 48
0.056315
100
AcDbLine
 10
379.462158
 20
58.416668
 30
0.0
 11
380.58844
 21
60.367493
 31
0.0
210
0.0
220
0.0
230
1.0
  0
ARC
  5
1DD
100
AcDbEntity
  8
0
370
    35
390
0
 62
     4
100
AcDbCircle
 10
415.225281
 20
109.360245
 30
0.0
 40
60.0
210
0.0
220
0.0
230
1.0
100
AcDbArc
 50
212.626975
 51
234.740505
  0
LINE
  5
1DE
100
AcDbEntity
  8
0
370
    35
390
0
 62
     4
 48
0.251576
100
AcDbLine
 10
364.693359
 20
77.010201
 30
0.0
 11
355.978516
 21
71.978676
 31
0.0
210
0.0
220
0.0
230
1.0
  0
LINE
  5
1DF
100
AcDbEntity
  8
0
370
    35
390
0
 62
     4
 48
0.1375
100
AcDbLine
 10
355.978516
 20
71.978676
 30
0.0
 11
353.228516
 21
76.741814
 31
0.0
210
0.0
220
0.0
230
1.0
  0
LINE
  5
1E0
100
AcDbEntity
  8
0
370
    35
390
0
 62
     4
 48
0.251576
100
AcDbLine
 10
353.228516
 20
76.741814
 30
0.0
 11
361.943359
 21
81.773346
 31
0.0
210
0.0
220
0.0
230
1.0
  0
ARC
  5
1E1
100
AcDbEntity
  8
0
370
    35
390
0
 62
     4
100
AcDbCircle
 10
415.225281
 20
109.360245
 30
0.0
 40
60.0
210
0.0
220
0.0
230
1.0
100
AcDbArc
 50
185.2595
 51
207.373016
  0
LINE
  5
1E2
100
AcDbEntity
  8
0
370
    35
390
0
 62
     4
 48
0.056316
100
AcDbLine
 10
353.225281
 20
103.860245
 30
0.0
 11
355.477905
 21
103.860245
 31
0.0
210
0.0
220
0.0
230
1.0
  0
LINE
  5
1E3
100
AcDbEntity
  8
0
370
    35
390
0
 62
     4
 48
0.09375
100
AcDbLine
 10
353.225281
 20
103.860245
 30
0.0
 11
353.225281
 21
100.110245
 31
0.0
210
0.0
220
0.0
230
1.0
  0
LINE
  5
1E4
100
AcDbEntity
  8
0
370
    35
390
0
 62
     4
 48
0.05
100
AcDbLine
 10
353.225281
 20
100.110245
 30
0.0
 11
351.225281
 21
100.110245
 31
0.0
210
0.0
220
0.0
230
1.0
  0
LINE
  5
1E5
100
AcDbEntity
  8
0
370
    35
390
0
 62
     4
 48
0.06875
100
AcDbLine
 10
351.225281
 20
100.110245
 30
0.0
 11
351.225281
 21
102.860245
 31
0.0
210
0.0
220
0.0
230
1.0
  0
LINE
  5
1E6
100
AcDbEntity
  8
0
370
    35
390
0
 62
     4
 48
0.23125
100
AcDbLine
 10
351.225281
 20
102.860245
 30
0.0
 11
341.975281
 21
102.860245
 31
0.0
210
0.0
220
0.0
230
1.0
  0
LINE
  5
1E7
100
AcDbEntity
  8
0
370
    35
390
0
 62
     4
 48
0.325
100
AcDbLine
 10
341.975281
 20
115.860245
 30
0.0
 11
341.975281
 21
102.860245
 31
0.0
210
0.0
220
0.0
230
1.0
  0
LINE
  5
1E8
100
AcDbEntity
  8
0
370
    35
390
0
 62
     4
 48
0.23125
100
AcDbLine
 10
351.225281
 20
115.860245
 30
0.0
 11
341.975281
 21
115.860245
 31
0.0
210
0.0
220
0.0
230
1.0
  0
LINE
  5
1E9
100
AcDbEntity
  8
0
370
    35
390
0
 62
     4
 48
0.06875
100
AcDbLine
 10
351.225281
 20
118.610245
 30
0.0
 11
351.225281
 21
115.860245
 31
0.0
210
0.0
220
0.0
230
1.0
  0
LINE
  5
1EA
100
AcDbEntity
  8
0
370
    35
390
0
 62
     4
 48
0.05
100
AcDbLine
 10
353.225281
 20
118.610245
 30
0.0
 11
351.225281
 21
118.610245
 31
0.0
210
0.0
220
0.0
230
1.0
  0
LINE
  5
1EB
100
AcDbEntity
  8
0
370
    35
390
0
 62
     4
 48
0.09375
100
AcDbLine
 10
353.225281
 20
114.860245
 30
0.0
 11
353.225281
 21
118.610245
 31
0.0
210
0.0
220
0.0
230
1.0
  0
LINE
  5
1EC
100
AcDbEntity
  8
0
370
    35
390
0
 62
     4
 48
0.056316
100
AcDbLine
 10
353.225281
 20
114.860245
 30
0.0
 11
355.477905
 21
114.860245
 31
0.0
210
0.0
220
0.0
230
1.0
  0
ARC
  5
1ED
100
AcDbEntity
  8
0
370
    35
390
0
 62
     4
100
AcDbCircle
 10
415.225281
 20
109.360245
 30
0.0
 40
60.0
210
0.0
220
0.0
230
1.0
100
AcDbArc
 50
152.626984
 51
174.7405
  0
LINE
  5
1EE
100
AcDbEntity
  8
0
370
    35
390
0
 62
     4
 48
0.251576
100
AcDbLine
 10
361.943359
 20
136.947144
 30
0.0
 11
353.228516
 21
141.978668
 31
0.0
210
0.0
220
0.0
230
1.0
  0
LINE
  5
1EF
100
AcDbEntity
  8
0
370
    35
390
0
 62
     4
 48
0.1375
100
AcDbLine
 10
353.228516
 20
141.978668
 30
0.0
 11
355.978516
 21
146.741821
 31
0.0
210
0.0
220
0.0
230
1.0
  0
LINE
  5
1F0
100
AcDbEntity
  8
0
370
    35
390
0
 62
     4
 48
0.251576
100
AcDbLine
 10
355.978516
 20
146.741821
 30
0.0
 11
364.693359
 21
141.710297
 31
0.0
210
0.0
220
0.0
230
1.0
  0
ARC
  5
1F1
100
AcDbEntity
  8
0
370
    35
390
0
 62
     4
100
AcDbCircle
 10
415.225281
 20
109.360245
 30
0.0
 40
60.0
210
0.0
220
0.0
230
1.0
100
AcDbArc
 50
125.259495
 51
147.373025
  0
LINE
  5
1F2
100
AcDbEntity
  8
0
370
    35
390
0
 62
     4
 48
0.056315
100
AcDbLine
 10
379.462158
 20
160.303818
 30
0.0
 11
380.58844
 21
158.352997
 31
0.0
210
0.0
220
0.0
230
1.0
  0
LINE
  5
1F3
100
AcDbEntity
  8
0
370
    35
390
0
 62
     4
 48
0.093751
100
AcDbLine
 10
379.462158
 20
160.303818
 30
0.0
 11
376.214539
 21
158.428818
 31
0.0
210
0.0
220
0.0
230
1.0
  0
LINE
  5
1F4
100
AcDbEntity
  8
0
370
    35
390
0
 62
     4
 48
0.05
100
AcDbLine
 10
376.214539
 20
158.428818
 30
0.0
 11
375.214539
 21
160.160873
 31
0.0
210
0.0
220
0.0
230
1.0
  0
LINE
  5
1F5
100
AcDbEntity
  8
0
370
    35
390
0
 62
     4
 48
0.06875
100
AcDbLine
 10
375.214539
 20
160.160873
 30
0.0
 11
377.59613
 21
161.535873
 31
0.0
210
0.0
220
0.0
230
1.0
  0
LINE
  5
1F6
100
AcDbEntity
  8
0
370
    35
390
0
 62
     4
 48
0.23125
100
AcDbLine
 10
377.59613
 20
161.535873
 30
0.0
 11
372.97113
 21
169.5466
 31
0.0
210
0.0
220
0.0
230
1.0
  0
LINE
  5
1F7
100
AcDbEntity
  8
0
370
    35
390
0
 62
     4
 48
0.324999
100
AcDbLine
 10
384.229431
 20
176.0466
 30
0.0
 11
372.97113
 21
169.5466
 31
0.0
210
0.0
220
0.0
230
1.0
  0
LINE
  5
1F8
100
AcDbEntity
  8
0
370
    35
390
0
 62
     4
 48
0.23125
100
AcDbLine
 10
388.854431
 20
168.035873
 30
0.0
 11
384.229431
 21
176.0466
 31
0.0
210
0.0
220
0.0
230
1.0
  0
LINE
  5
1F9
100
AcDbEntity
  8
0
370
    35
390
0
 62
     4
 48
0.06875
100
AcDbLine
 10
391.236023
 20
169.410873
 30
0.0
 11
388.854431
 21
168.035873
 31
0.0
210
0.0
220
0.0
230
1.0
  0
LINE
  5
1FA
100
AcDbEntity
  8
0
370
    35
390
0
 62
     4
 48
0.05
100
AcDbLine
 10
392.236023
 20
167.678818
 30
0.0
 11
391.236023
 21
169.410873
 31
0.0
210
0.0
220
0.0
230
1.0
  0
LINE
  5
1FB
100
AcDbEntity
  8
0
370
    35
390
0
 62
     4
 48
0.09375
100
AcDbLine
 10
388.988434
 20
165.803818
 30
0.0
 11
392.236023
 21
167.678818
 31
0.0
210
0.0
220
0.0
230
1.0
  0
LINE
  5
1FC
100
AcDbEntity
  8
0
370
    35
390
0
 62
     4
 48
0.056315
100
AcDbLine
 10
388.988434
 20
165.803818
 30
0.0
 11
390.114716
 21
163.852997
 31
0.0
210
0.0
220
0.0
230
1.0
  0
LINE
  5
1FD
100
AcDbEntity
  8
0
370
    35
390
0
 62
     7
 48
0.1375
100
AcDbLine
 10
181.444458
 20
41.267635
 30
0.0
 11
181.444458
 21
35.767635
 31
0.0
210
0.0
220
0.0
230
1.0
  0
LINE
  5
1FE
100
AcDbEntity
  8
0
370
    35
390
0
 62
     7
 48
0.1875
100
AcDbLine
 10
181.444458
 20
35.767635
 30
0.0
 11
188.944458
 21
35.767635
 31
0.0
210
0.0
220
0.0
230
1.0
  0
LINE
  5
1FF
100
AcDbEntity
  8
0
370
    35
390
0
 62
     7
 48
0.275
100
AcDbLine
 10
188.944458
 20
35.767635
 30
0.0
 11
188.944458
 21
46.767635
 31
0.0
210
0.0
220
0.0
230
1.0
  0
LINE
  5
200
100
AcDbEntity
  8
0
370
    35
390
0
 62
     7
 48
0.447388
100
AcDbLine
 10
188.944458
 20
46.767635
 30
0.0
 11
175.619766
 21
58.713455
 31
0.0
210
0.0
220
0.0
230
1.0
  0
ARC
  5
201
100
AcDbEntity
  8
0
370
    35
390
0
 62
     7
100
AcDbCircle
 10
168.944458
 20
51.267635
 30
0.0
 40
10.0
210
0.0
220
0.0
230
1.0
100
AcDbArc
 50
48.123215
 51
131.876787
  0
LINE
  5
202
100
AcDbEntity
  8
0
370
    35
390
0
 62
     7
 48
0.447388
100
AcDbLine
 10
148.944458
 20
46.767635
 30
0.0
 11
162.26915
 21
58.713455
 31
0.0
210
0.0
220
0.0
230
1.0
  0
LINE
  5
203
100
AcDbEntity
  8
0
370
    35
390
0
 62
     7
 48
0.275
100
AcDbLine
 10
148.944458
 20
35.767635
 30
0.0
 11
148.944458
 21
46.767635
 31
0.0
210
0.0
220
0.0
230
1.0
  0
LINE
  5
204
100
AcDbEntity
  8
0
370
    35
390
0
 62
     7
 48
0.1875
100
AcDbLine
 10
156.444458
 20
35.767635
 30
0.0
 11
148.944458
 21
35.767635
 31
0.0
210
0.0
220
0.0
230
1.0
  0
LINE
  5
205
100
AcDbEntity
  8
0
370
    35
390
0
 62
     7
 48
0.1375
100
AcDbLine
 10
156.444458
 20
41.267635
 30
0.0
 11
156.444458
 21
35.767635
 31
0.0
210
0.0
220
0.0
230
1.0
  0
LINE
  5
206
100
AcDbEntity
  8
0
370
    35
390
0
 62
     7
100
AcDbLine
 10
156.444458
 20
41.267635
 30
0.0
 11
181.444458
 21
41.267635
 31
0.0
210
0.0
220
0.0
230
1.0
  0
LINE
  5
207
100
AcDbEntity
  8
0
370
    35
390
0
 62
     4
 48
0.096706
100
AcDbLine
 10
172.812698
 20
51.267635
 30
0.0
 11
170.878586
 21
54.617638
 31
0.0
210
0.0
220
0.0
230
1.0
  0
LINE
  5
208
100
AcDbEntity
  8
0
370
    35
390
0
 62
     4
 48
0.096706
100
AcDbLine
 10
170.878586
 20
47.917637
 30
0.0
 11
172.812698
 21
51.267635
 31
0.0
210
0.0
220
0.0
230
1.0
  0
LINE
  5
209
100
AcDbEntity
  8
0
370
    35
390
0
 62
     4
 48
0.096706
100
AcDbLine
 10
167.01033
 20
47.917637
 30
0.0
 11
170.878586
 21
47.917637
 31
0.0
210
0.0
220
0.0
230
1.0
  0
LINE
  5
20A
100
AcDbEntity
  8
0
370
    35
390
0
 62
     4
 48
0.096706
100
AcDbLine
 10
165.076218
 20
51.267635
 30
0.0
 11
167.01033
 21
47.917637
 31
0.0
210
0.0
220
0.0
230
1.0
  0
LINE
  5
20B
100
AcDbEntity
  8
0
370
    35
390
0
 62
     4
 48
0.096706
100
AcDbLine
 10
167.01033
 20
54.617638
 30
0.0
 11
165.076218
 21
51.267635
 31
0.0
210
0.0
220
0.0
230
1.0
  0
LINE
  5
20C
100
AcDbEntity
  8
0
370
    35
390
0
 62
     4
 48
0.096706
100
AcDbLine
 10
170.878586
 20
54.617638
 30
0.0
 11
167.01033
 21
54.617638
 31
0.0
210
0.0
220
0.0
230
1.0
  0
LINE
  5
20D
100
AcDbEntity
  8
0
370
    35
390
0
 62
     7
 48
0.1375
100
AcDbLine
 10
81.423286
 20
117.378578
 30
0.0
 11
81.423286
 21
122.878578
 31
0.0
210
0.0
220
0.0
230
1.0
  0
LINE
  5
20E
100
AcDbEntity
  8
0
370
    35
390
0
 62
     7
 48
0.0625
100
AcDbLine
 10
81.423286
 20
122.878578
 30
0.0
 11
83.923286
 21
122.878578
 31
0.0
210
0.0
220
0.0
230
1.0
  0
LINE
  5
20F
100
AcDbEntity
  8
0
370
    35
390
0
 62
     7
 48
0.25
100
AcDbLine
 10
83.923286
 20
122.878578
 30
0.0
 11
83.923286
 21
132.878571
 31
0.0
210
0.0
220
0.0
230
1.0
  0
ARC
  5
210
100
AcDbEntity
  8
0
370
    35
390
0
 62
     7
100
AcDbCircle
 10
73.923286
 20
132.878571
 30
0.0
 40
10.0
210
0.0
220
0.0
230
1.0
100
AcDbArc
 50
0.0
 51
179.999995
  0
LINE
  5
211
100
AcDbEntity
  8
0
370
    35
390
0
 62
     7
 48
0.25
100
AcDbLine
 10
63.923286
 20
122.878578
 30
0.0
 11
63.923286
 21
132.878571
 31
0.0
210
0.0
220
0.0
230
1.0
  0
LINE
  5
212
100
AcDbEntity
  8
0
370
    35
390
0
 62
     7
 48
0.0625
100
AcDbLine
 10
66.423286
 20
122.878578
 30
0.0
 11
63.923286
 21
122.878578
 31
0.0
210
0.0
220
0.0
230
1.0
  0
LINE
  5
213
100
AcDbEntity
  8
0
370
    35
390
0
 62
     7
 48
0.1375
100
AcDbLine
 10
66.423286
 20
117.378578
 30
0.0
 11
66.423286
 21
122.878578
 31
0.0
210
0.0
220
0.0
230
1.0
  0
LINE
  5
214
100
AcDbEntity
  8
0
370
    35
390
0
 62
     7
 48
0.0625
100
AcDbLine
 10
66.423286
 20
117.378578
 30
0.0
 11
63.923286
 21
117.378578
 31
0.0
210
0.0
220
0.0
230
1.0
  0
LINE
  5
215
100
AcDbEntity
  8
0
370
    35
390
0
 62
     7
 48
0.075
100
AcDbLine
 10
63.923286
 20
117.378578
 30
0.0
 11
63.923286
 21
114.378578
 31
0.0
210
0.0
220
0.0
230
1.0
  0
ARC
  5
216
100
AcDbEntity
  8
0
370
    35
390
0
 62
     7
100
AcDbCircle
 10
73.923286
 20
138.378571
 30
0.0
 40
26.0
210
0.0
220
0.0
230
1.0
100
AcDbArc
 50
247.380132
 51
292.619863
  0
LINE
  5
217
100
AcDbEntity
  8
0
370
    35
390
0
 62
     7
 48
0.075
100
AcDbLine
 10
83.923286
 20
117.378578
 30
0.0
 11
83.923286
 21
114.378578
 31
0.0
210
0.0
220
0.0
230
1.0
  0
LINE
  5
218
100
AcDbEntity
  8
0
370
    35
390
0
 62
     7
 48
0.0625
100
AcDbLine
 10
81.423286
 20
117.378578
 30
0.0
 11
83.923286
 21
117.378578
 31
0.0
210
0.0
220
0.0
230
1.0
  0
CIRCLE
  5
219
100
AcDbEntity
  8
0
370
    35
390
0
 62
     4
100
AcDbCircle
 10
73.923286
 20
132.878571
 30
0.0
 40
2.25
210
0.0
220
0.0
230
1.0
  0
LINE
  5
21A
100
AcDbEntity
  8
0
370
    35
390
0
 62
     7
 48
0.1375
100
AcDbLine
 10
81.283585
 20
82.356476
 30
0.0
 11
81.283585
 21
87.856476
 31
0.0
210
0.0
220
0.0
230
1.0
  0
LINE
  5
21B
100
AcDbEntity
  8
0
370
    35
390
0
 62
     7
 48
0.0625
100
AcDbLine
 10
81.283585
 20
87.856476
 30
0.0
 11
83.783585
 21
87.856476
 31
0.0
210
0.0
220
0.0
230
1.0
  0
LINE
  5
21C
100
AcDbEntity
  8
0
370
    35
390
0
 62
     7
 48
0.25
100
AcDbLine
 10
83.783585
 20
87.856476
 30
0.0
 11
83.783585
 21
97.856476
 31
0.0
210
0.0
220
0.0
230
1.0
  0
ARC
  5
21D
100
AcDbEntity
  8
0
370
    35
390
0
 62
     7
100
AcDbCircle
 10
73.783585
 20
97.856476
 30
0.0
 40
10.0
210
0.0
220
0.0
230
1.0
100
AcDbArc
 50
0.0
 51
179.999995
  0
LINE
  5
21E
100
AcDbEntity
  8
0
370
    35
390
0
 62
     7
 48
0.25
100
AcDbLine
 10
63.783585
 20
87.856476
 30
0.0
 11
63.783585
 21
97.856476
 31
0.0
210
0.0
220
0.0
230
1.0
  0
LINE
  5
21F
100
AcDbEntity
  8
0
370
    35
390
0
 62
     7
 48
0.0625
100
AcDbLine
 10
66.283585
 20
87.856476
 30
0.0
 11
63.783585
 21
87.856476
 31
0.0
210
0.0
220
0.0
230
1.0
  0
LINE
  5
220
100
AcDbEntity
  8
0
370
    35
390
0
 62
     7
 48
0.1375
100
AcDbLine
 10
66.283585
 20
82.356476
 30
0.0
 11
66.283585
 21
87.856476
 31
0.0
210
0.0
220
0.0
230
1.0
  0
LINE
  5
221
100
AcDbEntity
  8
0
370
    35
390
0
 62
     7
 48
0.0625
100
AcDbLine
 10
66.283585
 20
82.356476
 30
0.0
 11
63.783585
 21
82.356476
 31
0.0
210
0.0
220
0.0
230
1.0
  0
LINE
  5
222
100
AcDbEntity
  8
0
370
    35
390
0
 62
     7
 48
0.075
100
AcDbLine
 10
63.783585
 20
82.356476
 30
0.0
 11
63.783585
 21
79.356476
 31
0.0
210
0.0
220
0.0
230
1.0
  0
ARC
  5
223
100
AcDbEntity
  8
0
370
    35
390
0
 62
     7
100
AcDbCircle
 10
73.783585
 20
103.356476
 30
0.0
 40
26.0
210
0.0
220
0.0
230
1.0
100
AcDbArc
 50
247.380132
 51
292.619863
  0
LINE
  5
224
100
AcDbEntity
  8
0
370
    35
390
0
 62
     7
 48
0.075
100
AcDbLine
 10
83.783585
 20
82.356476
 30
0.0
 11
83.783585
 21
79.356476
 31
0.0
210
0.0
220
0.0
230
1.0
  0
LINE
  5
225
100
AcDbEntity
  8
0
370
    35
390
0
 62
     7
 48
0.0625
100
AcDbLine
 10
81.283585
 20
82.356476
 30
0.0
 11
83.783585
 21
82.356476
 31
0.0
210
0.0
220
0.0
230
1.0
  0
CIRCLE
  5
226
100
AcDbEntity
  8
0
370
    35
390
0
 62
     4
100
AcDbCircle
 10
73.783585
 20
97.856476
 30
0.0
 40
2.25
210
0.0
220
0.0
230
1.0
  0
LINE
  5
227
100
AcDbEntity
  8
0
370
    35
390
0
 62
     7
 48
0.1375
100
AcDbLine
 10
107.616119
 20
82.147942
 30
0.0
 11
107.616119
 21
87.647942
 31
0.0
210
0.0
220
0.0
230
1.0
  0
LINE
  5
228
100
AcDbEntity
  8
0
370
    35
390
0
 62
     7
 48
0.0625
100
AcDbLine
 10
107.616119
 20
87.647942
 30
0.0
 11
110.116119
 21
87.647942
 31
0.0
210
0.0
220
0.0
230
1.0
  0
LINE
  5
229
100
AcDbEntity
  8
0
370
    35
390
0
 62
     7
 48
0.25
100
AcDbLine
 10
110.116119
 20
87.647942
 30
0.0
 11
110.116119
 21
97.647942
 31
0.0
210
0.0
220
0.0
230
1.0
  0
ARC
  5
22A
100
AcDbEntity
  8
0
370
    35
390
0
 62
     7
100
AcDbCircle
 10
100.116119
 20
97.647942
 30
0.0
 40
10.0
210
0.0
220
0.0
230
1.0
100
AcDbArc
 50
0.0
 51
179.999995
  0
LINE
  5
22B
100
AcDbEntity
  8
0
370
    35
390
0
 62
     7
 48
0.25
100
AcDbLine
 10
90.116119
 20
87.647942
 30
0.0
 11
90.116119
 21
97.647942
 31
0.0
210
0.0
220
0.0
230
1.0
  0
LINE
  5
22C
100
AcDbEntity
  8
0
370
    35
390
0
 62
     7
 48
0.0625
100
AcDbLine
 10
92.616119
 20
87.647942
 30
0.0
 11
90.116119
 21
87.647942
 31
0.0
210
0.0
220
0.0
230
1.0
  0
LINE
  5
22D
100
AcDbEntity
  8
0
370
    35
390
0
 62
     7
 48
0.1375
100
AcDbLine
 10
92.616119
 20
82.147942
 30
0.0
 11
92.616119
 21
87.647942
 31
0.0
210
0.0
220
0.0
230
1.0
  0
LINE
  5
22E
100
AcDbEntity
  8
0
370
    35
390
0
 62
     7
 48
0.0625
100
AcDbLine
 10
92.616119
 20
82.147942
 30
0.0
 11
90.116119
 21
82.147942
 31
0.0
210
0.0
220
0.0
230
1.0
  0
LINE
  5
22F
100
AcDbEntity
  8
0
370
    35
390
0
 62
     7
 48
0.075
100
AcDbLine
 10
90.116119
 20
82.147942
 30
0.0
 11
90.116119
 21
79.147942
 31
0.0
210
0.0
220
0.0
230
1.0
  0
ARC
  5
230
100
AcDbEntity
  8
0
370
    35
390
0
 62
     7
100
AcDbCircle
 10
100.116119
 20
103.147942
 30
0.0
 40
26.0
210
0.0
220
0.0
230
1.0
100
AcDbArc
 50
247.380132
 51
292.619863
  0
LINE
  5
231
100
AcDbEntity
  8
0
370
    35
390
0
 62
     7
 48
0.075
100
AcDbLine
 10
110.116119
 20
82.147942
 30
0.0
 11
110.116119
 21
79.147942
 31
0.0
210
0.0
220
0.0
230
1.0
  0
LINE
  5
232
100
AcDbEntity
  8
0
370
    35
390
0
 62
     7
 48
0.0625
100
AcDbLine
 10
107.616119
 20
82.147942
 30
0.0
 11
110.116119
 21
82.147942
 31
0.0
210
0.0
220
0.0
230
1.0
  0
CIRCLE
  5
233
100
AcDbEntity
  8
0
370
    35
390
0
 62
     4
100
AcDbCircle
 10
100.116119
 20
97.647942
 30
0.0
 40
2.25
210
0.0
220
0.0
230
1.0
  0
LINE
  5
234
100
AcDbEntity
  8
0
370
    35
390
0
 62
     7
 48
0.1375
100
AcDbLine
 10
107.626389
 20
117.471153
 30
0.0
 11
107.626389
 21
122.971153
 31
0.0
210
0.0
220
0.0
230
1.0
  0
LINE
  5
235
100
AcDbEntity
  8
0
370
    35
390
0
 62
     7
 48
0.0625
100
AcDbLine
 10
107.626389
 20
122.971153
 30
0.0
 11
110.126389
 21
122.971153
 31
0.0
210
0.0
220
0.0
230
1.0
  0
LINE
  5
236
100
AcDbEntity
  8
0
370
    35
390
0
 62
     7
 48
0.25
100
AcDbLine
 10
110.126389
 20
122.971153
 30
0.0
 11
110.126389
 21
132.971161
 31
0.0
210
0.0
220
0.0
230
1.0
  0
ARC
  5
237
100
AcDbEntity
  8
0
370
    35
390
0
 62
     7
100
AcDbCircle
 10
100.126389
 20
132.971161
 30
0.0
 40
10.0
210
0.0
220
0.0
230
1.0
100
AcDbArc
 50
0.0
 51
179.999995
  0
LINE
  5
238
100
AcDbEntity
  8
0
370
    35
390
0
 62
     7
 48
0.25
100
AcDbLine
 10
90.126389
 20
122.971153
 30
0.0
 11
90.126389
 21
132.971161
 31
0.0
210
0.0
220
0.0
230
1.0
  0
LINE
  5
239
100
AcDbEntity
  8
0
370
    35
390
0
 62
     7
 48
0.0625
100
AcDbLine
 10
92.626389
 20
122.971153
 30
0.0
 11
90.126389
 21
122.971153
 31
0.0
210
0.0
220
0.0
230
1.0
  0
LINE
  5
23A
100
AcDbEntity
  8
0
370
    35
390
0
 62
     7
 48
0.1375
100
AcDbLine
 10
92.626389
 20
117.471153
 30
0.0
 11
92.626389
 21
122.971153
 31
0.0
210
0.0
220
0.0
230
1.0
  0
LINE
  5
23B
100
AcDbEntity
  8
0
370
    35
390
0
 62
     7
 48
0.0625
100
AcDbLine
 10
92.626389
 20
117.471153
 30
0.0
 11
90.126389
 21
117.471153
 31
0.0
210
0.0
220
0.0
230
1.0
  0
LINE
  5
23C
100
AcDbEntity
  8
0
370
    35
390
0
 62
     7
 48
0.075
100
AcDbLine
 10
90.126389
 20
117.471153
 30
0.0
 11
90.126389
 21
114.471153
 31
0.0
210
0.0
220
0.0
230
1.0
  0
ARC
  5
23D
100
AcDbEntity
  8
0
370
    35
390
0
 62
     7
100
AcDbCircle
 10
100.126389
 20
138.471161
 30
0.0
 40
26.0
210
0.0
220
0.0
230
1.0
100
AcDbArc
 50
247.380132
 51
292.619863
  0
LINE
  5
23E
100
AcDbEntity
  8
0
370
    35
390
0
 62
     7
 48
0.075
100
AcDbLine
 10
110.126389
 20
117.471153
 30
0.0
 11
110.126389
 21
114.471153
 31
0.0
210
0.0
220
0.0
230
1.0
  0
LINE
  5
23F
100
AcDbEntity
  8
0
370
    35
390
0
 62
     7
 48
0.0625
100
AcDbLine
 10
107.626389
 20
117.471153
 30
0.0
 11
110.126389
 21
117.471153
 31
0.0
210
0.0
220
0.0
230
1.0
  0
CIRCLE
  5
240
100
AcDbEntity
  8
0
370
    35
390
0
 62
     4
100
AcDbCircle
 10
100.126389
 20
132.971161
 30
0.0
 40
2.25
210
0.0
220
0.0
230
1.0
  0
LINE
  5
241
100
AcDbEntity
  8
0
370
    35
390
0
 62
     7
 48
0.1375
100
AcDbLine
 10
345.741943
 20
41.251858
 30
0.0
 11
345.741943
 21
35.751858
 31
0.0
210
0.0
220
0.0
230
1.0
  0
LINE
  5
242
100
AcDbEntity
  8
0
370
    35
390
0
 62
     7
 48
0.1875
100
AcDbLine
 10
345.741943
 20
35.751858
 30
0.0
 11
353.241943
 21
35.751858
 31
0.0
210
0.0
220
0.0
230
1.0
  0
LINE
  5
243
100
AcDbEntity
  8
0
370
    35
390
0
 62
     7
 48
0.275
100
AcDbLine
 10
353.241943
 20
35.751858
 30
0.0
 11
353.241943
 21
46.751858
 31
0.0
210
0.0
220
0.0
230
1.0
  0
LINE
  5
244
100
AcDbEntity
  8
0
370
    35
390
0
 62
     7
 48
0.447388
100
AcDbLine
 10
353.241943
 20
46.751858
 30
0.0
 11
339.917267
 21
58.697678
 31
0.0
210
0.0
220
0.0
230
1.0
  0
ARC
  5
245
100
AcDbEntity
  8
0
370
    35
390
0
 62
     7
100
AcDbCircle
 10
333.241943
 20
51.251858
 30
0.0
 40
10.0
210
0.0
220
0.0
230
1.0
100
AcDbArc
 50
48.123215
 51
131.876787
  0
LINE
  5
246
100
AcDbEntity
  8
0
370
    35
390
0
 62
     7
 48
0.447388
100
AcDbLine
 10
313.241943
 20
46.751858
 30
0.0
 11
326.56662
 21
58.697678
 31
0.0
210
0.0
220
0.0
230
1.0
  0
LINE
  5
247
100
AcDbEntity
  8
0
370
    35
390
0
 62
     7
 48
0.275
100
AcDbLine
 10
313.241943
 20
35.751858
 30
0.0
 11
313.241943
 21
46.751858
 31
0.0
210
0.0
220
0.0
230
1.0
  0
LINE
  5
248
100
AcDbEntity
  8
0
370
    35
390
0
 62
     7
 48
0.1875
100
AcDbLine
 10
320.741943
 20
35.751858
 30
0.0
 11
313.241943
 21
35.751858
 31
0.0
210
0.0
220
0.0
230
1.0
  0
LINE
  5
249
100
AcDbEntity
  8
0
370
    35
390
0
 62
     7
 48
0.1375
100
AcDbLine
 10
320.741943
 20
41.251858
 30
0.0
 11
320.741943
 21
35.751858
 31
0.0
210
0.0
220
0.0
230
1.0
  0
LINE
  5
24A
100
AcDbEntity
  8
0
370
    35
390
0
 62
     7
100
AcDbLine
 10
320.741943
 20
41.251858
 30
0.0
 11
345.741943
 21
41.251858
 31
0.0
210
0.0
220
0.0
230
1.0
  0
LINE
  5
24B
100
AcDbEntity
  8
0
370
    35
390
0
 62
     4
 48
0.096706
100
AcDbLine
 10
337.110199
 20
51.251858
 30
0.0
 11
335.176056
 21
54.60186
 31
0.0
210
0.0
220
0.0
230
1.0
  0
LINE
  5
24C
100
AcDbEntity
  8
0
370
    35
390
0
 62
     4
 48
0.096706
100
AcDbLine
 10
335.176056
 20
47.901859
 30
0.0
 11
337.110199
 21
51.251858
 31
0.0
210
0.0
220
0.0
230
1.0
  0
LINE
  5
24D
100
AcDbEntity
  8
0
370
    35
390
0
 62
     4
 48
0.096706
100
AcDbLine
 10
331.307831
 20
47.901859
 30
0.0
 11
335.176056
 21
47.901859
 31
0.0
210
0.0
220
0.0
230
1.0
  0
LINE
  5
24E
100
AcDbEntity
  8
0
370
    35
390
0
 62
     4
 48
0.096706
100
AcDbLine
 10
329.373688
 20
51.251858
 30
0.0
 11
331.307831
 21
47.901859
 31
0.0
210
0.0
220
0.0
230
1.0
  0
LINE
  5
24F
100
AcDbEntity
  8
0
370
    35
390
0
 62
     4
 48
0.096706
100
AcDbLine
 10
331.307831
 20
54.60186
 30
0.0
 11
329.373688
 21
51.251858
 31
0.0
210
0.0
220
0.0
230
1.0
  0
LINE
  5
250
100
AcDbEntity
  8
0
370
    35
390
0
 62
     4
 48
0.096706
100
AcDbLine
 10
335.176056
 20
54.60186
 30
0.0
 11
331.307831
 21
54.60186
 31
0.0
210
0.0
220
0.0
230
1.0
  0
LINE
  5
251
100
AcDbEntity
  8
0
370
    35
390
0
 62
     7
 48
0.1375
100
AcDbLine
 10
319.234833
 20
177.224106
 30
0.0
 11
319.234833
 21
182.724106
 31
0.0
210
0.0
220
0.0
230
1.0
  0
LINE
  5
252
100
AcDbEntity
  8
0
370
    35
390
0
 62
     7
 48
0.1875
100
AcDbLine
 10
319.234833
 20
182.724106
 30
0.0
 11
311.734833
 21
182.724106
 31
0.0
210
0.0
220
0.0
230
1.0
  0
LINE
  5
253
100
AcDbEntity
  8
0
370
    35
390
0
 62
     7
 48
0.275
100
AcDbLine
 10
311.734833
 20
182.724106
 30
0.0
 11
311.734833
 21
171.724106
 31
0.0
210
0.0
220
0.0
230
1.0
  0
LINE
  5
254
100
AcDbEntity
  8
0
370
    35
390
0
 62
     7
 48
0.447388
100
AcDbLine
 10
311.734833
 20
171.724106
 30
0.0
 11
325.059509
 21
159.77829
 31
0.0
210
0.0
220
0.0
230
1.0
  0
ARC
  5
255
100
AcDbEntity
  8
0
370
    35
390
0
 62
     7
100
AcDbCircle
 10
331.734833
 20
167.224106
 30
0.0
 40
10.0
210
0.0
220
0.0
230
1.0
100
AcDbArc
 50
228.123213
 51
311.876785
  0
LINE
  5
256
100
AcDbEntity
  8
0
370
    35
390
0
 62
     7
 48
0.447388
100
AcDbLine
 10
351.734833
 20
171.724106
 30
0.0
 11
338.410156
 21
159.77829
 31
0.0
210
0.0
220
0.0
230
1.0
  0
LINE
  5
257
100
AcDbEntity
  8
0
370
    35
390
0
 62
     7
 48
0.275
100
AcDbLine
 10
351.734833
 20
182.724106
 30
0.0
 11
351.734833
 21
171.724106
 31
0.0
210
0.0
220
0.0
230
1.0
  0
LINE
  5
258
100
AcDbEntity
  8
0
370
    35
390
0
 62
     7
 48
0.1875
100
AcDbLine
 10
344.234833
 20
182.724106
 30
0.0
 11
351.734833
 21
182.724106
 31
0.0
210
0.0
220
0.0
230
1.0
  0
LINE
  5
259
100
AcDbEntity
  8
0
370
    35
390
0
 62
     7
 48
0.1375
100
AcDbLine
 10
344.234833
 20
177.224106
 30
0.0
 11
344.234833
 21
182.724106
 31
0.0
210
0.0
220
0.0
230
1.0
  0
LINE
  5
25A
100
AcDbEntity
  8
0
370
    35
390
0
 62
     7
100
AcDbLine
 10
344.234833
 20
177.224106
 30
0.0
 11
319.234833
 21
177.224106
 31
0.0
210
0.0
220
0.0
230
1.0
  0
LINE
  5
25B
100
AcDbEntity
  8
0
370
    35
390
0
 62
     4
 48
0.096707
100
AcDbLine
 10
327.866577
 20
167.224106
 30
0.0
 11
329.80072
 21
163.8741
 31
0.0
210
0.0
220
0.0
230
1.0
  0
LINE
  5
25C
100
AcDbEntity
  8
0
370
    35
390
0
 62
     4
 48
0.096707
100
AcDbLine
 10
329.80072
 20
170.574112
 30
0.0
 11
327.866577
 21
167.224106
 31
0.0
210
0.0
220
0.0
230
1.0
  0
LINE
  5
25D
100
AcDbEntity
  8
0
370
    35
390
0
 62
     4
 48
0.096706
100
AcDbLine
 10
333.668945
 20
170.574112
 30
0.0
 11
329.80072
 21
170.574112
 31
0.0
210
0.0
220
0.0
230
1.0
  0
LINE
  5
25E
100
AcDbEntity
  8
0
370
    35
390
0
 62
     4
 48
0.096707
100
AcDbLine
 10
335.603088
 20
167.224106
 30
0.0
 11
333.668945
 21
170.574112
 31
0.0
210
0.0
220
0.0
230
1.0
  0
LINE
  5
25F
100
AcDbEntity
  8
0
370
    35
390
0
 62
     4
 48
0.096707
100
AcDbLine
 10
333.668945
 20
163.8741
 30
0.0
 11
335.603088
 21
167.224106
 31
0.0
210
0.0
220
0.0
230
1.0
  0
LINE
  5
260
100
AcDbEntity
  8
0
370
    35
390
0
 62
     4
 48
0.096706
100
AcDbLine
 10
329.80072
 20
163.8741
 30
0.0
 11
333.668945
 21
163.8741
 31
0.0
210
0.0
220
0.0
230
1.0
  0
LINE
  5
261
100
AcDbEntity
  8
0
370
    35
390
0
 62
     7
 48
0.1375
100
AcDbLine
 10
155.914963
 20
179.529266
 30
0.0
 11
155.914963
 21
185.029266
 31
0.0
210
0.0
220
0.0
230
1.0
  0
LINE
  5
262
100
AcDbEntity
  8
0
370
    35
390
0
 62
     7
 48
0.1875
100
AcDbLine
 10
155.914963
 20
185.029266
 30
0.0
 11
148.414963
 21
185.029266
 31
0.0
210
0.0
220
0.0
230
1.0
  0
LINE
  5
263
100
AcDbEntity
  8
0
370
    35
390
0
 62
     7
 48
0.275
100
AcDbLine
 10
148.414963
 20
185.029266
 30
0.0
 11
148.414963
 21
174.029266
 31
0.0
210
0.0
220
0.0
230
1.0
  0
LINE
  5
264
100
AcDbEntity
  8
0
370
    35
390
0
 62
     7
 48
0.447388
100
AcDbLine
 10
148.414963
 20
174.029266
 30
0.0
 11
161.739655
 21
162.08345
 31
0.0
210
0.0
220
0.0
230
1.0
  0
ARC
  5
265
100
AcDbEntity
  8
0
370
    35
390
0
 62
     7
100
AcDbCircle
 10
168.414963
 20
169.529266
 30
0.0
 40
10.0
210
0.0
220
0.0
230
1.0
100
AcDbArc
 50
228.123213
 51
311.876785
  0
LINE
  5
266
100
AcDbEntity
  8
0
370
    35
390
0
 62
     7
 48
0.447388
100
AcDbLine
 10
188.414963
 20
174.029266
 30
0.0
 11
175.090271
 21
162.08345
 31
0.0
210
0.0
220
0.0
230
1.0
  0
LINE
  5
267
100
AcDbEntity
  8
0
370
    35
390
0
 62
     7
 48
0.275
100
AcDbLine
 10
188.414963
 20
185.029266
 30
0.0
 11
188.414963
 21
174.029266
 31
0.0
210
0.0
220
0.0
230
1.0
  0
LINE
  5
268
100
AcDbEntity
  8
0
370
    35
390
0
 62
     7
 48
0.1875
100
AcDbLine
 10
180.914963
 20
185.029266
 30
0.0
 11
188.414963
 21
185.029266
 31
0.0
210
0.0
220
0.0
230
1.0
  0
LINE
  5
269
100
AcDbEntity
  8
0
370
    35
390
0
 62
     7
 48
0.1375
100
AcDbLine
 10
180.914963
 20
179.529266
 30
0.0
 11
180.914963
 21
185.029266
 31
0.0
210
0.0
220
0.0
230
1.0
  0
LINE
  5
26A
100
AcDbEntity
  8
0
370
    35
390
0
 62
     7
100
AcDbLine
 10
180.914963
 20
179.529266
 30
0.0
 11
155.914963
 21
179.529266
 31
0.0
210
0.0
220
0.0
230
1.0
  0
LINE
  5
26B
100
AcDbEntity
  8
0
370
    35
390
0
 62
     4
 48
0.096706
100
AcDbLine
 10
164.546722
 20
169.529266
 30
0.0
 11
166.480835
 21
166.17926
 31
0.0
210
0.0
220
0.0
230
1.0
  0
LINE
  5
26C
100
AcDbEntity
  8
0
370
    35
390
0
 62
     4
 48
0.096706
100
AcDbLine
 10
166.480835
 20
172.879272
 30
0.0
 11
164.546722
 21
169.529266
 31
0.0
210
0.0
220
0.0
230
1.0
  0
LINE
  5
26D
100
AcDbEntity
  8
0
370
    35
390
0
 62
     4
 48
0.096706
100
AcDbLine
 10
170.349091
 20
172.879272
 30
0.0
 11
166.480835
 21
172.879272
 31
0.0
210
0.0
220
0.0
230
1.0
  0
LINE
  5
26E
100
AcDbEntity
  8
0
370
    35
390
0
 62
     4
 48
0.096706
100
AcDbLine
 10
172.283203
 20
169.529266
 30
0.0
 11
170.349091
 21
172.879272
 31
0.0
210
0.0
220
0.0
230
1.0
  0
LINE
  5
26F
100
AcDbEntity
  8
0
370
    35
390
0
 62
     4
 48
0.096706
100
AcDbLine
 10
170.349091
 20
166.17926
 30
0.0
 11
172.283203
 21
169.529266
 31
0.0
210
0.0
220
0.0
230
1.0
  0
LINE
  5
270
100
AcDbEntity
  8
0
370
    35
390
0
 62
     4
 48
0.096706
100
AcDbLine
 10
166.480835
 20
166.17926
 30
0.0
 11
170.349091
 21
166.17926
 31
0.0
210
0.0
220
0.0
230
1.0
  0
ENDSEC
  0
SECTION
  2
OBJECTS
  0
DICTIONARY
  5
19
100
AcDbDictionary
280
     0
281
     1
  3
ACAD_GROUP
350
1A
  3
ACAD_MLINESTYLE
350
1B
  3
ACAD_LAYOUT
350
1E
  3
ACAD_PLOTSETTINGS
350
22
  3
ACAD_PLOTSTYLENAME
350
1F
  3
ACAD_WIPEOUT_VARS
350
23
  0
DICTIONARY
  5
1A
102
{ACAD_REACTORS
330
19
102
}
100
AcDbDictionary
280
     0
281
     1
  0
DICTIONARY
  5
1B
102
{ACAD_REACTORS
330
19
102
}
100
AcDbDictionary
280
     0
281
     1
  3
Standard
350
1C
  0
MLINESTYLE
  5
1C
102
{ACAD_REACTORS
330
1B
102
}
100
AcDbMlineStyle
  2
Standard
 70
     0
  3

 62
     0
 51
90.0
 52
90.0
 71
     2
 49
0.5
 62
   256
  6
ByLayer
 49
-0.5
 62
   256
  6
ByLayer
  0
ACDBDICTIONARYWDFLT
  5
1F
102
{ACAD_REACTORS
330
19
102
}
100
AcDbDictionary
281
     1
  3
Normal
350
1D
100
AcDbDictionaryWithDefault
340
1D
  0
ACDBPLACEHOLDER
  5
1D
102
{ACAD_REACTORS
330
1F
102
}
  0
LAYOUT
  5
20
102
{ACAD_REACTORS
330
1E
102
}
100
AcDbPlotSettings
  1

  2

  4

  6

 40
0.0
 41
0.0
 42
0.0
 43
0.0
 44
0.0
 45
0.0
 46
0.0
 47
0.0
 48
0.0
 49
0.0
140
0.0
141
0.0
142
1.0
143
1.0
 70
  1024
 72
     0
 73
     0
 74
     0
  7

 75
     0
147
1.0
148
0.0
149
0.0
100
AcDbLayout
  1
Model
 70
     0
 71
     0
 10
0.0
 20
0.0
 11
0.0
 21
0.0
 12
0.0
 22
0.0
 32
0.0
 14
0.0
 24
0.0
 34
0.0
 15
0.0
 25
0.0
 35
0.0
146
0.0
 13
0.0
 23
0.0
 33
0.0
 16
0.0
 26
0.0
 36
0.0
 17
0.0
 27
0.0
 37
0.0
 76
     0
330
A
331
0
345
0
346
0
  0
LAYOUT
  5
21
102
{ACAD_REACTORS
330
1E
102
}
100
AcDbPlotSettings
  1

  2

  4

  6

 40
0.0
 41
0.0
 42
0.0
 43
0.0
 44
0.0
 45
0.0
 46
0.0
 47
0.0
 48
0.0
 49
0.0
140
0.0
141
0.0
142
1.0
143
1.0
 70
     0
 72
     0
 73
     0
 74
     0
  7

 75
     0
147
1.0
148
0.0
149
0.0
100
AcDbLayout
  1
Layout1
 70
     0
 71
     0
 10
0.0
 20
0.0
 11
0.0
 21
0.0
 12
0.0
 22
0.0
 32
0.0
 14
0.0
 24
0.0
 34
0.0
 15
0.0
 25
0.0
 35
0.0
146
0.0
 13
0.0
 23
0.0
 33
0.0
 16
0.0
 26
0.0
 36
0.0
 17
0.0
 27
0.0
 37
0.0
 76
     0
330
B
331
0
345
0
346
0
  0
DICTIONARY
  5
1E
102
{ACAD_REACTORS
330
19
102
}
100
AcDbDictionary
280
     0
281
     1
  3
Layout1
350
21
  3
Model
350
20
  0
DICTIONARY
  5
22
102
{ACAD_REACTORS
330
19
102
}
100
AcDbDictionary
280
     0
281
     1
  0
WIPEOUTVARIABLES
  5
23
100
AcDbWipeoutVariables
 70
     1
  0
ENDSEC
  0
EOF
